<?xml version="1.0" encoding="utf-8"?>
<!-- Generator: Adobe Illustrator 19.0.0, SVG Export Plug-In . SVG Version: 6.00 Build 0)  -->
<svg version="1.1" id="Layer_1" xmlns="http://www.w3.org/2000/svg" xmlns:xlink="http://www.w3.org/1999/xlink" x="0px" y="0px"
	 viewBox="0 0 2280 3312" style="enable-background:new 0 0 2280 3312;" xml:space="preserve">
<style type="text/css">
	.st0{fill:#FFFFFF;}
</style>
<g id="XMLID_175_">
	<path id="XMLID_224_" class="st0" d="M521.2,2744.4c-4.4,3.8-7,6.1-10.6,9.3c-1.6-4.1-2.9-7.2-4.3-10.9c8.7-3,13.1-8.8,16.4-16.7
		c-7.2-2.2-12.6,2.2-18,4.2c-19.6,7.3-38.7,16.2-58.3,23.5c-13.3,5-27.3,8.5-40.9,12.9c-3,1-5.7,2.9-8.4,4.6c-1.6,1-3.1,2.2-4.7,3.4
		c-9.1-4.9-12.8-11.7-13.2-21.9c-0.8-21.6-3.5-43.1-4.6-64.7c-0.9-19.9-0.7-39.9-1-59.9c-0.2-17.8,5-34.8,7.1-52.2
		c2.7-22.8,3.8-45.8,4.1-68.7c0.2-13.7,1-26.9,4.5-40.3c2.7-10.5,3.6-21.7,3.6-32.5c-0.1-14.9,1.5-29.2,6.9-43.1
		c2.9-7.4,5.2-15.1,7.4-22.8c5.4-19,13.2-36.9,22.7-54.2c16.2-29.5,32-59.1,47.8-88.8c2.3-4.4,4.2-9.1,6-13.7
		c7-19,14.3-38,20.5-57.3c2.6-8.1,2.9-17,4.3-25.5c1.5-8.5,2-17.4,4.9-25.4c5.4-15,7.5-30.4,7.3-46.1c-0.3-21.1,5-40.8,11.6-60.5
		c2.7-8.2,5.8-16.3,8.6-24.5c0.5-1.4,0.5-3,1-6c-10.8,3.3-20.6,6-30.2,9.3c-17.9,6.1-33.6,15.9-47.1,29.3
		c-15.4,15.2-31.4,29.8-46.3,45.6c-16,16.9-30.8,34.9-46.2,52.4c-12.5,14.3-25.3,28.3-37.2,43c-16,19.6-31.4,39.6-42.2,62.8
		c-9.4,20.2-17.3,40.9-23.4,62.4c-2.5,8.9-6.9,17.2-9.9,26c-6.7,19.5-13.4,38.9-19.6,58.6c-11.3,36.1-23.9,71.8-36.4,107.5
		c-13.1,37.5-29.4,73.5-45.4,109.7c-7.8,17.6-14.3,35.8-20.4,54.1c-9.6,29-18.5,58.2-27.5,87.4c-1,3.1-1.3,6.5-1.9,9.7
		c-1.2,6-4,7.9-9.8,7c-8.8-1.4-11.9-8.4-8.9-16.7c7.3-20.3,13.9-40.9,20.8-61.4c7.3-21.7,14.7-43.4,22.2-65c2-5.9,4.1-11.9,6.6-17.6
		c15.2-34.7,31.7-69,45.4-104.3c12.4-31.9,21.8-64.9,32.5-97.5c8.9-27.2,18.4-54.1,29.7-80.5c9-21,16.1-42.9,24.5-64.3
		c7.4-18.9,15.9-37.1,28.5-53.5c6.8-8.8,12.3-18.8,19.7-27.3c12.9-14.8,25.5-29.9,38.5-44.5c17.7-19.9,35.3-39.8,53.5-59.2
		c11.8-12.6,24.5-24.4,37.1-36.3c7.5-7,15.3-13.8,23.4-20.1c19.2-14.9,41.3-22.3,65.4-24.5c2-0.2,4-0.3,5.9-0.7
		c0.9-0.2,1.8-0.7,4-1.7c2.9-12.9,6.5-26.3,8.9-40c3.4-19.5,9.7-38,17.4-56.1c9.3-22,18.6-44.1,27.8-66.1
		c3.5-8.2,5.4-17.5,10.4-24.6c8.2-11.7,13.3-25.2,23.4-35.8c6.8-7.2,11.3-16.5,17.7-24.1c5.7-6.8,12.4-12.8,19.1-18.7
		c4.8-4.1,10.3-7.3,15.5-11c10.5-7.3,17-17.6,21.5-29.3c1.2-3,1.4-6.4,1.8-9.7c2.8-18.7,4.7-37.7,8.5-56.2
		c3.1-15.1,4.2-30.3,5.2-45.6c1.3-21.6,3.5-43.1,4.9-64.7c0.7-10.3,1.6-20.7,0.6-30.9c-2.1-23.4,0.6-46.5,2.5-69.7
		c0.3-3.3,0.6-6.6,0.6-10c0-48.3,0.3-96.6-0.3-144.9c-0.3-25.6-2.5-51.2-3.4-76.8c-0.8-22.3-0.4-44.4,4.5-66.6
		c5.6-25,8.7-50.5,12.8-75.8c1.1-7,3.8-9,9.8-7.4c4.5,1.2,4.5,4.6,4.1,7.9c-1.7,14.2-3,28.5-5.4,42.6c-3.7,22-10,43.5-8.9,66.1
		c0.8,18.6,1.9,37.2,2.9,55.9c1.4,26.2,3.4,52.4,4.1,78.7c0.6,24-0.3,48-0.4,71.9c-0.1,19,0.1,38-0.3,57
		c-0.2,12.6-1.4,25.2-1.9,37.9c-0.3,7.2,0,14.5,0,22c12.5,1.7,23.9-0.6,35.4-1.8c20.5-2.3,40.9-4.7,61.3-7.5
		c12.8-1.8,25.5-4.2,38.2-6.6c18.9-3.6,37.7-7.7,56.6-11.1c11.7-2.1,23.9-1.4,35.1-6.4c1.1-0.5,2.7-0.4,3.9-0.1
		c5.4,1.3,12.2,11.6,11.6,17.3c-0.7,6.1-8.3,12.3-15.5,11.1c-18.5-3-36.5,1.2-54.5,4c-37.5,5.8-74.7,13.1-112.8,14
		c-17.9,0.4-35.9,2.7-53.8,4.2c-1.3,0.1-2.5,0.7-4,1.1c-0.9,12.1-1.7,24-2.7,35.9c-0.5,6.3-1.6,12.5-2.2,18.8
		c-2,19.5-3.7,39-6.1,58.4c-1.2,9.9-2.4,19.9-5.3,29.4c-5.4,17.7-5.8,36.1-8.4,54.2c-0.4,2.6,1,5.7,2.2,8.3c3.7,8.2,1.1,16-5.3,22.3
		c-12.1,11.9-27.1,18.9-41.2,27.5c-6.7,4.1-13.6,9.1-18.1,15.4c-14.3,20-28,40.5-41,61.4c-4.8,7.8-7,17.2-10.5,25.8
		c-7.6,18.4-14.6,37.1-23.1,55.2c-9.9,21-15.7,43.2-20.4,65.6c-3.7,17.4-8.9,34-15.7,50.3c-7.6,18.1-13.9,36.7-16.3,56.3
		c-0.6,4.9-1.3,9.9-1.2,14.9c0.1,21.1-2,41.8-9,61.9c-2.1,5.9-2.8,12.3-3.3,18.6c-1.5,17-5.5,33.4-12.3,49.1
		c-2.4,5.5-4.8,11-6.7,16.7c-8.4,25.8-20.9,49.6-34.3,73c-12,21.1-24,42.3-34.3,64.3c-7.3,15.6-12.3,32.3-17.6,48.7
		c-3.7,11.3-6.4,23-9.3,34.6c-0.7,2.5-0.6,5.3-0.8,7.9c-1.6,16.5-3.4,33.1-4.8,49.6c-0.9,10.6-1.2,21.2-1.9,31.8
		c-1.4,19.2-2.4,38.5-4.5,57.7c-2.1,18.8-6.4,37.5-8,56.3c-1.5,17.9-1.5,35.9-0.7,53.9c1.1,24.3,3.7,48.5,5.7,72.7
		c0.2,2.9,1.1,5.8,1.6,9c6.8,1.2,12.8-0.9,18.6-3c26.8-10,53.5-20.4,80.2-30.6c6.2-2.4,12.4-4.8,18.7-7.1c5.3-2,10.2-3.5,13.1-9.6
		c2.5-5.3,6.9-5.9,11.3-2c2.9,2.5,5.4,1.8,8.2,1.3c30.6-6.2,61.1-13.3,91.9-18.5c22.6-3.8,45.6-5.7,68.5-7.5
		c33.2-2.7,66.4-4.5,99.6-6.8c14-1,27.9-2.2,41.8-3.3c3.8-0.3,6.8-1.4,9.5-4.4c8.3-9.3,11.6-8.8,19.5,2.4c16.6-1.5,33.9-2.9,51-4.8
		c16.9-1.9,33.7-4.2,50.5-6.8c30.9-4.8,61.8-10,92.7-14.8c33.2-5.2,66.5-10.2,99.7-15c35.6-5.1,71.2-9.7,106.7-15
		c8.2-1.2,16.1-4.1,24.1-6.3c16-4.3,32.1-8.6,48.1-13.1c19.5-5.4,38.9-10.9,59.7-16.7c-1.2-21.8-1.1-43.5-3.9-64.8
		c-3.7-28.1-13.6-54.8-23.5-81.3c-10-26.9-14.2-54.7-13.6-83.2c0.4-21.9,2.3-43.9,2.2-65.8c-0.1-25.3-1.6-50.5-2.5-75.8
		c-0.8-22.9-1.2-45.9-2.5-68.8c-1.7-29.5-1.6-59.1-5.7-88.6c-2.6-18.7-5.9-37.4-8.2-56.1c-1.1-8.8-4-17.4-6.5-26
		c-4.1-14.3-8.5-28.6-12.8-42.9c-0.5-1.6-1-3.2-1.6-4.7c-12-29.6-21.2-60.1-30.2-90.7c-8-27-16-54.1-25-80.9
		c-8.1-24.2-21.9-45.5-37.3-65.8c-7.4-9.8-15-19.3-24-28c-13.1-12.5-28.3-21.1-44.7-27.6c-26.2-10.4-52.8-20.1-79.6-29.1
		c-13.5-4.5-27.6-7-41.5-10.1c-5.3-1.2-10-0.4-14.9,3.4c-7.2,5.6-15.2,4.4-20.7-1c-3.2-3.1-3.9-6.8-1.8-9.9
		c7.8-11,6.5-23.5,6.6-35.6c0.3-31.5-5-62.3-13.3-92.5c-7.9-28.7-12.5-57.9-15.1-87.5c-3.6-40.5-7.1-80.9-10.1-121.4
		c-2.9-40.3-0.6-80.6,0.9-120.8c1-26.6,0.9-53.2,1.4-79.9c0.1-2.9,0.9-5.8,1.5-9.6c-6.2,1.3-10,6.1-14.7,9.2
		c-11.4,7.4-22.6,15.1-33.9,22.7c-1.6,1.1-4.3,2-4.6,3.4c-1.5,6.8-6.9,6.9-11.7,6.5c-5.9-0.4-12.1-1.1-17.5-3.2
		c-36.2-14.4-71.8-30.4-104.7-51.5c-34.7-22.1-66.1-48.2-94.3-78.3c-19.2-20.5-34.2-44.2-51.1-66.5c-20.3-26.9-37.2-56-55.3-84.3
		c-8.2-12.9-14.6-26.9-21.8-40.4c-1.4-2.5-2.8-5-5.2-7.4c-1.5,3.8-0.3,7.4,0.3,10.9c6.2,31.7,9.6,63.7,11.8,95.8
		c0.7,10.5-6.7,16.6-17.9,14.9c-2.3,8.8-4.5,17.6-6.8,26.6c5-0.7,8.8-1.8,12.6-1.7c4.1,0.2,7.9,1.8,8.7,6.7
		c0.6,3.4-2.7,8.9-6.7,10.2c-3.1,0.9-6.6,1.4-9.7,0.8c-18-3.4-35.9-7-53.7-11.1c-4-0.9-8.6-3.1-10.9-6.2
		c-11.8-15.8-15.4-32.2-7.3-50.5c4.6-10.3,14.2-13.4,23.6-16.7c3.1-1.1,6.5-1.5,9.6-2.7c8-3,15.9-2.1,23.2,1.5
		c2.9,1.4,5.3,4.9,6.9,8c3.2,6.1,5.7,12.6,10,19c0-2,0.2-4,0-5.9c-0.8-8.6-1.6-17.2-2.7-25.8c-0.6-4.5-0.6-9.3-5.2-12.4
		c-1.3-0.9-1.8-3.5-2-5.3c-1.4-10.5-2.5-21.1-3.9-33c-4,5.7-2.5,10.8-2.9,15.6c-0.4,5.2,0.3,10.6-4.1,14.9c-2.9,2.9-5.8,4.8-9.7,3.6
		c-4.5-1.4-5.5-5.3-5.4-9.6c0.1-4,0.3-8,0.1-12c-0.2-2.6-0.2-5.9-1.8-7.6c-4.5-4.9-3.7-10.1-3-15.9c1.2-11.5,1.1-23.1-2.6-34.7
		c-6-0.2-9.7,3.3-13.4,6.4c-14.1,11.6-21.9,27.2-28,44.1c-8.6,23.8-12.7,48.3-11.1,73.5c2.5,38,15.5,71.3,44.6,97.1
		c10,8.9,21.7,14,35.2,14.6c8.1,0.3,14.9-3.4,21.3-7.5c10.9-7,21.4-14.7,32.2-21.9c6.1-4.1,9.8-9.7,11.7-16.8c1.9-6.8,4.6-9,10-9.1
		c4.4-0.1,10.9,4.1,12.5,8.6c1.5,4.1,0.5,7.5-2.4,11c-17,20.9-39.4,34.4-62.9,46.3c-12.5,6.3-25.9,5.7-38.9,1.4
		c-23.9-7.8-40.4-24.5-54.3-44.7c-9.8-14.2-16.1-30-21.4-46c-2.9-8.9-2.8-19-3.4-28.6c-1.4-23.8,0.5-47.3,8.2-70
		c7.5-21.9,17.6-42.4,35.1-58.4c7-6.4,14.4-11.5,24.1-12.8c0-9.2,0.2-18.1-0.1-27c-0.4-12.4-2.5-24.5-6.9-36.1
		c-2.2-5.8-5.6-11.2-8.3-16.9c-7.4-16-14.4-32.2-25.2-46.4c-2.2-2.8-4.6-5.5-8.1-9.5c-0.8,4.6-1.4,7.6-2.3,12.8
		c-1.2-4.7-1.7-7.4-2.5-10c-0.7-2.1-1.4-4.4-2.8-6c-4.7-5.1-3.6-11.3,3.1-13.1c4.6-1.2,9.4-1.2,13.1,2.5c4.9,4.9,9.8,9.9,14.5,15.1
		c2.4,2.7,4.4,5.8,6.9,9.1c5.5-4.7,4.5-10.2,4-15.8c-1.6-16.9-3.5-33.8-4.3-50.7c-0.6-12.4,1.3-24.6,9.2-35.1
		c1.6-2.2,2.2-5.6,2.4-8.4c1.5-23.4,5.8-46.2,11.7-68.8c2.6-10,5.5-19.9,9.1-29.5c3-7.9,3.3-16,4.3-24.2c1.9-14.7,5.4-29.2,8.7-43.7
		c0.6-2.7,2.8-5.4,4.8-7.4c5.8-5.7,11.1-5.5,16.6,0.8c2.8,3.1,4.9,6.9,7,10.5c2.3,4.1,3.7,8.6,9.5,9c4,0.3,3.9,3.8,3.9,6.9
		c0,7.6,0,15.1,0,25c2-3.2,3.5-4.7,3.8-6.5c2.4-13,3.5-26.4,7-39.2c5.3-19.1,10-38.8,25-53.5c7.1-6.9,9.3-6.8,14.7,1.6
		c1.7,2.6,4.7,4.5,7.8,7.4c-1.8,24.8-3.7,50.5-5.5,76.3c0.3,0.1,0.6,0.3,0.9,0.4c1.4-2.8,3.4-5.4,4.2-8.3c5.1-19.6,9.2-39.5,15-58.8
		c3.1-10.4,8.2-20.3,13.7-29.7c4.6-7.9,8.4-15.7,9.4-24.9c1.9-17.5,8.5-33.5,16.5-48.9c1.9-3.6,5.4-7,8.9-9.1
		c5.6-3.3,10.2-0.6,11.3,6c0.5,3,1.2,6,1.9,10.1c12.4-14.7,12.4-14.7,20.5-14.1c5.5,8.6-2.8,19,3.2,28.3c2.5-1.9,4.5-3.6,6.6-5
		c6-3.8,10.2-1.7,11.2,5.4c0,0.3,0,0.7,0.1,1c1.6,20.6,3.2,41.1,4.9,61.7c0.2,1.9,0.7,3.8,2.8,6.1c0.9-2.8,2.1-5.6,2.8-8.5
		c2.3-10,4.4-20.1,6.5-30.2c1.2-5.8,2.1-11.7,3.3-17.6c1.9-9.7,6.8-18,13.1-25.4c1.4-1.7,5.5-2.3,7.8-1.6c1.8,0.5,3.6,3.6,4.1,5.8
		c0.4,2.4-0.4,5.3-1.2,7.7c-6.2,17-10.3,34.4-12.2,52.4c-0.6,5.2-2.6,10.3-3.6,15.5c-1.1,5.4-1.7,10.9-2.7,17.3
		c5.7-1.9,7.8-5.2,8.8-9.2c1.4-5.5,3-11,3.7-16.5c2.5-19.7,9.2-38.1,17.2-56c1.5-3.3,3.8-6.2,5.8-9.3c4.5-6.7,7.4-13.9,9.2-21.9
		c2.8-13,6.5-25.7,16.1-35.8c4.5-4.7,6.8-4,10.1,1.8c9.7,17.1,7,35.2,4.5,53.2c-1.7,11.8-4.4,23.5-6.5,35.3
		c-0.5,2.7-0.1,5.6,1.4,8.7c3.4-10.9,7.1-21.8,10-32.9c2.7-10.2,7.1-19.2,14.4-27c3.1-3.3,5-7.9,8-11.4c6.4-7.6,12.4-15.8,19.8-22.3
		c9.2-8.1,16.9-4.5,18.3,7.9c0.6,5.2-0.2,10.5,5.9,13.5c1.3,0.6,1.2,5,0.9,7.5c-2.9,28.1-0.8,55.9,3.6,83.6c0.1,0.6,0.6,1.1,1.8,2.9
		c0.6-3,1.3-4.9,1.4-6.8c1.2-20.9,3.3-41.8,8.5-62.2c1-3.9,3.9-7.5,6.8-10.5c1.5-1.5,5.4-2.3,7.1-1.4c1.8,0.9,2.6,4.2,3.2,6.7
		c0.3,1.4-0.7,3.2-0.9,4.8c-2.8,21.1-6,42.1-8.2,63.3c-1,9.8-0.2,9.9,9.3,11c4.3,0.5,8.6,1.1,12.8,1.6c0.3,0,0.6-0.3,1.9-0.8
		c8.2-24.1,6.8-52.2,24-74.2c10.2,1.2,12.3,3.8,8.8,13.2c-6.6,17.8-8.5,36.2-9.1,54.9c-0.3,11.5,0.3,12.2,11.8,14
		c1.3,0.2,2.6,0,4.4,0c1.1-2.7,2.5-5.3,3.3-8.1c3.9-14.4,7-29,11.8-43.1c4.9-14.4,10.9-28.5,17.2-42.4c2.3-5,6.5-9.2,10.3-13.4
		c1.3-1.5,4.6-3.3,5.7-2.6c2.3,1.3,4,3.9,5.6,6.3c0.6,0.9,0.3,2.7-0.1,3.9c-5.4,13.6-5.1,28.1-6.7,42.3c-1.3,11.2-2.3,22.5-3.4,33.8
		c-0.1,1.2,0.3,2.4,0.7,6.1c5.8-16.1,9.8-30.5,16.2-43.7c6.3-13.1,15-25,22.8-37.7c10.5-1.6,14.5,2.5,10.2,12.4
		c-12.4,28.4-16.8,58.7-21.6,88.9c-0.9,5.6-2.3,11.1-3.1,16.7c-0.7,4.9-0.8,9.8-1.1,14.7c0.7,0.3,1.4,0.5,2.1,0.8
		c1.1-1.9,2.5-3.8,3.2-5.9c9.9-29.6,19.5-59.4,29.4-89c6.2-18.6,12.4-37.2,19.1-55.6c3.5-9.6,7.3-12.3,12-10.6
		c4.3,1.6,4.2,7.8,1.3,16.2c-7.3,21-15.5,41.9-20.8,63.4c-5.5,21.9-8.1,44.5-11.8,66.9c-0.3,1.9,0,3.9,1.3,6.2
		c2-6.6,4.3-13.2,6.1-19.9c5.1-19.4,13.2-37.6,21.3-55.9c6-13.7,12.1-27.4,21.4-39.4c4.5-5.9,9.4-11.1,16.2-14.6
		c2.8,1.3,5.4,2.6,8.4,4.1c2.5-2.3,4.8-4.4,7-6.5c8.7,4,10.4,7.5,6.7,15.4c-3.8,8.1-8.3,16-12.4,23.9c-1.6,3.1-3.1,6.2-3.2,10.2
		c4.5-3.7,8.8-7.7,13.5-11.2c8-5.9,8.1-5.8,17.6,0.2c1.8,15.7-3.8,30.1-9.7,44.1c-6.2,14.7-14,28.7-20.7,43.2
		c-3.6,7.8-6.4,16-9.5,24.1c-0.5,1.4-0.3,3.1,0.9,5.1c1.5-2.8,3.2-5.5,4.6-8.3c13-25.5,26-51,39-76.5c1.9-3.7,3.8-7.4,8.9-5.7
		c4.9,1.6,7.7,7,6.2,12.1c-1.3,4.4-3.2,8.6-3.6,13.7c1-0.9,2.3-1.7,2.8-2.8c2.1-4.2,5.7-4.8,9.2-3.1c3.3,1.6,3.9,4.9,2.9,8.6
		c-3.4,12.5-7.1,25-9.7,37.6c-1.5,7-2.7,14.7-1.4,21.6c2.3,12.7-0.7,25.1-0.3,37.7c0.1,4.3,0,8.5,0,13.3c1.9-0.6,3.1-0.5,3.6-1.1
		c2.2-2.6,5.1-4.1,7.7-1.8c1.9,1.7,3.6,5,3.5,7.5c-0.5,8-1.9,15.9-3,23.8c-5.3,37.4-7.9,74.8-4.7,112.6c0.1,1.6,0.7,3.1,1.2,5.5
		c7-2.6,13.3-5.3,19.9-7.3c13.1-4.1,26.3-7.3,40.2-4c8.4,1.9,16.9,3.5,25.2,6c14.4,4.4,24.5,14.5,32.6,26.6
		c10.1,15.1,17.5,31.4,18.9,49.9c1.5,20.2,4.1,40.5,4.4,60.7c0.7,40.5-17.2,73.1-45.6,100.7c-12,11.7-26.8,18.3-42.3,23.7
		c-8.9,3.1-17.7,2.7-26.4-0.4c-8.5-3-16.8-6.2-25.2-9.4c-1.2-0.5-2.7-0.9-3.4-1.8c-10-12.8-26.2-16.4-38.9-27.9
		c-2.6,10.8-4.5,19.8-6.8,28.6c-3.9,14.8-8.2,29.5-12,44.3c-6.3,24.6-15.1,48.2-26.2,70.9c-5.5,11.3-12.4,21.9-19.7,32.2
		c-7.8,11.1-16.5,21.6-25.2,32.1c-8.5,10.2-18.1,19.5-26.3,30c-21.5,27.3-48.7,45.8-81.5,56.9c-9.4,3.2-18.2,8.2-27.2,12.5
		c-1.1,0.5-1.9,1.6-3.9,3.3c11.3,1,13,7.9,13.8,16.5c2.3,27,0.1,53.9-0.7,80.8c-0.9,29.3-1.7,58.6-0.5,87.9
		c1.5,37.9,4.6,75.7,7.8,113.4c3.4,40.5,9.2,80.6,20.3,119.8c7.2,25.4,10.3,51.6,11.3,77.9c0.5,14.3,0.1,28.5,0.1,43.4
		c1.9,0.4,3.8,0.9,5.6,1.2c10.8,1.7,21.9,2.4,32.4,5.2c32.8,8.7,64.7,20.2,96.2,32.8c31.5,12.6,56.6,33.1,77.2,59.8
		c15.3,19.9,28.5,41,38.2,64.2c2.2,5.2,5.7,8,11,10.5c24.8,12,49.5,24.5,73.8,37.6c8.1,4.4,15.1,10.8,22.6,16.3
		c5.6,4.1,11.3,8.2,16.8,12.5c4.5,3.4,9.4,6.6,13,10.8c21.4,25.1,43.7,49.5,63.4,75.8c29.8,39.8,54.1,83,74.9,128.2
		c8.1,17.5,17.4,34.6,24.5,52.4c14.4,35.9,26.3,72.6,33.9,110.6c6.9,34.6,12.6,69.4,19.8,103.9c4,19.1,10.1,37.9,15.3,56.8
		c1,3.5,2,7,2.8,10.6c1.1,4.7-1.1,8.6-4.2,11.7c-5.2,5.3-11.6,4.1-13.9-3.1c-3.2-10.1-5.6-20.4-8.2-30.7c-2-7.7-4.3-15.4-5.7-23.2
		c-4.7-25.5-8.7-51.2-13.5-76.7c-2.9-15.7-6.3-31.3-10.3-46.7c-5.7-21.9-11.7-43.7-18.3-65.3c-9.3-30.7-23.5-59.4-37.9-87.9
		c-13.2-26.2-27-52-41.2-77.6c-16-28.9-35.1-55.8-56.5-80.9c-5.4-6.3-11.1-12.4-16.2-19c-21.3-28-49.2-48.7-78.1-67.8
		c-17.6-11.6-37-20.6-57.3-31.7c3.8,12.9,7.3,23.8,10.2,35c11.1,42.2,25.8,83.1,40.6,124.2c14.1,39.2,24.4,79.5,27.7,121.3
		c1.1,14.6,2.3,29.2,2.8,43.8c1.7,47.6,2.3,95.3,4.9,142.8c2.4,44.6,2.6,89.2,3.1,133.8c0.2,19.1,3.4,37.7,9.2,55.9
		c4.9,15.2,10.1,30.3,14.7,45.6c8.8,28.8,15.1,58,14.2,88.3c-0.2,7.6,0.6,15.2,1.1,24.4c11.7-2.8,22.2-5.3,32.6-7.9
		c1.9-0.5,3.7-1.6,5.6-2c7.5-1.5,13-4.8,13.4-13.4c0.1-1.2,1.3-2.3,2.3-4.1c4,7,5.3,14.3,5.9,21.6c0.4,5.2-4.3,9.7-10.9,11.4
		c-14.5,3.7-29,7.1-43.5,10.7c-1.3,0.3-2.4,1-3.8,1.5c0,9.4-0.2,18.7,0.1,28c0.3,9.6-2.4,14.1-12.2,18.2c-6.3-4.6-8.8-10.3-7.6-18.6
		c1.1-7.4,0.2-15.1,0.2-23.4c-2.7,0-5-0.5-7.1,0.1c-29.6,7.8-59.2,15.4-88.6,23.9c-21.5,6.2-43.1,11.5-65.2,14.5
		c-20.1,2.7-40.3,4.6-60.4,7.2c-35.3,4.6-70.7,8.1-105.6,15.2c-21.8,4.4-44.1,6.9-66.1,10.2c-20.7,3.1-41.4,6.5-62.2,9
		c-25.4,3-51,5-76.5,7.5c-1.5,0.1-2.9,0.6-4.8,1c1.5,4.7,4.7,4.7,8.1,5.2c14.5,2,29,3.9,43.4,6.4c4.1,0.7,8,3,11.8,4.8
		c13.3,6.3,27.5,8.4,41.8,7.3c15.5-1.2,30.8-5,46.3-6.7c12.9-1.4,25.9-1.7,38.8-1.8c5.5,0,9.8,6.3,9.7,13c-0.1,5.7-0.5,11.3-1,17
		c-0.8,9.1-1.7,18.2-2.6,27.3c-0.1,1-0.2,2-0.1,3c2,15.1,3.9,30.2,6.3,45.2c1.7,10.9-1.4,21.4-3.9,31.5c-4.5,17.9-5.9,36-7.9,54.2
		c-1.4,13.2-4,26.4-4,39.7c-0.1,20.9,1.4,41.9,2.4,62.8c0.1,2.3,0.7,4.6,1.5,6.8c3.1,7.9,0,13.6-6.1,18.2c-1.6,1.2-4.2,2-6.2,1.9
		c-7.6-0.5-15.1-1.7-22.7-2.4c-12.2-1.1-24.5-2-37.9-3.1c-0.6,2-1.8,4.3-2.1,6.7c-1.6,11.5-2.8,23-4.3,34.5
		c-2.2,15.8-8.5,29.9-17.8,42.8c-5.4,7.6-9.6,16-14.7,23.7c-8.5,12.7-16,26.2-28.8,35.4c-6.8,4.9-14.1,7.1-22.5,6
		c-5.2-0.7-8.7-3.1-10.5-7.9c-1.4-3.7-3-7.5-3.6-11.4c-3.7-23.7-8.1-47.3-10.4-71.1c-1.6-17.1-0.3-34.5-0.2-51.8
		c0-2.9,0.3-5.8,0.5-8.9c-6.6-2.6-12.5-1.5-18.3-0.5c-12.9,2.2-20.3-4.1-19.8-17.4c0.8-19.9,2-39.8,3-59.8c0-1-0.1-2-0.1-3
		c-0.5-10.6-0.8-21.2-1.4-31.8c-2.2-43.7,2.6-87.1,6.1-130.6c1.9-23.2,3.9-46.4,6-69.6c0.4-4.3,1.4-8.5,2.3-14.1
		c-4.2,0-7.6-0.2-11.1,0c-27.9,1.7-55.8,3.5-83.8,5.3c-32.2,2.1-64.6,3.2-96.7,6.4c-37.8,3.7-75,11.5-112.1,19.7
		c-2.3,0.5-4.4,1.5-6.7,2c-4.5,1.1-6.7,3.8-7.2,8.4c-1.4,12.2-3.1,24.4-4.5,36.7c-4.7,41.8-3.1,83.8-3.8,125.8
		c-0.5,31.6-2.5,63.2-3.4,94.9c-0.5,18.3-0.6,36.6-0.4,55c0.1,15.8,17,30.8,32.6,29c17.8-2,35.5-4.7,52.4-11.1
		c3.6-1.4,7.8-1.7,11.7-1.9c4.8-0.2,7.1-2,7.9-6.9c4.7-30.9,10-61.8,14.5-92.7c1.8-12.5,2.2-25.2,2.7-37.9
		c0.6-16.6,0.6-33.3,0.9-49.9c0.6-30.6,1.1-61.2,6.4-91.5c2.2-12.7,4.6-25.5,6.8-38.2c0.6-3.3,1.1-6.7,0.7-9.9
		c-1.2-10.6,3.8-17,13.5-20.5c7.1,2.1,8.3,7.1,7.6,13.9c-0.6,6.6-0.1,13.2-0.3,19.8c-0.1,3.3-0.1,6.8-1.2,9.8
		c-10.4,29.7-12.3,60.4-12.2,91.5c0,19.6-2,39.2-2.9,58.9c-0.5,11.6,0.2,23.4-1.2,34.9c-3.1,25.8-7.1,51.4-10.8,77.1
		c-1.7,11.9-3.7,23.7-5.3,35.6c-0.6,4.6-0.1,9.3-0.7,13.9c-0.6,4.2-1.2,8.7-3.3,12.2c-3.3,5.6-7.5,6.5-13.8,3.9
		c-13.8-5.7-26.8-2.1-39.5,3.2c-2.3,1-4.1,5-4.6,8c-1.6,9.4-3,19-3.5,28.5c-0.9,17.2-9.5,29.2-23.7,38c-9.9,6.2-30.7,5.6-40-1.7
		c-7.2-5.6-13.4-12-16.4-20.9c-4.9-14.5-10.3-28.8-10.3-44.5c0-10.5,2.7-13.2,13.6-13.6c1.3-0.1,2.5-0.4,3.8-0.6
		c0.3-1.3,0.9-2.3,0.7-3.1c-5.1-18.8-1.4-37.8-1-56.6c0.9-35.6,3.4-71.2,4.5-106.9c0.9-30.6,0.2-61.3,1.2-91.9
		c0.7-21.3,3-42.5,4.6-63.7C520.8,2750.1,520.9,2748.4,521.2,2744.4z M793.5,728.2c-0.4-1-0.9-2.1-1.3-3.1c-3.2,0-6.4,0.2-9.6,0
		c-5.3-0.3-10.6-0.7-15.9-1.4c-21-2.5-41-9.1-60.6-16.2c-17.7-6.4-33.5-16.4-42.7-34.2c-5.3-10.3-10.9-20.6-15.9-31.1
		c-2.3-4.8-5.3-6.9-10.6-7.4c-7.5-0.8-15-2.6-22.5-4.1c-7.7-1.6-15.3-3.5-23.8-5.4c0.5,3.5,0.7,6.1,1.2,8.5
		c5.8,25.1,9.3,50.4,8.8,76.2c-0.2,11.4-1.5,22.7-12.9,29.7c0.7,1.7,1.1,3.3,1.9,4.7c12.2,21.4,24.2,42.8,36.8,64
		c8.2,13.7,16.9,27.1,26,40.2c9.4,13.6,20.2,26.4,29.3,40.2c11.3,17.4,24.5,33.2,38.6,48.2c30.7,32.8,66.6,59,104.5,82.8
		c24.9,15.6,51.2,28.3,79,39.2c3.3-6.4,9-8.6,16.2-8.8c3.5-0.1,7.2-1.7,10.3-3.5c9.1-5.5,18.1-11.1,26.7-17.3
		c15.4-11.1,30.6-22.1,48.8-28.7c14.9-5.4,29.6-12,43.5-19.8c17.3-9.7,31-24,43.5-39.3c12-14.7,24.1-29.2,36-44
		c13.6-16.9,25.8-34.8,34.1-55c16.5-40.1,28.5-81.6,36.7-124.2c1.5-7.9,3.9-15.6-3.8-21.9c-1.4-1.1-1.7-3.6-2.5-5.4
		c-3.9-8-7.8-15.9-11.9-24.3c-10,2.3-19,4.2-28,6.5c-9.3,2.4-18.7,4.8-27.8,7.8c-8.5,2.8-18,3-26.2,8.4c6.6,6.5,12.4,12.2,18.1,17.8
		c-0.5,0.6-1,1.1-1.5,1.7c-6.4-4.4-12.9-8.8-20.9-14.4c3.7,19.9,0.7,37.7-3.2,55.2c-3.5,15.9-8.9,31.3-13.3,47
		c-1.5,5.4-2.5,10.9-3.7,16.1c2.2,0.7,4.4,0.7,4.9,1.6c2,4.4,0.3,12.6-3.9,14.3c-6.5,2.6-7.3,7.9-8.8,13.2c-0.7,2.6-1.2,5.2-2.3,7.7
		c-2.7,6.4-6.8,8.4-12.6,6.3c-4.9-1.7-6.3-6-3.9-12.5c1.3-3.4,3-6.7,4.3-10.1c3.2-8.7,2.6-9.8-6.2-13.2c-18.3-7-36.6-14.1-55-21.1
		c-4.2-1.6-8.4-3-12.8-4.5c-0.8,8-0.8,8,2.3,14c3,5.8,1.3,9.2-5.2,10.3c-1.2,0.2-2.5,0.4-4.5,0.7c-1.8,19.8-9.2,37.3-18.9,54.2
		c-5.2,9.1-12.1,15.5-21.7,19.7c-25.3,10.9-51.8,14.4-79.1,12.9c-18.5-1-33.8-8-46.7-21.6c-13.1-13.8-21.6-31.1-35.7-44.1
		c-3.5-3.2-4.4-7.4,0.6-11.2c11.8,7.2,22.3,15.3,30.1,27c5.2,7.6,11.5,14.7,18.1,21.2c7.5,7.4,16.7,11.9,27.8,11.5
		c6.3-0.2,12.6,0.9,18.9,1.1c5,0.2,10.2,0.9,14.9-0.3c13.8-3.5,27.6-7.4,41.1-12.2c4.7-1.7,9.5-5.5,12.3-9.7
		c13.2-19.8,21.5-41.1,17.5-65.6c-0.5-3.3,1.2-7,2.3-10.3c0.7-2,2.3-3.8,3.6-5.8c-5.8-4.2-11.4-7.7-16.3-12
		c-12.2-10.8-20.5-24.5-27.6-38.9c-9.5-19.4-18.5-39.1-27.1-59c-15.2-35.4-27.2-71.6-25-111c0.1-1.5-0.7-3-1.3-5.3
		c-12.7,2.3-24.9,4.6-37.2,6.8c0.2,1.8,0.1,2.8,0.4,3.6c1,2.8,2.1,5.6,3.4,8.3c9.1,19.3,12.8,39.8,13.1,61
		c0.3,22.9-4.9,45-12.4,66.4c-5.2,14.9-14.2,28-27.2,37.5c-16,11.7-33.4,20.8-52.5,26.2c-9.5,2.7-19.6,3.3-29.4,4.5
		c-1.6,0.2-3.4-1.4-5.1-2.2c15.8-2.1,29.8-7.2,42.6-15.2c8.4-5.2,16-11.8,23.9-17.8C783.6,735.7,788.6,732,793.5,728.2z M901.1,464
		c3.7-1.7,6.1-2.6,8.4-3.8c19.1-10.2,37.8-21.2,57.2-30.6c28.9-13.9,59.7-15.8,90.8-10c13.1,2.4,24,9.9,30.2,22.5
		c1.4,2.8,2,6.3,2,9.5c0,5.1-4.7,9.9-9.9,10.9c-5.5,1-8.2-2.6-9.7-6.8c-3.9-11.4-13.1-15.2-23.6-17.3c-27-5.5-53.1-2-78.2,8.7
		c-17.7,7.6-34.9,16.5-52.4,24.5c-5,2.3-10.4,3.8-16.3,5.9c0,4.7,0,10.5,0,16.5c7.5-1.6,14.2-3.8,21-4.2c22.3-1.4,43.8,2.9,64.5,11
		c15.5,6.1,30.4,13.6,45.7,20.2c40.4,17.3,60.5,48.6,62.4,91.7c0.6,14.5-1.2,29.1-1.7,43.6c-0.2,5.9,0.7,11.7,3.9,17.2
		c27.8-7.6,55.1-15,81.3-22.2c-1.8-15.4-4.5-29.5-4.6-43.7c-0.1-11.8,1.3-24.1,4.9-35.3c3.4-10.7,5.4-21.1,4.7-32.2
		c-0.3-5-0.3-10-0.2-15c0.5-25.6,1-51.3,1.7-76.9c0.2-7.5-1.7-14.2-5.2-20.9c-1.3,0.8-2.2,1.2-3,1.7c-6.2,3.6-10.1,3.5-14.3-0.6
		c-4.3-4.2-0.5-8,1-11.7c1.7-4.2,3.7-8.3,5.6-12.4c-8.1-6.7-15.3-12.7-22.1-18.4c-1-5.2,5.7-8.8,1.4-15.4c-2.7,4.5-4.9,8.1-7.1,11.6
		c-1.6,2.5-3,5.2-4.9,7.4c-2.3,2.8-5.4,3.9-8.9,2c-3.4-1.8-6.1-4.1-5.3-8.6c0.6-2.9,1.8-5.9,1.7-8.8c0-2.3-0.9-5.3-2.5-6.8
		c-6.2-5.8-6.3-5.6-2.8-12.6c1.5-3,3.1-5.9,4.1-9.1c0.9-2.8,1.3-6-2.3-7.7c-7.8,3.5-9.1,3.5-12.7,1.6c-5.7-3.1-3.4-7.8-3-12.3
		c0.3-3.7,0.1-7.4-4.9-8.5c-0.9,1.6-1.9,3-2.5,4.5c-5.8,14.2-11.4,28.4-17.2,42.6c-0.9,2.1-1.9,4.3-3.3,6.1
		c-2.8,3.6-7.5,4.3-11.6,2.1c-4.2-2.3-3.3-5.6-2.2-9.4c2.2-7.6,4.1-15.4,5.7-23.2c2.5-11.7,4.5-23.5,6.9-35.2
		c2-9.7,0-13.2-10.3-16.8c-1.6,4.7-3.2,9.4-4.9,14c-4.4,11.5-8.4,23.2-13.3,34.4c-4.5,10.1-8,10.7-18.6,4.5c0.8-2.8,1-6.2,2.5-8.9
		c8-14.2,11.4-29.7,14.1-45.5c1.8-10.9,1.1-12.1-10.6-14.3c-0.9,2.2-2,4.6-2.9,7c-10.2,29.5-20.3,59.1-30.4,88.6
		c-0.8,2.2-1.4,4.5-2.6,6.4c-2.8,4.4-7.4,5.3-12.3,3.2c-5.1-2.2-4.2-6.1-3.1-10.1c1.3-4.8,3.3-9.6,3.7-14.4
		c2.2-22.5,3.9-45,5.7-67.6c0.1-0.8-0.6-1.7-1.7-4.8c-1.7,4.7-3.1,7.5-3.8,10.5c-5.7,24.6-11.2,49.2-17,73.8
		c-1.5,6.4-3.3,12.8-5.3,19.1c-1.9,5.8-5.9,7.8-11.6,6.5c-5.7-1.3-6.5-3-5.9-10.3c0.4-4.2,0.4-8.4,0.6-13.1
		c-2.5-0.2-4.1-0.3-5.7-0.6c-9-1.2-10.1-2.8-8.9-11.6c0.6-4.6,1.4-9.3,1.3-13.9c-0.6-15.3-1.6-30.6-2.6-45.9c-0.1-1.5-1.1-3-1.6-4.6
		c-4.4,33.1-7.2,65.9-10.1,98.7c-0.8,9.4,1,19.8-9.5,25.6c-0.7,0.4-1.2,1.6-1.5,2.5C904.3,432.9,899.6,447.2,901.1,464z
		 M1053.1,2715.1c-5.5-0.3-9.8-1.1-14-0.6c-15.2,1.6-30.4,3.2-45.6,5.5c-13.5,2-27,4.4-40.6,0.9c-12.5-3.2-25.1-6.3-37.6-9.2
		c-10-2.3-20-5.2-30.2-6c-14.3-1.1-15.3,0.5-16,14.6c-0.9,17.6-1.8,35.3-2.7,52.9c-1.8,31.3-4.1,62.5-5.3,93.8
		c-1.2,30.3-1.4,60.6-1.7,90.9c-0.1,8.9,1.1,17.7,1.7,27.4c7.3,0.7,13.4,1.4,18.8,1.9c9.4-14.9,12.6-15.6,26-6.5
		c1.9,1.3,3.6,3,5.7,4.1c2.3,1.3,4.7,3,7.1,3.2c19.2,1.2,38.5,2.1,57.8,3c0.6,0,1.1-0.6,2.4-1.3c-0.4-7.7,5.7-9.7,12.1-12.2
		c0.9,1.7,1.9,3.1,2.3,4.6c0.9,3.1,0.5,7.5,2.4,9.2c2.4,2,6.8,1.7,10.3,2.4c1.6,0.3,3.3,0.7,4.9,0.9c10.5,0.9,21,1.5,31.3,0.7
		c0-18.2,1.1-35.2-0.3-52c-1.8-21.9,1.4-43.2,3.8-64.7c1-8.9,3.3-17.6,4.6-26.5c1.9-13.1,4.9-26.2,4.9-39.4
		c0.2-26.3-1.3-52.6-2.1-78.9C1052.9,2727.7,1053.1,2721.8,1053.1,2715.1z M955.7,689c10.8,0,19.3-0.3,27.8,0.1
		c13,0.5,23.9-4.1,31.3-14.5c13.9-19.5,24.2-41.1,24.1-65.5c-0.1-28.3-12-52.8-29.4-74.8c-3.4-4.3-7.9-5.7-13.3-5.6
		c-12.3,0.3-24.7,0.2-37,0.8c-7.8,0.4-15.5,1.7-24.1,2.7c1.4,5.6,4.9,11.3-1.4,13.2c-7.5,2.2-8.9,7.2-8.9,13.5
		c-0.1,12.3-1,24.6,0.2,36.8c2.8,28.3,14.9,51.4,40,66.7c12.8,7.8,25.1,9.6,38.2,1c2.5-1.7,5.8-2.3,8.7-3.4c0.5,1.5,0.8,1.9,0.7,2.1
		c-6.5,15.5-26.5,23.6-41.2,16.9c-2.7-1.2-5.6-2.2-8.3-3.6c-14.6-7.3-26.6-17.8-35.3-31.5c-15.6-24.3-18.7-51.5-16.9-79.7
		c0.3-4.1,1.2-8.3,1.9-13.8c-14.3,2.4-27.2,4.7-40.7,7c-0.3,3.8-1.1,7.1-0.8,10.3c1.2,13.2,1.2,26.8,4.4,39.6
		c11.5,46.5,31.1,89.8,54,131.7c10.2,18.7,25.6,30.9,45.2,38.9c27.7,11.2,55.2,23,83.7,34.8c1.9-7.5,4.1-14.4,5.5-21.5
		c5-24.7,14.9-48.4,15.9-73.9c0.3-7.2,1.7-14.4-0.9-22.2c-3.3,0.8-6.1,1.5-8.9,2.1c-5.2,1.1-10.3,2.7-15.6,3.1c-2.5,0.2-6-1.1-7.6-3
		c-2.7-3.1-4.2-7.2-6.1-10.6c4.8-1.5,9.9-2.1,13.9-4.5c10.1-6.2,15.8-15.5,19.1-27c4.2-14.5,3.4-29,2.1-43.6
		c-1.4-16.1-5.1-31.6-14.3-45.2c-6.8-10.1-14.1-19.7-27.6-25.5c3.3,6.5,6,11.4,8.2,16.4c9.4,22,16.6,44.2,10.2,68.7
		c-6.1,23.4-15,45.3-30.6,64.4C1005.1,711.3,972.1,707.2,955.7,689z M882.2,505.7c-2.9-1.3-4.4-2.1-5.9-2.5
		c-7.9-1.6-9.3-3.4-9.2-10.9c0.2-9.6,0-19.2,0.1-28.8c0.5-33-1.7-65.9-5-98.6c-1.9-19.1,5.6-34.2,14.4-49.4c2.3-3.9,3.6-7.4,4-11.8
		c1-11.9,2.4-23.8,4.1-35.6c0.8-5.4,2.7-10.6,4.1-15.9c-0.6-0.3-1.2-0.6-1.8-0.9c-1.5,2-3.1,3.8-4.4,5.9
		c-9.9,16.1-18.2,33.3-31.4,47.3c-2.5,2.7-3.6,7-4.9,10.7c-2.6,7.9-4.4,16-7.2,23.8c-3.4,9.4-5.8,10.4-15.6,7.9
		c-0.6-0.1-1.3,0.2-2.8,0.5c-2.2,4.6-4.6,9.6-7.1,14.6c-1.9,4-4.6,5.9-9.5,5.2c-8.5-1.2-8.7-1-11.2-12.5c-2.3,9.1-4,16.5-6,23.7
		c-3.1,11.3-7,13-17.3,8.4c-3.9-1.7-7.9-3.2-12-4.4c-8.1-2.3-10.4-5-7.9-12.8c4.7-14.5,4-29.5,4.8-44.4c0.1-2.7-0.7-5.5-1.1-8.4
		c-8.8,2-12.1,6.7-13,14.3c-1.8,16.5-4.6,32.9-6.4,49.5c-1.5,13.6-2,27.2-3.2,40.8c-0.4,4.5,0.3,8.3,5.3,9.1
		c11.3,1.8,20.1,8.6,29.3,14.4c5.5,3.5,10.9,7.1,17.4,11.3c0.6-5.4,1-9.4,1.6-15.6c6.4,13.2,12,24,16.9,35.1
		c2.7,6.3,0.4,11.6-5.4,15.4c-3.7,2.5-8.5,1.3-12.9-4c-12.7-15.5-29.4-25.9-46-36.3c-5.4-3.4-12.2-5.4-18.6-6.2
		c-9.7-1.3-13.5,2.3-14,12.2c-0.7,14.6-0.9,29.3-1.1,43.9c0,0.9,0.7,1.7,1.4,3.2c2.5-0.9,5-1.6,7.3-2.5
		c25.5-10.3,47.9-4.9,68.2,12.9c13.4,11.8,24.1,25.6,34.1,41c14.8-2.7,29.5-5.3,44.1-8.3c2-0.4,4.7-3.1,5.1-5.1
		C866.6,528.7,872,516.8,882.2,505.7z M1377.6,586.7c0.7-16.1-1.8-31.3-8.9-45.5c-8.5-17-20.2-30.2-39.5-35.5
		c-18.9-5.1-37.4-4.7-55.9,1.9c-13.5,4.9-16.6,8.8-16.7,22.9c-0.1,27-1.9,53.9-5.4,80.6c-1.1,8.1-1.6,16.3-2.4,24.4
		c4.8,0.8,5.9-1.2,5.7-4.4c-0.2-4.3-1.3-8.7-0.8-12.9c1.3-10.2,3.4-20.3,5-30.5c1.2-8.2,5.9-13.6,13.5-15.6c7.7-2,15.7-3.7,23.6-3.7
		c17.9-0.2,34.5,14.3,36.7,31.9c1.4,10.9,2.1,21.9,2,32.9c-0.1,12.1-2.8,23.9-8.6,34.6c-2.7,4.9-6.3,9.6-10.5,13
		c-2.6,2.1-7.6,2.6-11,1.7c-4.2-1.1-5.2-5.7-4.9-9.9c0.2-2.6,0.9-5.1,1.5-8.6c-8.6-3.2-17.2-5.8-25.3-9.5c-7-3.2-13.6-3.8-21.1-1.7
		c-7.6,2.1-7.7,1.5-8,9.6c-0.4,10.6-0.7,21.3-1.3,31.9c-0.5,8.7-4.3,15-14.6,17.6c8.3,5.5,16.5,11,24.1,16c5.1-2.6,5.2-9.8,12.1-7.7
		c0,3.9,0,7.8,0,12.8c5.5-3.1,10-5.8,16-9.2c-0.8,5.8-1.4,9.9-2.2,14.8c4.3,0.9,7.7,1.8,11.3,2.2c12.3,1.5,22.8-3.4,32.9-9.5
		c24.5-14.8,39.3-37.2,49.3-63.4c0.7-1.8,0.4-4,0.8-8.3c-7,10.1-14.6,15.2-24.1,17.1c-4.2,0.8-7.3-0.5-8.7-4.7
		c-1.4-4.2,0.9-5.9,4.8-7c7.3-1.9,12.1-7,15.2-13.5c6-12.6,9-25.8,6.7-39.7c-1-6.3-2.9-11.9-10.3-14.4c-5.7-1.9-7.9-7.4-7-12.9
		c0.9-5.7,4.5-9,10.8-10.2c5.9-1.1,8.5,0.3,12,6.3C1375.7,582.7,1376.6,584.7,1377.6,586.7z M682.6,475.8c-3.1,4.2-5.1,6.4-6.5,9
		c-7.9,13.5-16.3,26.8-23.5,40.7c-5.6,10.9-9.4,22.7-14.3,33.9c-1.6,3.6-3.6,7.2-6.3,10c-3.7,3.8-8.5,2-9.4-3.4
		c-0.4-2.2-0.2-4.8,0.7-6.8c8.9-19.7,17.3-39.6,29-58c7.1-11.1,16.5-21.9,12.5-37.1c-0.7-2.7,0.3-6,0.6-8.9
		c0.9-6.9,1.6-13.9,2.8-20.8c0.9-5,1.1-9.1-4.8-11.3c-4.5-1.7-5.8-5.6-3.7-9.8c5.3-11.2,4.9-23.3,6.6-35.1c0.2-1.4-0.5-3-1-5.9
		c-5.2,5.6-12.8,7.2-12.1,15.7c0.5,7.3,0.2,14.7,1.3,21.9c2.5,16.8,4.9,33.5,4.3,50.5c-0.5,13-3.1,25-10.5,35.8
		c-2.2,3.3-4.5,6.5-9.6,5.6c-5-0.9-9.1-2.8-10.2-8c-1-4.5-1.5-9.2-1.7-13.8c-0.3-6-0.1-12.1-0.1-18.2c-2.3,2.7-2.7,5.5-3.6,8.2
		c-1.6,5-3.1,10.2-5.4,15c-2.9,5.9-6.1,6.7-12.3,4.5c-5.8-2.1-7.6-6.3-6.2-14.9c1.7-11.2,3.5-22.3,5.2-33.5c0.3-2.3,0-4.7,0-8.9
		c-7,8.9-11,16.4-10.8,26c0.3,11.9-0.2,23.9-0.8,35.8c-0.4,9.1-2.4,17.7-8.1,25.3c-1.9,2.5-3.2,5.9-3.5,9c-2,19.8-4.5,39.4,0,59.4
		c4.2,18.7,3.4,18.9,22,24c11.5,3.1,23.2,5.2,35.7,5.8c0-3-0.2-5.3,0-7.5c1.1-11.1-1.9-22.5,2.9-33.5c8.1-18.6,19.9-34.5,33.9-48.9
		c6-6.2,9.3-12.2,8.2-21.2c-0.9-8.2,0.2-16.6,0.3-24.9C683.9,480.3,683.4,479.1,682.6,475.8z M659,636.3c7.2,20.4,17,38.5,36.1,49.7
		c18.6,10.9,39.4,15.8,60.1,20.8c13.6,3.3,27.5,4,41.7,3c8.5-0.7,13.3-4.2,16-12.1c10.5-30.6,13.3-61.7,5.4-93.3
		c-2.6-10.5-6.9-20.7-10.4-30.8c-4.2,1.3-7.2,2.3-11.1,3.5c0.6,8.7,1.3,17.7,1.8,26.6c1,18.1-5.4,34.8-11.7,51
		c-6.8,17.5-24.2,21.8-40.1,12.1c-2.8-1.7-5.4-3.8-8-6c-10.2-8.4-21.6-14.3-34.4-17.7c-4.5-1.2-9.1-1.6-13.7-2.5
		c-0.8-0.2-1.5-1.2-2.2-1.7c0-3,0-5.9,0-8.3C678.7,632.5,669.4,634.3,659,636.3z M890.2,3008.8c-0.5,3.8-1.3,6.7-1.2,9.6
		c0.4,18.3-0.2,36.7,1.9,54.8c2.4,20.8,6.8,41.3,11,61.8c2.3,11.2,8.7,12.7,16.8,5c8.7-8.4,15.4-18.2,21-28.9
		c5.8-11.2,12.6-21.9,18.2-33.2c3.8-7.7,7.5-15.8,8.9-24.1c2.3-13.9,2.6-28.1,3.8-42.9C943.7,3010,917.3,3009.4,890.2,3008.8z
		 M797.6,560.9c-0.4-2.2-0.1-4.2-1-5.6c-8.9-13.9-19.7-26.2-33.2-35.5c-9.9-6.9-21.6-10.8-34.1-7.8c-7.1,1.7-14,4.4-20.7,7.4
		c-2.3,1-4.7,3.7-5.6,6.1c-4.9,12.6-6.2,13.5-19.9,11.9c-12,10.4-20.4,23.6-27.6,37.5c-7.3,14.2-5.3,28.8-1.8,44.1
		c10.5-1.9,20.7-0.9,28.6-5.7c1-11.9,1.3-22.8,2.9-33.6c1.8-11.7,4.6-23.3,7.5-34.8c0.5-2,3.3-4.3,5.5-4.9
		c11.8-3.4,24.4-4.1,35.4,0.7c9.9,4.3,19.4,3.8,29.1,3.4c6.3-0.3,12.1,0.1,17.2,3.4C785.6,551.3,790.8,555.8,797.6,560.9z
		 M692.7,604.4c1.9,0.3,3.1,0.5,4.3,0.7c8,1.7,9.3,4.4,5.8,11.7c-3.3,6.8-1.2,12.1,6.2,14.3c13.1,4.1,25.5,9.4,36.5,17.9
		c2.8,2.2,6.3,3.7,9.7,5.1c7.6,3.1,13.8,1.9,18.6-4.8c3-4.2,5-9.4,6.2-14.5c4.7-19.2,5.8-38.7,3.5-58.3c-1.7-14-6.1-18.8-19.6-20
		c-3-0.3-6.2-0.6-8.9,0.2c-8.7,2.5-16.5,0.2-23.7-4.3c-6.3-3.9-13.2-4.3-20.2-4.4c-6-0.1-10,2.9-11.8,8.8
		C694.4,572.3,693.1,588.1,692.7,604.4z M570,3086.6c-8.2-0.4-14.8-0.9-21.3-1.1c-3.6-0.1-7.6-0.7-10.8,0.5
		c-7.1,2.7-13.1,1.2-18.6-3.1c-3.5-2.7-7-3.9-11-1.7c-4.5,2.4-3.8,6.9-3.2,10.6c2.3,13.7,5,27.6,12.6,39.4
		c4.4,6.8,9.9,13.4,19.6,13.5c14.5,0,27-9.3,29.3-23.4C568.4,3109.9,568.9,3098.3,570,3086.6z M1269.1,631.5
		c8.8-1,14.5-3.8,19.9-7.9c6.6-5,11.8-2.7,14.1,5.1c1.5,5.2-0.8,8.3-4.9,10.7c-3,1.8-6.1,3.4-10.4,5.9c9.8,4.5,17.5,9.9,27.3,6
		c5.6-12.8,6.6-40.2,1.9-52.8c-2-5.5-5.3-10.2-11.1-12c-6-1.9-12-3.9-18.2-4.8c-7.4-1.1-14.4,3.1-15.8,8.9
		c-1.9,8.1-3.8,16.2-4.6,24.4C1266.8,620.2,1268.4,625.4,1269.1,631.5z M977,515.2c0.2-1.1,0.4-2.1,0.6-3.2
		c-3.3-1.4-6.5-3.1-9.8-4.2c-14.3-4.5-28.8-7.9-44-7.8c-25.7,0.1-42.2,12.8-48.4,37.6c-0.4,1.7-0.1,3.7-0.1,6.5
		c12.1-1.9,23.2-3.9,34.3-5.3c5.8-0.7,9.9-2.9,12.4-8.3c3.7-7.8,10-12.2,18.6-13.1c8.2-0.9,16.5-1.6,24.8-2.1
		C969.2,515,973.1,515.2,977,515.2z M593.1,414.3c0.9,0.3,1.7,0.6,2.6,0.9c3-3.4,5.6-7.3,9-10.2c5.2-4.5,7.2-10.3,8.1-16.6
		c2.1-13.4,4.1-26.9,5.8-40.4c3.4-26.7,6.7-53.3,9.9-80c0.2-1.3-0.6-2.7-0.9-4c-3.9,3.7-6.8,7.5-8,11.8
		c-4.5,15.6-9.1,31.3-12.4,47.2c-3.3,15.9-5.3,32.2-7.8,48.3C597.3,385.5,595.2,399.9,593.1,414.3z M536.6,885
		c6.2-7.4,6.9-15.8,9-23.8c2.4-9.1-2.1-16.1-6.2-23.3c-0.6-1-2-2-3.1-2.2c-5.2-0.8-10.4-1.8-15.7-2c-10.9-0.4-19.6,7.5-20.6,18.3
		c-1.4,14.5,6.3,25.6,20.6,29.3C525.7,882.7,530.9,883.7,536.6,885z M580.8,725.8c7.7-14.9,0.2-85.9-10.1-99.9
		c-2.6,3.8-5.4,7.5-7.6,11.4c-1.4,2.5-2.8,5.5-2.8,8.3c0.1,11.3,0.2,22.4,3.3,33.6c3.7,13.5,8.5,26.5,14.1,39.2
		C578.6,720.6,579.6,722.9,580.8,725.8z M911.2,145.4c-6.1,3.8-9.8,8.4-10.4,15.2c-0.2,2.4-1,5.7-2.7,6.8
		c-5.7,3.7-8.4,9.4-10.9,15.1c-5.9,13.4-11.8,26.8-17.3,40.4c-1.5,3.7-1.7,7.9-2.5,12.1c10.7,0.2,12-0.1,16-8.6
		c7.9-16.8,16.7-33.3,20.7-51.6C906.2,164.9,908.8,155.2,911.2,145.4z M959.7,333.2c0.8,0.1,1.5,0.2,2.3,0.3c1-4.2,2-8.5,3.1-12.7
		c4.2-16.3,8.3-32.7,12.8-49c1-3.6,3-6.9-1-9.7c-2.7-1.8-16-3-17.1-1.6c-0.8,1-1.4,2.3-1.6,3.6c-0.3,2-0.2,4-0.1,6
		c0.3,19.2,0.6,38.5,1,57.7C959.1,329.7,959.5,331.4,959.7,333.2z M657.1,357.3c8.8-3.5,10.1-4.6,11.1-11.6
		c1.6-11.5,2.6-23,4.2-34.5c0.5-3.3,2.4-6.4,3.7-9.7c-0.4-3.1-2-7.1-1.2-10.6c1.7-7.6,4.5-15,6.8-22.5c1.4,0.1,3.1,0.2,6.5,0.5
		c-2.2-4-3.7-6.7-5.4-9.8C670.5,277.4,655.4,335.7,657.1,357.3z M1202.9,554.2c-0.8-0.1-1.6-0.1-2.4-0.2c-3.4,9.6-1.2,19.5-0.2,29.4
		c1,10.2,1.1,20.6,2.6,30.8c1.5,9.7,0.4,20,5.4,31.3c1.5-3.4,2.3-4.5,2.4-5.7c0.6-19.6,1.4-39.2,1.4-58.7c0-5.8,0.4-12.9-7.7-15.5
		c-1.3-0.4-1.8-3.9-2.1-6.1C1202.1,557.8,1202.7,556,1202.9,554.2z M1205.4,385.4c-0.6,4.9-1.4,9.8-1.9,14.8
		c-2.5,23.4-5.3,46.9,3.7,69.7c1,2.5,1.5,5.2,2.8,9.8C1213.5,463.7,1210.9,403,1205.4,385.4z M1047.9,261.3c1.1-7.8,2.1-15,3.1-22.2
		c0.9-6.9,2.2-13.8,2.4-20.7c0.2-6.8,6.2-13.1,2-21.7c-1.5,2.2-2.5,3.1-2.8,4.2c-4.7,16.9-9.5,33.9-14,50.9
		C1036.6,258.8,1037.4,259.5,1047.9,261.3z M1149.3,256.7c3.5-8.8,6.9-17.7,10.6-26.4c3.8-8.8,7.6-17.7,12.1-26.2
		c4.4-8.4,9.6-16.3,12.2-26.8C1173.1,186.9,1149.2,239.2,1149.3,256.7z M1185.6,269c-0.9-0.4-1.8-0.7-2.6-1.1
		c-12.8,23.9-25.7,47.8-38.4,71.8c-0.5,0.9,0.2,2.3,0.3,3.5c0.6,0.2,1.3,0.4,1.9,0.6C1159.3,318.7,1175.6,295.5,1185.6,269z
		 M1003.6,305.6c0.8,0.1,1.6,0.2,2.4,0.3c2.4-7.1,4.8-14.2,7.3-21.3c1.2-3.4,2.8-6.7,3.7-10.2c1.1-4.1-1.3-6.2-5.1-6.8
		c-4-0.7-6.4,0.7-6.6,5.1c-0.2,6.9-0.5,13.8-0.8,20.8C1004.3,297.4,1003.9,301.5,1003.6,305.6z M555.9,372.1c-0.8,0-1.5,0-2.3,0
		c-8,23.7-13.6,60.4-9.5,70.1C548.3,417.4,552.1,394.7,555.9,372.1z M704.6,428.2c1.2,0.2,2.3,0.3,3.5,0.5c1.1-6.3,3.3-12.6,3-18.9
		c-0.6-13.3,1-26.3,1.8-39.5c0.2-2.7,0-5.5,0-8.2c-0.8,0-1.6,0-2.3,0C708.7,384.2,705.6,406.1,704.6,428.2z M567.4,446.1
		c4.6-22,3.8-44.3,2.9-66.6C565.7,401.6,566.9,423.9,567.4,446.1z M1078.7,278.2c0-15.4,5.3-28.6,3.9-43.5c-1.6,1.4-2.7,1.9-2.9,2.6
		c-3,10.2-6,20.4-8.6,30.7C1069.9,272.4,1072.6,275.3,1078.7,278.2z M555.6,305.1c-4.2,11.9-8.9,23.2-8,35.9
		c3.8-4.7,6.3-10,9.6-14.8C563.1,317.6,563.1,314.3,555.6,305.1z M745.6,300.5c0.7,0.4,1.4,0.8,2.1,1.2c1.7-2.1,4.7-4.2,4.9-6.4
		c1-12.6,0.3-25.1-2.5-37.4c-0.8,0-1.6,0.1-2.4,0.1C747,272.2,746.3,286.4,745.6,300.5z M1207.9,210.7c-0.6-0.5-1.2-1-1.8-1.5
		c-17.9,18.9-32.7,41.8-33.7,53.4c6-9.7,11-18.5,16.7-26.9C1195,227,1201.6,219,1207.9,210.7z M775,346c6.2-14.5,10-29.2,7.4-46.6
		c-2,5.4-4.2,9.1-4.7,13.1C776.5,323.6,775.9,334.8,775,346z M1197.9,538.3c3-3.5,5.1-5.1,5.9-7.1c1.5-3.9-2.4-18.2-5.9-23.1
		C1197.9,517.4,1197.9,526.5,1197.9,538.3z M631.8,405c-5.5,10.5-7.5,27-5.2,37C628.4,429.1,630.1,417,631.8,405z M1224.9,692.2
		c-8.8,6.3-8.8,8.5,0,13.2C1224.9,701,1224.9,696.7,1224.9,692.2z M1110.4,289.6c-6.7,9.1-6.7,9.1-2,14.7
		C1109.1,299.4,1109.6,295.4,1110.4,289.6z M865.5,254.9c-0.7-0.4-1.5-0.7-2.2-1.1c-3.9,2.9-5,6.8-2.1,12
		C862.6,262.2,864.1,258.5,865.5,254.9z M533.9,505.1c0.3-3.6,0.5-7.2,0.8-10.8C531.7,497.6,529.8,501.1,533.9,505.1z M562.8,525.5
		c0.7,0.1,1.4,0.2,2.1,0.3c0.7-4.2,1.5-8.5,2.2-12.7c-0.7-0.1-1.5-0.2-2.2-0.4C564.1,517,563.4,521.3,562.8,525.5z M505.3,591.1
		c0.7-0.4,1.5-0.8,2.2-1.2c0.1-3.2,0-6.4-6.5-7.8C503,586.1,504.2,588.6,505.3,591.1z M894.9,2984.1c-0.1,0.8-0.1,1.5-0.2,2.3
		c2.8,0,5.6,0,9.9,0C900.7,2982.9,898,2982.3,894.9,2984.1z M1212.5,207c0.6,0,1.2,0,1.9-0.1c0-2,0-4,0-6c-1.9,0.8-2.7,1.8-2.8,2.8
		C1211.5,204.8,1212.1,205.9,1212.5,207z"/>
	<path id="XMLID_232_" class="st0" d="M628.3,2234.2c4.2-37.2,3.9-74.6,6.6-112.2c-8.2,2.1-8.2,2.1-16.2,14.2
		c-10.7-3.4-13.4-9.9-6.3-18c10.2-11.7,22.8-20,38.5-22.5c1.3-0.2,2.9-0.3,3.9,0.4c10.7,7,23.4,10.9,31.9,21.3
		c3.1,3.9,7.2,7,10.2,10.9c13.6,17.6,33,22.6,53.5,24.8c21.2,2.3,42.4,3.8,63.6,6.1c8.6,0.9,16.8,3.6,24,8.9
		c7.5,5.5,10.7,12.6,8,21.7c-1.4,4.8-3.2,9.4-4.9,14.1c-8,22.7-11.6,46.4-15.7,70c-5,28.9-11.6,57.2-19.4,85.5
		c-3.9,14.3-5.4,29.4-7,44.2c-1,9.2,0.5,18.3,4.1,27.3c5.1,12.7,1.6,17.9-12.2,20.7c-6.1,11.8-7,12.5-17.9,14.1
		c0-4.4,0.2-8.6-0.1-12.8c-0.2-3.9-1.5-7-6.1-7.9c-21.2-4.2-42.3-8.8-63.5-12.8c-8.8-1.6-17.8-2.1-26.8-2.9
		c-9.6-0.9-19.2-1.5-28.9-2.2c-1.3-0.1-2.6,0.2-4.7,0.4c2.6,5.6,4.9,10.8,7.7,17c-8.8,0.7-14.1-3.6-17.5-8.9
		c-3.9-6.1-8.5-7.4-15-6.9c-20.8,1.8-41.7,3.5-62.5,5.2c-2.7,6.7,0.5,16.7-11.2,16.6c-3.5-5.5-1.3-10.8,0.8-16.9
		c-10.1-6.3-10.7-16.1-10.4-26.9c0.3-13.6-1.4-27.3-1.3-40.9c0.1-22.9,0.8-45.9,1.4-68.8c0.2-7.3,1.2-14.6,1.4-21.9
		c0.8-28.8,4.7-57,15.2-84c3.1-8,5.1-16.5,7.5-24.8c2.9-10,0.1-19.8-1.1-29.6c-0.8-6.8,0.5-12.4,7.6-15.6c4.5,5.5,6.5,11.4,7.4,18.3
		c4.7,38.4,21.7,70.2,52.2,94.4C625.6,2234.2,626.5,2234,628.3,2234.2z M780,2419.5c0.6-1.3,1-1.9,1-2.4
		c-1.6-18.8,0.4-37.2,5.8-55.3c4.6-15.3,8.7-30.7,12.5-46.2c2.3-9.3,3.8-18.9,5.3-28.4c1.5-9.6,10.3-17.3,7.5-28
		c5.4-8.7,1.4-20.2,8.6-28.4c0.3-0.4-0.1-1.3,0-1.9c1.3-6.4,2.1-13,4.1-19.2c4.3-12.9,4.5-12.6-8-16.9
		c-13.8-4.8-27.3-10.7-41.3-14.8c-7-2.1-15.4-3.4-22.2-1.6c-13.5,3.8-25.5,12-35.5,21.6c-18.8,18-32.8,40.1-48,61
		c-3.1,4.3-2.6,7.3,1.4,11.1c6.9,6.6,13.4,13.8,19.6,21.2c8.1,9.7,16.2,19.4,23.6,29.7c14.2,19.7,28.2,39.5,41.7,59.6
		C764.5,2392.9,771.8,2406,780,2419.5z M759.9,2424.6c-6.3-24.1-85.7-129.1-106.8-142.2c-5.2,7.1-10.8,14.1-15.6,21.6
		c-2.5,4-4.5,9-5,13.7c-1.4,12.9-2.2,25.8-2.7,38.8c-0.7,17.3,1.4,34.4,5.9,51.3c20.9,1.3,41.5,1.5,61.8,4.2
		C717.9,2414.8,738.1,2420.1,759.9,2424.6z M554.4,2402.2c0.8,0.1,1.6,0.2,2.4,0.2c4.3-7,8.8-13.9,13-21c14.3-24,28.2-48.2,42.9-72
		c4.1-6.7,6.8-13.7,8.1-21.2c1.2-6.9,1.3-13.9,2.5-20.8c1-6-1-9.6-6-13.3c-18.4-13.7-33.5-30.4-42.8-51.8c-2.1-4.7-4.6-9.3-7.7-15.6
		c-3,11.3-5.7,20.8-8,30.3c-1.6,6.8-3.3,13.7-3.8,20.6c-2.8,35.9-5.3,71.8-3.9,107.8C551.9,2364.4,553.3,2383.3,554.4,2402.2z
		 M651.3,2253.4c8.3-11.1,16.2-21.8,24.2-32.3c10.9-14.2,21.4-28.8,35.5-40.2c5.1-4.1,10.2-8,16.1-12.6c-2.3-1.1-3.7-1.9-5.2-2.5
		c-9.5-3.3-18.1-8.3-25.2-15.6c-7.4-7.6-14.7-15.4-22.4-22.7c-6-5.7-12.7-10.3-22.9-10c0,6.1,0.3,11.4,0,16.6
		c-1.4,23.5-2.8,47.1-4.5,70.6c-0.8,11.9-1.6,23.9-3.3,35.7C642.7,2246.8,644.7,2250.5,651.3,2253.4z M619.3,2408.9
		c-1.4-12.4-3.1-23.9-3.8-35.5c-0.6-11.4-0.1-22.9-0.1-34.3c-8.9,11.4-16.5,23.4-23.8,35.5c-7.2,12-16.7,22.5-23.4,36.3
		C586.2,2410.2,602.4,2409.6,619.3,2408.9z M826.2,2184.3c0.3-0.7,0.7-1.5,1-2.2c-2.6-1.2-5.3-2.5-7.9-3.7c-0.3,0.5-0.6,1.1-0.8,1.6
		C821.1,2181.3,823.7,2182.8,826.2,2184.3z"/>
	<path id="XMLID_233_" class="st0" d="M1789.4,2780.2c-2.7-14.8-14.5-21.8-25-28.9c-20.1-13.6-41.1-25.8-61.7-38.8
		c-10.9-6.9-21.8-13.9-32.5-21c-24.5-16.1-44.2-37.3-62.4-59.9c-1.8-2.3-3.4-4.8-6.1-8.5c-1.6,6.8-1,12.3-0.6,17.7
		c2.7,37.2,5,74.4,8.7,111.5c2.2,21.8,6.7,43.4,10,65.1c1.8,12.2,3.3,24.4,5,36.6c0.5,3.6,1.3,7.2,2.2,10.7c1.1,3.9,3.9,3.8,8.2,1.9
		c-1.2,5.2-2.2,9.4-3.2,13.5c-11.8,2.4-15.2,0.7-17.6-10.2c-5.3-24.7-10.2-49.4-15.3-74.1c-6.4-31.1-6.7-62.8-9.3-94.3
		c-2.6-31.8-5.7-63.7-4.6-95.8c0.2-5.4,0.6-10.3,3.7-15.1c5.7-8.9,6.6-19.4,3.7-29c-7.7-25.4-11.8-52.1-24.1-76
		c-8.3-15.9-17.7-31.3-27.7-46.2c-13.2-19.8-21.6-41.2-25.3-64.5c-4-25.6-7.1-51.4-10.7-77.1c-0.8-5.6-2.4-11-3.3-16.6
		c-6.3-38.7-12.3-77.5-18.8-116.2c-1.2-7.2-4.6-14-5.5-21.2c-2.1-18-7.3-35-13.9-51.8c-4.3-11.1-6.7-22.9-11.2-33.9
		c-5.2-12.8-11.8-24.9-17.6-37.5c-1.9-4.2-2.6-8.9-4.6-13c-3.7-7.6-7.9-15-12-22.4c-5.1-9.3-10.7-18.3-15.3-27.8
		c-9.8-20-20.4-39.7-26.3-61.3c-1-3.6-1-7.9,0.2-11.4c2-6.1,7.4-6.5,11.1-1c1.5,2.2,2.4,4.8,3.2,7.3c12.7,40.3,32.5,77.2,52.4,114.1
		c14.7,27.3,26.8,55.8,35.4,85.6c7,24.3,13.7,48.7,18.8,73.4c5.5,26.7,9,53.8,13.4,80.8c5.8,35.4,12.8,70.7,17.1,106.4
		c3.9,32.5,18.3,60.1,34.6,87.4c8.7,14.6,16.7,29.6,24.2,44.7c3.2,6.5,4.3,13.9,6.5,20.9c4.4,13.9,8.8,27.9,13.4,41.8
		c3.3,9.9,1.7,19.8-0.4,29.6c-0.8,3.9-3.3,7.3,0.3,11c0.6,0.6,0.9,2.2,0.5,2.8c-4.4,6.4,0.6,10.5,3.7,14.9
		c17,24.9,36.9,46.8,61.1,65.3c22.4,17.1,46.2,31.4,70.4,45.3c17.4,9.9,33.7,21.4,48.2,35.4c4,3.9,7.4,8.7,9.8,13.7
		C1804.6,2772.7,1800.3,2779.2,1789.4,2780.2z"/>
	<path id="XMLID_234_" class="st0" d="M200.7,2880.8c1.6,4.9,2.7,8.6,4.1,12.2c4.7,12.4,10.1,24.5,14.3,37.1
		c5.2,15.7,5.4,32,4.9,48.4c-1.1,36.5-8,72-17.4,107.2c-1.6,6.1-2.8,12.4-5.1,18.2c-1.5,3.8-4.5,7.1-7.2,10.3c-1.9,2.3-5,2.9-7,0.5
		c-1.4-1.7-2.3-4.9-1.8-7c1.5-6.1,4.4-11.9,5.7-18c4.2-19.8,8.3-39.6,11.9-59.5c4.5-25.3,5.4-50.8,4.1-76.5
		c-0.9-17.6-7-33.7-14.3-49.4c-0.5-1.1-1.6-2-2.7-3.4c-4.9,5.5-9.6,10.6-14.2,15.8c-12.1,13.8-28.2,22.2-43.9,30.9
		c-19.8,11-40.7,19.8-58.8,33.7c-1.5,1.1-3.5,1.5-5.5,2.4c-3.5-5.6-1.9-9.7,1.7-13.8c10.5-12,24.1-19.8,38.1-26.8
		c14.9-7.4,29.6-15.1,42.8-25.4c14.7-11.5,26-25.6,33.4-42.9c2.3-5.5,4.7-11.1,7.8-16.1c1.8-2.9,4.9-5.3,7.9-7.2
		c3.9-2.6,5.8-5.7,6.8-10.3c3.7-18.2,7.6-36.4,11.9-54.5c5.2-22,10.8-43.9,16.3-65.8c4.8-19,10.5-37.8,14.4-57
		c6.4-31.9,15.3-63.2,18.8-95.7c0.9-8.2,4-16.1,5.3-24.3c2.2-13.8,4.5-27.6,5.6-41.5c1.5-19.7,8.5-37.5,17-54.9
		c15.1-31.1,29.9-62.4,45.7-93.2c9.2-18,20.4-35.1,30-52.9c14.6-26.9,29.1-53.9,42.6-81.3c5.8-11.8,10.5-24.4,9.8-38.3
		c-0.4-7.6-1.6-14.4-7.4-20c-1.8-1.8-2.4-5-3.6-7.7c10.6-2.2,13.3-1.1,17.6,6.3c7,12.1,8.4,25,5.6,38.5
		c-4.8,23.1-14.3,44.3-25.7,64.7c-16.2,29.1-33.9,57.3-49.6,86.7c-16.7,31.1-32.7,62.6-47.2,94.7c-10.8,23.9-18.5,49-21.6,75.5
		c-2,17.4-6.2,34.6-9.5,51.9c-4.5,23.8-8.8,47.7-13.8,71.4c-4,18.8-9.1,37.5-13.9,56.2c-4.6,18-8.6,36.2-14.2,53.9
		c-8.1,25.8-13.6,52.1-18.7,78.5c-2.4,12.7-4.6,25.5-6.9,38.3c-0.2,1-0.5,1.9-0.8,2.9C211.5,2881.1,210.9,2881.5,200.7,2880.8z"/>
	<path id="XMLID_235_" class="st0" d="M1903,1364.9c-13-8.5-27.1-12.1-41.1-16.2c-3.1-0.9-6.6-1.9-8.7-4.1c-1.6-1.7-2.4-5.5-1.7-7.8
		c0.5-1.7,4.1-3.7,6.2-3.5c5.6,0.4,11.2,1.6,16.6,3.1c19.9,5.5,39.1,12.9,57.7,22c8,3.9,16.3,5.1,25.2,3.6c3.5-0.6,7.2,0,10.8-0.1
		c29.7-0.8,58.8,4.6,88.1,8.4c16.2,2.1,32.2,4.2,47.8,9c12.7,3.9,25.3,8,37.9,11.9c4.1,1.3,7.4,3.4,7.2,8.3c-0.1,4-5.8,8.7-10.8,8.4
		c-9.9-0.5-19.9-1.5-29.8-2.7c-4.6-0.6-10.1,1-14.4-4.8c6.6,0,12.4,0,19,0c-13.1-10.5-117.3-25.8-142.6-21.2c3.9,2.9,6.9,5.3,10,7.4
		c31.7,21.9,59,47.9,74.9,83.7c4.7,10.5,8,22,9.3,33.4c2,17.2-6,31.1-20.1,40.9c-12.8,8.8-27.4,13.6-42.5,16.5
		c-28.1,5.3-56.5,9.2-85.3,7.4c-28.2-1.8-56.5-3.1-84.7-5c-18.9-1.3-37.7-3.3-56.6-5.1c-4-0.4-7.9-1.1-11.8-2.1
		c-5.7-1.5-9.7-8.4-8.5-14c1.2-5.5,5.4-8.4,12-7.6c17.8,2.2,35.6,5,53.5,7.1c13.8,1.6,27.7,2.5,41.6,3.6c8.6,0.7,17.2,1.5,25.8,2.2
		c13.6,1.1,27.1,2.4,40.7,2.9c7.2,0.3,14.5-1,21.8-1.5c20.6-1.6,41-4.3,60.8-10.5c5.1-1.6,10-3.7,14.7-6.1c14.1-7,19-15,16.5-30.6
		c-1.5-9.7-5-19.3-8.6-28.5c-6.3-16.1-17.8-28.7-29.6-40.9c-17.9-18.4-37.2-35.1-59.4-48.2c-6.2-3.7-12.4-5.8-19.8-4.8
		c-33,4.2-66,8.2-99.1,12.2c-6.6,0.8-13.3,1.6-19.9,1.4c-2.9-0.1-6.5-1.9-8.3-4.1c-3.9-4.9-1.1-10.8,5.1-11.5
		c29-3.5,58.1-6.8,87.2-10.2C1894.5,1366.5,1898.7,1365.6,1903,1364.9z"/>
	<path id="XMLID_238_" class="st0" d="M1782.1,421.7c-1.7-5.8-2.7-10.7-4.5-15.1c-6.9-16.9-14-33.8-21.1-50.6
		c-2.5-5.9-6.5-8.3-13.3-9.7c-36.4-7.9-73.3-8.8-110.2-10.9c-16.6-0.9-33.3-0.1-49.9,0.2c-3.9,0.1-8,0.9-11.7,2.1
		c-3.1,1-5.9,0.7-6.2-2.3c-0.2-1.8,2.2-5.2,3.9-5.6c8.1-1.9,16.3-3.8,24.5-4.1c17.3-0.7,34.6-1.3,51.9-0.4c20.1,1,40.4,0.5,60.4,5
		c11.7,2.6,24.1,2.6,37.1,3.8c-0.4-1.9-0.4-4.4-1.4-6.6c-2.4-5.5-5.3-10.7-7.8-16.2c-1.6-3.5-2.7-7.6,1.5-9.7
		c3.7-1.9,7.9-1.5,10.7,2.3c2,2.6,3.6,5.6,5.2,8.5c3.3,6.2,6.5,12.4,9.4,18.7c2.5,5.4,6.4,8,12.2,9c16.7,3,33.4,6,49.9,9.6
		c9,1.9,17.8,5.1,26.8,7.4c5.1,1.3,10.5,1.6,15.6,3c22,6.3,44.4,11.2,65.2,21.3c11,5.3,22.3,10.2,33.4,15.3c4.7,2.2,9.3,5.3,9,10.7
		c-0.4,6.2-6.2,8.4-11.6,9.3c-12.1,2.1-24.2,4.4-36.4,5.6c-36.1,3.7-72.2,7-108.3,10.5c-3.5,0.3-6.9,1.5-10.9,2.4
		c2.2,10.9,4.7,20.9,6.1,31c2.8,21.4,5.9,42.8,5.4,64.5c-0.4,16.6-0.3,33.2-5.1,49.4c-2,6.9-5.2,12.9-10.5,17.8
		c-3.2,3-3.3,2.9-9.4-0.2c0.1-0.9,0-2,0.4-2.7c9.2-16.8,9.6-35.1,7.9-53.5c-2.2-24.8-4.4-49.6-7.3-74.4c-1.1-9.8-3.9-19.4-6.1-30.1
		c-10.3,1.3-19.8,2-29.1,3.7c-24.8,4.7-49.7,9-74.2,15c-21.2,5.2-42,12.3-62.9,19.1c-5.5,1.8-10.6,5.4-15.5,8.7
		c-5.4,3.7-8.8,4.1-12.3,0.4c-3.6-3.7-3.9-9.4-0.4-13.6c1.7-2,3.8-4,6.1-5c10.4-4.3,20.8-8.9,31.6-12.1
		c19.7-5.9,39.5-11.6,59.5-16.1c19.7-4.4,39.8-7.4,59.8-10.8C1759.7,424.7,1769.9,423.4,1782.1,421.7z M1802.2,420
		c4-0.7,6.9-1.4,9.9-1.6c34.1-3.1,68.2-6.1,102.3-9.4c10.3-1,20.8-1.3,33.1-6.1c-5.1-3-8.2-5.3-11.6-6.8
		c-32.3-14.4-66.3-23.6-100.7-31.4c-18.5-4.2-37-8-55.5-11.9c-1.8-0.4-3.8-0.3-5.6-0.5C1783.5,375.1,1792.7,397.3,1802.2,420z"/>
	<path id="XMLID_239_" class="st0" d="M2114.6,2173.3c-12.6-16.7-29.6-16.6-47.1-12.1c-11.7,3-21.5,9.8-30.8,17.8
		c-16.3,13.9-26.7,32.1-38.7,49.3c-9,12.8-17.9,25.8-28.3,37.4c-7.2,8-16.7,14-25.4,20.7c-3.8,2.9-8.1,5.3-13.2,8.6
		c10.6,5.3,19.7,9.8,28.7,14.5c8.9,4.6,17.6,9.4,26.4,14.1c4.4,2.3,9,4.2,13.3,6.5c11.6,6.4,23.2,12.9,34.7,19.4
		c13.9,7.8,27.9,15.4,41.7,23.5c6.8,4,13.2,8.9,19.8,13.3c7.7,5.2,15.1,11,23.3,15.2c11.1,5.7,20,14.2,29.7,21.7
		c11.3,8.7,22.6,17.4,33.5,26.6c7.6,6.5,14.7,13.5,21.2,21.1c5.4,6.3,10.3,13.5,5.5,22.6c-2.2,4.1-5.6,7.2-10.5,5.5
		c-14.3-5-27.2-12.5-38.2-22.9c-0.6-0.5-0.5-1.8-0.8-3.4c6.7,2.1,13.1,4,19.4,6c0.4-0.6,0.7-1.1,1.1-1.7c-1-1.4-1.7-3.1-2.9-4.2
		c-12.1-10.9-24.2-21.8-36.6-32.4c-4.7-4.1-10.4-7-15.4-10.8c-4.7-3.6-9.1-7.5-13.6-11.3c-1.8-1.5-3.3-3.3-5.2-4.5
		c-21.6-13-43.2-26-64.9-38.8c-7.7-4.6-15.8-8.6-23.7-12.9c-16.9-9.2-33.6-18.9-50.8-27.6c-26.1-13.1-52.7-25.2-78.9-38
		c-19.4-9.5-38.8-19-57.7-29.4c-8.3-4.6-15.4-11.5-23.1-17.3c-1.3-1-2.6-2.2-3.6-3.5c-3.3-4.3-3.2-11.8-0.1-14.8
		c3.6-3.4,8.2-3.3,13.4,1.2c24.7,21.4,54.6,34.1,83.1,49c6.6,3.4,11.7,2.6,18.5-0.5c22-10.1,37.7-26.4,52.1-45.3
		c12.7-16.8,21.9-35.6,34.1-52.6c7.2-10.1,14.1-20.4,24.9-26.9c16.7-10,34.9-13.8,54.4-12.5c9.2,0.6,17.7,2.8,25.5,7.7
		c6.9,4.4,10.8,12.2,9.3,18.3c-0.2,0.9-0.8,1.8-1.4,2.6C2117,2172.6,2116.2,2172.7,2114.6,2173.3z"/>
	<path id="XMLID_240_" class="st0" d="M1655.8,764.6c-5.9-5.5-11.2-10.4-16.5-15.4c-4.8-4.5-5.5-8.5-0.4-12.6
		c6.6-5.3,13.9-10.4,21.7-13.5c26-9.9,53.2-13.9,80.8-16.6c30.3-3,60.5-4.2,90.7-0.9c27.1,2.9,54.3,6,80.9,11.9
		c25.8,5.7,52.5,9.6,76.2,22.8c8.1,4.5,16.6,8.8,23.3,15c11.1,10.3,11.6,28-1.2,38.6c-8.7,7.2-18.1,13.7-28,19
		c-26,13.7-53.6,23.2-81.8,31.2c-30.9,8.8-62.3,10.8-93.9,8.1c-25.8-2.2-51.5-6.7-76.1-15.4c-11.6-4.1-23.3-8.1-34.4-13.2
		c-7.8-3.6-14.9-8.7-22-13.6c-4.4-3.1-8.2-7-7.1-13.6c4.3-4.2,8.6-2.7,13.3-0.2c19.4,10.3,39.3,19.4,60.4,25.5
		c22.1,6.4,44.6,10.4,67.4,13.3c19.3,2.4,38.6,2.5,57.7-0.5c14.6-2.3,29.4-4.4,43.4-10c16.4-6.5,33.2-11.8,49.4-18.8
		c10.6-4.6,20.5-11,30.5-17c3.1-1.8,5.8-4.5,8.3-7.1c8.1-8.4,7.8-11.9-1.6-19.2c-2.1-1.6-4.5-2.8-6.9-4
		c-25.3-13.3-52.6-20.4-80.3-26.5c-61.4-13.5-123.1-17.3-185.6-9.9c-20.2,2.4-40.1,5.8-59.3,13c-3.4,1.3-6.8,2.7-10,4.4
		c-7.3,3.8-7.7,5.7-2.7,12.1C1654.8,755.3,1659.1,758.4,1655.8,764.6z"/>
	<path id="XMLID_243_" class="st0" d="M1841.9,1831.3c1.8,2.9,2.7,4.2,3.5,5.5c2.4,3.6,1.8,7-1.2,9.8c-3.4,3.2-7.6,3.3-10.9,0.3
		c-4.1-3.8-8.2-7.9-11.1-12.7c-7.2-12-14.2-24.1-20.1-36.7c-2.7-5.7-2.9-12.8-3.4-19.3c-0.7-7.6,0.1-15.3-0.8-22.8
		c-1.4-12.4,0.7-23,11-31.3c6.7-5.4,13-11.4,19.2-17.3c10.7-10.1,24.7-13.3,37.9-16.6c29.1-7.3,59-9.2,89-7.4
		c10.6,0.6,21.3,0.7,31.8,2.1c14.1,1.9,28.1,4.3,42,7.4c12,2.7,23.9,6.3,35.6,10.3c11.6,4,22.6,9.4,34.2,13.4
		c16.4,5.6,25.5,17.9,31.6,33c5.4,13.5,0.1,24.7-8.8,34.6c-8.6,9.6-19.9,15.6-31.5,20.8c-32.3,14.4-65.9,24.4-100.7,30.7
		c-30.4,5.6-61,9.8-92,7.9c-17.2-1.1-34.2-4.2-50.4-10.8C1846,1831.7,1845,1831.8,1841.9,1831.3z M1818,1754
		c0,6.3-0.7,11.5,0.2,16.5c1.3,7.8,3.9,15.5,5.3,23.3c1.7,9.6,8,15,16.2,18.8c19.2,8.9,39.6,13.5,60.6,14.8c11.3,0.7,22.6,0,34-0.2
		c7.3-0.2,14.6-0.4,21.8-1.4c8.2-1.1,16.3-3,24.4-4.4c11.1-2,22.3-3.4,33.1-6.2c9.9-2.5,19.6-6.2,29.1-10
		c16.4-6.4,32.8-12.8,48.7-20.2c6.8-3.1,13.1-8.1,18.6-13.3c6.8-6.4,7.1-13.4,2.8-21.8c-3.8-7.4-9.8-12.5-16.5-17
		c-23.4-15.6-49.9-23.5-76.7-30.3c-44.4-11.4-89.4-13.1-134.8-7.7c-19.1,2.3-37,8.2-53.2,18.9c-7.4,4.9-13.3,11.3-15.5,20.1
		C1814.2,1741.3,1812.2,1749,1818,1754z"/>
	<path id="XMLID_244_" class="st0" d="M1757.7,1099c2.6,6.3,5.1,11.6,7.1,17.2c0.7,2,0.1,4.4-1.2,7c-4-7.8-8-15.7-12.3-24
		c-5.5,0.8-10.7,1.8-15.9,2.4c-5.6,0.7-11.2,1.1-16.9,1.4c-4.1,0.2-7.2-1.2-8.1-5.6c-0.9-4.6,1.1-8.6,5.5-10.4
		c1.8-0.7,3.8-1.2,5.7-1.5c36.4-3.9,72.7-8.6,109.1-11.4c26.5-2.1,53.2-1.7,79.8-2.4c4.6-0.1,9.2,0,14.4,0c-0.2-1.9,0-3.4-0.6-4.2
		c-9.2-12.6-18.8-24.9-27.6-37.8c-5.4-7.9-9.5-16.7-14.1-25.2c-0.5-0.9-0.9-1.8-1.1-2.8c-0.8-3.6-1.9-7.4,1.9-10c3-2,9-0.6,11.7,3
		c2,2.6,3,6,5,8.6c15.7,21.1,31.4,42,47.2,63c3.1,4.1,6.9,5.4,12.1,4.9c18.3-1.9,36-5.9,52.8-13.6c7.2-3.3,14.8-5.7,21.9-9.1
		c3.4-1.6,6.1-4.7,9.3-7.3c4,8.9,3.9,10.6-2.6,14.5c-16.3,9.6-33,18.5-51.7,23.1c-8,2-15.8,4.8-24.3,7.4
		c5.3,7.2,10.7,14.2,15.8,21.4c10.4,14.6,20.4,29.6,31,44c17.9,24.3,36.3,48.4,54.4,72.6c3.4,4.6,9.3,8.1,7.2,15.6
		c-7,3.2-12.3,0-16.7-4.8c-10.1-11-20.8-21.7-29.8-33.6c-25.6-33.9-50.6-68.3-75.8-102.5c-2-2.7-4.6-4.8-6.6-7.4
		c-2.5-3.2-5.5-4.2-9.6-4.1c-31.6,0.7-63.2,0.6-94.8,2.1c-19.2,0.9-38.3,4-57.5,6.1c-4.6,0.5-9.3,0.9-13.9,1.5
		C1765,1097.4,1761.5,1098.2,1757.7,1099z"/>
	<path id="XMLID_245_" class="st0" d="M2113.5,2009.3c-7.9-5.8-15.3-8.7-23-10.2c-18.3-3.5-36.6-7.3-55-9.7
		c-32-4.1-64.2-6.9-96.2-10.9c-28.5-3.5-57-4.5-85.7-2.8c-20.6,1.2-40.2,4.6-56,19.3c-3.9-7.2-2.4-14,3.9-18.1
		c3.3-2.2,7-4.1,10.8-5.1c10.6-2.6,21.3-5.6,32.1-6.5c17.8-1.6,35.8-2.1,53.7-2.3c12.9-0.1,25.9,1.1,38.8,1.7
		c22,0.9,43.7,3.4,65.2,8.1c6.4,1.4,13.1,1.5,19.7,1.7c6,0.2,12-0.4,17.1,3.8c1,0.8,3.2,0.2,4.8,0.3c3,0.1,6-0.3,8.8,0.5
		c12,3.2,24.3,4.8,36.6,6.9c7.3,1.3,15.9,1.7,22.1,7.8c1.2,1.2,4,0.5,5.6,1.4c3.5,1.8,7,3.8,9.9,6.4c4.2,3.8,5.3,8.9,1.6,13.5
		c-4.5,5.7-9.1,11.6-14.7,16c-14,10.9-29.6,19-46.2,25.5c-18.9,7.4-37.6,15.1-57.7,19c-32.5,6.3-64.8,5.1-96.8-3.5
		c-7.3-2-15.2-1.9-22.5-4c-27.8-7.6-55-17-81.7-27.9c-6.1-2.5-11.6-6.4-17.4-9.7c-0.3-0.2-0.5-0.4-0.8-0.7c-5.6-4.8-7.3-12-3.7-15.7
		c3.2-3.2,9.8-1.4,15.4,2c9.9,6,20,12.1,30.8,16c29.6,10.9,59.8,20.2,91,25.6c30.4,5.3,61.1,6.9,91.2-0.8
		c23.2-5.9,45.7-14.4,66.8-26c7.8-4.3,15.4-9.3,22.9-14.2C2107.7,2015,2109.9,2012.5,2113.5,2009.3z"/>
	<path id="XMLID_246_" class="st0" d="M374.2,3047.9c-8.4,4.6-17.5,4.5-26.4,1.6c-9.5-3.1-17.9-8.6-25.9-14.7
		c-16.4-12.6-31.2-26.9-45.5-41.8c-19.7-20.5-36.6-42.8-50.6-67.5c-7.9-13.9-5.8-38.5,4.3-50.8c3.4-4.1,7-8,11.5-11.5
		c-1.1,3-2.3,6-3.2,9.1c-5.7,19.6-3.7,38.2,7.8,55.3c21.1,31.6,44.2,61.6,72.2,87.5c7.1,6.5,14.8,12.4,22.7,17.9
		c7.1,4.9,14.8,9,23.6,10.2c3.2,0.4,6.4,1.4,9.6,2.1C374.3,3046.2,374.3,3047.1,374.2,3047.9z"/>
	<path id="XMLID_247_" class="st0" d="M1484.9,2771.7c-1.5-9.1,1.6-18.1,6.2-26.8c6.8-12.9,13.9-25.8,20.2-39
		c10.2-21.6,19.9-43.5,29.8-65.3c8-17.6,15.9-35.1,24.1-52.6c2-4.2,4.4-8.2,7.1-12c1.7-2.3,4-4.7,6.6-5.7c2-0.8,5.3-0.1,7.2,1.2
		c1.4,1,1.9,3.9,1.8,6c0,1.9-0.9,4-2.1,5.5c-12.6,16.3-18.9,35.8-27.6,54.1c-9.3,19.5-16.9,39.8-25.9,59.4
		c-7.6,16.6-16.1,32.8-24.3,49.2c-5.8,11.6-11.6,23.2-12.3,36.5c0,1-0.3,2-0.4,3c-0.3,3.6-2.7,5.9-5.8,5.2c-1.9-0.4-4-3.5-4.4-5.7
		C1484.4,2780.8,1484.9,2776.7,1484.9,2771.7z"/>
	<path id="XMLID_252_" class="st0" d="M894.8,784c0.1,24.4-5.3,25-22.8,27.3c-3,0.4-5.9,1.2-8.9,1.3c-7.8,0.3-14.8-5.7-14-13.4
		c0.9-8.8-2-16.2-5-24c-4.9-12.3-10.4-24.7-10-38.4c0.3-12.3,2.1-24.1,13.9-31.2c13.2-8,26.7-3.6,32.8,10.4
		C890.2,737.7,894.3,760.5,894.8,784z M869.9,798.5c7.5-0.7,9.8-4.2,9.4-10.2c-0.9-11.9-0.7-24.1-2.8-35.8
		c-1.8-10-5.9-19.7-9.4-29.3c-1.2-3.4-3.4-7.6-7.6-6.6c-3.1,0.7-7,3.7-7.9,6.5c-1.8,5.5-3.2,11.8-2.4,17.4
		C852.3,761,859.6,780.2,869.9,798.5z"/>
	<path id="XMLID_256_" class="st0" d="M938.5,579.9c0.2-3.3,0.1-6.7,0.7-9.9c1.3-7.4,4.5-9.6,11.9-10.9c5.5-0.9,11-2.5,16-4.9
		c9.7-4.6,19.4-6.7,29.9-3.8c1.6,0.4,3.4,1,4.9,0.7c9.4-1.6,14,4.1,17.5,11.4c7.2,14.8,10.6,29.9,5.7,46.3c-2.4,8-7,14.2-13.1,19.6
		c-4.7,4.1-19.6,5.1-25.4,2.2c-4.4-2.2-9-4.3-13.7-5.5c-10.1-2.5-19-7.6-25.1-15.4c-4.6-5.9-6.2-14.4-8.7-21.8
		c-0.8-2.4-0.1-5.3-0.1-7.9C938.8,579.9,938.7,579.9,938.5,579.9z M953,574.1c-3.7,14.2-0.3,24.1,11.8,31.1c6.5,3.7,13.8,6.2,20.9,9
		c1.7,0.7,4,0.8,5.8,0.3c7.6-1.9,15.3-4.8,17-13.4c2-10.5,1.8-21.2-5-30.5c-0.4-0.5-1-1-1.6-1.1c-7.5-2.3-14.7-5.8-23.1-2.8
		C970.3,569.7,961.6,571.7,953,574.1z"/>
	<path id="XMLID_259_" class="st0" d="M781.5,588.4c0.4,12-3.4,22.9-9.7,32.9c-5.6,8.8-13,10.4-20.9,4c-3.7-3-7.5-3.2-11.5-4.5
		c-9.1-2.9-18-6.6-26.3-11.3c-3.5-2-6.3-7.2-7.2-11.4c-1.7-7.4-1.9-15.1-2.5-22.7c-0.3-4.3,2.1-6.9,6-8c2.9-0.8,5.8-1.5,8.8-1.8
		c12.5-1,25.1-2.3,37.6-2.3c5.7,0,11.8,2,16.9,4.7C780.2,571.9,781.7,576.9,781.5,588.4z M718.1,581.3c0,17.8,3.1,21.3,24.9,28.9
		c0.8-3,1.6-5.9,2.7-10.4c3,3,4.8,5.1,6.9,7c4.6,4.1,8.4,3.2,10.4-2.6c0.9-2.5,1.5-5.1,1.9-7.7c2.1-13.1-1.1-16.8-14.4-17.3
		c-1.2,0-2.5,0.5-4.1,0.8c-0.5,3.1-1.1,6-1.4,8.9c-0.4,4.3-2.2,8.3-6.6,8.8c-3,0.3-6.3-1.9-9.2-2.9c0.7-5.2,1.3-9,1.9-13.5
		C726.6,581.3,722.7,581.3,718.1,581.3z"/>
	<path id="XMLID_260_" class="st0" d="M991.1,591.3c0.1,4.9-2.3,8.9-5.7,9.1c-3.7,0.3-8-3.4-8.2-6.9c-0.3-5.2,3-9.8,7.3-10.2
		C988.6,582.9,991,585.9,991.1,591.3z"/>
</g>
</svg>
