<?xml version="1.0" encoding="utf-8"?>
<!-- Generator: Adobe Illustrator 19.0.0, SVG Export Plug-In . SVG Version: 6.00 Build 0)  -->
<svg version="1.1" id="Layer_1" xmlns="http://www.w3.org/2000/svg" xmlns:xlink="http://www.w3.org/1999/xlink" x="0px" y="0px"
	 viewBox="0 0 612 792" style="enable-background:new 0 0 612 792;" xml:space="preserve">
<style type="text/css">
	.st0{fill:#FFFFFF;}
</style>
<g id="XMLID_1_">
	<g id="XMLID_7_">
		<path id="XMLID_233_" class="st0" d="M491.7,436.8c0,8,0,16.1,0,24.1c-131,0-261.9,0-392.9,0c0-60.4,0-120.9,0-181.3
			c131,0,261.9,0,392.9,0c0,50.5,0,100.9,0,151.4c-0.1-0.1-0.2-0.3-0.2-0.4c0-2.4-0.6-4.6-1.4-6.8c-0.5-1.6-1.3-3-2-4.5
			c-0.9-1.9-2.1-3.5-3.5-5c-2.8-3-5.7-5.7-9.3-7.8c-1.9-1.1-3.8-2.1-5.9-2.8c-1.9-0.6-3.9-1.2-5.9-1.4c-1.9-0.2-3.9-0.5-5.8-0.5
			c-1.6,0-3.1,0.1-4.7-0.2c-0.9-0.1-1.3-0.4-1.5-1.2c-0.3-1.1-0.5-2.2-0.9-3.2c-1.1-3.6-2.5-7.1-3.8-10.6c-1.2-3-2.3-6-3.5-9.1
			c-0.7-1.7-1.2-3.5-2.9-4.5c-0.5-0.3-0.7-0.8-0.4-1.4c0.3-0.6,0.4-1.3,0.6-2c0.5-1.7,1-3.4,1.4-5.1c0.4-1.5,0.8-3.1,1.2-4.6
			c0.4-1.4,1.3-2.2,2.6-2.6c0.6-0.2,1.2-0.4,1.7-0.6c1.8-1,3.5-2,5.3-3c1.8-1,3.6-1.9,5.2-3.1c1.9-1.3,3.4-2.9,4.6-4.7
			c1.4-2.1,1.8-4.5,1.5-7c-0.2-1.6-0.9-3.1-2-4.3c-0.7-0.8-0.5-1.6,0.6-2c0.2-0.1,0.5-0.2,0.7-0.3c0.7-0.3,1-0.8,1-1.6
			c0-0.7-0.4-1.2-0.8-1.7c-1.1-1.8-2.4-3.4-4.2-4.6c-1-0.7-1.9-1.5-2.8-2.3c-1.6-1.5-3.3-2.8-5.3-3.8c-1.8-0.9-3.6-1.8-5.6-2.4
			c-0.7-0.2-1.3-0.6-2-0.9c0.4-1,0.3-2.1,0.2-3c0-0.4-0.3-0.8-0.5-1.2c-1.1-1.5-2.6-2.1-4.4-1.7c-1.3,0.3-2.5,0.1-3.8,0.2
			c-0.5,0-0.8-0.1-1.2-0.5c-0.7-0.7-1-1.6-1.5-2.4c-0.9-1.6-1.7-3.2-2.9-4.6c-2.2-2.4-4.5-4.6-7.7-5.8c-1.8-0.7-3.6-1.1-5.5-1.3
			c-2.4-0.2-4.8,0.2-7.1,0.9c-2,0.6-3.8,1.6-5.7,2.6c-2.5,1.2-4.9,2.6-7.5,3.7c-1.9,0.8-3.6,1.9-5.2,3.1c-1.5,1.2-3,2.3-4.5,3.5
			c-0.9,0.7-1.9,1.2-3.1,1.2c-1.9,0-3.8,0.2-5.7,0.5c-1.2,0.2-2.4,0.3-3.6,0.6c-3.6,1.1-7.2,2.1-10.5,3.9c-1.5,0.8-2.9,1.7-4.1,3
			c-1,1.1-2,2.2-3,3.3c-1.1,1.2-2,2.6-2.9,4c-1,1.6-2,3.1-3,4.7c-0.3,0.4-0.7,0.6-1.2,0.6c-0.8-0.1-1.6-0.2-2.3-0.2
			c-2.2-0.2-4.2-0.8-6.3-1.2c-2-0.4-4-0.9-6.1-1.2c-2-0.2-4-0.1-6,0c-1.1,0-2.2,0.9-2.3,1.8c-0.1,1.1-0.2,2.3,0.5,3.3
			c0.7,0.9,1.4,1.8,2.1,2.7c0.3,0.3,0.5,0.7,0.8,1c-0.5,0.2-1,0.5-1.4,0.7c-0.9,0.4-1.2,1.1-1.2,2c0,0.6,0.2,1.2,0.6,1.7
			c0.7,0.9,1.5,1.8,2.3,2.8c-0.4,0.4-0.8,0.9-1.3,1.2c-0.9,0.7-1.1,2.3-0.5,3.3c0.4,0.6,0.8,1.2,1.3,1.8c0.8,1.1,0.9,1.1,0.4,2.3
			c-0.3,1-0.4,2-0.1,3c0.3,1.1,0.9,2.1,1.7,2.9c1.2,1.1,2.4,2.4,3.7,3.4c2.4,1.9,5,3.6,7.9,4.8c1.7,0.7,3.5,1.4,5.4,1.8
			c1.6,0.4,3.3,0.8,4.9,1.2c-0.4,0.1-0.9,0-1.3,0.1c-1.7,0.2-3.3,0.5-5,0.8c-0.7,0.1-1.3,0.3-2,0.5c-1.9,0.6-2.1,2.6-1,3.7
			c0.6,0.6,1.3,1.2,2,1.8c-0.4,0-0.7,0-1.1,0c-2.6,0.1-5.2-0.1-7.8,0.2c-1.9,0.2-3.9,0.2-5.9,0.3c-1.8,0.1-3.6,0.2-5.4,0.3
			c0,0-0.1,0-0.1,0c-1.2,0.5-2.4,0.1-3.6,0.3c-0.5,0.1-0.7-0.3-0.8-0.6c-0.2-0.8-0.4-1.6-0.6-2.4c-0.6-3.1-1.2-6.2-1.9-9.2
			c-0.2-1.2-0.5-2.4-0.8-3.5c-0.4-1.2-1.3-1.7-2.5-1.4c-0.9,0.3-1.8,0.6-2.7,1c-1.9,0.7-3.9,1.4-5.9,2.2c0.2-0.2,0.2-0.3,0.3-0.4
			c1.3-0.8,2-2,2.5-3.4c0.8-2.2,1.9-4.3,2.9-6.4c1.1-2.4,2.1-4.8,3-7.3c1.5-4.1,2.9-8.3,4.3-12.5c1-3,2.1-5.9,3.1-8.9
			c0.2-0.6,0.5-0.9,1-1.1c1.1-0.5,2.1-1,3.2-1.5c2.4-1,4.1-2.7,6-4.3c0.4-0.3,0.7-0.7,1.1-1c1.3-1.2,2.7-2.3,4-3.6
			c0.5-0.5,0.6-1.7,0.2-2.2c-1.3-1.7-2.8-3.1-4.4-4.6c-0.7-0.7-1.7-1.2-2.6-1.7c-2.6-1.5-5.6-2.1-8.5-2.4c-0.4,0-0.8-0.1-1-0.4
			c-0.3-0.4-0.7-0.8-0.9-1.3c-0.6-1.2-1.3-2.3-2.1-3.4c-1.6-2.2-3.7-3.6-6.3-4.3c-0.4-0.1-0.9,0-1.3-0.1c-1.2-0.3-2.5-0.4-3.7-0.5
			c-1.7-0.1-3.3,0.2-4.9,0.5c-1.7,0.3-3.3,0.8-4.9,1.5c-2.4,1.1-4.4,2.8-6.3,4.5c-1.3,1.1-2.4,2.5-3.7,3.5c-1.7,1.3-3.4,2.8-5,4.2
			c-1.8,1.5-3.5,3-5.3,4.5c-0.6,0.5-1.3,1-1.9,1.6c-0.5,0.5-1,0.9-1.4,1.5c-0.9,1.2-1.8,2-3.4,2.3c-2.9,0.7-5.7,1.7-8.4,3.1
			c-1.7,0.9-3.4,1.8-5,2.7c-2,1.2-4.2,2-6.6,2.1c-0.8,0-1.6,0.1-2.3,0.3c-1.5,0.4-3.1,0.5-4.6,0.8c-0.9,0.2-1.8,0.1-2.7,0.3
			c-1.7,0.3-3.5,0.3-5.2,0.5c-1.6,0.1-3.1,0.2-4.7,0.3c0,0-0.1,0-0.1,0c-0.7,0.4-1.5,0.2-2.2,0.3c-0.7,0.1-1.5,0.2-2.2,0.3
			c-0.8,0.1-1.6,0.2-2.4,0.3c-0.6,0.1-1.2,0.4-1.8,0.6c-1.9,0.8-2.8,4.1-0.8,5.5c0.8,0.6,1.7,1,2.7,1.2c0.6,0.2,1.3,0.3,1.7,0.6
			c-0.5,0.5-1,1-1.4,1.5c-1.1,1.3-1.2,2.9-1.3,4.5c-0.1,1.6,0.6,2.7,2,3.3c0.7,0.3,1.5,0.6,2.2,0.9c-0.3,0.7-0.7,1.3-0.8,2
			c-0.5,1.8-0.2,3.5,2.2,4.3c1.3,0.4,2.6,0.8,3.9,0.8c-0.2,0.9-0.3,1.7-0.5,2.4c-0.4,1.6,0.3,2.9,1.4,3.9c0.7,0.6,1.6,1.1,2.4,1.5
			c1.9,0.9,3.9,1.7,5.8,2.7c2.2,1.1,4.4,2.1,6.5,3.3c2.2,1.2,4.4,2.5,6.6,3.7c1.6,0.8,3.2,1.6,4.8,2.3c2.1,0.9,4.3,1.6,6.5,2.1
			c1,0.2,2.1,0.4,3.2,0.7c-0.5,0.5-0.9,0.8-1.2,1.1c-0.7,0.9-0.6,2,0.3,2.7c0.6,0.4,1.2,0.8,1.9,1.1c0.9,0.4,1.8,0.6,2.7,0.9
			c0.8,0.3,0.9,0.7,0.6,1.5c-0.5,1.5-1.1,3-1.6,4.5c-0.8,2.2-1.6,4.4-2.4,6.6c-0.3,0.9-0.7,1.1-1.6,0.9c-0.5-0.1-0.9-0.2-1.4-0.2
			c-0.9-0.1-1.7-0.1-2.6-0.3c-1.4-0.3-2.8-0.5-4.3-0.5c-0.7,0-1.2,0.2-1.6,0.9c-0.4,0.8-1.1,1.1-2,1c-1.3-0.1-2.6,0-3.9,0.5
			c-4.1,1.3-8.3,2.5-12,4.6c-1.1,0.6-2.2,1.2-3.1,2.1c-1.8,1.7-3.6,3.3-4.8,5.5c-1.5,2.7-2.6,5.5-3,8.5c-0.1,0.7-0.1,1.5-0.3,2.2
			c-0.3,1.3-0.5,2.6-0.5,4c0,0.6,0,1.1,0,1.7c0,0.7,0,1.5-0.2,2.2c-0.2,0.7,0.2,1.4,0.2,2.2c0.1,2.1-0.1,4.2,0.3,6.3
			c0.2,0.9,0.2,1.7,0.4,2.6c0.3,1.3,0.7,2.6,1.2,3.8c0.9,2.4,2.2,4.6,3.8,6.5c2.1,2.5,4.6,4.5,7.5,6c3,1.6,6.1,3,9.4,3.8
			c2.1,0.5,4.3,1,6.5,0.9c1.9-0.1,3.8,0.1,5.8-0.2c1.2-0.2,2.5-0.4,3.7-0.8c2.4-0.7,4.7-1.7,6.9-3c2.1-1.2,3.9-2.7,5.7-4.3
			c1.5-1.4,3-2.7,4.2-4.4c0.8-1.1,1.7-2.2,2.3-3.4c1.5-2.8,2.6-5.8,3.4-8.9c0.2-1,0.5-1.9,0.8-2.9c0.4-1.3,0.6-1.5,2-1.4
			c1.7,0.1,3.5-0.2,5.2,0.3c2.3-0.2,4.5,0.3,6.8,0.3c1.2,0,2.3,0,3.5,0.2c0.5,0.1,0.8,0.2,1.1,0.6c0.3,0.3,0.4,0.7,0.7,1.1
			c0.9,1.6,2.1,2.9,3.6,3.9c1.1,0.7,2.4,1.3,3.5,1.9c1.1,0.6,1.3,1,1,2.1c-0.1,0.3-0.1,0.5-0.2,0.7c-0.2,0.6-0.4,0.9-1.1,0.9
			c-0.6,0-1.3,0.1-1.9,0.3c-0.6,0.2-1.1,0.3-1.4,1c-0.6,1.6,0.6,3.4,2.3,3.5c1.6,0,3.2,0,4.8,0c0.9,0,1.8-0.2,2.6-0.8
			c0.7-0.7,1.5-1.3,1.5-2.5c0-0.5,0.2-0.9,0.4-1.5c0.5,0.1,1,0.1,1.5,0.2c0.8,0.2,1.7,0.4,2.5,0.7c0.7,0.2,1.2-0.2,1.8-0.4
			c0-0.5,0.1-1,0-1.5c-0.1-0.3-0.3-0.7-0.6-0.8c-0.7-0.4-0.9-1-0.9-1.9c0-0.8-0.3-1.1-1-1.3c-0.3-0.1-0.7-0.1-1-0.1
			c0.7-0.9,1.4-1.7,2.1-2.5c1-1.1,1-1.1,2.5-1.1c1.9,0,3.8,0.1,5.8,0.2c4.2,0.2,8.4,0,12.6,0c0.4,0,0.8,0.1,1,0
			c0.6-0.3,1.2-0.2,1.8-0.2c0.6-0.1,1.3-0.2,1.9-0.3c1.1-0.1,2.3,0,3.4-0.2c0.9-0.2,1.9,0,2.9-0.1c1,0,2-0.2,3-0.3
			c1.3-0.1,2.7-0.2,4-0.3c0,0,0.1,0,0.1,0c1.4-0.6,2.8-0.1,4.3-0.5c1-0.3,2.1-0.1,3.1-0.3c1.5-0.2,3-0.2,4.6-0.3
			c3.2-0.2,6.4,0,9.5-0.1c0.4,0,0.8,0.1,1,0.4c0.3,0.3,0.5,0.7,0.8,1c0.5,0.6,0.8,1.3,1.4,1.9c1.6,1.8,3.4,3.4,5.6,4.5
			c0.7,0.4,0.9,0.8,0.6,1.5c-0.4,1.2-0.8,2.4-1.3,3.5c-0.3,0.7-0.7,1.2-1.6,1.1c-0.5,0-1.1,0-1.6,0c-1.2,0.1-1.8,0.7-1.5,1.9
			c0.2,1.1,0.5,2.3,1.9,2.4c0.5,0.1,0.9,0.2,1.4,0.2c1.6,0.1,3.1,0.2,4.7,0.3c0.2,0,0.3,0.1,0.5,0.2c1.3,0.3,2.3-0.3,2.6-1.6
			c0.1-0.4,0.2-0.8,0.2-1.1c0-0.4,0.1-0.5,0.5-0.6c0.5-0.1,1.1-0.3,1.6-0.6c0.8-0.5,0.8-1.4,0.2-2c-0.3-0.4-0.8-0.6-1.1-0.9
			c0.3-0.5,0.8-1,0.9-1.5c0-0.5-0.4-1.1-0.6-1.7c0.2-0.1,0.4-0.2,0.6-0.2c1.5-0.3,3-0.8,4.3-1.7c1-0.7,2.1-1.3,3.1-2.1
			c1-0.8,2-1.6,2.8-2.6c0.5-0.6,0.9-1.5,1.2-2.3c0.2-0.8,0.2-1.6,0.3-2.4c0-0.1,0-0.3,0-0.4c-0.4-1.6-0.5-3.2-1.2-4.8
			c-0.2-0.3-0.1-0.9,0-1.3c0.1-0.5,0.4-1,0.7-1.4c1.5-2.4,3-4.8,4.4-7.2c2-3.3,3.9-6.7,5.9-10.1c1.6-2.7,3-5.5,3.9-8.5
			c0.6-1.7,1-3.4,1.6-5.1c0.3-1,0.8-1.9,1.6-2.7c0.7-0.6,1.4-0.5,1.8,0.3c0.2,0.4,0.4,0.8,0.5,1.2c0.8,2.2,1.7,4.4,2.5,6.7
			c0.9,2.3,1.8,4.6,2.6,6.9c0.1,0.2,0.1,0.4,0.1,0.5c-0.1,0.1-0.1,0.1-0.2,0.1c-0.1,0-0.3,0-0.4,0c-2.8-0.1-5.3,0.6-7.7,1.9
			c-1.4,0.8-2.9,1.6-4.2,2.6c-1.6,1.2-3.3,2.3-4.5,3.9c-1.1,1.4-1.9,2.9-2.3,4.6c-0.5,2.3-1.1,4.5-1.4,6.8c-0.2,2.2-0.3,4.8,0.2,6.7
			c0.4,1.5,0.8,3,1.4,4.4c0.9,2.4,2.4,4.6,4.1,6.5c1.5,1.7,3.1,3.3,4.9,4.8c2,1.6,4,3,6.3,4.2c1.3,0.7,2.6,1.2,3.9,1.8
			c2,0.9,4,1.6,6.1,2.1c1.7,0.4,3.4,0.9,5.1,1.3c2.4,0.5,4.8,1.1,7.2,1.4c0.7,0.1,1.5,0.1,2.2,0.3c1.4,0.4,2.9,0.4,4.4,0.5
			c1.9,0.1,3.8,0.1,5.8-0.2c1.3-0.2,2.6-0.3,3.8-0.6c2.8-0.7,5.3-1.9,7.3-4c1.2-1.2,2.2-2.6,3.1-4c2-3.3,3.2-6.8,3.4-10.6
			C491.5,437,491.6,436.9,491.7,436.8z M165.6,404.1c0,0-0.2,0.1-0.3,0.2c-2,0.4-4.1,0.9-6.1,1.1c-1.6,0.2-3.2,0.5-4.9,0.8
			c-2.2,0.4-4.3,1.1-6.3,2c-1.6,0.7-3.3,1.4-4.9,2c-2.7,1-5.6,1.9-8.4,2.6c-1.7,0.4-3.5,0.8-5.2,1.2c-0.8,0.2-1.7,0.3-2.3,0.7
			c-1,0.6-1.9,0.9-3.1,0.7c-1.3-0.2-2.5-0.4-3.6-0.9c-2-0.8-3.6-2.1-4.4-4.2c-0.4-1-0.3-2,0.5-2.9c0.6-0.6,1.2-1,2-1.2
			c1-0.2,1.8,0.4,1.4,1.3c-0.3,0.7-0.1,1.5-0.2,2.2c-0.1,0.5,0.2,0.7,0.5,1c1.1,0.9,3.1,0.8,4.2-0.2c0.3-0.3,0.5-0.6,0.9-0.8
			c1.7-1.2,2.4-2.7,1.9-4.8c-0.6-2.4-1.9-4.1-3.9-5.5c-1.2-0.9-2.6-1.4-4-1.7c-1.5-0.3-3-0.1-4.5,0.4c-1.2,0.4-2.1,1.1-3.1,1.8
			c-0.9,0.6-1.6,1.4-1.9,2.4c-0.5,1.4-0.9,2.8-1.1,4.2c-0.2,1.8-0.2,3.7,0.3,5.5c0.8,3.1,2.1,5.8,4.5,8.1c1.9,1.8,4.1,2.9,6.7,3
			c0.6,0,1.2,0.1,1.8,0.3c0.2,0.1,0.4,0.4,0.4,0.6c0.1,0.3,0.1,0.7,0,0.9c-0.3,0.6-0.2,1.3-0.2,1.9c0,1.2,0,2.3,0.2,3.5
			c0.4,1.9,0.9,3.7,1.9,5.3c0.6,0.9,1.2,1.8,1.8,2.7c-0.8,0.6-1.6,1.1-2.3,1.6c-3.2,2.2-6.7,3.8-10.3,5.2c-2.5,1-5.1,2-7.5,3.1
			c-1.1,0.5-2.2,1.1-3.2,1.7c-1.1,0.7-2.1,1.6-2.9,2.5c-0.9,1.1-0.8,2.4-0.8,3.6c0,1.4,0.8,2.5,2.3,2.9c0.3,0.1,0.7,0.2,1,0.2
			c1.5,0.2,2.9-0.2,4.4-0.6c2.6-0.7,5.1-1.5,7.7-2.3c0.5-0.1,1-0.2,1.6-0.3c0,0.2,0.1,0.4,0.1,0.6c0,0.8,0.1,1.6,0.4,2.3
			c0.4,0.8,0.9,1.5,1.8,1.6c0.9,0.1,2,0.1,2.9-0.1c1.9-0.4,3.7-1.2,5.2-2.5c1.9-1.4,3.8-2.9,5.5-4.6c1-1,1.9-2.1,2.9-3.1
			c1.9-2.1,3.5-4.4,4.7-7c0.1-0.2,0.2-0.5,0.4-0.7c0.9-1.2,1.3-2.5,1.2-4c-0.1-1.2,0-1.2,1.1-1.6c1.6-0.6,3.3-1.1,4.9-1.7
			c3.2-1.2,6.5-2.4,9.9-3.1c1.8-0.4,3.5-0.3,5.2-0.1c1.9,0.1,3.7,0.8,5.6,1.1c1.7,0.3,3.3,0.1,4.8-0.4c1.7-0.6,3.4-1.4,5-2.2
			c2.3-1.2,4.8-2.1,7-3.5c0.5-0.3,1.1-0.4,1.7-0.1c0.4,0.2,0.8,0.3,1.2,0.3c3.2-0.1,6.3,0.3,9.5-0.2c0.9-0.2,1.8-0.2,2.7-0.3
			c0.6-0.1,1.3-0.2,1.9-0.4c1.2-0.3,2.4-0.6,3.6-0.9c0.6-0.2,1.2-0.4,1.9-0.5c1.5-0.4,2.7-1.1,3.8-2.2c0.6-0.7,1-1.6,0.8-2.5
			c-0.2-1.1-0.6-2.1-1.8-2.5c-0.2,0-0.3-0.2-0.5-0.3c1.1-0.4,1.7-1.1,2.4-1.9c0.8-0.9,0.8-2,0.4-3c-0.5-1.6-2.8-2.7-4.5-2.5
			c-0.2,0-0.3,0.1-0.5,0.2c-2.1,0.9-4.1,1.7-6.2,2.6c-2.4,1-4.9,1.8-7.3,2.8c-0.5-2.3-1.1-4.6-1.6-7.1c0.5,0.1,1,0.3,1.4,0.3
			c1.2,0.1,2.4,0.1,3.7,0.2c1.3,0.2,2.6,0.1,4,0c0.8-0.1,1.5-0.4,2.1-1.1c1.1-1.6,1.9-3.4,2.5-5.3c0.4-1.1,0.3-2.4-0.4-3.4
			c-0.5-0.6-1.1-1.1-1.7-1.6c-0.8-0.6-1.7-1-2.5-1.5c0.1-0.1,0.1-0.2,0.1-0.3c0.1-0.1,0.2-0.3,0.4-0.4c1.3-0.9,1.8-2.1,1.9-3.6
			c0-0.9-0.2-1.6-0.5-2.4c-0.8-2.2-2.4-3.6-4.5-4.5c-0.5-0.2-1.2-0.4-1.8-0.3c-1.2,0.3-2.4,0.6-3.5,1.3c-1.3,0.9-2.3,2.1-3.2,3.4
			c-0.9,1.2-2,2.2-3.3,3c-1.9,1.2-4,1.5-6.2,1.8c-1.1,0.2-2.2,0.1-3.2,0.3c-0.8,0.1-1.6,0.1-2.3,0.3c-1.8,0.4-3.6,0.7-5.4,1.2
			c-2.5,0.8-4,2.5-4,5.1C165.3,402,165.5,403.1,165.6,404.1z M355.5,282.9c-0.3-0.5-0.6-1-0.9-1.4c-1-1.2-2-2.2-3.8-1.5
			c-0.2,0.1-0.4,0-0.7,0c-1.4-0.1-2.7,0.3-4,0.6c-1.6,0.3-2.7,1.7-2.7,3.4c0,1.6-0.1,3.2,0.2,4.8c0.3,1.4,0.8,2.6,1.5,3.7
			c1.7,2.4,3.7,4.6,5.5,6.9c1.3,1.6,2.7,3.1,4,4.7c0.4,0.5,0.9,0.8,1.6,0.6c0.2-0.1,0.4-0.2,0.6-0.2c1.2,0,1.8-0.7,2.3-1.7
			c0.4-0.9,0.8-1.7,1.2-2.6c1.4-3,2.9-5.9,4.3-8.9c0.6-1.2,1.1-2.5,1.5-3.8c1.1-3.4-1-6.6-4.8-6.8
			C359.2,280.4,357.1,281.1,355.5,282.9z"/>
		<path id="XMLID_196_" d="M491.7,436.8c-0.1,0.1-0.2,0.3-0.2,0.4c-0.2,3.9-1.4,7.4-3.4,10.6c-0.9,1.5-1.9,2.8-3.1,4
			c-2,2.1-4.5,3.3-7.3,4c-1.3,0.3-2.6,0.4-3.8,0.6c-1.9,0.3-3.9,0.2-5.8,0.2c-1.5-0.1-2.9-0.1-4.4-0.5c-0.7-0.2-1.5-0.2-2.2-0.3
			c-2.4-0.3-4.8-0.8-7.2-1.4c-1.7-0.4-3.4-0.8-5.1-1.3c-2.1-0.5-4.1-1.2-6.1-2.1c-1.3-0.6-2.6-1.2-3.9-1.8c-2.2-1.2-4.3-2.6-6.3-4.2
			c-1.8-1.4-3.4-3.1-4.9-4.8c-1.7-1.9-3.1-4-4.1-6.5c-0.6-1.5-1-2.9-1.4-4.4c-0.5-2-0.5-4.6-0.2-6.7c0.3-2.3,0.8-4.6,1.4-6.8
			c0.4-1.7,1.2-3.2,2.3-4.6c1.3-1.6,3-2.7,4.5-3.9c1.3-1,2.7-1.8,4.2-2.6c2.4-1.3,5-2,7.7-1.9c0.1,0,0.3,0,0.4,0
			c0,0,0.1-0.1,0.2-0.1c0-0.2,0-0.4-0.1-0.5c-0.9-2.3-1.8-4.6-2.6-6.9c-0.8-2.2-1.7-4.4-2.5-6.7c-0.2-0.4-0.3-0.8-0.5-1.2
			c-0.4-0.8-1.1-0.9-1.8-0.3c-0.8,0.7-1.3,1.7-1.6,2.7c-0.6,1.7-1,3.4-1.6,5.1c-1,3-2.3,5.8-3.9,8.5c-2,3.3-3.9,6.7-5.9,10.1
			c-1.4,2.4-3,4.8-4.4,7.2c-0.3,0.4-0.5,0.9-0.7,1.4c-0.1,0.4-0.2,0.9,0,1.3c0.7,1.5,0.8,3.2,1.2,4.8c0,0.1,0,0.3,0,0.4
			c-0.1,0.8-0.1,1.7-0.3,2.4c-0.3,0.8-0.6,1.7-1.2,2.3c-0.8,1-1.8,1.8-2.8,2.6c-1,0.8-2.1,1.4-3.1,2.1c-1.3,0.9-2.8,1.4-4.3,1.7
			c-0.2,0-0.4,0.1-0.6,0.2c0.2,0.6,0.6,1.1,0.6,1.7c0,0.5-0.5,0.9-0.9,1.5c0.3,0.2,0.7,0.5,1.1,0.9c0.6,0.6,0.6,1.5-0.2,2
			c-0.5,0.3-1,0.5-1.6,0.6c-0.4,0.1-0.5,0.2-0.5,0.6c0,0.4-0.2,0.8-0.2,1.1c-0.3,1.3-1.4,2-2.6,1.6c-0.2,0-0.3-0.1-0.5-0.2
			c-1.6-0.1-3.1-0.2-4.7-0.3c-0.5,0-0.9-0.2-1.4-0.2c-1.5-0.2-1.7-1.4-1.9-2.4c-0.3-1.1,0.3-1.8,1.5-1.9c0.5,0,1.1,0,1.6,0
			c0.8,0.1,1.3-0.4,1.6-1.1c0.5-1.2,0.9-2.3,1.3-3.5c0.2-0.7,0.1-1.1-0.6-1.5c-2.2-1.1-4-2.7-5.6-4.5c-0.5-0.6-0.9-1.3-1.4-1.9
			c-0.3-0.4-0.5-0.7-0.8-1c-0.3-0.3-0.6-0.4-1-0.4c-3.2,0-6.4-0.1-9.5,0.1c-1.5,0.1-3.1,0.1-4.6,0.3c-1,0.1-2.1,0-3.1,0.3
			c-1.4,0.4-2.9-0.1-4.3,0.5c0,0-0.1,0-0.1,0c-1.3,0.1-2.7,0.2-4,0.3c-1,0.1-2,0.2-3,0.3c-1,0-2-0.1-2.9,0.1
			c-1.1,0.2-2.3,0.2-3.4,0.2c-0.6,0-1.3,0.2-1.9,0.3c-0.6,0.1-1.2-0.1-1.8,0.2c-0.3,0.1-0.7,0-1,0c-4.2,0-8.4,0.1-12.6,0
			c-1.9-0.1-3.8-0.2-5.8-0.2c-1.5,0-1.5,0-2.5,1.1c-0.7,0.8-1.4,1.7-2.1,2.5c0.3,0,0.7,0,1,0.1c0.7,0.2,1,0.5,1,1.3
			c0,0.8,0.2,1.4,0.9,1.9c0.3,0.2,0.5,0.5,0.6,0.8c0.1,0.5,0,1,0,1.5c-0.6,0.2-1.1,0.7-1.8,0.4c-0.8-0.3-1.7-0.5-2.5-0.7
			c-0.5-0.1-1-0.2-1.5-0.2c-0.1,0.6-0.3,1-0.4,1.5c0,1.2-0.8,1.8-1.5,2.5c-0.7,0.6-1.6,0.8-2.6,0.8c-1.6,0.1-3.2,0-4.8,0
			c-1.7,0-2.9-1.8-2.3-3.5c0.3-0.7,0.8-0.9,1.4-1c0.6-0.2,1.3-0.3,1.9-0.3c0.6,0,0.9-0.4,1.1-0.9c0.1-0.2,0.1-0.5,0.2-0.7
			c0.3-1.1,0.1-1.5-1-2.1c-1.2-0.6-2.4-1.2-3.5-1.9c-1.5-1-2.7-2.3-3.6-3.9c-0.2-0.4-0.4-0.8-0.7-1.1c-0.3-0.4-0.6-0.5-1.1-0.6
			c-1.2-0.3-2.3-0.2-3.5-0.2c-2.3,0-4.5-0.5-6.8-0.3c-1.7-0.5-3.5-0.2-5.2-0.3c-1.3,0-1.6,0.2-2,1.4c-0.3,0.9-0.6,1.9-0.8,2.9
			c-0.7,3.1-1.8,6.1-3.4,8.9c-0.7,1.2-1.6,2.3-2.3,3.4c-1.2,1.7-2.7,3-4.2,4.4c-1.7,1.6-3.6,3.1-5.7,4.3c-2.2,1.3-4.5,2.3-6.9,3
			c-1.2,0.3-2.4,0.5-3.7,0.8c-1.9,0.4-3.8,0.2-5.8,0.2c-2.2,0.1-4.4-0.4-6.5-0.9c-3.3-0.8-6.4-2.2-9.4-3.8c-2.9-1.5-5.4-3.5-7.5-6
			c-1.6-1.9-2.9-4.1-3.8-6.5c-0.5-1.2-0.8-2.5-1.2-3.8c-0.2-0.8-0.2-1.7-0.4-2.6c-0.4-2.1-0.2-4.2-0.3-6.3c0-0.7-0.3-1.5-0.2-2.2
			c0.2-0.7,0.2-1.5,0.2-2.2c0-0.6,0-1.1,0-1.7c0-1.4,0.2-2.7,0.5-4c0.2-0.7,0.2-1.5,0.3-2.2c0.4-3,1.5-5.8,3-8.5
			c1.2-2.2,3.1-3.8,4.8-5.5c0.9-0.9,2-1.5,3.1-2.1c3.8-2.1,7.9-3.3,12-4.6c1.3-0.4,2.6-0.5,3.9-0.5c0.9,0,1.6-0.2,2-1
			c0.3-0.7,0.9-0.9,1.6-0.9c1.4,0,2.8,0.2,4.3,0.5c0.8,0.2,1.7,0.2,2.6,0.3c0.5,0.1,0.9,0.2,1.4,0.2c0.9,0.2,1.3-0.1,1.6-0.9
			c0.8-2.2,1.6-4.4,2.4-6.6c0.5-1.5,1.1-3,1.6-4.5c0.3-0.8,0.2-1.2-0.6-1.5c-0.9-0.4-1.8-0.6-2.7-0.9c-0.7-0.3-1.3-0.6-1.9-1.1
			c-0.9-0.7-1-1.8-0.3-2.7c0.3-0.4,0.7-0.7,1.2-1.1c-1.1-0.2-2.2-0.4-3.2-0.7c-2.2-0.5-4.4-1.2-6.5-2.1c-1.6-0.7-3.2-1.5-4.8-2.3
			c-2.2-1.2-4.4-2.5-6.6-3.7c-2.2-1.1-4.3-2.2-6.5-3.3c-1.9-0.9-3.9-1.7-5.8-2.7c-0.9-0.4-1.7-0.9-2.4-1.5c-1.1-1-1.8-2.3-1.4-3.9
			c0.2-0.8,0.3-1.6,0.5-2.4c-1.3,0-2.6-0.4-3.9-0.8c-2.4-0.8-2.7-2.5-2.2-4.3c0.2-0.6,0.5-1.2,0.8-2c-0.7-0.3-1.4-0.6-2.2-0.9
			c-1.4-0.7-2.1-1.8-2-3.3c0.1-1.6,0.2-3.2,1.3-4.5c0.4-0.5,0.9-1,1.4-1.5c-0.5-0.3-1.1-0.5-1.7-0.6c-1-0.2-1.9-0.6-2.7-1.2
			c-1.9-1.4-1.1-4.7,0.8-5.5c0.6-0.2,1.2-0.5,1.8-0.6c0.8-0.2,1.6-0.2,2.4-0.3c0.7-0.1,1.5-0.2,2.2-0.3c0.7-0.1,1.5,0.1,2.2-0.3
			c0,0,0.1,0,0.1,0c1.6-0.1,3.1-0.1,4.7-0.3c1.7-0.1,3.5-0.2,5.2-0.5c0.9-0.2,1.8-0.1,2.7-0.3c1.5-0.3,3.1-0.4,4.6-0.8
			c0.8-0.2,1.5-0.3,2.3-0.3c2.4,0,4.5-0.9,6.6-2.1c1.6-1,3.3-1.8,5-2.7c2.6-1.4,5.5-2.4,8.4-3.1c1.6-0.4,2.5-1.1,3.4-2.3
			c0.4-0.5,0.9-1,1.4-1.5c0.6-0.6,1.3-1.1,1.9-1.6c1.8-1.5,3.5-3,5.3-4.5c1.7-1.4,3.3-2.9,5-4.2c1.4-1,2.5-2.4,3.7-3.5
			c2-1.7,3.9-3.4,6.3-4.5c1.6-0.7,3.2-1.2,4.9-1.5c1.6-0.3,3.3-0.6,4.9-0.5c1.2,0.1,2.5,0.1,3.7,0.5c0.4,0.1,0.9,0,1.3,0.1
			c2.6,0.7,4.7,2.1,6.3,4.3c0.8,1.1,1.5,2.2,2.1,3.4c0.2,0.5,0.6,0.8,0.9,1.3c0.3,0.3,0.6,0.4,1,0.4c3,0.3,5.9,0.9,8.5,2.4
			c0.9,0.5,1.8,1,2.6,1.7c1.5,1.4,3.1,2.9,4.4,4.6c0.4,0.5,0.3,1.7-0.2,2.2c-1.3,1.2-2.7,2.4-4,3.6c-0.4,0.3-0.7,0.7-1.1,1
			c-1.9,1.6-3.7,3.3-6,4.3c-1.1,0.4-2.1,1-3.2,1.5c-0.5,0.2-0.8,0.6-1,1.1c-1,3-2.1,5.9-3.1,8.9c-1.4,4.2-2.8,8.3-4.3,12.5
			c-0.9,2.5-2,4.9-3,7.3c-1,2.1-2.1,4.2-2.9,6.4c-0.5,1.3-1.2,2.6-2.5,3.4c-0.1,0.1-0.1,0.2-0.3,0.4c2.1-0.8,4-1.5,5.9-2.2
			c0.9-0.3,1.8-0.7,2.7-1c1.2-0.4,2.2,0.1,2.5,1.4c0.3,1.2,0.6,2.3,0.8,3.5c0.6,3.1,1.2,6.2,1.9,9.2c0.2,0.8,0.4,1.6,0.6,2.4
			c0.1,0.4,0.3,0.7,0.8,0.6c1.2-0.1,2.5,0.2,3.6-0.3c0,0,0.1,0,0.1,0c1.8-0.1,3.6-0.1,5.4-0.3c2-0.2,4-0.1,5.9-0.3
			c2.6-0.3,5.2-0.1,7.8-0.2c0.3,0,0.7,0,1.1,0c-0.7-0.7-1.4-1.2-2-1.8c-1.1-1.2-1-3.1,1-3.7c0.7-0.2,1.3-0.4,2-0.5
			c1.7-0.3,3.3-0.5,5-0.8c0.4-0.1,0.9,0,1.3-0.1c-1.6-0.4-3.2-0.8-4.9-1.2c-1.9-0.4-3.6-1.1-5.4-1.8c-2.9-1.2-5.4-2.9-7.9-4.8
			c-1.3-1-2.5-2.2-3.7-3.4c-0.8-0.8-1.4-1.8-1.7-2.9c-0.3-0.9-0.3-2,0.1-3c0.4-1.2,0.4-1.2-0.4-2.3c-0.4-0.6-0.9-1.2-1.3-1.8
			c-0.7-1-0.5-2.6,0.5-3.3c0.5-0.4,0.9-0.9,1.3-1.2c-0.8-1-1.6-1.9-2.3-2.8c-0.4-0.5-0.6-1.1-0.6-1.7c0-0.9,0.3-1.6,1.2-2
			c0.5-0.2,0.9-0.4,1.4-0.7c-0.2-0.3-0.5-0.6-0.8-1c-0.7-0.9-1.4-1.8-2.1-2.7c-0.7-1-0.7-2.2-0.5-3.3c0.1-0.9,1.2-1.8,2.3-1.8
			c2-0.1,4-0.2,6,0c2,0.2,4.1,0.8,6.1,1.2c2.1,0.4,4.2,1,6.3,1.2c0.8,0.1,1.5,0.2,2.3,0.2c0.6,0,0.9-0.2,1.2-0.6c1-1.6,2-3.1,3-4.7
			c0.8-1.4,1.8-2.8,2.9-4c1-1.1,2-2.2,3-3.3c1.2-1.2,2.6-2.2,4.1-3c3.3-1.8,6.9-2.9,10.5-3.9c1.2-0.3,2.4-0.4,3.6-0.6
			c1.9-0.3,3.8-0.5,5.7-0.5c1.1,0,2.2-0.5,3.1-1.2c1.5-1.2,3-2.3,4.5-3.5c1.6-1.2,3.3-2.3,5.2-3.1c2.5-1.1,5-2.5,7.5-3.7
			c1.9-0.9,3.7-2,5.7-2.6c2.3-0.7,4.7-1.2,7.1-0.9c1.9,0.2,3.7,0.6,5.5,1.3c3.1,1.2,5.5,3.4,7.7,5.8c1.2,1.4,2,3,2.9,4.6
			c0.5,0.8,0.7,1.7,1.5,2.4c0.4,0.3,0.7,0.5,1.2,0.5c1.3-0.1,2.5,0.1,3.8-0.2c1.8-0.4,3.3,0.2,4.4,1.7c0.2,0.3,0.5,0.8,0.5,1.2
			c0,1,0.2,2-0.2,3c0.7,0.3,1.3,0.7,2,0.9c2,0.6,3.8,1.5,5.6,2.4c1.9,1,3.7,2.3,5.3,3.8c0.9,0.8,1.8,1.6,2.8,2.3
			c1.7,1.2,3,2.8,4.2,4.6c0.3,0.6,0.8,1,0.8,1.7c0,0.8-0.3,1.3-1,1.6c-0.2,0.1-0.5,0.2-0.7,0.3c-1,0.4-1.3,1.2-0.6,2
			c1.1,1.2,1.8,2.7,2,4.3c0.3,2.5-0.1,4.9-1.5,7c-1.2,1.9-2.8,3.4-4.6,4.7c-1.7,1.2-3.5,2.1-5.2,3.1c-1.8,1-3.5,2.1-5.3,3
			c-0.5,0.3-1.1,0.5-1.7,0.6c-1.4,0.4-2.2,1.2-2.6,2.6c-0.4,1.5-0.8,3.1-1.2,4.6c-0.5,1.7-0.9,3.4-1.4,5.1c-0.2,0.7-0.4,1.3-0.6,2
			c-0.2,0.6-0.1,1.1,0.4,1.4c1.7,1,2.2,2.8,2.9,4.5c1.2,3,2.3,6,3.5,9.1c1.4,3.5,2.7,7,3.8,10.6c0.3,1.1,0.6,2.2,0.9,3.2
			c0.2,0.8,0.6,1,1.5,1.2c1.6,0.3,3.1,0.2,4.7,0.2c2,0,3.9,0.3,5.8,0.5c2,0.2,4,0.7,5.9,1.4c2.1,0.7,4,1.7,5.9,2.8
			c3.6,2,6.5,4.8,9.3,7.8c1.4,1.5,2.6,3.2,3.5,5c0.7,1.5,1.5,2.9,2,4.5c0.8,2.2,1.4,4.5,1.4,6.8c0,0.1,0.1,0.3,0.2,0.4
			C491.7,432.9,491.7,434.8,491.7,436.8z M417.6,414.8c0.1-0.2,0.2-0.4,0.3-0.5c0.1-0.2,0.2-0.4,0.3-0.5c0.2-0.2,0.4-0.3,0.5-0.6
			c0.5-0.7,0.9-1.5,1.3-2.2c1.1-1.8,2.3-3.7,3.4-5.5c0.8-1.3,1.6-2.6,2.3-3.9c1-1.6,1.9-3.3,2.4-5.1c0.4-1.5,0.7-3.1,1.1-4.6
			c0.5-2,1.1-3.9,2.1-5.7c1-1.8,2.5-2.8,4.5-2.7c1.9,0.1,3.5,1,4.3,2.9c0.5,1.1,0.9,2.1,1.3,3.2c1,2.5,2,5.1,2.9,7.6
			c0.9,2.6,1.8,5.3,2.7,8c0.8,2.4,2,4.7,3.2,7c0.8,1.6,1.9,3,3,4.4c1,1.3,1.8,2.7,2.5,4.2c0.7,1.7,1.6,3.3,2.4,4.9
			c0.1,0.3,0.6,0.5,0.9,0.5c0.6,0,1.3-0.9,1.3-1.6c0-1.1-0.5-1.9-1.1-2.7c-0.9-1.1-1.8-2.2-2.6-3.4c-1.9-2.6-3.6-5.3-4.8-8.3
			c-0.6-1.3-1.1-2.7-1.5-4.1c-0.5-1.9-1-3.7-1.6-5.6c-1-3.2-1.9-6.4-3.4-9.5c-1-2.1-1.9-4.3-3-6.3c-1.4-2.5-3.1-4.9-4.7-7.3
			c-0.2-0.3-0.5-0.6-0.8-0.9c-0.6-0.6-1-0.6-1.2,0.3c-0.3,1.3-1.2,2.2-1.8,3.3c-0.1,0.2-0.4,0.4-0.6,0.5c-0.8,0.5-1.7,0.8-2.7,0.8
			c-2.2,0.1-4.5,0-6.7,0.2c-2.6,0.3-5.3-0.1-7.9,0.3c-0.6,0.1-1.1,0.3-1.3,0.8c-0.2,0.4-0.1,0.7,0.3,0.7c1.3,0.1,2.6,0.2,3.9,0.3
			c2.3,0.1,4.6,0.1,6.8,0.3c2,0.2,2.9,0.8,3.4,2.8c0.3,1,0,1.9-0.4,2.8c-0.6,1.5-1.3,2.9-1.9,4.4c-0.7,1.6-1.4,3.2-2.1,4.8
			c-1.1,2.5-2.1,5.1-3.3,7.6c-0.8,1.8-1.7,3.6-2.6,5.4c-0.3,0.7-0.6,1.4-0.8,2.2c-0.1,0.2-0.2,0.4-0.3,0.5
			C417.8,414.4,417.7,414.6,417.6,414.8c0,0.1-0.1,0.1-0.1,0.2C417.5,414.9,417.6,414.8,417.6,414.8z M415.5,394.4
			c0.6-0.1,1.3-0.2,1.9-0.3c0.5,0,1,0.5,1,1c0.1,0.8,0,1.4-0.8,1.9c-0.4,0.2-1.1,0.4-1.2,1.1c0.7,0,1.4,0,2.1,0
			c0.9,0,1.6,0.6,1.7,1.4c0,0.4-0.1,0.9-0.4,1.2c-0.2,0.2-0.6,0.4-0.9,0.4c-0.4,0.1-0.9,0.1-1.3,0.2c-0.5,0.1-1-0.1-1.4,0.2
			c0,0.3,0,0.6,0.1,0.8c0.3,0.5,0.1,0.9-0.1,1.2c-0.5,0.6-1,1.1-1.6,1.5c-0.6,0.5-1.4,0.6-2.2,0.5c-1.3-0.2-1.8,0.5-1.7,1.6
			c0.1,0.9,0,1.9,0,2.8c0,0.8,0.1,1.6-0.1,2.4c-0.2,0.8-0.2,1.6-0.2,2.5c-0.1,1,0.3,1.8,1.3,2.2c0.3,0.1,0.6,0.4,1,0.6
			c1.3-2.9,2.7-5.8,4-8.6c0.5-1.1,1-2.2,1.5-3.3c1.1-2.6,2.2-5.3,3.3-7.9c1-2.5,2.1-5,3.1-7.5c0.3-0.7,0.5-1.4,0.8-2.1
			c0.2-0.7,0-1.1-0.8-1.1c-0.7-0.1-1.4-0.2-2.1-0.2c-1.7-0.1-3.5,0-5.2-0.3c-0.9-0.1-1.8,0-2.8,0c-1,0-1.2,0.1-1.4,1
			c-0.7,2.2-1.3,4.4-1.9,6.5c0.3-0.2,0.5-0.5,0.7-0.7c0.5-0.5,0.9-0.9,1.4-1.3c0.7-0.5,1.3-0.3,2,0.1c0.6,0.4,0.3,1,0.3,1.6
			C415.7,393.9,415.6,394.2,415.5,394.4c0,0.1-0.1,0.1-0.1,0.2C415.4,394.5,415.4,394.4,415.5,394.4z M325.5,405.5
			c-0.9,0-1.8,0-2.7,0.4c-0.2,0.1-0.5,0.1-0.6,0.1c-0.7-0.3-1.3-0.7-1.5-1.5c-0.4-1.2-0.4-2.3,0.7-3.2c0.6-0.6,0.8-1.2,0.5-2.1
			c-0.4-1.2-0.6-2.4-0.8-3.6c-0.2-1.2-0.4-2.5-0.6-3.7c-0.2-1.4-0.5-2.8-0.7-4.2c-0.1-0.6-0.2-1.1-0.3-1.7c-0.1-0.5-0.6-0.8-1.2-0.8
			c-1.4,0.1-2.8,0.2-4.2,0.3c-1.3,0.1-2.5,0-3.8,0.2c-1.9,0.2-3.7,0.1-5.6,0.3c-2.3,0.2-4.6,0.2-6.9,0.3c0,0-0.1,0-0.1,0.1
			c0.8,0.5,1.5,1,2.3,1.5c1.8,1.1,3.6,2.2,5.4,3.4c2.2,1.4,4.5,2.8,6.7,4.2c0.2,0.1,0.5,0.3,0.6,0.5c0.4,0.9,0.9,1.8,0.8,2.8
			c0,1.4,0,2.7,0,4.1c0,0.9,0,1.7,0.3,2.6c0.5,1.7,1.3,3.3,3,4.3c1.1,0.7,2.1,1.5,3,2.5c0.8,0.9,1.7,1.7,2.6,2.6
			c0.3-0.5,0.6-0.8,0.8-1.2c0.9-1.7,1.4-3.5,1.9-5.4C325.1,407.3,325.3,406.4,325.5,405.5c0-0.1,0.1-0.1,0.1-0.2
			C325.5,405.4,325.5,405.5,325.5,405.5z M353,347.5c0.1,0,0.2,0,0.3,0c0.7-0.6,1.7-1,2.2-2c0.3-0.6,0.9-1.1,1.5-1.5
			c1.1-0.9,2.5-0.6,3.1,0.7c0.1,0.2,0.1,0.4,0.1,0.6c0.2,0.5,0.3,1.1,0.6,1.6c0.2,0.4,0.6,0.5,1,0.2c0.6-0.6,1.2-1.2,1.6-1.9
			c0.6-1,1.2-2,1.7-3.1c0.6-1.1,1.9-1.3,2.8-0.5c0.6,0.6,1.2,1.3,1.9,1.9c0.5,0.5,1.2,0.8,1.9,0.4c0.8-0.4,1.6-0.9,2.3-1.5
			c0.8-0.8,1.5-1.8,2.2-2.7c0.4-0.5,0.8-1,1.3-1.5c0.4-0.4,1-0.6,1.6-0.5c0.8,0.1,1.5,0.5,2.1,1c0.5,0.5,1,1,1.5,1.4
			c1.6-1,2.3-2.5,2.9-4.1c0.3-0.7,0.4-1.5,0.5-2.3c0.1-1.2,0.1-2.4,0.3-3.5c0.1-0.5,0.1-1.1,0.7-1.5c0.6-0.4,1.6-0.4,2.2,0.1
			c0.6,0.4,0.7,1.1,0.6,1.8c-0.2,1.4-0.5,2.8-0.8,4.2c-0.4,2.4-1,4.7-2.9,6.5c-0.9,0.9-1.9,1.6-3,2.1c-0.5,0.2-0.9,0.1-1.4-0.1
			c-0.9-0.4-1.6-1-2.1-1.9c-0.2-0.4-0.5-0.4-0.8-0.1c-0.6,0.8-1.1,1.5-1.7,2.3c-1.5,2.2-4.7,4.3-8.2,2.7c-0.6-0.3-1.3-0.5-1.9-0.8
			c-0.2,0.2-0.4,0.5-0.6,0.8c-0.1,0.1-0.1,0.3-0.2,0.5c-1.3,2-3,3.4-5.5,3.6c-0.8,0-1.8,0-2.3-1.1c-0.2-0.4-0.5-0.8-0.8-1.1
			c-1.5,0.8-2.9,1.6-4.3,2.5c-0.7,0.4-1.5,0.4-2.3,0.4c-0.5,0-0.9-0.3-1.1-0.8c-0.2-0.5-0.5-0.9-0.4-1.5c0.1-0.7,0.1-1.4,0.1-2.2
			c-0.3,0-0.5,0-0.8,0.1c-0.8,0.4-1.6,0.2-2.4-0.1c-0.4-0.1-0.6-0.3-0.7-0.7c-0.1-0.5-0.2-1-0.2-1.5c0-0.5,0.2-1,0.2-1.5
			c0.1-1.1,0.3-2.2,0.7-3.3c0.7-1.9,1.4-3.9,2.1-5.9c-0.6-0.2-1.2-0.4-1.8-0.6c-2.4-0.5-4.8-0.8-7.1-1.4c-2.3-0.5-4.7-0.9-7-1
			c-0.1,0-0.3,0-0.4,0c-0.6-0.4-1.3-0.2-1.9-0.2c-0.2,0-0.4,0.1-0.6,0.2c0.1,0.2,0.1,0.5,0.2,0.7c0.1,0.2,0.4,0.4,0.5,0.6
			c1.2,1.2,2.3,2.3,3.5,3.5c0.6,0.6,0.7,1.4,0.2,2.1c-0.8,1.2-2.1,1.6-3.4,2.1c1,0.8,1.9,1.5,2.9,2.2c0.5,0.4,0.9,0.8,1.2,1.3
			c0.2,0.5,0.2,0.9-0.2,1.3c-0.5,0.4-1,0.9-1.6,1.3c-0.6,0.4-1.1,0.8-1.5,1.5c0.9,0.4,1.6,0.8,2.4,1.2c0.6,0.3,0.9,0.7,0.9,1.5
			c0,0.8-0.1,1.5-0.7,2.1c-0.3,0.3-0.5,0.7-0.7,1.1c-0.3,0.7-0.5,1.4,0.1,2.1c0.3,0.3,0.6,0.8,0.9,1.1c1.3,1.4,2.7,2.6,4.2,3.7
			c2.2,1.7,4.6,3,7.2,4c1.9,0.7,3.8,1.2,5.7,1.6c1.4,0.3,2.8,0.4,4.2,0.6c1.5,0.2,2.9,0.4,4.4,0.6c0.9,0.1,1.8,0,2.6,0.3
			c1.1,0.4,2.2,0.2,3.3,0.4c1.6,0.3,3.3,0.2,5,0.3c0.1,0,0.3,0,0.4,0c1.7,0.5,3.5,0.2,5.2,0.5c1.2,0.2,2.3-0.2,3.5-0.2
			c1.5-0.1,3-0.4,4.4-0.9c1.9-0.7,3.8-1.2,5.7-1.7c2.8-0.8,5.6-1.4,8.1-2.9c0.7-0.4,1.4-0.8,2.2-1.2c2.3-1.3,4.4-2.8,6.2-4.7
			c3.8-3.8,7.7-7.5,11.3-11.5c1.5-1.7,3.3-3.3,5.1-4.8c1.1-0.9,2.4-1.7,3.7-2.4c1.4-0.7,3-1.1,4.5-1.7c1.8-0.7,3.5-1.6,4.8-3.1
			c0.9-1.1,1.7-2.2,2.5-3.3c0.8-1.2,1.4-2.4,0.8-3.9c-0.1-0.2,0-0.5,0-0.8c0-0.8,0-1.6-0.3-2.5c-0.7-2.2-1.8-4-3.3-5.7
			c-0.1,0.2-0.3,0.3-0.3,0.5c-0.9,1.5-2.1,2.8-3.6,3.8c-2.3,1.7-4.9,2.4-7.7,2.3c-0.6,0-1.1-0.2-1.7-0.2c-1.6-0.1-2.9-0.9-4-2
			c-1.7-1.5-2.3-3.6-2.4-5.7c-0.1-1.3-0.6-2-1.7-2.4c-1.3-0.5-2.7-1-4-1.5c-2.6-1-5.3-2.1-7.9-3.1c-2.1-0.8-4.2-1.6-6.3-2.4
			c-0.6-0.2-1.1-0.2-1.5,0.2c-1.4,1.1-2.7,2.2-4.2,3.5c0.5,0,0.9,0,1.3,0c0.7,0.1,1.5,0.1,2.2,0.3c1,0.2,1.3,0.8,0.8,1.7
			c-0.4,0.8-1.1,1.2-2,1.2c-4.4,0.1-8.8-0.2-13.2,0.2c-1.6,0.2-3.1,0.4-4.6,0.7c-2,0.4-4,1-5.9,1.8c-1.1,0.5-2.2,0.9-3.2,1.5
			c-1.3,0.8-2.6,1.6-3.8,2.5c-1.1,0.9-2.2,1.9-3.1,3.1c-1.2,1.5-2.2,3.1-3.2,4.7c-1.1,1.8-2.2,3.5-3.1,5.4c-1.1,2.1-2,4.3-2.9,6.5
			c-0.5,1.3-1,2.6-1.1,3.9c1.1-0.1,1.9-0.8,2.7-1.4c0.3-0.2,0.6-0.5,1-0.7c0.4-0.3,1.7-0.3,1.9,0c0.5,0.5,0.7,1.7,0.4,2.3
			c-0.4,0.9-0.9,1.8-1.3,2.7C353.2,346.7,353.1,347.1,353,347.5c0,0.1-0.1,0.1-0.1,0.2C352.9,347.7,353,347.6,353,347.5z
			 M265.5,344.8c0.2,0.1,0.4,0.3,0.7,0.3c2.3,0.2,4.4-0.2,6.2-1.8c0.3-0.3,0.7-0.6,1.1-0.9c0.9-0.6,1.4-0.5,2.2,0.2
			c0.2,0.2,0.4,0.4,0.7,0.7c0.3,0.3,0.6,0.3,0.9,0.1c1.2-0.7,2.6-1.3,3.7-2.2c1.1-0.8,2-1.9,2.4-3.3c0.4-1.3,1.1-2.5,1.8-3.8
			c0.4-0.9,1.3-1.2,2-0.9c0.8,0.4,1.1,1.2,0.8,2.1c-0.2,0.5-0.4,1-0.6,1.4c-0.3,0.8-0.7,1.5-1,2.3c-0.7,2.2-2.2,3.8-4,5.1
			c-1.4,1-3,1.9-4.7,2.5c-1.1,0.4-2.1,0.6-3.1,0c-0.5-0.3-1-0.3-1.5,0c-1.7,1.3-3.8,1.2-5.8,1.6c-1-0.5-2-0.1-3-0.2
			c-0.6-0.1-1.2-0.3-1.7-0.5c-0.4-0.1-0.6-0.5-0.6-0.9c0-0.6,0-1.3,0-2c-0.6,0.1-1,0.2-1.4,0.3c-1.3,0.2-2.6,0.5-3.9,0.7
			c-1.9,0.4-3.8-0.3-3.7-2.9c0-0.7,0-1.5,0-2.3c-1.2,1.1-2.6,1.6-4.1,2c-1.8,0.4-3.9-0.9-4-2.7c-0.1-1.2-0.3-2.5,0.4-3.7
			c0.4-0.6,0.6-1.3,1-2c0.9-1.5,1.9-2.9,3.1-4.2c0.7-0.7,1.3-1.5,2.1-2.5c-0.7,0.1-1.2,0.3-1.7,0.3c-1.3,0.1-2.7,0.2-4,0.3
			c-0.1,0-0.2,0-0.3,0c-1.1,0.5-2.4,0.1-3.6,0.5c-1.2,0.3-2.5,0.2-3.8,0.3c-0.1,0-0.3,0-0.4,0c-1.4,0.3-2.9,0.4-4.4,0.5
			c-1.1,0.1-2.2,0.2-3.2,0.3c-1.2,0.1-2.3,0.4-3.5,0.5c-0.8,0-1.5,0.3-2.2,0.8c0.6,0.9,1.6,0.9,2.4,1c1.4,0.1,2.8,0.3,4.2,0.6
			c0.6,0.1,1.2,0.5,1.8,0.8c0.3,0.2,0.4,0.5,0.4,0.9c0,1.1-0.5,1.9-1.4,2.3c-1.2,0.6-2.4,1.1-3.7,1.6c-0.7,0.3-1,0.7-1.3,1.4
			c-0.2,0.5-0.2,0.9-0.2,1.4c0,0.9,0.1,1.1,0.9,1.4c0.9,0.2,1.8,0.4,2.6,0.6c1.4,0.3,2.9,0.5,4.3,0.8c0.8,0.2,1.4,0.9,1.4,1.5
			c0,0.4-0.1,0.8-0.4,1.1c-0.2,0.2-0.6,0.4-0.9,0.4c-0.7,0.2-1.4,0.3-2.1,0.5c-0.9,0.2-1.9,0.2-2.4,1.4c0.2,0.2,0.4,0.6,0.7,0.6
			c1,0.2,2,0.4,3.1,0.6c0.6,0.1,1.1,0.2,1.6,0.3c1,0.3,1.3,1.1,1,2.2c-0.2,0.8-0.5,1.6-0.8,2.3c-0.5,1.4-0.4,1.8,0.9,2.7
			c1.3,0.9,2.8,1.4,4.2,2c1.4,0.6,2.8,1.1,4.2,1.8c1.5,0.7,3,1.6,4.4,2.4c2.7,1.5,5.5,3,8.3,4.4c2.9,1.5,5.9,2.8,9.1,3.6
			c2.2,0.5,4.4,1.1,6.7,0.9c0.8,0,1.6,0,2.4,0c1.1-0.1,2.3-0.1,3.4-0.3c1.8-0.4,3.7-1,5.5-1.5c1.4-0.4,2.9-1,4.3-1.3
			c2-0.5,3.8-1.3,5.7-2.1c3.1-1.4,5.9-3.2,8.7-5.1c1.7-1.1,2.9-2.6,3.8-4.4c1.8-3.5,3.3-7.3,4.8-10.9c1.5-3.6,3-7.3,4.2-11
			c1.3-4.1,3-8.1,3.9-12.3c0.4-1.8,0.9-3.7,0.6-5.5c-0.2-1.5-0.1-3-0.2-4.4c0-1,0-2,0-3c0-1,0-2.1-0.3-3.1c-0.7-2.9-1.7-5.6-3.5-8
			c-1.8-2.4-4.2-3.6-7.1-3.8c-2.3-0.2-4.5-0.1-6.8,0.5c-2.4,0.6-4.7,1.4-6.5,3.2c-0.7,0.7-1.4,1.3-2.2,1.9c-1.4,1.2-2.8,2.3-4.2,3.5
			c-1.4,1.2-2.8,2.4-4.1,3.6c-0.7,0.6-1.3,1.1-2,1.7c-1.2,1-2.3,2-3.5,3c-0.2,0.2-0.5,0.4-0.7,0.6c-0.4,0.4-0.9,0.7-1.5,1.3
			c1.1,0,2,0,2.8,0c0.9,0,1.3,0.6,1.3,1.4c0,0.7-0.6,1.4-1.2,1.5c-2.7,0.5-5.5,1.1-8.2,1.6c-3,0.5-5.8,1.6-8.6,2.8
			c-2.3,1-4.4,2.5-6.4,4c-0.9,0.7-1.7,1.5-2.5,2.3c-0.5,0.5-0.9,1.1-1.4,1.7c-0.8,0.9-1.7,1.7-2.5,2.5c-1.2,1.2-2.1,2.6-2.8,4.1
			c-0.3,0.7-0.6,1.5-0.4,2.3c0.7,0.2,1.3,0,1.8-0.4c0.5-0.4,1-0.8,1.4-1.1c0.6-0.5,1.1-1,1.7-1.4c0.7-0.6,1.6-0.6,2.4-0.3
			c0.7,0.3,1,1,0.9,1.9c-0.1,1.1,0,2.1,0,3.2c0,1.8-0.1,1.7,1.9,1.7c0.2,0,0.3-0.1,0.5-0.2c1.5-0.5,2.8-1.2,3.9-2.3
			c0.3-0.3,0.7-0.7,1.1-0.9c1.1-0.5,2.3,0.3,2.4,1.5C266.3,342.1,265.8,343.4,265.5,344.8z M453,404.7c0.2,0.6,0.3,1.1,0.4,1.4
			c0.9,1.8,1.8,3.7,2.8,5.4c1,1.9,2.2,3.7,3.5,5.4c1.1,1.4,2.2,2.8,3.2,4.3c1,1.3,0.9,2.9,0.6,4.4c-0.3,1.4-1.4,2.2-2.4,3.1
			c-0.4,0.4-0.8,0.7-1.2,1.2c-0.7,0.9-1.4,1-2.4,0.4c-0.9-0.6-1.5-1.4-1.9-2.4c-0.3-0.6-0.5-1.3-0.8-1.9c-1.2-2.1-2.4-4.2-3.6-6.3
			c-1-1.9-2-3.7-3-5.6c-1.3-2.4-2.7-4.7-3.9-7.1c-0.4-0.7-0.9-1-1.6-1.2c-0.4-0.1-0.8,0.2-1.3,0.2c-2,0-3.7,0.8-5.4,1.6
			c-1.7,0.9-3.4,1.9-4.9,3.1c-1.8,1.3-3,3.1-3.9,5c-1.2,2.3-1.7,4.8-1.9,7.3c-0.1,1.6-0.1,3.1,0.2,4.7c0.3,2.1,1,4.1,2,6
			c0.9,1.9,2.2,3.6,3.7,5.2c0.8,0.8,1.6,1.6,2.4,2.4c1.1,1.2,2.4,2.1,3.8,3c3.1,2.1,6.5,3.5,9.9,4.8c2.8,1,5.7,1.8,8.7,2.6
			c0.9,0.2,1.9,0.5,2.8,0.5c1.5,0.1,2.9,0.4,4.4,0.6c1.4,0.2,2.8,0,4.1,0.5c2.5-0.1,5.1,0.2,7.6-0.2c1.3-0.2,2.6-0.4,3.8-0.8
			c2.7-0.9,4.7-2.6,6.2-5c1-1.6,1.7-3.3,2.3-5.1c0.8-2.5,1.4-5.1,1.7-7.7c0.2-2.2-0.1-4.5-0.6-6.6c-1-4.6-3.3-8.6-6.5-12.1
			c-1.3-1.4-2.7-2.8-4.2-4c-2.5-2.1-5.2-3.7-8.2-4.9c-3.3-1.3-6.7-2-10.3-1.9c-0.5,0-1.1,0.1-1.6,0C456,404.5,454.6,404.9,453,404.7
			z M287.5,429.4c-0.4-0.1-0.8-0.3-1.1-0.3c-1.6-0.1-3.2,0-4.8-0.3c-1.3-0.2-2.6-0.1-3.9-0.2c-1.7-0.2-3.5-0.1-5.2-0.3
			c-1.4-0.1-2.8-0.2-4.2-0.3c-0.7-0.1-1.5-0.2-2.2-0.3c-0.9-0.1-1.9-0.4-2.8-0.4c-0.7,0-1.3-0.3-1.9-0.5c-0.6-0.2-0.9-0.7-1-1.3
			c-0.1-0.5,0-1,0.1-1.4c0.1-0.8,0.3-1.6,0.4-2.4c0.2-1.3,0.3-2.7,0.7-4c0.9-3.6,2.3-7,3.6-10.5c0.8-2.1,1.6-4.3,2.4-6.4
			c0.2-0.6,0.1-1-0.4-1.2c-0.7-0.3-1.5-0.6-2.2-0.6c-2.9-0.1-5.8-0.5-8.7-0.3c-0.2,0-0.4,0-0.5,0c-2.5-0.1-4.8,0.6-7,1.6
			c-1.1,0.5-2.2,1.1-3.3,1.5c-3.7,1.4-6.7,3.6-9.1,6.7c-1.9,2.4-2.9,5.2-3.5,8.1c-0.2,1.2-0.4,2.5-0.6,3.7c-0.2,1.5-0.4,2.9-0.4,4.4
			c-0.1,2.4-0.2,4.9,0.2,7.4c0.2,1.1,0,2.3,0.3,3.5c0.2,0.8,0.3,1.7,0.5,2.5c0.5,2,1.2,3.9,2.4,5.6c1.7,2.5,3.7,4.6,6.3,6.2
			c0.5,0.3,1.1,0.6,1.7,1c1.8,1.2,3.7,2,5.7,2.7c2.1,0.8,4.2,1.3,6.4,1.6c1.6,0.2,3.2,0.5,4.8,0.5c1.4,0,2.7-0.3,4.1-0.5
			c3-0.5,5.7-1.7,8.3-3.3c1.5-0.9,2.8-2.1,4.3-3.2c1.7-1.2,3.2-2.8,4.5-4.4c1.9-2.3,3.3-5,4.3-7.8
			C286.3,434.3,287.1,431.9,287.5,429.4z M323.1,390.9c0.4-0.2,0.7-0.3,0.9-0.5c0.6-0.4,1.1-0.2,1.5,0.2c0.6,0.7,1.2,0.9,2.1,0.9
			c1,0,1.4,0.5,1.3,1.5c0,0.4-0.2,0.8-0.4,1.1c-0.4,0.8-0.9,1.5-1.4,2.3c0.1,0,0.2,0.1,0.3,0c1-0.3,1.9-0.7,2.9-1
			c1.1-0.3,2,0.4,2,1.6c0,0.9-0.3,1.2-1.4,1.6c-1.3,0.5-2.7,0.9-4,1.4c0,0,0,0.1,0,0.1c1.1,0,2.3,0,3.4,0c0.3,0,0.5,0,0.8,0
			c1,0.1,2,1,2.2,1.9c0.3,1.4-0.2,2.3-1.4,2.8c-0.5,0.2-1.1,0.3-1.6,0.4c-1.2,0.1-1.9,0.7-2.2,1.9c-0.7,2.5-1.5,5-2.2,7.6
			c-0.2,0.8-0.2,1.2,0.4,1.5c1.1,0.6,1.7,1.7,2.4,2.7c0.7,1,1.2,2.1,1.6,3.2c0.4,1,0.7,1.3,1.8,1.3c1,0,1.9-0.2,2.9-0.2
			c1.6-0.1,3.2-0.2,4.8-0.3c0,0,0.1,0,0.1,0c1.9-0.4,3.9-0.4,5.8-0.5c3.2-0.1,6.4-0.1,9.6,0.2c1.2,0.1,2.4,0,3.7,0.2
			c1.6,0.2,3.2,0,4.8,0.3c1.1,0.2,2.2,0.1,3.4,0.2c1.6,0.2,3.3,0.1,5,0.3c1.7,0.2,3.5-0.2,5.2,0.3c3.4,0,6.8,0.1,10.3-0.3
			c0.7-0.1,1.5-0.6,1.5-1.1c0.1-1.3,0.1-2.5-1-3.5c-1.9-1.8-3.8-3.6-5.5-5.7c-1.2-1.5-2.7-2.9-4-4.3c-1.1-1.2-2.2-2.4-3.3-3.6
			c-1.3-1.4-2.5-2.8-3.9-4.1c-1.1-1.1-2.3-2.1-3.4-3.1c-0.9-0.9-1.8-1.9-2.7-2.9c-1.1-1.2-2.2-2.5-3.2-3.8c-0.6-0.7-1.2-1.3-1.7-2
			c-1.2-1.5-2.4-3.1-3.6-4.6c-0.5-0.6-1.2-1-2-1c-1.5,0.1-3,0-4.6,0.2c-1.7,0.3-3.4,0.1-5.1,0.3c-1.8,0.2-3.6,0.1-5.4,0.2
			c-3.5,0.3-7.1-0.1-10.7,0.3c-1.6,0.2-3.2,0-4.8,0c-0.2,0-0.4,0-0.7,0c-1.1,0.1-1.5,0.4-1.5,1.5c0,0.5-0.1,1.1,0,1.6
			C322.7,389.1,322.9,390,323.1,390.9z M416.3,378.5c0.5,0,0.9,0,1.4,0c2.6-0.1,5.3-0.2,7.9-0.3c1.6-0.1,3.2-0.2,4.8-0.3
			c0.8-0.1,1.4-0.6,1.7-1.2c0.6-1.2,1.1-2.5,1.6-3.8c0.6-1.6,1.1-3.2,1.1-4.9c0-0.6-0.1-1.2,0-1.8c0.4-2.1,0.9-4.1,1.6-6.1
			c0.7-1.9,1.8-3.3,3.9-3.9c1.8-0.5,3.5-1.3,5.1-2.2c1.7-1,3.5-1.9,5.2-2.9c2.1-1.2,4.3-2.2,6.2-3.8c1.6-1.3,2.9-2.7,3.7-4.6
			c0.6-1.5,0.9-3.1,0.1-4.8c-0.4-0.9-1.1-1.5-2-1.5c-0.6,0-1.1,0-1.7-0.2c-0.6-0.2-1.2-0.1-1.8,0.5c-1.1,1.2-2.5,2.2-4,2.9
			c-1.2,0.5-2.5,1-3.7,1.5c-2.8,1-5.6,1.6-8.5,1.5c-1,0-1.9,0.1-2.9,0c-1-0.1-2-0.2-2.9-0.4c-1.3-0.3-2.6-0.7-3.9-1
			c-0.2,0-0.3-0.1-0.5,0c-1.2,0.2-2.2,0.8-3.1,1.5c-1.4,1.2-2.8,2.4-4,3.8c-3,3.1-6.2,6-9.1,9.2c-2,2.2-4.1,4.3-6.5,6.1
			c-2.5,1.9-5.2,3.5-8,4.8c-0.3,0.2-0.7,0.3-1.1,0.4c-2.9,0.5-5.6,1.6-8.4,2.5c0.3,0.1,0.6,0.3,0.8,0.3c0.9,0,1.8,0.2,2.7,0.2
			c1.4,0.1,2.8,0.4,4.2,0.5c1.6,0.2,3.3,0.4,4.9,0.5c2,0.1,4.1,0.4,6.1,0.5c1.9,0.1,3.7,0.4,5.6,0.6c1,0.1,2,0.3,2.9,0.7
			c1.2,0.5,1.5,1.2,1.2,2.5C416.7,376.3,416.5,377.3,416.3,378.5z M280.9,388.7c-0.2,0.6-0.3,1.1-0.4,1.5c-0.6,2.3-1.2,4.6-1.8,6.9
			c-0.3,1-0.1,1.5,0.6,2c1.6,1.1,3.2,2.1,4.7,3.3c1.6,1.3,3,2.7,4.2,4.4c1.5,2.2,2.2,4.7,2.7,7.2c0.3,1.8,0.6,3.6,0.8,5.4
			c0.1,0.5,0.4,0.8,0.8,0.9c0.7,0.2,1.4,0.2,2.1,0.3c1.5,0.1,3,0.2,4.6,0.3c0.1,0,0.2,0,0.3,0c0.7,0.4,1.4,0.2,2.1,0.2
			c0.7,0.1,1.4,0.2,2.1,0.3c1.3,0.1,2.6,0.2,3.9,0.3c0.2,0,0.4,0.2,0.6,0.2c1.5,0.3,2.2,0,2.9-1.4c0.2-0.3,0.4-0.7,0.5-1.1
			c0.1-0.5,0.2-0.9-0.2-1.4c-1.1-1.4-2.2-2.8-3.4-4.1c-1.1-1.3-2.2-2.6-3.3-3.9c-0.6-0.7-1.3-1.4-1.9-2.2c-1-1.1-1.9-2.3-2.9-3.4
			c-1.1-1.2-2.3-2.2-3.6-3.3c-1.3-1.2-2.6-2.3-4-3.4c-1.6-1.3-3.3-2.6-4.9-3.9C285.2,392.2,283.1,390.5,280.9,388.7z M308.7,425.1
			c-0.7-0.1-1.4-0.2-2.1-0.3c-0.3,0-0.6,0.1-0.9,0c-1.4-0.4-2.9-0.3-4.4-0.5c-1.5-0.2-3-0.2-4.4-0.3c0,0-0.1,0-0.1,0
			c-1.2-0.5-2.6-0.1-3.9-0.5c-1.2-0.3-2.5-0.2-3.8-0.3c-0.1,0-0.3,0-0.4,0c-0.6-0.4-1.2-0.2-1.8-0.2c-0.6-0.1-1.3-0.2-1.9-0.3
			c-1.4-0.1-2.8-0.2-4.2-0.3c-0.1,0-0.2,0-0.3,0c-1.6-0.5-3.2-0.2-4.8-0.5c-0.9-0.2-1.8,0-2.7,0.2c-1.5,0.2-3.1,0.1-4.6,0
			c-0.3,0-0.7-0.1-1-0.3c-0.3-0.2-0.6-0.6-0.7-0.9c-0.1-0.6,0-1.2,0.2-1.8c1-3.7,2.6-7.2,3.9-10.8c1.2-3.4,2.6-6.8,3.8-10.2
			c1-2.9,2-5.9,2.9-8.8c0.3-1,0.7-2,1-3.1c0.5-1.3,1.1-1.8,2.4-1.4c0.8,0.2,1.5,0.7,2.2,1.2c1.2,1,2.4,2.2,3.6,3.3
			c0.7,0.7,1.5,1.4,2.3,2c2.1,1.5,4.2,3,6.1,4.7c1.9,1.7,3.9,3.3,5.8,5.1c1.8,1.8,3.5,3.7,5.3,5.5c0.1,0.1,0.1,0.1,0.2,0.2
			c0.9,1,1.7,2.1,2.6,3.1c0.5,0.6,1,1.2,1.5,1.8c0.9,1.2,1.8,2.5,2.8,3.8c0.4,0.5,1,0.6,1.6,0.3c0.9-0.4,1.8-0.8,2.6-1.1
			c-1.5-1.4-2.9-2.8-4.3-4.2c-0.5-0.5-1-1.1-1.5-1.5c-1.6-1.2-3.2-2.3-4.7-3.7c-0.7-0.6-1.4-1.2-2.1-1.8c-1.2-1-2.3-2-3.5-3
			c-1.3-1.1-2.5-2.3-3.8-3.5c-0.1-0.1-0.1-0.1-0.2-0.2c-1-0.9-2.1-1.7-3.1-2.6c-1.2-1.1-2.4-2.2-3.6-3.3c-0.1-0.1-0.2-0.2-0.3-0.3
			c-1.1-0.9-2.1-1.8-3.2-2.7c-0.9-0.8-1.1-1.9-0.9-3.1c0.1-0.6,0.6-1.1,1.2-1.2c0.6-0.1,1.3-0.2,1.9-0.3c1.4-0.1,2.9,0,4.3-0.2
			c1.6-0.2,3.2,0,4.8-0.3c1.8-0.3,3.7,0,5.5-0.3c1.6-0.2,3.2,0,4.8-0.2c2.3-0.3,4.6-0.2,6.9-0.3c0.8,0,1.5-0.2,2.3-0.3
			c0.3,0,0.7-0.2,0.6-0.5c-0.1-0.2-0.4-0.3-0.7-0.4c-0.2-0.1-0.4,0-0.7,0c-1.7,0.1-3.5,0-5.2,0.2c-2,0.3-4.1,0-6.2,0.3
			c-2.1,0.3-4.3,0.1-6.4,0.2c-4.2,0.3-8.5-0.1-12.8,0.3c-2.4,0.2-4.8,0-7.3,0c-1.4,0-2.5,0.8-3,2.1c-0.8,2.2-1.6,4.5-2.4,6.7
			c-1.6,4.5-3.1,9-4.7,13.4c-1.2,3.5-2.5,7-3.6,10.5c-1,3.1-1.6,6.3-2.5,9.5c0.8,0.1,1.7,0.1,2.5,0.3c1,0.3,2,0,2.8,0.3
			c1.4,0.4,2.8,0.1,4.3,0.4c1.5,0.3,3,0.1,4.6,0.3c1.6,0.2,3.3,0,5,0.3c1.8,0.3,3.6,0,5.4,0.3c1.9,0.3,3.8,0,5.8,0.3
			c2.3,0.3,4.7,0,7.1,0.3c2.1,0.3,4.3-0.1,6.4,0.3C308.7,427.1,308.8,426.9,308.7,425.1z M368.8,384.7c0.6,0.7,1.2,1.3,1.8,1.9
			c0.8,0.7,1.6,1.4,2.3,2.1c1.3,1.4,2.5,2.8,3.7,4.2c1.2,1.3,2.4,2.7,3.5,4.1c1.2,1.5,2.3,3,3.8,4.3c0.8,0.7,1.6,1.5,2,2.5
			c0.8,1.5,1.8,2.9,3,4.1c0.2,0.2,0.4,0.5,0.6,0.7c0.6,0.6,1.3,1.3,1.9,1.9c1,1,2.1,2,3.2,3.1c0.2,0,0.6-0.1,0.9-0.2
			c0.8-0.2,1.5-0.3,2.3-0.5c0.7-0.2,0.9-0.5,0.9-1.2c0-0.7,0.2-1.5,0.2-2.2c0.1-1.6,0-3.3,0.3-5c0.2-0.9,0-1.9,0-2.9
			c0-0.5-0.2-0.9-0.4-1.4c-0.3-0.8-1.1-1.1-1.6-1.6c-1.4-1.4-2.8-2.8-4.3-4.1c-2-1.7-3.8-3.6-5.7-5.4c-1.5-1.4-2.9-2.8-4.4-4.1
			c-0.7-0.7-1.6-0.9-2.4-0.8c-0.6,0.1-1.3,0.1-1.9,0.2C375.3,384.5,372,384.1,368.8,384.7z M409.8,419.8c-0.1,0.5-0.1,0.9-0.2,1.2
			c-0.5,2.1-1.3,4.2-1.5,6.4c-0.1,0.4-0.2,1-0.8,1.1c-0.6,0.1-1.1,0.1-1.7-0.4c-0.9-0.8-0.8-1.7-0.6-2.6c0.4-1.7,1-3.3,1.4-5
			c0.2-0.7,0.3-1.5,0.4-2.3c0-0.8-0.1-1-1-1.3c-1.8-0.6-3.6-0.8-5.4-1c-1.7-0.3-3.2,0.3-4.5,1.4c-1.7,1.4-2.9,3-2.8,5.3
			c0,1,0,2,0.2,3c0.2,1.2,0.5,2.3,1,3.3c0.5,0.8,0.9,1.7,1.3,2.5c0.9,2.1,2.5,3.3,4.5,4.1c0.9,0.4,2,0.5,3,0.7
			c2,0.4,3.7-0.1,5.5-0.8c1.7-0.7,3-2,4.5-3c0.6-0.4,1.1-1,1.4-1.7c1-1.6,0.8-3.4,0.3-5.1c-0.7-2.4-2.3-4.1-4.3-5.5
			C410.2,420,410,419.9,409.8,419.8z M289,378.4c1.2,0.1,2.3,0.3,3.4,0.3c1.8,0,3.7,0,5.5-0.2c2-0.3,4,0,6-0.2
			c2.2-0.3,4.5-0.2,6.7-0.3c2.3-0.1,4.6-0.2,6.9-0.3c0.6,0,0.8-0.2,0.8-0.8c0-0.3,0-0.5,0-0.8c-0.2-1.1-0.5-2.3-0.8-3.4
			c-0.4-1.7-0.7-3.4-1.1-5c-0.3-1.3-0.6-2.6-0.9-3.8c-0.5,0.2-1.1,0.4-1.7,0.6c-3,1.1-5.9,2.1-8.9,3.3c-2.5,1-5.1,2-7.6,3
			c-1.2,0.5-2.3,1-3.4,1.6c-1.4,0.7-2.8,1.4-4.2,2.1c-0.4,0.2-0.5,0.4-0.6,0.8C288.8,376.1,289.1,377.2,289,378.4z M431,309.7
			c-0.1-0.2-0.2-0.3-0.2-0.4c-1.3-2-2.4-4-3.9-5.8c-1.1-1.4-2.3-2.6-3.9-3.5c-2.4-1.4-5-2.2-7.9-2.1c-2.1,0.1-4,0.5-5.9,1.3
			c-1.9,0.8-3.8,1.7-5.6,2.7c-1.1,0.5-2.1,1.1-3.2,1.7c-0.2,0.1-0.5,0.3-0.7,0.5c0.3,0.1,0.6,0.2,0.8,0.3c1.8,0.7,3.7,1.5,5.5,2.2
			c2.2,0.9,4.3,1.8,6.5,2.7c1.2,0.5,2.3,1.1,3.6,1.3c0.6,0.1,1.2,0.3,1.8,0.3c0.6,0.1,1.2,0.2,1.8,0.1c1.4-0.2,2.8-0.5,4.2-0.5
			c0.2,0,0.4,0,0.7,0c1.4-0.3,2.7-0.3,4.1-0.5C429.4,309.8,430.2,309.8,431,309.7z M407.4,405.6c-1-0.1-2-0.2-2.9-0.3
			c-0.3,0-0.6-0.2-0.8-0.4c-0.6-0.6-0.6-1.3-0.5-2.1c0.5-2,0.5-2.1,2.6-2.3c0.9-0.1,1.3-0.4,1.3-1.2c0-2,0.5-3.8,1-5.7
			c0.6-2.5,1.3-5,1.9-7.6c-1.8-0.2-3.5-0.4-5.2-0.5c-1.7-0.1-3.4-0.2-5.1-0.3c-0.1,0-0.2,0-0.3,0c-1.6-0.4-3.2-0.3-4.8-0.5
			c-1.5-0.2-3-0.2-4.6-0.3c0,0-0.1,0-0.1,0c-1-0.5-2.1-0.2-3.4-0.2c1.2,1.1,2.3,2,3.3,3c1.9,1.8,3.8,3.6,5.6,5.4
			c1.6,1.6,3.2,3.2,4.8,4.8c1.4,1.4,2.1,3.1,2.1,5c0,1.8,0.1,3.7-0.2,5.5c-0.2,1.4,0,2.9-0.1,4.4c0,0.5,0.2,0.8,0.7,0.9
			c0.2,0,0.4,0.1,0.6,0.2c1.2,0.3,2.5,0.6,3.8,0.9C407.4,411.2,407.4,408.4,407.4,405.6z M277.3,401.6c-1.4,1.4-6.2,13.5-6.8,17.3
			c0.1,0,0.2,0.1,0.4,0.1c3.5,0,6.9-0.1,10.4,0.3c1.3,0.1,2.6,0.2,3.9,0.3c0.1,0,0.2,0,0.3,0.1c0.7,0.1,1.5,0.2,2.2,0.2
			c0.6,0,0.8-0.2,0.8-0.8c0-1.1-0.1-2.3-0.3-3.4c-0.6-2.9-1.6-5.7-3.5-8c-0.9-1.2-2-2.3-3.3-3.2C280,403.5,278.7,402.6,277.3,401.6z
			 M391.9,416.3c-0.2-0.2-0.3-0.3-0.4-0.5c-1.1-1-2.2-2.1-3.4-3.1c-1.8-1.6-3.3-3.5-4.6-5.5c-2.4-3.5-4.7-7-7.5-10.1
			c-1.5-1.7-2.8-3.5-4.3-5.1c-1.9-1.9-3.9-3.7-5.8-5.6c-0.2-0.1-0.4-0.2-0.5-0.3c-0.6-0.6-1.3-1-1.6-1.7c-0.3-0.7-0.2-1.5,0.1-2.3
			c0.3-0.7,0.9-0.6,1.4-0.8c0.3-0.1,0.6-0.2,0.9-0.2c5.3-0.1,10.6,0.2,15.8-0.3c0.8-0.1,1.7,0,2.5,0c0.8,0,1.6,0,2.4,0
			c0-0.1,0-0.2,0-0.3c-2.3-0.1-4.5-0.2-6.8-0.2c-2.8,0-5.6-0.1-8.3,0c-4.1,0.1-8.2-0.3-12.2-0.3c-1.3,0-2.6-0.3-3.8-0.6
			c-0.3-0.1-0.6-0.2-0.9-0.2c-3.6,0.1-7.3-0.2-10.9,0.2c-1.9,0.2-3.9,0-5.9,0.3c-1.5,0.2-2.9,0-4.4,0.2c-1.5,0.2-3.1,0.2-4.7,0.3
			c-1.8,0.1-3.7,0.2-5.5,0.3c-0.7,0-0.9,0.3-0.8,0.9c0.1,0.5,0.5,0.7,1.1,0.6c0.4-0.1,0.8-0.2,1.1-0.2c2.6-0.1,5.2,0.1,7.8-0.2
			c1.8-0.2,3.7,0,5.6-0.1c1.9,0,3.8-0.2,5.6-0.3c1.4-0.1,2.8,0,4.2-0.2c1.8-0.2,3.7,0,5.5-0.3c0.9-0.1,1.9,0,2.9,0
			c1,0,1.9,0.3,2.6,1c0.8,0.9,1.6,1.8,2.3,2.7c1.3,1.5,2.5,3.1,3.7,4.7c0.7,0.9,1.5,1.7,2.3,2.6c1.1,1.2,2.2,2.5,3.3,3.7
			c0.3,0.4,0.9,0.6,1.2,1c1.2,1.3,2.5,2.5,3.6,3.8c1.9,2.3,3.9,4.3,5.9,6.5c0.1,0.2,0.3,0.3,0.5,0.5c1.2,1.3,2.3,2.7,3.5,4
			c0.9,1,1.8,2,2.7,3c0.6,0.7,1.3,1.3,1.8,2.1c0.4,0.6,0.8,1,1.3,1.4C391.2,417.3,391.5,416.9,391.9,416.3z M321.8,418
			c-1.1,0-2.1,0-3.1,0c-0.6,0-1.1,0.1-1.7,0.3c-1.5,0.5-2.7,1.3-3.3,2.9c-0.4,1.2-1,2.3-1.4,3.5c-0.3,0.9-0.7,2-0.6,2.9
			c0.2,1.5,0.6,3.1,1.9,4.2c0.6,0.5,1.2,1.1,1.8,1.5c1.9,1.4,3.9,2.3,6.3,1.9c1.3-0.2,2.3-0.7,3.3-1.5c2-1.6,2.9-3.8,3.2-6.2
			c0.1-0.6,0.1-1.3-0.1-2c-0.5-2-1.4-3.8-2.5-5.5c-0.2-0.3-0.4-0.6-0.7-1c-0.2,0.4-0.5,0.7-0.6,1c-0.6,1.2-1.1,2.5-1.7,3.7
			c-0.2,0.5-0.6,0.9-0.9,1.2c-0.5,0.5-1.1,0.3-1.6,0.1c-0.5-0.2-0.7-0.6-0.6-1.2c0.1-0.5,0.1-1,0.3-1.4
			C320.5,421,321.1,419.6,321.8,418z M374.2,371.2c0,0.3-0.1,0.4,0,0.5c1.2,1.9,2.8,3.4,4.5,4.8c0.2,0.2,0.5,0.3,0.8,0.3
			c0.8,0.1,1.5,0.2,2.3,0.3c1.7,0.1,3.3,0,5,0.2c1.5,0.2,3,0,4.6,0.3c1.7,0.3,3.5,0.2,5.2,0.3c4.3,0.3,8.7,0.2,13,0.3
			c0.5,0,0.9,0.1,1.4,0.2c0.9,0.2,1.8-0.3,2.1-1.1c0.1-0.3,0.3-0.6,0.3-1c0.1-0.6-0.1-0.8-0.7-1c-0.9-0.3-1.9,0-2.7-0.3
			c-1.1-0.3-2.2-0.2-3.3-0.4c-1.6-0.2-3.2-0.4-4.8-0.6c-1.6-0.2-3.3-0.3-4.9-0.5c-1.5-0.2-2.9-0.3-4.4-0.5c-1.6-0.2-3.3-0.3-4.9-0.6
			c-1.2-0.2-2.4-0.2-3.6-0.3c-0.1,0-0.3,0-0.4,0c-1.2-0.2-2.3-0.4-3.5-0.5c-1.9-0.1-3.7-0.2-5.6-0.3
			C374.6,371.4,374.5,371.3,374.2,371.2z M389,427.2c-0.9-0.5-0.9-0.5-1.6-0.3c-0.3,0.1-0.7,0.1-1,0.1c-4.5-0.1-9,0.3-13.4-0.2
			c-1.4-0.2-2.9,0-4.3-0.2c-1.7-0.2-3.5-0.1-5.2-0.3c-1.7-0.2-3.4,0-5.1-0.2c-2.2-0.3-4.5-0.2-6.7-0.3c-3.6-0.1-7.2-0.2-10.8,0.2
			c-1.3,0.1-2.7,0-4,0.3c-1.3,0.3-2.7,0-4,0.4c-0.6,0.2-1.2,0.2-1.3,0.8c-0.1,0.6,0,1.2,0.1,1.8c0,0.1,0.3,0.3,0.5,0.3
			c1,0,1.9,0.1,2.9,0.2c1.9,0.2,3.8,0.1,5.8,0.2c2.2,0.2,4.4,0.2,6.6-0.2c1.6-0.3,3.2,0,4.8-0.3c1.4-0.2,2.8-0.1,4.2-0.2
			c1.8-0.1,3.7-0.3,5.5-0.3c1.7-0.1,3.4-0.2,5.1-0.3c0,0,0.1,0,0.1,0c1.5-0.6,3-0.1,4.5-0.5c1-0.3,2.2-0.1,3.2-0.3
			c1.8-0.3,3.7-0.2,5.5-0.3c2.7-0.1,5.3-0.2,8-0.3C388.4,427.4,388.7,427.3,389,427.2z M440.2,317.2c0.2,0.4,0.2,0.8,0.5,1
			c0.7,0.8,1,1.8,1.3,2.8c0.5,1.5,0.8,3.1,0.8,4.7c0,0.9,0.1,1.1,1,1.4c0.3,0.1,0.7,0.2,1,0.2c1.3,0.2,2.5,0.5,3.8,0.7
			c1.3,0.2,2.5,0.4,3.8,0.6c0.9,0.1,1.7,0.1,2.6,0.3c1.7,0.4,3.3,0.6,5.1,0.4C458.6,326.2,445.4,317.6,440.2,317.2z M427.3,313.2
			c0.5,0.5,0.8,0.7,1.1,1c0.8,0.9,1,1.6,0.1,2.6c-0.6,0.7-1.3,1-2.1,1.3c-0.8,0.2-1.1,0.1-1.6-0.6c-0.5-0.8-0.4-1.6-0.2-2.4
			c0.2-0.6,0.2-1.1,0.1-1.7c-1.7,0.2-3.4,0.4-5.1,0.6c-0.3,1.7,0.1,3.2,1,4.6c0.6,1,1.5,1.7,2.7,1.8c2.7,0.3,5.1-0.5,7.4-2
			c0.8-0.5,1.3-1.1,1.8-1.9c0.3-0.5,0.4-1.1,0.2-1.7c-0.3-1.1-1.1-1.8-2.2-1.8C429.5,313.1,428.5,313.2,427.3,313.2z M291.3,386.7
			c-0.1,0.1-0.1,0.2-0.2,0.2c1.3,1.2,2.7,2.5,4,3.7c0.8,0.7,1.6,1.5,2.4,2.2c1.8,1.6,3.7,3.1,5.4,4.7c1.2,1.1,2.4,2.3,3.7,3.4
			c0.8,0.7,1.6,1.5,2.4,2.2c0.2,0.2,0.5,0.3,0.9,0.6c0-1.6,0-3.1,0-4.6c0-0.6-0.2-1.2-0.9-1.5c-0.6-0.3-1.2-0.8-1.7-1.1
			c-1.9-1.2-3.9-2.4-5.9-3.6c-2.4-1.4-4.7-2.9-7.1-4.3C293.5,387.9,292.4,387.3,291.3,386.7z M433.8,338.9c1.6,0.4,3,0.9,4.4,0.6
			c1.2-0.3,2.4-0.2,3.6-0.4c2.2-0.4,4.3-0.9,6.4-1.7c1.1-0.4,2.2-0.9,3.2-1.7c-1.7-0.1-3.4-0.3-5-0.3c-1.4,0-2.7-0.4-3.9-0.9
			c-0.7-0.3-1.3-0.7-2-1.1C438.6,335.5,436.8,337.7,433.8,338.9z M323.4,305.5c0,0.3,0,0.5,0,0.8c0.1,1,0.1,2,0.3,3
			c0.2,0.9,0.3,1.9,1,2.6c0.6,0.6,1.1,1.1,2,1c0.6-0.1,1.2-0.3,1.8-0.4c2.1-0.5,4.1-1,6.2-1.5C331.6,307.6,327.8,306.1,323.4,305.5z
			 M389.4,380.9c0,0.1,0,0.1,0,0.2c1.4,0.1,2.9,0.2,4.3,0.3c0.1,0,0.2,0,0.3,0c0.7,0.4,1.5,0.2,2.2,0.3c0.7,0.1,1.5,0.2,2.2,0.3
			c1.6,0.1,3.1,0.2,4.7,0.3c0.1,0,0.2,0,0.3,0c1.6,0.4,3.2,0.2,4.8,0.5c0.6,0.1,1.2-0.1,1.8,0.2c0.3,0.1,0.7-0.1,1.1-0.2
			c0.3-0.1,0.5-0.3,0.5-0.7c-0.1-0.4-0.4-0.6-0.8-0.6c-1.4,0-2.8-0.1-4.2-0.2c-4.5-0.2-9-0.2-13.5-0.3
			C391.8,380.9,390.6,380.9,389.4,380.9z M324.2,315.6c0.1,1.5-0.1,2.9,0.1,4.3c2.9-1.1,5.3-2.7,7.4-4.8c-0.6,0-1.1,0.2-1.6,0.3
			C328.1,315.9,326.2,316.5,324.2,315.6z M373.9,376.6c-0.9-1.1-1.7-2.1-2.4-3.1c-0.9,1-1.8,1.9-2.8,2.8c0.7,0,1.5-0.2,2.2,0
			C371.9,376.7,372.8,376.6,373.9,376.6z M437,312.4c0,0.1,0,0.2,0,0.3c1.3,0.7,2.7,0.7,4.1,1.1c-0.6-1.5-0.8-1.7-2.2-1.7
			C438.2,312.1,437.6,312.3,437,312.4z M322.5,438.3c-1.5,0.7-1.7,1.1-1.3,2.9c0.4-0.1,0.9-0.3,1.3-0.4
			C322.5,440,322.5,439.3,322.5,438.3z M443.4,331.3c0.1-0.1,0.1-0.1,0.2-0.2c-0.2-0.2-0.3-0.5-0.5-0.7c0,0-0.3,0.1-0.4,0.2
			c-0.1,0.1,0,0.3,0.1,0.4C443,331.1,443.2,331.2,443.4,331.3z M402.7,440.4c0.4-0.1,0.9-0.1,1-0.6
			C403.1,439.6,402.9,440,402.7,440.4z M401.9,445.2c0.1,0,0.2,0,0.2-0.1c-0.1-0.1-0.1-0.2-0.2-0.2c-0.1-0.1-0.2-0.1-0.3-0.1
			c0,0.1-0.1,0.1,0,0.2C401.7,445,401.8,445.1,401.9,445.2z M306.8,363.6L306.8,363.6L306.8,363.6L306.8,363.6z"/>
		<path id="XMLID_187_" d="M165.6,404.1c-0.1-1.1-0.3-2.1-0.3-3.1c0-2.6,1.5-4.3,4-5.1c1.8-0.6,3.6-0.8,5.4-1.2
			c0.7-0.2,1.5-0.1,2.3-0.3c1.1-0.2,2.2-0.1,3.2-0.3c2.1-0.3,4.3-0.7,6.2-1.8c1.3-0.8,2.4-1.7,3.3-3c0.9-1.3,1.9-2.5,3.2-3.4
			c1.1-0.7,2.3-1,3.5-1.3c0.6-0.1,1.2,0,1.8,0.3c2.1,0.9,3.7,2.3,4.5,4.5c0.3,0.8,0.6,1.5,0.5,2.4c-0.1,1.5-0.6,2.8-1.9,3.6
			c-0.1,0.1-0.3,0.2-0.4,0.4c-0.1,0.1-0.1,0.2-0.1,0.3c0.8,0.5,1.7,0.9,2.5,1.5c0.6,0.5,1.2,1,1.7,1.6c0.8,1,0.8,2.3,0.4,3.4
			c-0.6,1.9-1.4,3.6-2.5,5.3c-0.5,0.8-1.3,1.1-2.1,1.1c-1.3,0.1-2.7,0.2-4,0c-1.2-0.2-2.4-0.2-3.7-0.2c-0.5,0-0.9-0.2-1.4-0.3
			c0.6,2.4,1.1,4.7,1.6,7.1c2.4-0.9,4.9-1.8,7.3-2.8c2.1-0.8,4.2-1.7,6.2-2.6c0.2-0.1,0.3-0.1,0.5-0.2c1.7-0.2,4,0.9,4.5,2.5
			c0.3,1,0.4,2.1-0.4,3c-0.7,0.7-1.3,1.5-2.4,1.9c0.2,0.2,0.4,0.3,0.5,0.3c1.2,0.4,1.6,1.4,1.8,2.5c0.2,0.9-0.2,1.8-0.8,2.5
			c-1,1.1-2.3,1.9-3.8,2.2c-0.6,0.2-1.2,0.4-1.9,0.5c-1.2,0.3-2.4,0.6-3.6,0.9c-0.6,0.2-1.3,0.3-1.9,0.4c-0.9,0.1-1.8,0.1-2.7,0.3
			c-3.1,0.5-6.3,0.1-9.5,0.2c-0.4,0-0.9-0.1-1.2-0.3c-0.6-0.4-1.2-0.3-1.7,0.1c-2.2,1.4-4.7,2.3-7,3.5c-1.6,0.8-3.3,1.6-5,2.2
			c-1.5,0.6-3.1,0.7-4.8,0.4c-1.9-0.3-3.7-0.9-5.6-1.1c-1.7-0.1-3.5-0.2-5.2,0.1c-3.4,0.7-6.6,2-9.9,3.1c-1.6,0.6-3.3,1.1-4.9,1.7
			c-1.1,0.4-1.2,0.4-1.1,1.6c0.1,1.5-0.3,2.8-1.2,4c-0.2,0.2-0.3,0.5-0.4,0.7c-1.2,2.6-2.8,4.9-4.7,7c-1,1-1.8,2.1-2.9,3.1
			c-1.7,1.6-3.6,3.1-5.5,4.6c-1.6,1.2-3.3,2-5.2,2.5c-0.9,0.2-1.9,0.2-2.9,0.1c-0.9-0.1-1.4-0.8-1.8-1.6c-0.3-0.7-0.4-1.5-0.4-2.3
			c0-0.2,0-0.3-0.1-0.6c-0.6,0.1-1.1,0.2-1.6,0.3c-2.6,0.7-5.1,1.5-7.7,2.3c-1.4,0.4-2.9,0.8-4.4,0.6c-0.3,0-0.7-0.1-1-0.2
			c-1.4-0.4-2.2-1.5-2.3-2.9c0-1.3-0.2-2.6,0.8-3.6c0.9-1,1.8-1.9,2.9-2.5c1-0.6,2.1-1.2,3.2-1.7c2.5-1.1,5-2.1,7.5-3.1
			c3.6-1.4,7.1-3,10.3-5.2c0.7-0.5,1.5-1.1,2.3-1.6c-0.7-1-1.3-1.8-1.8-2.7c-1-1.6-1.6-3.4-1.9-5.3c-0.2-1.2-0.2-2.3-0.2-3.5
			c0-0.6-0.1-1.3,0.2-1.9c0.1-0.2,0.1-0.6,0-0.9c-0.1-0.2-0.2-0.5-0.4-0.6c-0.6-0.2-1.2-0.3-1.8-0.3c-2.7-0.1-4.8-1.2-6.7-3
			c-2.4-2.2-3.7-5-4.5-8.1c-0.5-1.8-0.5-3.7-0.3-5.5c0.2-1.4,0.6-2.9,1.1-4.2c0.4-0.9,1-1.8,1.9-2.4c1-0.7,2-1.4,3.1-1.8
			c1.5-0.5,2.9-0.7,4.5-0.4c1.5,0.3,2.8,0.8,4,1.7c2,1.4,3.3,3.2,3.9,5.5c0.5,2.1-0.2,3.6-1.9,4.8c-0.3,0.2-0.6,0.6-0.9,0.8
			c-1.1,1-3.1,1.1-4.2,0.2c-0.3-0.2-0.6-0.5-0.5-1c0.1-0.7-0.1-1.5,0.2-2.2c0.3-0.9-0.5-1.5-1.4-1.3c-0.8,0.2-1.4,0.6-2,1.2
			c-0.8,0.9-0.9,1.9-0.5,2.9c0.8,2.1,2.4,3.4,4.4,4.2c1.2,0.4,2.4,0.7,3.6,0.9c1.2,0.2,2.1-0.1,3.1-0.7c0.7-0.4,1.5-0.5,2.3-0.7
			c1.7-0.4,3.5-0.7,5.2-1.2c2.8-0.7,5.7-1.5,8.4-2.6c1.7-0.6,3.3-1.2,4.9-2c2-0.9,4.1-1.6,6.3-2c1.6-0.3,3.2-0.6,4.9-0.8
			c2-0.3,4.1-0.7,6.1-1.1C165.4,404.3,165.6,404.2,165.6,404.1z M137.3,440.5c-0.9,0.7-1.6,1.7-2.4,2.5c-2,2.1-4.1,4-6.3,6
			c-0.6,0.5-1.2,0.9-1.9,1.4c-1.8,1.3-3.7,2.5-5.7,3.5c-0.3,0.2-0.7,0.3-0.7,0.7c0.5,0,0.9,0.1,1.4,0.1c-0.2,1.2-1,1.9-1.9,2.8
			c1-0.1,1.2-0.8,1.6-1.4c0.4-0.6,0.9-0.7,1.4-0.3c0.2,0.1,0.4,0.3,0.6,0.6c1.6-1.3,3.3-2.5,4.9-3.9c2.7-2.5,5.3-5.1,7.1-8.4
			C136,443,136.6,441.7,137.3,440.5c0-0.1,0.1-0.1,0.1-0.2C137.3,440.3,137.3,440.4,137.3,440.5z M205.1,420.7
			c-1.5,0.3-2.8,0.8-4.3,0.8c-0.2,0-0.4,0.1-0.6,0.2c-1.5,0.4-3.1,0.8-4.6,1.2c-2.1,0.5-4.1,0.1-6-0.9c-0.5-0.3-0.8-0.7-0.7-1.3
			c0.1-0.4,0.1-0.8,0.3-1.1c0.4-1.1,0.9-2.2,1.2-3.3c0.1-0.4,0.1-1,0-1.4c-0.2-0.8-0.4-1.7-0.7-2.5c-0.2-0.6-0.1-1.4-0.7-1.9
			c-0.6-0.5-1.4-0.3-2.2-0.3c-1-0.1-1.6-0.6-1.7-1.6c-0.1-0.7,0.5-1.6,1.3-1.9c1.2-0.4,2.4-0.7,3.6-0.9c1.1-0.1,2.1-0.3,3.2,0.1
			c0.2,0.1,0.5,0,0.7,0c-0.5-0.4-1.1-0.8-1.8-1.2c0.9-0.8,1.9-0.8,2.7-0.7c1.5,0.1,2.9-0.1,4.2-0.8c-1.4-1.3-1.7-2.8-0.7-4.4
			c-1.4-0.5-2.9-0.8-4.3-1c-2.2-0.3-4.3-1-6.5-1.2c-1.9-0.2-3.8-0.1-5.7,0.4c-1.6,0.4-3.2,0.8-4.9,0.6c-0.4,0-0.8,0-1.2,0
			c-0.9,0.1-1.9,0.3-2.8,0.5c-1.2,0.3-2.4,0.4-3.5,1c-0.9,0.5-1.4,1.3-1.3,2.4c0.1,1,0.4,2,0.8,3c0.4,0.9,1.1,1.5,2.1,1.8
			c1.1,0.3,2.3,0.2,3.4,0.2c0.5,0,0.9-0.4,1.2-0.9c0.2-0.6,0.7-1,0.9-1.6c0.3-0.7,0.8-0.9,1.4-1c0.7-0.2,1.3,0.1,1.3,0.8
			c0.1,0.6,0.1,1.2-0.2,1.8c-0.5,0.7-0.9,1.5-1.3,2.2c-0.7,1.3-1.9,1.7-3.3,1.7c-0.9,0-1.9-0.1-2.8,0c-1.5,0.2-2.7-0.5-3.7-1.4
			c-0.8-0.8-1.7-0.8-2.6-0.7c-2.2,0.4-4.3,0.8-6.5,1.2c-1.7,0.3-3.4,0.6-5.1,1c-2.2,0.5-4.4,1.3-6.5,2.2c-1.5,0.7-3.1,1.3-4.7,1.8
			c-1.3,0.5-2.6,0.8-3.9,1.2c-2.5,0.7-5,1.5-7.6,2c-2.5,0.5-4.9,0.9-7.4,1c-0.1,0-0.3,0-0.4,0c-1.1,0.6-2.1,0.1-3.1-0.2
			c-2.2-0.6-4-1.9-5.5-3.7c-1.2-1.5-2-3.1-1.9-5.1c0.2-2,1-3.6,2.8-4.5c1.2-0.6,2.4-0.9,3.8-0.8c2.2,0.1,3.2,1.1,3.3,3.2
			c0,0.4,0,0.8,0.1,1.5c0.7-0.5,1.3-0.9,1.5-1.6c0.1-0.2,0.2-0.3,0.2-0.5c-0.4-1.4-0.8-2.7-2-3.6c-1.5-1.1-3.1-2-5.2-1.8
			c-1.9,0.2-3.5,1-4.6,2.5c-1.2,1.6-1.2,3.7-1.4,5.6c-0.1,0.9,0.3,1.9,0.5,2.8c0.6,2.2,1.5,4.3,3,6c1.7,1.9,3.9,2.8,6.4,2.9
			c1,0.1,2,0,3,0c0.5,0,1,0.2,1.5,0.3c0.4,0.1,0.6,0.4,0.5,0.8c0,0.3-0.1,0.7-0.2,1c-0.7,1.7-1.2,3.4-1.1,5.3c0,0.3,0,0.6,0,0.9
			c-0.1,1.3,0.3,2.6,0.9,3.8c0.6,1.4,1.5,2.7,2.6,3.7c1.2,1.1,1.5,2.8,0,3.9c-0.5,0.4-1.1,0.9-1.6,1.3c-1.8,1.7-3.9,3-6.1,3.9
			c-3,1.3-6.1,2.4-9.1,3.6c-3,1.2-5.8,2.6-8.5,4.4c0.4,0.2,0.8,0.3,1.3,0.5c-0.3,0.5-0.7,0.9-1,1.4c0.5,0,1,0.1,1.4,0.6
			c0.2,0.3,0.5,0.3,0.9,0.1c1.6-0.5,3.1-1,4.7-1.4c3.3-0.9,6.6-2,9.7-3.5c3.5-1.7,6.5-4.1,9.4-6.8c1.2-1.1,2.3-2.4,3.4-3.6
			c0.1-0.1,0.1-0.1,0.2-0.2c1.6-2.3,3.8-3.8,6.1-5.2c1.5-0.9,3.3-1.3,5-1.9c2-0.7,4-1.3,6-2c2.6-0.9,5-2.1,7.8-2.2
			c1.7-0.6,3.4-0.1,5.1,0.3c1.1,0.2,2.2,0.6,3.4,0.9c0.7,0.2,1.4,0.4,2.1,0.4c1.2,0.1,2.4-0.4,3.5-0.9c3.5-1.7,7-3.4,10.5-5.1
			c1.2-0.6,2.5-0.7,3.8-0.3c0.3,0.1,0.7,0.2,1,0.2c2.7,0.2,5.3-0.2,8-0.3c0,0,0.1,0,0.1,0c1.5-0.3,3.1-0.5,4.6-0.8
			c1.9-0.4,3.9-0.8,6-1.2C205.6,421.8,204.7,421.6,205.1,420.7z M189.9,393.7c0.6,0.1,1.1,0.3,1.7,0.4c1.2,0.2,2.5,0.2,3.7,0.6
			c1.2,0.4,2-0.1,2.6-1c0.2-0.3,0.5-0.4,0.8-0.7c0.3-0.3,0.8-0.6,0.9-1c0.2-0.8,0.1-1.5-0.5-2.2c-0.7-0.8-1.5-1.1-2.4-1.6
			c-0.3-0.2-0.8-0.4-1.1-0.3c-0.6,0.2-1.4,0.3-1.8,0.9c-0.8,1.1-1.7,2.1-2.6,3.1C190.8,392.5,190.4,393,189.9,393.7z M207.9,414.7
			c-0.3-0.3-0.8,0.1-1-0.5c-0.2-0.6-0.6-0.5-1.2-0.3c-1.6,0.7-3.3,1.3-4.9,1.9c-2.1,0.8-4.2,1.6-6.2,2.5c-0.7,0.3-1.6,0.5-2.1,1.4
			c0.6,0,1.1,0.1,1.6,0c1.8-0.3,3.5-0.7,5.3-1c1.1-0.2,2.2-0.3,3.3-0.6c0.5-0.1,1.1-0.2,1.3-0.9c0.1-0.6,0.6-0.8,1.1-1.1
			C205.9,415.7,206.9,415.2,207.9,414.7z M198.9,405.3c0,0.1,0,0.1,0,0.2c0.3,0,0.5,0,0.8-0.1c0,0,0-0.1,0-0.1
			C199.3,405.3,199.1,405.3,198.9,405.3z M194.5,405.9C194.5,405.9,194.5,405.9,194.5,405.9c0.2,0.1,0.4,0.1,0.6,0.1
			c0,0,0-0.1,0-0.1C194.9,405.9,194.7,405.9,194.5,405.9z M208.3,414.4L208.3,414.4L208.3,414.4L208.3,414.4z"/>
		<path id="XMLID_184_" d="M355.5,282.9c1.7-1.8,3.7-2.6,5.9-2.4c3.8,0.3,5.9,3.5,4.8,6.8c-0.4,1.3-0.9,2.6-1.5,3.8
			c-1.4,3-2.9,5.9-4.3,8.9c-0.4,0.9-0.8,1.7-1.2,2.6c-0.5,1-1.1,1.7-2.3,1.7c-0.2,0-0.4,0.1-0.6,0.2c-0.7,0.2-1.1,0-1.6-0.6
			c-1.3-1.6-2.7-3.1-4-4.7c-1.9-2.3-3.8-4.5-5.5-6.9c-0.8-1.1-1.3-2.3-1.5-3.7c-0.3-1.6-0.2-3.2-0.2-4.8c0-1.7,1.1-3,2.7-3.4
			c1.3-0.3,2.6-0.6,4-0.6c0.2,0,0.5,0.1,0.7,0c1.7-0.6,2.8,0.3,3.8,1.5C354.9,281.9,355.1,282.4,355.5,282.9z M356.5,301.1
			c0.8-1.7,1.4-3.1,2.1-4.6c1.4-3,2.9-6,4.4-9c0.4-0.7,0.4-1.5,0.3-2.2c-0.1-0.8-0.7-1.4-1.6-1.6c-1.6-0.3-2.8,0.4-3.9,1.5
			c-0.6,0.6-0.9,1.4-1.4,2c-0.4,0.5-1,1-1.5,1.4c-1,0.5-1.8,0.2-2.1-0.9c-0.2-0.6-0.2-1.2-0.3-1.8c0-0.3,0-0.7,0-1.1
			c-0.2-1.3-0.3-2-2-1.9c-0.4,0-0.7,0-1.1,0c-2,0.1-3.3,1.7-2.9,3.6c0.1,0.5,0.1,0.9,0.3,1.4c0.3,1,0.5,1.9,1.3,2.7
			c0.2,0.2,0.4,0.6,0.6,0.8c0.8,1,1.6,2,2.4,2.9c1,1.2,1.9,2.5,2.9,3.6C354.7,299.1,355.5,300,356.5,301.1z"/>
		<path id="XMLID_181_" class="st0" d="M265.5,344.8c0.3-1.4,0.8-2.6,0.7-4.1c-0.1-1.2-1.2-2-2.4-1.5c-0.4,0.2-0.8,0.5-1.1,0.9
			c-1.1,1.1-2.4,1.8-3.9,2.3c-0.2,0.1-0.3,0.1-0.5,0.2c-2,0-1.9,0.1-1.9-1.7c0-1.1-0.1-2.1,0-3.2c0.1-0.9-0.2-1.6-0.9-1.9
			c-0.8-0.3-1.6-0.3-2.4,0.3c-0.6,0.5-1.1,1-1.7,1.4c-0.5,0.4-0.9,0.8-1.4,1.1c-0.5,0.4-1.1,0.6-1.8,0.4c-0.3-0.8,0-1.6,0.4-2.3
			c0.7-1.5,1.6-2.9,2.8-4.1c0.9-0.8,1.7-1.7,2.5-2.5c0.5-0.5,0.9-1.2,1.4-1.7c0.8-0.8,1.6-1.6,2.5-2.3c2-1.5,4.1-3,6.4-4
			c2.8-1.3,5.6-2.3,8.6-2.8c2.8-0.5,5.5-1,8.2-1.6c0.6-0.1,1.2-0.9,1.2-1.5c0-0.9-0.5-1.4-1.3-1.4c-0.8,0-1.7,0-2.8,0
			c0.6-0.5,1.1-0.9,1.5-1.3c0.2-0.2,0.5-0.4,0.7-0.6c1.2-1,2.3-2,3.5-3c0.7-0.6,1.3-1.1,2-1.7c1.4-1.2,2.7-2.4,4.1-3.6
			c1.4-1.2,2.8-2.3,4.2-3.5c0.7-0.6,1.5-1.2,2.2-1.9c1.8-1.8,4.1-2.6,6.5-3.2c2.2-0.5,4.5-0.7,6.8-0.5c2.8,0.3,5.2,1.4,7.1,3.8
			c1.8,2.4,2.8,5.1,3.5,8c0.3,1,0.2,2.1,0.3,3.1c0,1,0,2,0,3c0.1,1.5,0,3,0.2,4.4c0.3,1.8-0.2,3.7-0.6,5.5
			c-0.9,4.2-2.6,8.2-3.9,12.3c-1.2,3.7-2.7,7.4-4.2,11c-1.5,3.7-2.9,7.4-4.8,10.9c-0.9,1.8-2.2,3.2-3.8,4.4
			c-2.8,1.9-5.6,3.7-8.7,5.1c-1.9,0.8-3.7,1.6-5.7,2.1c-1.5,0.4-2.9,0.9-4.3,1.3c-1.8,0.5-3.6,1.1-5.5,1.5c-1.1,0.2-2.2,0.2-3.4,0.3
			c-0.8,0-1.6,0-2.4,0c-2.3,0.1-4.5-0.4-6.7-0.9c-3.2-0.8-6.2-2.1-9.1-3.6c-2.8-1.4-5.5-2.9-8.3-4.4c-1.5-0.8-2.9-1.7-4.4-2.4
			c-1.4-0.7-2.8-1.2-4.2-1.8c-1.4-0.6-2.9-1.1-4.2-2c-1.3-0.9-1.4-1.2-0.9-2.7c0.3-0.8,0.5-1.5,0.8-2.3c0.3-1.1,0-1.8-1-2.2
			c-0.5-0.2-1.1-0.2-1.6-0.3c-1-0.2-2-0.3-3.1-0.6c-0.3-0.1-0.5-0.4-0.7-0.6c0.5-1.1,1.5-1.2,2.4-1.4c0.7-0.2,1.4-0.3,2.1-0.5
			c0.3-0.1,0.7-0.2,0.9-0.4c0.2-0.3,0.3-0.7,0.4-1.1c0.1-0.7-0.6-1.4-1.4-1.5c-1.4-0.3-2.9-0.5-4.3-0.8c-0.9-0.2-1.8-0.4-2.6-0.6
			c-0.8-0.2-0.9-0.5-0.9-1.4c0-0.5,0-0.9,0.2-1.4c0.3-0.6,0.7-1.1,1.3-1.4c1.2-0.5,2.5-1,3.7-1.6c0.9-0.5,1.4-1.2,1.4-2.3
			c0-0.4-0.1-0.7-0.4-0.9c-0.6-0.3-1.1-0.7-1.8-0.8c-1.4-0.3-2.8-0.5-4.2-0.6c-0.8-0.1-1.7-0.1-2.4-1c0.7-0.5,1.4-0.7,2.2-0.8
			c1.2-0.1,2.3-0.3,3.5-0.5c1.1-0.1,2.2-0.2,3.2-0.3c1.5-0.1,2.9-0.2,4.4-0.5c0.1,0,0.3,0,0.4,0c1.3-0.1,2.6,0,3.8-0.3
			c1.2-0.3,2.5,0.1,3.6-0.5c0.1,0,0.2,0,0.3,0c1.3-0.1,2.7-0.2,4-0.3c0.5,0,1-0.2,1.7-0.3c-0.8,0.9-1.4,1.8-2.1,2.5
			c-1.2,1.3-2.2,2.7-3.1,4.2c-0.4,0.6-0.6,1.3-1,2c-0.8,1.2-0.5,2.5-0.4,3.7c0.1,1.8,2.3,3.1,4,2.7c1.5-0.3,2.9-0.9,4.1-2
			c0,0.8,0,1.6,0,2.3c-0.2,2.6,1.8,3.2,3.7,2.9c1.3-0.3,2.6-0.5,3.9-0.7c0.4-0.1,0.8-0.2,1.4-0.3c0,0.7,0,1.4,0,2
			c0,0.4,0.1,0.8,0.6,0.9c0.6,0.2,1.1,0.4,1.7,0.5c1,0.2,2-0.2,3,0.2c2-0.4,4.1-0.3,5.8-1.6c0.5-0.4,1-0.3,1.5,0c1,0.5,2,0.4,3.1,0
			c1.7-0.7,3.2-1.5,4.7-2.5c1.8-1.3,3.3-2.9,4-5.1c0.2-0.8,0.6-1.5,1-2.3c0.2-0.5,0.4-0.9,0.6-1.4c0.3-0.9,0-1.7-0.8-2.1
			c-0.8-0.3-1.6,0-2,0.9c-0.6,1.2-1.4,2.5-1.8,3.8c-0.4,1.5-1.4,2.5-2.4,3.3c-1.1,0.9-2.5,1.5-3.7,2.2c-0.4,0.2-0.7,0.2-0.9-0.1
			c-0.2-0.2-0.4-0.4-0.7-0.7c-0.8-0.7-1.3-0.8-2.2-0.2c-0.4,0.3-0.8,0.5-1.1,0.9c-1.8,1.6-3.9,2-6.2,1.8
			C266,345.1,265.7,344.9,265.5,344.8z M308.1,302c-0.3,0.7-0.6,1.1-0.6,1.6c-0.1,0.6-0.4,0.8-1,0.8c0,0-0.1,0-0.1,0
			c-0.8,0.1-0.8,0.1-0.6,0.8c0.1,0.6,0.3,1.1,0.2,1.7c-0.1,0.9-0.1,0.9,0.9,1.3c0.8,0.3,1.8,0.3,2.6,0.7c1.3,0.7,2.5,0,3.6-0.6
			c0.1-0.1,0.2-0.3,0.3-0.4c0.9-1.4-0.8-3.8-2.2-3.7c-0.8,0-1.4-0.3-2-0.9C308.8,302.9,308.6,302.6,308.1,302z"/>
		<path id="XMLID_180_" class="st0" d="M353,347.5c0.1-0.4,0.2-0.8,0.4-1.2c0.4-0.9,0.9-1.8,1.3-2.7c0.3-0.7,0.1-1.8-0.4-2.3
			c-0.2-0.2-1.5-0.2-1.9,0c-0.3,0.2-0.6,0.4-1,0.7c-0.8,0.6-1.5,1.2-2.7,1.4c0.2-1.4,0.6-2.7,1.1-3.9c0.9-2.2,1.8-4.4,2.9-6.5
			c0.9-1.9,2-3.6,3.1-5.4c1-1.6,2-3.2,3.2-4.7c0.9-1.1,2-2.2,3.1-3.1c1.2-1,2.5-1.8,3.8-2.5c1-0.6,2.1-1,3.2-1.5
			c1.9-0.8,3.9-1.4,5.9-1.8c1.5-0.3,3.1-0.5,4.6-0.7c4.4-0.4,8.8-0.1,13.2-0.2c0.9,0,1.6-0.4,2-1.2c0.5-0.9,0.2-1.5-0.8-1.7
			c-0.7-0.1-1.5-0.2-2.2-0.3c-0.4,0-0.8,0-1.3,0c1.5-1.2,2.8-2.3,4.2-3.5c0.5-0.4,1-0.4,1.5-0.2c2.1,0.8,4.2,1.6,6.3,2.4
			c2.7,1,5.3,2.1,7.9,3.1c1.3,0.5,2.6,1,4,1.5c1.2,0.4,1.7,1.2,1.7,2.4c0.1,2.2,0.7,4.2,2.4,5.7c1.2,1,2.4,1.8,4,2
			c0.6,0,1.1,0.2,1.7,0.2c2.8,0,5.4-0.7,7.7-2.3c1.4-1,2.6-2.3,3.6-3.8c0.1-0.1,0.2-0.3,0.3-0.5c1.5,1.7,2.7,3.6,3.3,5.7
			c0.2,0.8,0.3,1.6,0.3,2.5c0,0.3-0.1,0.6,0,0.8c0.6,1.5,0.1,2.7-0.8,3.9c-0.8,1.1-1.6,2.3-2.5,3.3c-1.3,1.5-3,2.4-4.8,3.1
			c-1.5,0.6-3,1-4.5,1.7c-1.3,0.6-2.6,1.4-3.7,2.4c-1.8,1.5-3.5,3.1-5.1,4.8c-3.6,4-7.5,7.7-11.3,11.5c-1.8,1.9-4,3.4-6.2,4.7
			c-0.7,0.4-1.4,0.8-2.2,1.2c-2.5,1.5-5.4,2.1-8.1,2.9c-1.9,0.5-3.8,1-5.7,1.7c-1.4,0.6-2.9,0.9-4.4,0.9c-1.2,0.1-2.3,0.4-3.5,0.2
			c-1.7-0.3-3.5,0-5.2-0.5c-0.1,0-0.3,0-0.4,0c-1.7-0.1-3.3,0-5-0.3c-1.1-0.2-2.2-0.1-3.3-0.4c-0.8-0.3-1.7-0.2-2.6-0.3
			c-1.5-0.2-2.9-0.4-4.4-0.6c-1.4-0.2-2.8-0.3-4.2-0.6c-1.9-0.4-3.8-0.9-5.7-1.6c-2.6-1-5-2.4-7.2-4c-1.5-1.1-3-2.3-4.2-3.7
			c-0.3-0.3-0.6-0.8-0.9-1.1c-0.6-0.7-0.5-1.4-0.1-2.1c0.2-0.4,0.4-0.8,0.7-1.1c0.6-0.6,0.6-1.3,0.7-2.1c0-0.7-0.2-1.2-0.9-1.5
			c-0.8-0.4-1.5-0.7-2.4-1.2c0.5-0.6,0.9-1.1,1.5-1.5c0.6-0.4,1.1-0.9,1.6-1.3c0.4-0.4,0.5-0.8,0.2-1.3c-0.3-0.6-0.7-1-1.2-1.3
			c-1-0.7-1.9-1.4-2.9-2.2c1.4-0.5,2.6-0.9,3.4-2.1c0.5-0.7,0.4-1.5-0.2-2.1c-1.1-1.2-2.3-2.3-3.5-3.5c-0.2-0.2-0.4-0.4-0.5-0.6
			c-0.1-0.2-0.2-0.5-0.2-0.7c0.2-0.1,0.4-0.2,0.6-0.2c0.6,0,1.3-0.2,1.9,0.2c0.1,0.1,0.3,0,0.4,0c2.4,0.1,4.7,0.5,7,1
			c2.4,0.5,4.7,0.9,7.1,1.4c0.6,0.1,1.2,0.4,1.8,0.6c-0.7,2-1.4,4-2.1,5.9c-0.4,1.1-0.6,2.2-0.7,3.3c-0.1,0.5-0.2,1-0.2,1.5
			c0,0.5,0.2,1,0.2,1.5c0.1,0.4,0.3,0.6,0.7,0.7c0.8,0.2,1.6,0.4,2.4,0.1c0.2-0.1,0.5-0.1,0.8-0.1c0,0.8-0.1,1.5-0.1,2.2
			c-0.1,0.6,0.2,1,0.4,1.5c0.2,0.5,0.6,0.7,1.1,0.8c0.8,0.1,1.6,0.1,2.3-0.4c1.4-0.9,2.8-1.6,4.3-2.5c0.2,0.3,0.6,0.7,0.8,1.1
			c0.4,1.1,1.4,1.1,2.3,1.1c2.5-0.1,4.2-1.6,5.5-3.6c0.1-0.1,0.1-0.3,0.2-0.5c0.2-0.3,0.4-0.5,0.6-0.8c0.7,0.3,1.3,0.5,1.9,0.8
			c3.5,1.6,6.7-0.5,8.2-2.7c0.6-0.8,1.1-1.5,1.7-2.3c0.3-0.4,0.6-0.4,0.8,0.1c0.5,0.9,1.2,1.4,2.1,1.9c0.5,0.2,0.9,0.3,1.4,0.1
			c1.2-0.5,2.1-1.2,3-2.1c1.8-1.8,2.4-4.1,2.9-6.5c0.2-1.4,0.5-2.8,0.8-4.2c0.1-0.7,0-1.3-0.6-1.8c-0.6-0.5-1.6-0.5-2.2-0.1
			c-0.6,0.4-0.6,1-0.7,1.5c-0.2,1.2-0.2,2.3-0.3,3.5c-0.1,0.8-0.3,1.5-0.5,2.3c-0.6,1.6-1.3,3.1-2.9,4.1c-0.5-0.5-1-1-1.5-1.4
			c-0.6-0.5-1.3-0.9-2.1-1c-0.6,0-1.1,0.1-1.6,0.5c-0.4,0.5-0.9,1-1.3,1.5c-0.7,0.9-1.4,1.9-2.2,2.7c-0.6,0.6-1.5,1.1-2.3,1.5
			c-0.7,0.4-1.4,0.1-1.9-0.4c-0.6-0.6-1.2-1.3-1.9-1.9c-0.9-0.9-2.2-0.6-2.8,0.5c-0.6,1-1.1,2.1-1.7,3.1c-0.4,0.7-1,1.3-1.6,1.9
			c-0.3,0.3-0.8,0.2-1-0.2c-0.2-0.5-0.4-1-0.6-1.6c-0.1-0.2,0-0.4-0.1-0.6c-0.6-1.2-2.1-1.6-3.1-0.7c-0.5,0.4-1.1,0.9-1.5,1.5
			c-0.5,0.9-1.5,1.3-2.2,2C353.2,347.5,353.1,347.5,353,347.5L353,347.5z"/>
		<path id="XMLID_122_" class="st0" d="M453,404.7c1.7,0.2,3.1-0.2,4.5,0.3c0.5,0.2,1.1,0,1.6,0c3.6,0,7,0.7,10.3,1.9
			c3,1.1,5.7,2.8,8.2,4.9c1.5,1.2,2.9,2.6,4.2,4c3.2,3.5,5.4,7.5,6.5,12.1c0.5,2.2,0.8,4.4,0.6,6.6c-0.3,2.6-0.8,5.2-1.7,7.7
			c-0.6,1.8-1.4,3.5-2.3,5.1c-1.4,2.4-3.5,4.1-6.2,5c-1.2,0.4-2.5,0.6-3.8,0.8c-2.5,0.4-5.1,0.1-7.6,0.2c-1.3-0.4-2.8-0.3-4.1-0.5
			c-1.5-0.2-2.9-0.5-4.4-0.6c-0.9-0.1-1.9-0.3-2.8-0.5c-2.9-0.7-5.8-1.5-8.7-2.6c-3.5-1.3-6.9-2.7-9.9-4.8c-1.3-0.9-2.6-1.8-3.8-3
			c-0.8-0.8-1.6-1.6-2.4-2.4c-1.5-1.5-2.8-3.3-3.7-5.2c-0.9-1.9-1.6-3.9-2-6c-0.2-1.6-0.3-3.2-0.2-4.7c0.1-2.6,0.7-5.1,1.9-7.3
			c1-1.9,2.2-3.6,3.9-5c1.6-1.2,3.2-2.2,4.9-3.1c1.7-0.9,3.4-1.7,5.4-1.6c0.4,0,0.9-0.3,1.3-0.2c0.6,0.2,1.2,0.5,1.6,1.2
			c1.2,2.4,2.6,4.7,3.9,7.1c1,1.9,2,3.7,3,5.6c1.2,2.1,2.4,4.2,3.6,6.3c0.3,0.6,0.6,1.3,0.8,1.9c0.4,1,1,1.8,1.9,2.4
			c0.9,0.6,1.7,0.5,2.4-0.4c0.3-0.4,0.8-0.8,1.2-1.2c1-0.9,2.1-1.7,2.4-3.1c0.3-1.5,0.3-3.1-0.6-4.4c-1-1.4-2.1-2.9-3.2-4.3
			c-1.3-1.7-2.5-3.5-3.5-5.4c-1-1.8-1.9-3.6-2.8-5.4C453.2,405.8,453.2,405.3,453,404.7z"/>
		<path id="XMLID_121_" class="st0" d="M287.5,429.4c-0.4,2.5-1.1,4.8-1.9,7.2c-1,2.9-2.3,5.5-4.3,7.8c-1.3,1.6-2.8,3.1-4.5,4.4
			c-1.4,1-2.8,2.2-4.3,3.2c-2.5,1.6-5.2,2.8-8.3,3.3c-1.4,0.2-2.7,0.5-4.1,0.5c-1.6,0-3.2-0.3-4.8-0.5c-2.2-0.3-4.3-0.9-6.4-1.6
			c-2-0.7-3.9-1.6-5.7-2.7c-0.5-0.3-1.1-0.6-1.7-1c-2.5-1.6-4.6-3.7-6.3-6.2c-1.1-1.7-1.8-3.6-2.4-5.6c-0.2-0.8-0.3-1.7-0.5-2.5
			c-0.3-1.2-0.1-2.4-0.3-3.5c-0.4-2.5-0.3-4.9-0.2-7.4c0-1.5,0.2-2.9,0.4-4.4c0.2-1.2,0.3-2.5,0.6-3.7c0.6-3,1.6-5.7,3.5-8.1
			c2.4-3.1,5.4-5.4,9.1-6.7c1.1-0.4,2.2-1,3.3-1.5c2.2-1,4.5-1.7,7-1.6c0.2,0,0.4,0,0.5,0c2.9-0.2,5.8,0.2,8.7,0.3
			c0.7,0,1.5,0.4,2.2,0.6c0.5,0.2,0.6,0.6,0.4,1.2c-0.8,2.1-1.6,4.3-2.4,6.4c-1.3,3.5-2.7,6.9-3.6,10.5c-0.3,1.3-0.4,2.6-0.7,4
			c-0.1,0.8-0.3,1.6-0.4,2.4c-0.1,0.5-0.2,1-0.1,1.4c0.1,0.6,0.3,1.1,1,1.3c0.6,0.2,1.2,0.4,1.9,0.5c0.9,0.1,1.9,0.3,2.8,0.4
			c0.7,0.1,1.4,0.3,2.2,0.3c1.4,0.1,2.8,0.2,4.2,0.3c1.7,0.2,3.5,0.1,5.2,0.3c1.3,0.1,2.6,0,3.9,0.2c1.6,0.2,3.2,0.2,4.8,0.3
			C286.7,429.1,287.1,429.3,287.5,429.4z"/>
		<path id="XMLID_120_" class="st0" d="M323.1,390.9c-0.2-0.9-0.4-1.8-0.5-2.7c-0.1-0.5,0-1.1,0-1.6c0-1.1,0.3-1.4,1.5-1.5
			c0.2,0,0.4,0,0.7,0c1.6,0,3.2,0.1,4.8,0c3.6-0.4,7.1,0,10.7-0.3c1.8-0.1,3.6,0,5.4-0.2c1.7-0.2,3.4,0,5.1-0.3
			c1.5-0.2,3.1-0.1,4.6-0.2c0.9-0.1,1.5,0.3,2,1c1.2,1.5,2.4,3.1,3.6,4.6c0.5,0.7,1.1,1.3,1.7,2c1.1,1.3,2.1,2.5,3.2,3.8
			c0.9,1,1.7,2,2.7,2.9c1.1,1.1,2.3,2.1,3.4,3.1c1.3,1.3,2.6,2.7,3.9,4.1c1.1,1.2,2.2,2.4,3.3,3.6c1.3,1.4,2.8,2.8,4,4.3
			c1.7,2.1,3.6,3.9,5.5,5.7c1.1,1.1,1,2.2,1,3.5c0,0.5-0.8,1-1.5,1.1c-3.4,0.4-6.8,0.3-10.3,0.3c-1.7-0.5-3.5-0.1-5.2-0.3
			c-1.7-0.2-3.3-0.1-5-0.3c-1.1-0.2-2.3-0.1-3.4-0.2c-1.6-0.3-3.3,0-4.8-0.3c-1.2-0.2-2.4-0.1-3.7-0.2c-3.2-0.3-6.4-0.3-9.6-0.2
			c-1.9,0.1-3.9,0.1-5.8,0.5c0,0-0.1,0-0.1,0c-1.6,0.1-3.2,0.2-4.8,0.3c-1,0.1-1.9,0.2-2.9,0.2c-1.1,0-1.4-0.3-1.8-1.3
			c-0.5-1.1-0.9-2.3-1.6-3.2c-0.7-1-1.3-2.1-2.4-2.7c-0.6-0.3-0.7-0.8-0.4-1.5c0.7-2.5,1.5-5,2.2-7.6c0.3-1.2,1-1.8,2.2-1.9
			c0.6,0,1.1-0.2,1.6-0.4c1.2-0.5,1.6-1.4,1.4-2.8c-0.2-0.9-1.3-1.9-2.2-1.9c-0.3,0-0.5,0-0.8,0c-1.1,0-2.3,0-3.4,0c0,0,0-0.1,0-0.1
			c1.3-0.5,2.7-0.9,4-1.4c1.1-0.4,1.4-0.7,1.4-1.6c0-1.1-0.9-1.9-2-1.6c-1,0.3-2,0.6-2.9,1c-0.1,0-0.2,0-0.3,0
			c0.5-0.8,0.9-1.5,1.4-2.3c0.2-0.3,0.3-0.7,0.4-1.1c0.1-1-0.3-1.5-1.3-1.5c-0.9,0-1.5-0.2-2.1-0.9c-0.4-0.5-0.9-0.6-1.5-0.2
			C323.8,390.6,323.5,390.7,323.1,390.9z"/>
		<path id="XMLID_119_" class="st0" d="M416.3,378.5c0.3-1.2,0.5-2.2,0.7-3.2c0.3-1.3,0-2-1.2-2.5c-0.9-0.3-1.9-0.6-2.9-0.7
			c-1.9-0.2-3.7-0.4-5.6-0.6c-2-0.2-4.1-0.4-6.1-0.5c-1.6-0.1-3.3-0.4-4.9-0.5c-1.4-0.1-2.8-0.4-4.2-0.5c-0.9-0.1-1.8-0.2-2.7-0.2
			c-0.2,0-0.5-0.2-0.8-0.3c2.8-0.9,5.5-2,8.4-2.5c0.4-0.1,0.7-0.2,1.1-0.4c2.8-1.3,5.5-2.9,8-4.8c2.4-1.8,4.5-3.9,6.5-6.1
			c2.9-3.2,6-6.2,9.1-9.2c1.3-1.3,2.6-2.6,4-3.8c0.9-0.8,1.9-1.3,3.1-1.5c0.2,0,0.3,0,0.5,0c1.3,0.3,2.6,0.7,3.9,1
			c1,0.2,2,0.4,2.9,0.4c1,0.1,1.9,0,2.9,0c2.9,0.1,5.8-0.5,8.5-1.5c1.3-0.4,2.5-0.9,3.7-1.5c1.5-0.6,2.9-1.6,4-2.9
			c0.5-0.6,1.2-0.7,1.8-0.5c0.6,0.2,1.1,0.2,1.7,0.2c1,0,1.6,0.6,2,1.5c0.7,1.6,0.5,3.2-0.1,4.8c-0.8,1.9-2.1,3.4-3.7,4.6
			c-1.9,1.5-4.1,2.6-6.2,3.8c-1.7,1-3.5,1.9-5.2,2.9c-1.6,0.9-3.3,1.7-5.1,2.2c-2.1,0.5-3.2,2-3.9,3.9c-0.7,2-1.2,4-1.6,6.1
			c-0.1,0.6,0,1.2,0,1.8c0.1,1.7-0.4,3.3-1.1,4.9c-0.5,1.3-1,2.6-1.6,3.8c-0.3,0.7-0.9,1.2-1.7,1.2c-1.6,0.1-3.2,0.2-4.8,0.3
			c-2.6,0.1-5.3,0.2-7.9,0.3C417.2,378.5,416.8,378.5,416.3,378.5z"/>
		<path id="XMLID_118_" class="st0" d="M280.9,388.7c2.2,1.8,4.3,3.5,6.3,5.2c1.6,1.3,3.3,2.6,4.9,3.9c1.3,1.1,2.7,2.3,4,3.4
			c1.2,1.1,2.4,2.1,3.6,3.3c1,1.1,1.9,2.2,2.9,3.4c0.6,0.7,1.3,1.4,1.9,2.2c1.1,1.3,2.2,2.6,3.3,3.9c1.1,1.4,2.2,2.8,3.4,4.1
			c0.4,0.4,0.3,0.9,0.2,1.4c-0.1,0.4-0.3,0.7-0.5,1.1c-0.7,1.4-1.4,1.7-2.9,1.4c-0.2,0-0.4-0.2-0.6-0.2c-1.3-0.1-2.6-0.2-3.9-0.3
			c-0.7-0.1-1.4-0.2-2.1-0.3c-0.7-0.1-1.4,0.2-2.1-0.2c-0.1,0-0.2,0-0.3,0c-1.5-0.1-3.1-0.2-4.6-0.3c-0.7-0.1-1.4-0.1-2.1-0.3
			c-0.4-0.1-0.7-0.4-0.8-0.9c-0.3-1.8-0.5-3.6-0.8-5.4c-0.5-2.5-1.2-5.1-2.7-7.2c-1.1-1.7-2.6-3.1-4.2-4.4c-1.5-1.2-3.1-2.2-4.7-3.3
			c-0.7-0.5-0.8-1-0.6-2c0.6-2.3,1.2-4.6,1.8-6.9C280.6,389.8,280.7,389.3,280.9,388.7z"/>
		<path id="XMLID_117_" class="st0" d="M308.7,425.1c0.2,1.8,0,2-1.5,1.8c-2.1-0.3-4.3,0-6.4-0.3c-2.4-0.3-4.7,0-7.1-0.3
			c-1.9-0.2-3.9,0-5.8-0.3c-1.8-0.3-3.6,0-5.4-0.3c-1.7-0.2-3.3,0-5-0.3c-1.5-0.2-3.1,0-4.6-0.3c-1.4-0.3-2.9,0-4.3-0.4
			c-0.9-0.3-1.9,0-2.8-0.3c-0.8-0.2-1.6-0.2-2.5-0.3c0.9-3.2,1.4-6.4,2.5-9.5c1.2-3.5,2.4-7,3.6-10.5c1.6-4.5,3.1-9,4.7-13.4
			c0.8-2.2,1.6-4.5,2.4-6.7c0.5-1.3,1.6-2.1,3-2.1c2.4,0,4.9,0.2,7.3,0c4.3-0.4,8.5,0,12.8-0.3c2.1-0.1,4.3,0,6.4-0.2
			c2.1-0.3,4.1,0,6.2-0.3c1.8-0.2,3.5-0.1,5.2-0.2c0.2,0,0.5-0.1,0.7,0c0.3,0.1,0.6,0.2,0.7,0.4c0.1,0.3-0.2,0.5-0.6,0.5
			c-0.8,0.1-1.5,0.2-2.3,0.3c-2.3,0.1-4.7,0-6.9,0.3c-1.6,0.2-3.3,0-4.8,0.2c-1.8,0.3-3.7,0-5.5,0.3c-1.6,0.2-3.2,0-4.8,0.3
			c-1.4,0.2-2.9,0.2-4.3,0.2c-0.6,0-1.3,0.2-1.9,0.3c-0.6,0.1-1.1,0.6-1.2,1.2c-0.1,1.2,0,2.3,0.9,3.1c1,0.9,2.1,1.8,3.2,2.7
			c0.1,0.1,0.2,0.2,0.3,0.3c1.2,1.1,2.4,2.2,3.6,3.3c1,0.9,2.1,1.7,3.1,2.6c0.1,0.1,0.1,0.1,0.2,0.2c1.3,1.2,2.5,2.3,3.8,3.5
			c1.1,1,2.3,2,3.5,3c0.7,0.6,1.4,1.2,2.1,1.8c1.5,1.4,3.1,2.5,4.7,3.7c0.6,0.4,1,1,1.5,1.5c1.4,1.4,2.8,2.8,4.3,4.2
			c-0.9,0.4-1.7,0.7-2.6,1.1c-0.6,0.3-1.2,0.2-1.6-0.3c-0.9-1.2-1.8-2.5-2.8-3.8c-0.5-0.6-1-1.2-1.5-1.8c-0.9-1-1.7-2.1-2.6-3.1
			c-0.1-0.1-0.1-0.1-0.2-0.2c-1.8-1.8-3.4-3.8-5.3-5.5c-1.9-1.8-3.9-3.3-5.8-5.1c-1.9-1.7-4-3.2-6.1-4.7c-0.8-0.6-1.5-1.3-2.3-2
			c-1.2-1.1-2.3-2.2-3.6-3.3c-0.6-0.5-1.4-0.9-2.2-1.2c-1.3-0.4-1.9,0.1-2.4,1.4c-0.3,1-0.7,2-1,3.1c-1,2.9-1.9,5.9-2.9,8.8
			c-1.2,3.4-2.6,6.8-3.8,10.2c-1.3,3.6-2.9,7.1-3.9,10.8c-0.2,0.6-0.2,1.2-0.2,1.8c0,0.3,0.4,0.7,0.7,0.9c0.3,0.2,0.6,0.3,1,0.3
			c1.5,0,3.1,0.2,4.6,0c0.9-0.1,1.8-0.3,2.7-0.2c1.6,0.3,3.2,0,4.8,0.5c0.1,0,0.2,0,0.3,0c1.4,0.1,2.8,0.2,4.2,0.3
			c0.6,0.1,1.3,0.2,1.9,0.3c0.6,0.1,1.2-0.1,1.8,0.2c0.1,0.1,0.3,0,0.4,0c1.3,0.1,2.6,0,3.8,0.3c1.3,0.3,2.6-0.1,3.9,0.5
			c0,0,0.1,0,0.1,0c1.5,0.1,3,0.1,4.4,0.3c1.5,0.2,3,0.1,4.4,0.5c0.3,0.1,0.6,0,0.9,0C307.3,424.9,308,425,308.7,425.1z"/>
		<path id="XMLID_116_" class="st0" d="M368.8,384.7c3.3-0.6,6.5-0.2,9.7-0.3c0.6,0,1.3-0.1,1.9-0.2c0.8-0.1,1.7,0.1,2.4,0.8
			c1.5,1.4,2.9,2.8,4.4,4.1c1.9,1.8,3.7,3.7,5.7,5.4c1.5,1.3,2.9,2.7,4.3,4.1c0.6,0.5,1.3,0.8,1.6,1.6c0.2,0.4,0.4,0.8,0.4,1.4
			c0,1,0.1,2,0,2.9c-0.3,1.7-0.1,3.3-0.3,5c-0.1,0.7-0.2,1.4-0.2,2.2c0,0.7-0.2,1-0.9,1.2c-0.7,0.2-1.5,0.4-2.3,0.5
			c-0.4,0.1-0.8,0.1-0.9,0.2c-1.1-1.1-2.2-2.1-3.2-3.1c-0.6-0.6-1.3-1.3-1.9-1.9c-0.2-0.2-0.4-0.5-0.6-0.7c-1.2-1.2-2.2-2.6-3-4.1
			c-0.5-1-1.2-1.8-2-2.5c-1.5-1.2-2.6-2.8-3.8-4.3c-1.1-1.4-2.3-2.7-3.5-4.1c-1.2-1.4-2.4-2.8-3.7-4.2c-0.7-0.8-1.6-1.4-2.3-2.1
			C370,386,369.4,385.3,368.8,384.7z"/>
		<path id="XMLID_115_" class="st0" d="M409.8,419.8c0.2,0.1,0.5,0.2,0.6,0.3c2,1.4,3.6,3.1,4.3,5.5c0.5,1.7,0.7,3.5-0.3,5.1
			c-0.4,0.6-0.9,1.2-1.4,1.7c-1.5,1.1-2.8,2.3-4.5,3c-1.8,0.8-3.5,1.3-5.5,0.8c-1-0.2-2.1-0.3-3-0.7c-2-0.8-3.6-2-4.5-4.1
			c-0.4-0.9-0.8-1.7-1.3-2.5c-0.6-1-0.8-2.1-1-3.3c-0.2-1-0.2-2-0.2-3c-0.1-2.3,1.1-4,2.8-5.3c1.3-1,2.8-1.6,4.5-1.4
			c1.8,0.3,3.7,0.4,5.4,1c0.8,0.3,1,0.5,1,1.3c0,0.8-0.2,1.5-0.4,2.3c-0.4,1.7-1,3.3-1.4,5c-0.2,0.9-0.3,1.9,0.6,2.6
			c0.6,0.5,1.1,0.5,1.7,0.4c0.6-0.1,0.7-0.7,0.8-1.1c0.3-2.2,1-4.3,1.5-6.4C409.7,420.7,409.7,420.3,409.8,419.8z"/>
		<path id="XMLID_114_" class="st0" d="M325.5,405.5c-0.2,0.9-0.3,1.8-0.6,2.7c-0.5,1.8-1,3.7-1.9,5.4c-0.2,0.4-0.5,0.8-0.8,1.2
			c-0.9-0.9-1.8-1.7-2.6-2.6c-0.9-1-1.9-1.8-3-2.5c-1.7-1-2.4-2.5-3-4.3c-0.3-0.8-0.3-1.7-0.3-2.6c0-1.4,0-2.7,0-4.1
			c0-1.1-0.4-1.9-0.8-2.8c-0.1-0.2-0.4-0.3-0.6-0.5c-2.2-1.4-4.5-2.8-6.7-4.2c-1.8-1.1-3.6-2.2-5.4-3.4c-0.8-0.5-1.5-1-2.3-1.5
			c0.1-0.1,0.1-0.1,0.1-0.1c2.3-0.1,4.6-0.1,6.9-0.3c1.9-0.2,3.8,0,5.6-0.3c1.3-0.2,2.5-0.1,3.8-0.2c1.4-0.1,2.8-0.2,4.2-0.3
			c0.6,0,1.1,0.3,1.2,0.8c0.1,0.5,0.2,1.1,0.3,1.7c0.2,1.4,0.5,2.8,0.7,4.2c0.2,1.2,0.4,2.5,0.6,3.7c0.2,1.2,0.4,2.5,0.8,3.6
			c0.3,0.9,0.1,1.5-0.5,2.1c-1,0.9-1.1,2-0.7,3.2c0.3,0.8,0.9,1.2,1.5,1.5c0.2,0.1,0.4,0,0.6-0.1
			C323.7,405.5,324.6,405.5,325.5,405.5L325.5,405.5z"/>
		<path id="XMLID_113_" class="st0" d="M289,378.4c0.1-1.2-0.2-2.3,0.2-3.4c0.1-0.3,0.2-0.6,0.6-0.8c1.4-0.7,2.8-1.4,4.2-2.1
			c1.1-0.5,2.3-1.1,3.4-1.6c2.5-1,5-2,7.6-3c2.9-1.1,5.9-2.2,8.9-3.3c0.6-0.2,1.1-0.4,1.7-0.6c0.3,1.3,0.6,2.6,0.9,3.8
			c0.4,1.7,0.7,3.4,1.1,5c0.2,1.1,0.5,2.3,0.8,3.4c0.1,0.3,0,0.5,0,0.8c0,0.6-0.2,0.7-0.8,0.8c-2.3,0.1-4.6,0.2-6.9,0.3
			c-2.2,0.1-4.5,0-6.7,0.3c-2,0.2-4,0-6,0.2c-1.8,0.2-3.7,0.2-5.5,0.2C291.2,378.7,290.2,378.5,289,378.4z"/>
		<path id="XMLID_112_" class="st0" d="M418.1,413.7c0.3-0.7,0.5-1.5,0.8-2.2c0.8-1.8,1.8-3.6,2.6-5.4c1.1-2.5,2.2-5.1,3.3-7.6
			c0.7-1.6,1.4-3.2,2.1-4.8c0.6-1.5,1.3-2.9,1.9-4.4c0.3-0.9,0.6-1.8,0.4-2.8c-0.5-2-1.5-2.6-3.4-2.8c-2.3-0.2-4.5-0.2-6.8-0.3
			c-1.3-0.1-2.6-0.2-3.9-0.3c-0.5,0-0.5-0.3-0.3-0.7c0.3-0.6,0.7-0.7,1.3-0.8c2.6-0.4,5.3,0,7.9-0.3c2.2-0.2,4.5-0.1,6.7-0.2
			c1,0,1.9-0.4,2.7-0.8c0.2-0.1,0.5-0.3,0.6-0.5c0.6-1.1,1.5-2,1.8-3.3c0.2-0.8,0.6-0.9,1.2-0.3c0.3,0.3,0.6,0.6,0.8,0.9
			c1.6,2.4,3.3,4.8,4.7,7.3c1.2,2,2,4.2,3,6.3c1.5,3,2.4,6.3,3.4,9.5c0.6,1.8,1.1,3.7,1.6,5.6c0.3,1.4,0.9,2.8,1.5,4.1
			c1.3,3,2.9,5.7,4.8,8.3c0.9,1.1,1.7,2.3,2.6,3.4c0.6,0.8,1.2,1.6,1.1,2.7c0,0.6-0.7,1.5-1.3,1.6c-0.3,0-0.8-0.2-0.9-0.5
			c-0.9-1.6-1.7-3.2-2.4-4.9c-0.7-1.5-1.5-2.9-2.5-4.2c-1.1-1.4-2.1-2.8-3-4.4c-1.2-2.2-2.4-4.5-3.2-7c-0.9-2.7-1.7-5.3-2.7-8
			c-0.9-2.6-1.9-5.1-2.9-7.6c-0.4-1.1-0.9-2.2-1.3-3.2c-0.8-1.9-2.4-2.8-4.3-2.9c-2-0.1-3.5,0.8-4.5,2.7c-1,1.8-1.6,3.7-2.1,5.7
			c-0.4,1.5-0.7,3.1-1.1,4.6c-0.5,1.9-1.5,3.5-2.4,5.1c-0.8,1.3-1.5,2.6-2.3,3.9c-1.1,1.9-2.3,3.7-3.4,5.5c-0.4,0.7-0.9,1.5-1.3,2.2
			C418.5,413.4,418.3,413.5,418.1,413.7L418.1,413.7z"/>
		<path id="XMLID_111_" class="st0" d="M431,309.7c-0.8,0.1-1.6,0.1-2.4,0.2c-1.4,0.2-2.8,0.1-4.1,0.5c-0.2,0.1-0.4,0-0.7,0
			c-1.4,0-2.8,0.3-4.2,0.5c-0.6,0.1-1.2,0-1.8-0.1c-0.6-0.1-1.2-0.3-1.8-0.3c-1.3-0.2-2.5-0.8-3.6-1.3c-2.1-0.9-4.3-1.8-6.5-2.7
			c-1.8-0.8-3.7-1.5-5.5-2.2c-0.2-0.1-0.5-0.2-0.8-0.3c0.3-0.2,0.5-0.3,0.7-0.5c1.1-0.6,2.1-1.2,3.2-1.7c1.9-0.9,3.7-1.8,5.6-2.7
			c1.9-0.8,3.8-1.3,5.9-1.3c2.9-0.1,5.5,0.7,7.9,2.1c1.5,0.9,2.8,2.1,3.9,3.5c1.4,1.8,2.6,3.9,3.9,5.8
			C430.9,309.3,430.9,309.5,431,309.7z"/>
		<path id="XMLID_110_" class="st0" d="M407.4,405.6c0,2.9,0,5.6,0,8.4c-1.3-0.3-2.6-0.6-3.8-0.9c-0.2-0.1-0.4-0.2-0.6-0.2
			c-0.6,0-0.8-0.3-0.7-0.9c0-1.5-0.2-2.9,0.1-4.4c0.3-1.8,0.2-3.7,0.2-5.5c0.1-2-0.6-3.6-2.1-5c-1.6-1.6-3.2-3.2-4.8-4.8
			c-1.9-1.8-3.7-3.6-5.6-5.4c-1-1-2.1-1.9-3.3-3c1.3,0.1,2.4-0.2,3.4,0.2c0,0,0.1,0,0.1,0c1.5,0.1,3.1,0.1,4.6,0.3
			c1.6,0.2,3.2,0.1,4.8,0.5c0.1,0,0.2,0,0.3,0c1.7,0.1,3.4,0.1,5.1,0.3c1.7,0.1,3.4,0.3,5.2,0.5c-0.7,2.6-1.3,5.1-1.9,7.6
			c-0.4,1.9-1,3.8-1,5.7c0,0.7-0.4,1.1-1.3,1.2c-2.1,0.2-2.2,0.3-2.6,2.3c-0.2,0.8-0.1,1.5,0.5,2.1c0.2,0.2,0.5,0.4,0.8,0.4
			C405.5,405.4,406.4,405.5,407.4,405.6z"/>
		<path id="XMLID_109_" class="st0" d="M277.3,401.6c1.4,1,2.7,1.9,4,2.8c1.3,0.9,2.4,2,3.3,3.2c1.9,2.3,2.8,5.1,3.5,8
			c0.2,1.1,0.2,2.2,0.3,3.4c0,0.6-0.2,0.8-0.8,0.8c-0.7,0-1.5-0.1-2.2-0.2c-0.1,0-0.2,0-0.3-0.1c-1.3-0.1-2.6-0.1-3.9-0.3
			c-3.5-0.4-6.9-0.2-10.4-0.3c-0.1,0-0.2-0.1-0.4-0.1C271.1,415.1,275.9,402.9,277.3,401.6z"/>
		<path id="XMLID_108_" class="st0" d="M391.9,416.3c-0.4,0.5-0.8,1-1.2,1.6c-0.5-0.4-0.9-0.9-1.3-1.4c-0.5-0.8-1.2-1.4-1.8-2.1
			c-0.9-1-1.8-2-2.7-3c-1.2-1.3-2.4-2.7-3.5-4c-0.1-0.2-0.3-0.3-0.5-0.5c-2-2.2-4-4.3-5.9-6.5c-1.1-1.4-2.4-2.5-3.6-3.8
			c-0.4-0.4-0.9-0.6-1.2-1c-1.1-1.2-2.2-2.5-3.3-3.7c-0.7-0.9-1.5-1.7-2.3-2.6c-1.3-1.5-2.5-3.1-3.7-4.7c-0.7-0.9-1.5-1.8-2.3-2.7
			c-0.7-0.7-1.5-1.1-2.6-1c-1,0-2-0.1-2.9,0c-1.8,0.3-3.7,0-5.5,0.3c-1.4,0.2-2.8,0.1-4.2,0.2c-1.9,0.1-3.8,0.2-5.6,0.3
			c-1.9,0-3.7-0.2-5.6,0.1c-2.6,0.3-5.2,0.1-7.8,0.2c-0.4,0-0.8,0.2-1.1,0.2c-0.6,0.1-1-0.1-1.1-0.6c-0.1-0.6,0.2-0.9,0.8-0.9
			c1.8-0.1,3.7-0.2,5.5-0.3c1.6-0.1,3.2,0,4.7-0.3c1.5-0.2,3,0,4.4-0.2c2-0.3,4,0,5.9-0.3c3.6-0.5,7.3-0.1,10.9-0.2
			c0.3,0,0.6,0.1,0.9,0.2c1.3,0.3,2.5,0.6,3.8,0.6c4.1-0.1,8.2,0.4,12.2,0.3c2.8-0.1,5.6,0,8.3,0c2.3,0,4.5,0.1,6.8,0.2
			c0,0.1,0,0.2,0,0.3c-0.8,0-1.6,0-2.4,0c-0.8,0-1.7-0.1-2.5,0c-5.3,0.4-10.5,0.2-15.8,0.3c-0.3,0-0.6,0.1-0.9,0.2
			c-0.5,0.2-1.1,0.2-1.4,0.8c-0.3,0.8-0.3,1.6-0.1,2.3c0.3,0.7,1,1.2,1.6,1.7c0.1,0.1,0.4,0.2,0.5,0.3c1.9,1.8,3.9,3.6,5.8,5.6
			c1.5,1.6,2.9,3.4,4.3,5.1c2.8,3.2,5.1,6.7,7.5,10.1c1.4,2,2.8,3.9,4.6,5.5c1.1,1,2.3,2.1,3.4,3.1
			C391.6,416,391.8,416.2,391.9,416.3z"/>
		<path id="XMLID_107_" class="st0" d="M321.8,418c-0.7,1.6-1.3,3-1.9,4.5c-0.2,0.4-0.2,0.9-0.3,1.4c-0.1,0.6,0.2,1,0.6,1.2
			c0.5,0.2,1.1,0.3,1.6-0.1c0.4-0.4,0.7-0.8,0.9-1.2c0.6-1.2,1.1-2.4,1.7-3.7c0.1-0.3,0.4-0.6,0.6-1c0.3,0.4,0.5,0.7,0.7,1
			c1.1,1.7,2,3.5,2.5,5.5c0.1,0.6,0.1,1.3,0.1,2c-0.3,2.4-1.3,4.6-3.2,6.2c-0.9,0.7-2,1.3-3.3,1.5c-2.5,0.4-4.5-0.6-6.3-1.9
			c-0.6-0.5-1.2-1-1.8-1.5c-1.3-1.1-1.7-2.6-1.9-4.2c-0.1-0.9,0.2-2,0.6-2.9c0.4-1.2,1.1-2.3,1.4-3.5c0.5-1.6,1.8-2.4,3.3-2.9
			c0.5-0.2,1.1-0.2,1.7-0.3C319.7,418,320.7,418,321.8,418z"/>
		<path id="XMLID_106_" class="st0" d="M415.5,394.4c0.1-0.2,0.2-0.5,0.2-0.7c0-0.5,0.3-1.2-0.3-1.6c-0.6-0.4-1.3-0.6-2-0.1
			c-0.5,0.4-1,0.8-1.4,1.3c-0.2,0.2-0.4,0.5-0.7,0.7c0.6-2.2,1.2-4.4,1.9-6.5c0.3-0.9,0.5-1,1.4-1c0.9,0,1.9-0.1,2.8,0
			c1.7,0.3,3.5,0.2,5.2,0.3c0.7,0,1.4,0.2,2.1,0.2c0.7,0.1,1,0.4,0.8,1.1c-0.2,0.7-0.5,1.4-0.8,2.1c-1,2.5-2.1,5-3.1,7.5
			c-1.1,2.6-2.2,5.3-3.3,7.9c-0.5,1.1-1,2.2-1.5,3.3c-1.3,2.9-2.7,5.7-4,8.6c-0.4-0.2-0.7-0.4-1-0.6c-1-0.4-1.4-1.2-1.3-2.2
			c0-0.8,0-1.6,0.2-2.5c0.2-0.7,0.1-1.6,0.1-2.4c0-0.9,0.1-1.9,0-2.8c-0.1-1.2,0.4-1.8,1.7-1.6c0.8,0.1,1.6,0,2.2-0.5
			c0.6-0.4,1.1-1,1.6-1.5c0.3-0.3,0.5-0.7,0.1-1.2c-0.1-0.2-0.1-0.5-0.1-0.8c0.5-0.3,1-0.1,1.4-0.2c0.4-0.1,0.9-0.1,1.3-0.2
			c0.3-0.1,0.7-0.2,0.9-0.4c0.2-0.3,0.4-0.8,0.4-1.2c0-0.7-0.8-1.3-1.7-1.4c-0.7,0-1.4,0-2.1,0c0.1-0.7,0.7-0.8,1.2-1.1
			c0.8-0.5,0.9-1.1,0.8-1.9c0-0.5-0.5-1-1-1C416.7,394.1,416.1,394.3,415.5,394.4L415.5,394.4z"/>
		<path id="XMLID_105_" class="st0" d="M374.2,371.2c0.2,0.1,0.4,0.2,0.6,0.2c1.9,0.1,3.8,0.1,5.6,0.3c1.2,0.1,2.3,0.3,3.5,0.5
			c0.1,0,0.3,0,0.4,0c1.2,0.1,2.4,0.1,3.6,0.3c1.6,0.2,3.3,0.4,4.9,0.6c1.5,0.2,2.9,0.3,4.4,0.5c1.6,0.2,3.3,0.4,4.9,0.5
			c1.6,0.2,3.2,0.3,4.8,0.6c1.1,0.2,2.2,0.1,3.3,0.4c0.8,0.3,1.8,0,2.7,0.3c0.6,0.2,0.8,0.4,0.7,1c-0.1,0.3-0.2,0.7-0.3,1
			c-0.3,0.8-1.2,1.2-2.1,1.1c-0.5-0.1-0.9-0.2-1.4-0.2c-4.3-0.1-8.7-0.1-13-0.3c-1.7-0.1-3.5,0-5.2-0.3c-1.5-0.2-3.1,0-4.6-0.3
			c-1.7-0.3-3.3-0.2-5-0.2c-0.8,0-1.6-0.1-2.3-0.3c-0.3,0-0.6-0.2-0.8-0.3c-1.7-1.4-3.3-2.9-4.5-4.8
			C374.2,371.6,374.2,371.4,374.2,371.2z"/>
		<path id="XMLID_104_" class="st0" d="M389,427.2c-0.3,0.1-0.5,0.3-0.8,0.3c-2.7,0.1-5.3,0.2-8,0.3c-1.8,0.1-3.7,0.1-5.5,0.3
			c-1.1,0.2-2.2,0-3.2,0.3c-1.5,0.4-3.1-0.1-4.5,0.5c0,0-0.1,0-0.1,0c-1.7,0.1-3.4,0.2-5.1,0.3c-1.8,0.1-3.7,0.2-5.5,0.3
			c-1.4,0.1-2.8,0-4.2,0.2c-1.6,0.2-3.3,0-4.8,0.3c-2.2,0.4-4.4,0.3-6.6,0.2c-1.9-0.1-3.9,0-5.8-0.2c-1-0.1-1.9-0.2-2.9-0.2
			c-0.2,0-0.5-0.2-0.5-0.3c-0.1-0.6-0.2-1.2-0.1-1.8c0.1-0.6,0.8-0.6,1.3-0.8c1.3-0.4,2.7-0.1,4-0.4c1.3-0.3,2.7-0.2,4-0.3
			c3.6-0.4,7.2-0.3,10.8-0.2c2.2,0.1,4.5,0,6.7,0.3c1.7,0.2,3.4,0,5.1,0.2c1.7,0.2,3.5,0,5.2,0.3c1.4,0.2,2.9,0.1,4.3,0.2
			c4.5,0.5,9,0.1,13.4,0.2c0.3,0,0.7,0,1-0.1C388.1,426.7,388.1,426.7,389,427.2z"/>
		<path id="XMLID_101_" class="st0" d="M440.2,317.2c5.1,0.4,18.4,9,19.9,12.3c-1.7,0.1-3.4-0.1-5.1-0.4c-0.8-0.2-1.7-0.2-2.6-0.3
			c-1.3-0.2-2.6-0.4-3.8-0.6c-1.3-0.2-2.5-0.5-3.8-0.7c-0.3-0.1-0.7-0.1-1-0.2c-0.9-0.3-1.1-0.5-1-1.4c0.1-1.6-0.3-3.2-0.8-4.7
			c-0.3-1-0.6-2-1.3-2.8C440.5,318,440.4,317.6,440.2,317.2z M443.8,320.3c-0.3,0.1-0.6,0.3-0.6,0.7c0,0.4,0.3,1,0.7,1.1
			c0.4,0.1,0.6-0.1,0.7-0.4c0.1-0.2,0.3-0.6,0.2-0.8C444.6,320.6,444.3,320.2,443.8,320.3z"/>
		<path id="XMLID_100_" class="st0" d="M427.3,313.2c1.2,0,2.2,0,3.2,0c1.1,0,1.9,0.7,2.2,1.8c0.2,0.6,0.1,1.2-0.2,1.7
			c-0.5,0.7-1,1.3-1.8,1.9c-2.2,1.5-4.7,2.3-7.4,2c-1.2-0.1-2.1-0.8-2.7-1.8c-0.8-1.4-1.3-2.9-1-4.6c1.7-0.2,3.3-0.4,5.1-0.6
			c0.1,0.6,0.1,1.1-0.1,1.7c-0.2,0.8-0.2,1.6,0.2,2.4c0.4,0.7,0.8,0.8,1.6,0.6c0.8-0.2,1.5-0.6,2.1-1.3c0.9-1.1,0.8-1.7-0.1-2.6
			C428.1,313.9,427.8,313.6,427.3,313.2z"/>
		<path id="XMLID_99_" class="st0" d="M291.3,386.7c1.1,0.6,2.2,1.2,3.2,1.9c2.4,1.4,4.7,2.9,7.1,4.3c2,1.2,3.9,2.4,5.9,3.6
			c0.6,0.4,1.1,0.8,1.7,1.1c0.7,0.3,0.9,0.9,0.9,1.5c0,1.5,0,3,0,4.6c-0.4-0.2-0.7-0.3-0.9-0.6c-0.8-0.7-1.6-1.4-2.4-2.2
			c-1.2-1.1-2.4-2.3-3.7-3.4c-1.8-1.6-3.6-3.1-5.4-4.7c-0.8-0.7-1.6-1.4-2.4-2.2c-1.4-1.2-2.7-2.5-4-3.7
			C291.2,386.8,291.3,386.7,291.3,386.7z"/>
		<path id="XMLID_98_" class="st0" d="M433.8,338.9c3-1.2,4.8-3.4,6.6-5.6c0.7,0.4,1.3,0.8,2,1.1c1.2,0.6,2.5,0.9,3.9,0.9
			c1.7,0,3.3,0.2,5,0.3c-1,0.8-2.1,1.3-3.2,1.7c-2.1,0.8-4.2,1.3-6.4,1.7c-1.2,0.2-2.4,0.1-3.6,0.4
			C436.8,339.8,435.5,339.3,433.8,338.9z"/>
		<path id="XMLID_95_" class="st0" d="M323.4,305.5c4.4,0.6,8.3,2.1,11.3,5.4c-2.1,0.5-4.2,1-6.2,1.5c-0.6,0.1-1.2,0.3-1.8,0.4
			c-0.9,0.1-1.4-0.4-2-1c-0.7-0.7-0.8-1.7-1-2.6c-0.2-1-0.2-2-0.3-3C323.4,306,323.4,305.8,323.4,305.5z M324.7,308.2
			c0.8,1.5,1,1.6,2,0.3c0-0.1,0-0.2,0-0.3c-0.4-0.2-0.8-0.4-1.2-0.6C325.3,307.8,325,308,324.7,308.2z"/>
		<path id="XMLID_94_" class="st0" d="M389.4,380.9c1.2,0,2.4,0,3.6,0c4.5,0.1,9,0.1,13.5,0.3c1.4,0.1,2.8,0.2,4.2,0.2
			c0.4,0,0.7,0.1,0.8,0.6c0.1,0.4-0.2,0.6-0.5,0.7c-0.4,0.1-0.8,0.3-1.1,0.2c-0.6-0.3-1.2-0.1-1.8-0.2c-1.6-0.3-3.2-0.1-4.8-0.5
			c-0.1,0-0.2,0-0.3,0c-1.6-0.1-3.1-0.2-4.7-0.3c-0.7-0.1-1.5-0.2-2.2-0.3c-0.7-0.1-1.5,0.1-2.2-0.3c-0.1,0-0.2,0-0.3,0
			c-1.4-0.1-2.9-0.2-4.3-0.3C389.4,381,389.4,381,389.4,380.9z"/>
		<path id="XMLID_93_" class="st0" d="M324.2,315.6c2.1,1,4,0.3,5.9-0.2c0.5-0.1,1.1-0.3,1.6-0.3c-2.1,2.1-4.5,3.8-7.4,4.8
			C324.1,318.5,324.2,317.1,324.2,315.6z"/>
		<path id="XMLID_92_" class="st0" d="M373.9,376.6c-1.1-0.1-2.1,0.1-3-0.2c-0.7-0.2-1.5,0-2.2,0c0.9-1,1.8-1.9,2.8-2.8
			C372.3,374.5,373,375.5,373.9,376.6z"/>
		<path id="XMLID_91_" class="st0" d="M437,312.4c0.6-0.1,1.3-0.3,1.9-0.3c1.4,0,1.6,0.2,2.2,1.7c-1.4-0.3-2.8-0.4-4.1-1.1
			C437,312.6,437,312.5,437,312.4z"/>
		<path id="XMLID_90_" class="st0" d="M322.5,438.3c0,0.9,0,1.7,0,2.5c-0.4,0.1-0.9,0.3-1.3,0.4C320.8,439.5,321,439,322.5,438.3z"
			/>
		<path id="XMLID_89_" class="st0" d="M443.4,331.3c-0.2-0.1-0.5-0.2-0.6-0.3c-0.1-0.1-0.1-0.3-0.1-0.4c0.1-0.1,0.4-0.2,0.4-0.2
			c0.2,0.2,0.3,0.4,0.5,0.7C443.5,331.1,443.5,331.2,443.4,331.3z"/>
		<path id="XMLID_88_" class="st0" d="M402.7,440.4c0.2-0.4,0.4-0.8,1-0.6C403.5,440.3,403,440.2,402.7,440.4z"/>
		<path id="XMLID_87_" class="st0" d="M401.9,445.2c-0.1,0-0.2-0.1-0.3-0.2c0,0,0-0.1,0-0.2c0.1,0,0.2,0.1,0.3,0.1
			c0.1,0,0.1,0.1,0.2,0.2C402.1,445.1,402,445.2,401.9,445.2z"/>
		<path id="XMLID_86_" class="st0" d="M417.9,414.3c0.1-0.2,0.2-0.4,0.3-0.5l0,0C418,413.9,417.9,414.1,417.9,414.3L417.9,414.3z"/>
		<path id="XMLID_85_" class="st0" d="M417.6,414.8c0.1-0.2,0.2-0.4,0.3-0.5l0,0C417.8,414.4,417.7,414.6,417.6,414.8
			C417.6,414.8,417.6,414.8,417.6,414.8z"/>
		<path id="XMLID_84_" class="st0" d="M325.5,405.5c0-0.1,0.1-0.1,0.1-0.2C325.5,405.4,325.5,405.4,325.5,405.5
			C325.5,405.5,325.5,405.5,325.5,405.5z"/>
		<path id="XMLID_83_" class="st0" d="M415.5,394.4c0,0.1-0.1,0.1-0.1,0.2C415.4,394.5,415.5,394.5,415.5,394.4L415.5,394.4z"/>
		<polygon id="XMLID_82_" class="st0" points="306.8,363.6 306.8,363.5 306.9,363.5 		"/>
		<path id="XMLID_81_" class="st0" d="M353,347.5c0,0.1-0.1,0.1-0.1,0.2C352.9,347.7,353,347.6,353,347.5L353,347.5z"/>
		<path id="XMLID_80_" class="st0" d="M417.6,414.8c0,0.1-0.1,0.1-0.1,0.2C417.5,414.9,417.6,414.8,417.6,414.8L417.6,414.8z"/>
		<path id="XMLID_77_" class="st0" d="M205.1,420.7c-0.4,0.9,0.5,1.1,1,1.6c-2.1,0.4-4,0.8-6,1.2c-1.5,0.3-3.1,0.5-4.6,0.8
			c0,0-0.1,0-0.1,0c-2.7,0-5.3,0.4-8,0.3c-0.3,0-0.7-0.1-1-0.2c-1.3-0.5-2.6-0.3-3.8,0.3c-3.5,1.7-7,3.4-10.5,5.1
			c-1.1,0.5-2.2,1-3.5,0.9c-0.7,0-1.4-0.3-2.1-0.4c-1.1-0.3-2.2-0.6-3.4-0.9c-1.7-0.4-3.4-0.9-5.1-0.3c-2.8,0.1-5.3,1.3-7.8,2.2
			c-2,0.7-4,1.4-6,2c-1.7,0.6-3.4,1-5,1.9c-2.3,1.4-4.5,2.9-6.1,5.2c-0.1,0.1-0.1,0.1-0.2,0.2c-1.1,1.2-2.2,2.5-3.4,3.6
			c-2.9,2.6-5.9,5-9.4,6.8c-3.1,1.5-6.4,2.6-9.7,3.5c-1.6,0.4-3.1,0.9-4.7,1.4c-0.4,0.1-0.7,0.2-0.9-0.1c-0.3-0.5-0.8-0.5-1.4-0.6
			c0.3-0.5,0.7-0.9,1-1.4c-0.5-0.2-0.8-0.3-1.3-0.5c2.7-1.8,5.6-3.2,8.5-4.4c3.1-1.2,6.1-2.3,9.1-3.6c2.2-1,4.3-2.3,6.1-3.9
			c0.5-0.5,1.1-0.9,1.6-1.3c1.5-1.2,1.1-2.8,0-3.9c-1.1-1.1-2-2.3-2.6-3.7c-0.5-1.2-0.9-2.4-0.9-3.8c0-0.3,0-0.6,0-0.9
			c-0.1-1.9,0.4-3.6,1.1-5.3c0.1-0.3,0.2-0.7,0.2-1c0.1-0.4-0.1-0.7-0.5-0.8c-0.5-0.1-1-0.3-1.5-0.3c-1,0-2,0-3,0
			c-2.5-0.2-4.8-1-6.4-2.9c-1.5-1.7-2.4-3.8-3-6c-0.2-0.9-0.6-1.9-0.5-2.8c0.2-1.9,0.2-4,1.4-5.6c1.1-1.5,2.7-2.3,4.6-2.5
			c2-0.2,3.7,0.7,5.2,1.8c1.1,0.9,1.6,2.2,2,3.6c0,0.1-0.1,0.3-0.2,0.5c-0.3,0.7-0.8,1.1-1.5,1.6c0-0.6-0.1-1-0.1-1.5
			c0-2.1-1.1-3.1-3.3-3.2c-1.4,0-2.6,0.2-3.8,0.8c-1.8,1-2.6,2.5-2.8,4.5c-0.2,2,0.7,3.7,1.9,5.1c1.4,1.8,3.2,3,5.5,3.7
			c1,0.3,2,0.8,3.1,0.2c0.1-0.1,0.3,0,0.4,0c2.5-0.1,5-0.5,7.4-1c2.6-0.5,5.1-1.3,7.6-2c1.3-0.4,2.7-0.8,3.9-1.2
			c1.6-0.6,3.2-1.1,4.7-1.8c2.1-1,4.2-1.8,6.5-2.2c1.7-0.4,3.4-0.6,5.1-1c2.2-0.4,4.3-0.9,6.5-1.2c1-0.2,1.8-0.2,2.6,0.7
			c1,0.9,2.2,1.6,3.7,1.4c0.9-0.1,1.9,0,2.8,0c1.4,0,2.6-0.4,3.3-1.7c0.4-0.8,0.9-1.5,1.3-2.2c0.4-0.6,0.3-1.2,0.2-1.8
			c-0.1-0.7-0.7-1-1.3-0.8c-0.6,0.2-1.1,0.4-1.4,1c-0.2,0.6-0.7,1-0.9,1.6c-0.2,0.6-0.7,0.9-1.2,0.9c-1.1,0-2.2,0.2-3.4-0.2
			c-1-0.3-1.7-0.9-2.1-1.8c-0.4-0.9-0.7-1.9-0.8-3c-0.1-1.1,0.4-1.8,1.3-2.4c1.1-0.6,2.3-0.7,3.5-1c0.9-0.2,1.9-0.4,2.8-0.5
			c0.4-0.1,0.8-0.1,1.2,0c1.7,0.2,3.3-0.3,4.9-0.6c1.9-0.4,3.8-0.6,5.7-0.4c2.2,0.2,4.3,0.9,6.5,1.2c1.5,0.2,2.9,0.5,4.3,1
			c-1,1.7-0.7,3.1,0.7,4.4c-1.4,0.7-2.7,0.9-4.2,0.8c-0.8-0.1-1.9-0.1-2.7,0.7c0.7,0.5,1.2,0.9,1.8,1.2c-0.2,0-0.4,0.1-0.7,0
			c-1.1-0.3-2.1-0.2-3.2-0.1c-1.3,0.2-2.4,0.5-3.6,0.9c-0.8,0.2-1.4,1.1-1.3,1.9c0.1,1,0.7,1.6,1.7,1.6c0.7,0,1.5-0.2,2.2,0.3
			c0.6,0.5,0.5,1.3,0.7,1.9c0.3,0.8,0.5,1.6,0.7,2.5c0.1,0.5,0.1,1,0,1.4c-0.4,1.1-0.8,2.2-1.2,3.3c-0.1,0.4-0.2,0.7-0.3,1.1
			c-0.1,0.6,0.2,1,0.7,1.3c1.9,1,3.9,1.5,6,0.9c1.5-0.4,3.1-0.8,4.6-1.2c0.2-0.1,0.4-0.2,0.6-0.2C202.3,421.5,203.7,421,205.1,420.7
			z M187.8,399.5c0.2-1.5-0.7-2.4-2.2-2.3c-0.1,0-0.3,0-0.4,0c-0.9,0.1-1.4,0.5-1.5,1.5c0,0.7,0.2,1.2,0.6,1.7
			c0.5,0.6,1.2,0.8,1.9,1.1c0.1,0.1,0.4,0,0.5-0.1C187.3,400.9,188.1,400.5,187.8,399.5z"/>
		<path id="XMLID_76_" class="st0" d="M137.2,440.4c-0.6,1.3-1.2,2.6-1.9,3.8c-1.8,3.3-4.4,5.9-7.1,8.4c-1.5,1.4-3.2,2.6-4.9,3.9
			c-0.3-0.2-0.4-0.4-0.6-0.6c-0.6-0.4-1-0.3-1.4,0.3c-0.4,0.5-0.6,1.2-1.6,1.4c0.8-0.9,1.7-1.6,1.9-2.8c-0.5,0-0.9-0.1-1.4-0.1
			c0-0.5,0.4-0.6,0.7-0.7c2-1,3.9-2.2,5.7-3.5c0.6-0.5,1.3-0.9,1.9-1.4c2.1-2,4.2-3.9,6.3-6C135.6,442.2,136.3,441.2,137.2,440.4
			L137.2,440.4z"/>
		<path id="XMLID_75_" class="st0" d="M189.9,393.7c0.5-0.7,0.9-1.2,1.4-1.8c0.9-1,1.7-2.1,2.6-3.1c0.5-0.6,1.2-0.7,1.8-0.9
			c0.3-0.1,0.7,0.2,1.1,0.3c0.9,0.4,1.7,0.8,2.4,1.6c0.6,0.7,0.6,1.5,0.5,2.2c-0.1,0.4-0.6,0.7-0.9,1c-0.2,0.2-0.6,0.4-0.8,0.7
			c-0.7,0.9-1.4,1.4-2.6,1c-1.2-0.3-2.5-0.4-3.7-0.6C191,394,190.5,393.8,189.9,393.7z"/>
		<path id="XMLID_74_" class="st0" d="M207.9,414.7c-1,0.5-1.9,1-2.9,1.5c-0.5,0.2-0.9,0.5-1.1,1.1c-0.2,0.7-0.8,0.8-1.3,0.9
			c-1.1,0.2-2.2,0.4-3.3,0.6c-1.8,0.3-3.5,0.7-5.3,1c-0.5,0.1-1,0-1.6,0c0.5-0.8,1.4-1,2.1-1.4c2.1-0.9,4.2-1.7,6.2-2.5
			c1.6-0.6,3.3-1.2,4.9-1.9c0.5-0.2,0.9-0.3,1.2,0.3C207,414.8,207.5,414.4,207.9,414.7z"/>
		<path id="XMLID_73_" class="st0" d="M198.9,405.3c0.2,0,0.5,0,0.7,0c0,0,0,0.1,0,0.1c-0.3,0-0.5,0-0.8,0.1
			C198.8,405.4,198.8,405.4,198.9,405.3z"/>
		<path id="XMLID_72_" class="st0" d="M194.5,405.9c0.2,0,0.4,0,0.6,0c0,0,0,0.1,0,0.1C194.9,406,194.7,406,194.5,405.9
			C194.5,405.9,194.5,405.9,194.5,405.9z"/>
		<path id="XMLID_71_" class="st0" d="M137.3,440.5c0-0.1,0.1-0.1,0.1-0.2C137.3,440.3,137.3,440.4,137.3,440.5L137.3,440.5z"/>
		<polygon id="XMLID_70_" class="st0" points="208.3,414.4 208.3,414.4 208.4,414.4 		"/>
		<path id="XMLID_69_" class="st0" d="M356.5,301.1c-1-1.1-1.9-2.1-2.7-3c-1-1.2-2-2.4-2.9-3.6c-0.8-1-1.6-2-2.4-2.9
			c-0.2-0.3-0.4-0.6-0.6-0.8c-0.7-0.8-1-1.7-1.3-2.7c-0.1-0.5-0.2-0.9-0.3-1.4c-0.4-1.9,0.9-3.5,2.9-3.6c0.4,0,0.7,0,1.1,0
			c1.7,0,1.8,0.7,2,1.9c0.1,0.3,0,0.7,0,1.1c0.1,0.6,0.1,1.2,0.3,1.8c0.3,1,1.2,1.4,2.1,0.9c0.6-0.3,1.1-0.8,1.5-1.4
			c0.5-0.6,0.8-1.4,1.4-2c1-1,2.3-1.8,3.9-1.5c0.8,0.2,1.4,0.8,1.6,1.6c0.1,0.7,0.1,1.5-0.3,2.2c-1.5,3-3,6-4.4,9
			C357.9,298,357.3,299.5,356.5,301.1z"/>
		<path id="XMLID_68_" d="M308.1,302c0.5,0.5,0.7,0.9,1,1.2c0.5,0.6,1.1,0.9,2,0.9c1.5,0,3.2,2.3,2.2,3.7c-0.1,0.1-0.2,0.3-0.3,0.4
			c-1.2,0.6-2.3,1.3-3.6,0.6c-0.8-0.4-1.8-0.4-2.6-0.7c-1-0.4-1-0.3-0.9-1.3c0.1-0.6-0.1-1.2-0.2-1.7c-0.2-0.8-0.2-0.8,0.6-0.8
			c0,0,0.1,0,0.1,0c0.6,0,0.9-0.1,1-0.8C307.5,303.2,307.8,302.7,308.1,302z"/>
		<path id="XMLID_67_" d="M443.8,320.3c0.5,0,0.8,0.3,0.9,0.6c0.1,0.2-0.1,0.6-0.2,0.8c-0.1,0.3-0.3,0.6-0.7,0.4
			c-0.4-0.2-0.7-0.7-0.7-1.1C443.3,320.5,443.5,320.3,443.8,320.3z"/>
		<path id="XMLID_66_" d="M324.7,308.2c0.3-0.2,0.6-0.4,0.9-0.6c0.4,0.2,0.8,0.4,1.2,0.6c0,0.1,0,0.3,0,0.3
			C325.7,309.8,325.5,309.8,324.7,308.2z"/>
		<path id="XMLID_8_" d="M187.8,399.5c0.3,0.9-0.5,1.3-1.1,1.9c-0.1,0.1-0.3,0.1-0.5,0.1c-0.7-0.3-1.4-0.4-1.9-1.1
			c-0.4-0.5-0.6-1-0.6-1.7c0.1-0.9,0.5-1.4,1.5-1.5c0.1,0,0.3,0,0.4,0C187.1,397.1,188,398,187.8,399.5z"/>
	</g>
</g>
</svg>
