<?xml version="1.0" encoding="utf-8"?>
<!-- Generator: Adobe Illustrator 19.0.0, SVG Export Plug-In . SVG Version: 6.00 Build 0)  -->
<svg version="1.1" xmlns="http://www.w3.org/2000/svg" xmlns:xlink="http://www.w3.org/1999/xlink" x="0px" y="0px"
	 viewBox="0 0 434.7 214.7" style="enable-background:new 0 0 434.7 214.7;" xml:space="preserve">
<style type="text/css">
	.st0{fill:#FFFFFF;}
	.st1{display:none;}
</style>
<g id="Layer_1">
	<g id="XMLID_113_">
		<path id="XMLID_151_" class="st0" d="M416.1,173.1c-0.1,0.1-0.2,0.3-0.2,0.4c-0.2,3.9-1.4,7.4-3.4,10.6c-0.9,1.5-1.9,2.8-3.1,4
			c-2,2.1-4.5,3.3-7.3,4c-1.3,0.3-2.6,0.4-3.8,0.6c-1.9,0.3-3.9,0.2-5.8,0.2c-1.5-0.1-2.9-0.1-4.4-0.5c-0.7-0.2-1.5-0.2-2.2-0.3
			c-2.4-0.3-4.8-0.8-7.2-1.4c-1.7-0.4-3.4-0.8-5.1-1.3c-2.1-0.5-4.1-1.2-6.1-2.1c-1.3-0.6-2.6-1.2-3.9-1.8c-2.2-1.2-4.3-2.6-6.3-4.2
			c-1.8-1.4-3.4-3.1-4.9-4.8c-1.7-1.9-3.1-4-4.1-6.5c-0.6-1.5-1-2.9-1.4-4.4c-0.5-2-0.5-4.6-0.2-6.7c0.3-2.3,0.8-4.6,1.4-6.8
			c0.4-1.7,1.2-3.2,2.3-4.6c1.3-1.6,3-2.7,4.5-3.9c1.3-1,2.7-1.8,4.2-2.6c2.4-1.3,5-2,7.7-1.9c0.1,0,0.3,0,0.4,0
			c0,0,0.1-0.1,0.2-0.1c0-0.2,0-0.4-0.1-0.5c-0.9-2.3-1.8-4.6-2.6-6.9c-0.8-2.2-1.7-4.4-2.5-6.7c-0.2-0.4-0.3-0.8-0.5-1.2
			c-0.4-0.8-1.1-0.9-1.8-0.3c-0.8,0.7-1.3,1.7-1.6,2.7c-0.6,1.7-1,3.4-1.6,5.1c-1,3-2.3,5.8-3.9,8.5c-2,3.3-3.9,6.7-5.9,10.1
			c-1.4,2.4-3,4.8-4.4,7.2c-0.3,0.4-0.5,0.9-0.7,1.4c-0.1,0.4-0.2,0.9,0,1.3c0.7,1.5,0.8,3.2,1.2,4.8c0,0.1,0,0.3,0,0.4
			c-0.1,0.8-0.1,1.7-0.3,2.4c-0.3,0.8-0.6,1.7-1.2,2.3c-0.8,1-1.8,1.8-2.8,2.6c-1,0.8-2.1,1.4-3.1,2.1c-1.3,0.9-2.8,1.4-4.3,1.7
			c-0.2,0-0.4,0.1-0.6,0.2c0.2,0.6,0.6,1.1,0.6,1.7c0,0.5-0.5,0.9-0.9,1.5c0.3,0.2,0.7,0.5,1.1,0.9c0.6,0.6,0.6,1.5-0.2,2
			c-0.5,0.3-1,0.5-1.6,0.6c-0.4,0.1-0.5,0.2-0.5,0.6c0,0.4-0.2,0.8-0.2,1.1c-0.3,1.3-1.4,2-2.6,1.6c-0.2,0-0.3-0.1-0.5-0.2
			c-1.6-0.1-3.1-0.2-4.7-0.3c-0.5,0-0.9-0.2-1.4-0.2c-1.5-0.2-1.7-1.4-1.9-2.4c-0.3-1.1,0.3-1.8,1.5-1.9c0.5,0,1.1,0,1.6,0
			c0.8,0.1,1.3-0.4,1.6-1.1c0.5-1.2,0.9-2.3,1.3-3.5c0.2-0.7,0.1-1.1-0.6-1.5c-2.2-1.1-4-2.7-5.6-4.5c-0.5-0.6-0.9-1.3-1.4-1.9
			c-0.3-0.4-0.5-0.7-0.8-1c-0.3-0.3-0.6-0.4-1-0.4c-3.2,0-6.4-0.1-9.5,0.1c-1.5,0.1-3.1,0.1-4.6,0.3c-1,0.1-2.1,0-3.1,0.3
			c-1.4,0.4-2.9-0.1-4.3,0.5l-0.1,0c-1.3,0.1-2.7,0.2-4,0.3c-1,0.1-2,0.2-3,0.3c-1,0-2-0.1-2.9,0.1c-1.1,0.2-2.3,0.2-3.4,0.2
			c-0.6,0-1.3,0.2-1.9,0.3c-0.6,0.1-1.2-0.1-1.8,0.2c-0.3,0.1-0.7,0-1,0c-4.2,0-8.4,0.1-12.6,0c-1.9-0.1-3.8-0.2-5.8-0.2
			c-1.5,0-1.5,0-2.5,1.1c-0.7,0.8-1.4,1.7-2.1,2.5c0.3,0,0.7,0,1,0.1c0.7,0.2,1,0.5,1,1.3c0,0.8,0.2,1.4,0.9,1.9
			c0.3,0.2,0.5,0.5,0.6,0.8c0.1,0.5,0,1,0,1.5c-0.6,0.2-1.1,0.7-1.8,0.4c-0.8-0.3-1.7-0.5-2.5-0.7c-0.5-0.1-1-0.2-1.5-0.2
			c-0.1,0.6-0.3,1-0.4,1.5c0,1.2-0.8,1.8-1.5,2.5c-0.7,0.6-1.6,0.8-2.6,0.8c-1.6,0.1-3.2,0-4.8,0c-1.7,0-2.9-1.8-2.3-3.5
			c0.3-0.7,0.8-0.9,1.4-1c0.6-0.2,1.3-0.3,1.9-0.3c0.6,0,0.9-0.4,1.1-0.9c0.1-0.2,0.1-0.5,0.2-0.7c0.3-1.1,0.1-1.5-1-2.1
			c-1.2-0.6-2.4-1.2-3.5-1.9c-1.5-1-2.7-2.3-3.6-3.9c-0.2-0.4-0.4-0.8-0.7-1.1c-0.3-0.4-0.6-0.5-1.1-0.6c-1.2-0.3-2.3-0.2-3.5-0.2
			c-2.3,0-4.5-0.5-6.8-0.3c-1.7-0.5-3.5-0.2-5.2-0.3c-1.3,0-1.6,0.2-2,1.4c-0.3,0.9-0.6,1.9-0.8,2.9c-0.7,3.1-1.8,6.1-3.4,8.9
			c-0.7,1.2-1.6,2.3-2.3,3.4c-1.2,1.7-2.7,3-4.2,4.4c-1.7,1.6-3.6,3.1-5.7,4.3c-2.2,1.3-4.5,2.3-6.9,3c-1.2,0.3-2.4,0.5-3.7,0.8
			c-1.9,0.4-3.8,0.2-5.8,0.2c-2.2,0.1-4.4-0.4-6.5-0.9c-3.3-0.8-6.4-2.2-9.4-3.8c-2.9-1.5-5.4-3.5-7.5-6c-1.6-1.9-2.9-4.1-3.8-6.5
			c-0.5-1.2-0.8-2.5-1.2-3.8c-0.2-0.8-0.2-1.7-0.4-2.6c-0.4-2.1-0.2-4.2-0.3-6.3c0-0.7-0.3-1.5-0.2-2.2c0.2-0.7,0.2-1.5,0.2-2.2
			c0-0.6,0-1.1,0-1.7c0-1.4,0.2-2.7,0.5-4c0.2-0.7,0.2-1.5,0.3-2.2c0.4-3,1.5-5.8,3-8.5c1.2-2.2,3.1-3.8,4.8-5.5
			c0.9-0.9,2-1.5,3.1-2.1c3.8-2.1,7.9-3.3,12-4.6c1.3-0.4,2.6-0.5,3.9-0.5c0.9,0,1.6-0.2,2-1c0.3-0.7,0.9-0.9,1.6-0.9
			c1.4,0,2.8,0.2,4.3,0.5c0.8,0.2,1.7,0.2,2.6,0.3c0.5,0.1,0.9,0.2,1.4,0.2c0.9,0.2,1.3-0.1,1.6-0.9c0.8-2.2,1.6-4.4,2.4-6.6
			c0.5-1.5,1.1-3,1.6-4.5c0.3-0.8,0.2-1.2-0.6-1.5c-0.9-0.4-1.8-0.6-2.7-0.9c-0.7-0.3-1.3-0.6-1.9-1.1c-0.9-0.7-1-1.8-0.3-2.7
			c0.3-0.4,0.7-0.7,1.2-1.1c-1.1-0.2-2.2-0.4-3.2-0.7c-2.2-0.5-4.4-1.2-6.5-2.1c-1.6-0.7-3.2-1.5-4.8-2.3c-2.2-1.2-4.4-2.5-6.6-3.7
			c-2.2-1.1-4.3-2.2-6.5-3.3c-1.9-0.9-3.9-1.7-5.8-2.7c-0.9-0.4-1.7-0.9-2.4-1.5c-1.1-1-1.8-2.3-1.4-3.9c0.2-0.8,0.3-1.6,0.5-2.4
			c-1.3,0-2.6-0.4-3.9-0.8c-2.4-0.8-2.7-2.5-2.2-4.3c0.2-0.6,0.5-1.2,0.8-2c-0.7-0.3-1.4-0.6-2.2-0.9c-1.4-0.7-2.1-1.8-2-3.3
			c0.1-1.6,0.2-3.2,1.3-4.5c0.4-0.5,0.9-1,1.4-1.5c-0.5-0.3-1.1-0.5-1.7-0.6c-1-0.2-1.9-0.6-2.7-1.2c-1.9-1.4-1.1-4.7,0.8-5.5
			c0.6-0.2,1.2-0.5,1.8-0.6c0.8-0.2,1.6-0.2,2.4-0.3c0.7-0.1,1.5-0.2,2.2-0.3c0.7-0.1,1.5,0.1,2.2-0.3l0.1,0
			c1.6-0.1,3.1-0.1,4.7-0.3c1.7-0.1,3.5-0.2,5.2-0.5c0.9-0.2,1.8-0.1,2.7-0.3c1.5-0.3,3.1-0.4,4.6-0.8c0.8-0.2,1.5-0.3,2.3-0.3
			c2.4,0,4.5-0.9,6.6-2.1c1.6-1,3.3-1.8,5-2.7c2.6-1.4,5.5-2.4,8.4-3.1c1.6-0.4,2.5-1.1,3.4-2.3c0.4-0.5,0.9-1,1.4-1.5
			c0.6-0.6,1.3-1.1,1.9-1.6c1.8-1.5,3.5-3,5.3-4.5c1.7-1.4,3.3-2.9,5-4.2c1.4-1,2.5-2.4,3.7-3.5c2-1.7,3.9-3.4,6.3-4.5
			c1.6-0.7,3.2-1.2,4.9-1.5c1.6-0.3,3.3-0.6,4.9-0.5c1.2,0.1,2.5,0.1,3.7,0.5c0.4,0.1,0.9,0,1.3,0.1c2.6,0.7,4.7,2.1,6.3,4.3
			c0.8,1.1,1.5,2.2,2.1,3.4c0.2,0.5,0.6,0.8,0.9,1.3c0.3,0.3,0.6,0.4,1,0.4c3,0.3,5.9,0.9,8.5,2.4c0.9,0.5,1.8,1,2.6,1.7
			c1.5,1.4,3.1,2.9,4.4,4.6c0.4,0.5,0.3,1.7-0.2,2.2c-1.3,1.2-2.7,2.4-4,3.6c-0.4,0.3-0.7,0.7-1.1,1c-1.9,1.6-3.7,3.3-6,4.3
			c-1.1,0.4-2.1,1-3.2,1.5c-0.5,0.2-0.8,0.6-1,1.1c-1,3-2.1,5.9-3.1,8.9c-1.4,4.2-2.8,8.3-4.3,12.5c-0.9,2.5-2,4.9-3,7.3
			c-1,2.1-2.1,4.2-2.9,6.4c-0.5,1.3-1.2,2.6-2.5,3.4c-0.1,0.1-0.1,0.2-0.3,0.4c2.1-0.8,4-1.5,5.9-2.2c0.9-0.3,1.8-0.7,2.7-1
			c1.2-0.4,2.2,0.1,2.5,1.4c0.3,1.2,0.6,2.3,0.8,3.5c0.6,3.1,1.2,6.2,1.9,9.2c0.2,0.8,0.4,1.6,0.6,2.4c0.1,0.4,0.3,0.7,0.8,0.6
			c1.2-0.1,2.5,0.2,3.6-0.3l0.1,0c1.8-0.1,3.6-0.1,5.4-0.3c2-0.2,4-0.1,5.9-0.3c2.6-0.3,5.2-0.1,7.8-0.2c0.3,0,0.7,0,1.1,0
			c-0.7-0.7-1.4-1.2-2-1.8c-1.1-1.2-1-3.1,1-3.7c0.7-0.2,1.3-0.4,2-0.5c1.7-0.3,3.3-0.5,5-0.8c0.4-0.1,0.9,0,1.3-0.1
			c-1.6-0.4-3.2-0.8-4.9-1.2c-1.9-0.4-3.6-1.1-5.4-1.8c-2.9-1.2-5.4-2.9-7.9-4.8c-1.3-1-2.5-2.2-3.7-3.4c-0.8-0.8-1.4-1.8-1.7-2.9
			c-0.3-0.9-0.3-2,0.1-3c0.4-1.2,0.4-1.2-0.4-2.3c-0.4-0.6-0.9-1.2-1.3-1.8c-0.7-1-0.5-2.6,0.5-3.3c0.5-0.4,0.9-0.9,1.3-1.2
			c-0.8-1-1.6-1.9-2.3-2.8c-0.4-0.5-0.6-1.1-0.6-1.7c0-0.9,0.3-1.6,1.2-2c0.5-0.2,0.9-0.4,1.4-0.7c-0.2-0.3-0.5-0.6-0.8-1
			c-0.7-0.9-1.4-1.8-2.1-2.7c-0.7-1-0.7-2.2-0.5-3.3c0.1-0.9,1.2-1.8,2.3-1.8c2-0.1,4-0.2,6,0c2,0.2,4.1,0.8,6.1,1.2
			c2.1,0.4,4.2,1,6.3,1.2c0.8,0.1,1.5,0.2,2.3,0.2c0.6,0,0.9-0.2,1.2-0.6c1-1.6,2-3.1,3-4.7c0.8-1.4,1.8-2.8,2.9-4
			c1-1.1,2-2.2,3-3.3c1.2-1.2,2.6-2.2,4.1-3c3.3-1.8,6.9-2.9,10.5-3.9c1.2-0.3,2.4-0.4,3.6-0.6c1.9-0.3,3.8-0.5,5.7-0.5
			c1.1,0,2.2-0.5,3.1-1.2c1.5-1.2,3-2.3,4.5-3.5c1.6-1.2,3.3-2.3,5.2-3.1c2.5-1.1,5-2.5,7.5-3.7c1.9-0.9,3.7-2,5.7-2.6
			c2.3-0.7,4.7-1.2,7.1-0.9c1.9,0.2,3.7,0.6,5.5,1.3c3.1,1.2,5.5,3.4,7.7,5.8c1.2,1.4,2,3,2.9,4.6c0.5,0.8,0.7,1.7,1.5,2.4
			c0.4,0.3,0.7,0.5,1.2,0.5c1.3-0.1,2.5,0.1,3.8-0.2c1.8-0.4,3.3,0.2,4.4,1.7c0.2,0.3,0.5,0.8,0.5,1.2c0,1,0.2,2-0.2,3
			c0.7,0.3,1.3,0.7,2,0.9c2,0.6,3.8,1.5,5.6,2.4c1.9,1,3.7,2.3,5.3,3.8c0.9,0.8,1.8,1.6,2.8,2.3c1.7,1.2,3,2.8,4.2,4.6
			c0.3,0.6,0.8,1,0.8,1.7c0,0.8-0.3,1.3-1,1.6c-0.2,0.1-0.5,0.2-0.7,0.3c-1,0.4-1.3,1.2-0.6,2c1.1,1.2,1.8,2.7,2,4.3
			c0.3,2.5-0.1,4.9-1.5,7c-1.2,1.9-2.8,3.4-4.6,4.7c-1.7,1.2-3.5,2.1-5.2,3.1c-1.8,1-3.5,2.1-5.3,3c-0.5,0.3-1.1,0.5-1.7,0.6
			c-1.4,0.4-2.2,1.2-2.6,2.6c-0.4,1.5-0.8,3.1-1.2,4.6c-0.5,1.7-0.9,3.4-1.4,5.1c-0.2,0.7-0.4,1.3-0.6,2c-0.2,0.6-0.1,1.1,0.4,1.4
			c1.7,1,2.2,2.8,2.9,4.5c1.2,3,2.3,6,3.5,9.1c1.4,3.5,2.7,7,3.8,10.6c0.3,1.1,0.6,2.2,0.9,3.2c0.2,0.8,0.6,1,1.5,1.2
			c1.6,0.3,3.1,0.2,4.7,0.2c2,0,3.9,0.3,5.8,0.5c2,0.2,4,0.7,5.9,1.4c2.1,0.7,4,1.7,5.9,2.8c3.6,2,6.5,4.8,9.3,7.8
			c1.4,1.5,2.6,3.2,3.5,5c0.7,1.5,1.5,2.9,2,4.5c0.8,2.2,1.4,4.5,1.4,6.8c0,0.1,0.1,0.3,0.2,0.4
			C416.1,169.2,416.1,171.1,416.1,173.1z M341.9,151.1c0.1-0.2,0.2-0.4,0.3-0.5c0.1-0.2,0.2-0.4,0.3-0.5c0.2-0.2,0.4-0.3,0.5-0.6
			c0.5-0.7,0.9-1.5,1.3-2.2c1.1-1.8,2.3-3.7,3.4-5.5c0.8-1.3,1.6-2.6,2.3-3.9c1-1.6,1.9-3.3,2.4-5.1c0.4-1.5,0.7-3.1,1.1-4.6
			c0.5-2,1.1-3.9,2.1-5.7c1-1.8,2.5-2.8,4.5-2.7c1.9,0.1,3.5,1,4.3,2.9c0.5,1.1,0.9,2.1,1.3,3.2c1,2.5,2,5.1,2.9,7.6
			c0.9,2.6,1.8,5.3,2.7,8c0.8,2.4,2,4.7,3.2,7c0.8,1.6,1.9,3,3,4.4c1,1.3,1.8,2.7,2.5,4.2c0.7,1.7,1.6,3.3,2.4,4.9
			c0.1,0.3,0.6,0.5,0.9,0.5c0.6,0,1.3-0.9,1.3-1.6c0-1.1-0.5-1.9-1.1-2.7c-0.9-1.1-1.8-2.2-2.6-3.4c-1.9-2.6-3.6-5.3-4.8-8.3
			c-0.6-1.3-1.1-2.7-1.5-4.1c-0.5-1.9-1-3.7-1.6-5.6c-1-3.2-1.9-6.4-3.4-9.5c-1-2.1-1.9-4.3-3-6.3c-1.4-2.5-3.1-4.9-4.7-7.3
			c-0.2-0.3-0.5-0.6-0.8-0.9c-0.6-0.6-1-0.6-1.2,0.3c-0.3,1.3-1.2,2.2-1.8,3.3c-0.1,0.2-0.4,0.4-0.6,0.5c-0.8,0.5-1.7,0.8-2.7,0.8
			c-2.2,0.1-4.5,0-6.7,0.2c-2.6,0.3-5.3-0.1-7.9,0.3c-0.6,0.1-1.1,0.3-1.3,0.8c-0.2,0.4-0.1,0.7,0.3,0.7c1.3,0.1,2.6,0.2,3.9,0.3
			c2.3,0.1,4.6,0.1,6.8,0.3c2,0.2,2.9,0.8,3.4,2.8c0.3,1,0,1.9-0.4,2.8c-0.6,1.5-1.3,2.9-1.9,4.4c-0.7,1.6-1.4,3.2-2.1,4.8
			c-1.1,2.5-2.1,5.1-3.3,7.6c-0.8,1.8-1.7,3.6-2.6,5.4c-0.3,0.7-0.6,1.4-0.8,2.2c-0.1,0.2-0.2,0.4-0.3,0.5
			C342.1,150.8,342,150.9,341.9,151.1l-0.1,0.2L341.9,151.1z M339.8,130.7c0.6-0.1,1.3-0.2,1.9-0.3c0.5,0,1,0.5,1,1
			c0.1,0.8,0,1.4-0.8,1.9c-0.4,0.2-1.1,0.4-1.2,1.1c0.7,0,1.4,0,2.1,0c0.9,0,1.6,0.6,1.7,1.4c0,0.4-0.1,0.9-0.4,1.2
			c-0.2,0.2-0.6,0.4-0.9,0.4c-0.4,0.1-0.9,0.1-1.3,0.2c-0.5,0.1-1-0.1-1.4,0.2c0,0.3,0,0.6,0.1,0.8c0.3,0.5,0.1,0.9-0.1,1.2
			c-0.5,0.6-1,1.1-1.6,1.5c-0.6,0.5-1.4,0.6-2.2,0.5c-1.3-0.2-1.8,0.5-1.7,1.6c0.1,0.9,0,1.9,0,2.8c0,0.8,0.1,1.6-0.1,2.4
			c-0.2,0.8-0.2,1.6-0.2,2.5c-0.1,1,0.3,1.8,1.3,2.2c0.3,0.1,0.6,0.4,1,0.6c1.3-2.9,2.7-5.8,4-8.6c0.5-1.1,1-2.2,1.5-3.3
			c1.1-2.6,2.2-5.3,3.3-7.9c1-2.5,2.1-5,3.1-7.5c0.3-0.7,0.5-1.4,0.8-2.1c0.2-0.7,0-1.1-0.8-1.1c-0.7-0.1-1.4-0.2-2.1-0.2
			c-1.7-0.1-3.5,0-5.2-0.3c-0.9-0.1-1.8,0-2.8,0c-1,0-1.2,0.1-1.4,1c-0.7,2.2-1.3,4.4-1.9,6.5c0.3-0.2,0.5-0.5,0.7-0.7
			c0.5-0.5,0.9-0.9,1.4-1.3c0.7-0.5,1.3-0.3,2,0.1c0.6,0.4,0.3,1,0.3,1.6C340.1,130.3,339.9,130.5,339.8,130.7l-0.1,0.2L339.8,130.7
			z M249.8,141.9c-0.9,0-1.8,0-2.7,0.4c-0.2,0.1-0.5,0.1-0.6,0.1c-0.7-0.3-1.3-0.7-1.5-1.5c-0.4-1.2-0.4-2.3,0.7-3.2
			c0.6-0.6,0.8-1.2,0.5-2.1c-0.4-1.2-0.6-2.4-0.8-3.6c-0.2-1.2-0.4-2.5-0.6-3.7c-0.2-1.4-0.5-2.8-0.7-4.2c-0.1-0.6-0.2-1.1-0.3-1.7
			c-0.1-0.5-0.6-0.8-1.2-0.8c-1.4,0.1-2.8,0.2-4.2,0.3c-1.3,0.1-2.5,0-3.8,0.2c-1.9,0.2-3.7,0.1-5.6,0.3c-2.3,0.2-4.6,0.2-6.9,0.3
			l-0.1,0.1c0.8,0.5,1.5,1,2.3,1.5c1.8,1.1,3.6,2.2,5.4,3.4c2.2,1.4,4.5,2.8,6.7,4.2c0.2,0.1,0.5,0.3,0.6,0.5
			c0.4,0.9,0.9,1.8,0.8,2.8c0,1.4,0,2.7,0,4.1c0,0.9,0,1.7,0.3,2.6c0.5,1.7,1.3,3.3,3,4.3c1.1,0.7,2.1,1.5,3,2.5
			c0.8,0.9,1.7,1.7,2.6,2.6c0.3-0.5,0.6-0.8,0.8-1.2c0.9-1.7,1.4-3.5,1.9-5.4C249.5,143.6,249.6,142.7,249.8,141.9l0.1-0.2
			L249.8,141.9z M277.3,83.9l0.3,0c0.7-0.6,1.7-1,2.2-2c0.3-0.6,0.9-1.1,1.5-1.5c1.1-0.9,2.5-0.6,3.1,0.7c0.1,0.2,0.1,0.4,0.1,0.6
			c0.2,0.5,0.3,1.1,0.6,1.6c0.2,0.4,0.6,0.5,1,0.2c0.6-0.6,1.2-1.2,1.6-1.9c0.6-1,1.2-2,1.7-3.1c0.6-1.1,1.9-1.3,2.8-0.5
			c0.6,0.6,1.2,1.3,1.9,1.9c0.5,0.5,1.2,0.8,1.9,0.4c0.8-0.4,1.6-0.9,2.3-1.5c0.8-0.8,1.5-1.8,2.2-2.7c0.4-0.5,0.8-1,1.3-1.5
			c0.4-0.4,1-0.6,1.6-0.5c0.8,0.1,1.5,0.5,2.1,1c0.5,0.5,1,1,1.5,1.4c1.6-1,2.3-2.5,2.9-4.1c0.3-0.7,0.4-1.5,0.5-2.3
			c0.1-1.2,0.1-2.4,0.3-3.5c0.1-0.5,0.1-1.1,0.7-1.5c0.6-0.4,1.6-0.4,2.2,0.1c0.6,0.4,0.7,1.1,0.6,1.8c-0.2,1.4-0.5,2.8-0.8,4.2
			c-0.4,2.4-1,4.7-2.9,6.5c-0.9,0.9-1.9,1.6-3,2.1c-0.5,0.2-0.9,0.1-1.4-0.1c-0.9-0.4-1.6-1-2.1-1.9c-0.2-0.4-0.5-0.4-0.8-0.1
			c-0.6,0.8-1.1,1.5-1.7,2.3c-1.5,2.2-4.7,4.3-8.2,2.7c-0.6-0.3-1.3-0.5-1.9-0.8c-0.2,0.2-0.4,0.5-0.6,0.8c-0.1,0.1-0.1,0.3-0.2,0.5
			c-1.3,2-3,3.4-5.5,3.6c-0.8,0-1.8,0-2.3-1.1c-0.2-0.4-0.5-0.8-0.8-1.1c-1.5,0.8-2.9,1.6-4.3,2.5c-0.7,0.4-1.5,0.4-2.3,0.4
			c-0.5,0-0.9-0.3-1.1-0.8c-0.2-0.5-0.5-0.9-0.4-1.5c0.1-0.7,0.1-1.4,0.1-2.2c-0.3,0-0.5,0-0.8,0.1c-0.8,0.4-1.6,0.2-2.4-0.1
			c-0.4-0.1-0.6-0.3-0.7-0.7c-0.1-0.5-0.2-1-0.2-1.5c0-0.5,0.2-1,0.2-1.5c0.1-1.1,0.3-2.2,0.7-3.3c0.7-1.9,1.4-3.9,2.1-5.9
			c-0.6-0.2-1.2-0.4-1.8-0.6c-2.4-0.5-4.8-0.8-7.1-1.4c-2.3-0.5-4.7-0.9-7-1c-0.1,0-0.3,0-0.4,0c-0.6-0.4-1.3-0.2-1.9-0.2
			c-0.2,0-0.4,0.1-0.6,0.2c0.1,0.2,0.1,0.5,0.2,0.7c0.1,0.2,0.4,0.4,0.5,0.6c1.2,1.2,2.3,2.3,3.5,3.5c0.6,0.6,0.7,1.4,0.2,2.1
			c-0.8,1.2-2.1,1.6-3.4,2.1c1,0.8,1.9,1.5,2.9,2.2c0.5,0.4,0.9,0.8,1.2,1.3c0.2,0.5,0.2,0.9-0.2,1.3c-0.5,0.4-1,0.9-1.6,1.3
			c-0.6,0.4-1.1,0.8-1.5,1.5c0.9,0.4,1.6,0.8,2.4,1.2c0.6,0.3,0.9,0.7,0.9,1.5c0,0.8-0.1,1.5-0.7,2.1c-0.3,0.3-0.5,0.7-0.7,1.1
			c-0.3,0.7-0.5,1.4,0.1,2.1c0.3,0.3,0.6,0.8,0.9,1.1c1.3,1.4,2.7,2.6,4.2,3.7c2.2,1.7,4.6,3,7.2,4c1.9,0.7,3.8,1.2,5.7,1.6
			c1.4,0.3,2.8,0.4,4.2,0.6c1.5,0.2,2.9,0.4,4.4,0.6c0.9,0.1,1.8,0,2.6,0.3c1.1,0.4,2.2,0.2,3.3,0.4c1.6,0.3,3.3,0.2,5,0.3
			c0.1,0,0.3,0,0.4,0c1.7,0.5,3.5,0.2,5.2,0.5c1.2,0.2,2.3-0.2,3.5-0.2c1.5-0.1,3-0.4,4.4-0.9c1.9-0.7,3.8-1.2,5.7-1.7
			c2.8-0.8,5.6-1.4,8.1-2.9c0.7-0.4,1.4-0.8,2.2-1.2c2.3-1.3,4.4-2.8,6.2-4.7c3.8-3.8,7.7-7.5,11.3-11.5c1.5-1.7,3.3-3.3,5.1-4.8
			c1.1-0.9,2.4-1.7,3.7-2.4c1.4-0.7,3-1.1,4.5-1.7c1.8-0.7,3.5-1.6,4.8-3.1c0.9-1.1,1.7-2.2,2.5-3.3c0.8-1.2,1.4-2.4,0.8-3.9
			c-0.1-0.2,0-0.5,0-0.8c0-0.8,0-1.6-0.3-2.5c-0.7-2.2-1.8-4-3.3-5.7c-0.1,0.2-0.3,0.3-0.3,0.5c-0.9,1.5-2.1,2.8-3.6,3.8
			c-2.3,1.7-4.9,2.4-7.7,2.3c-0.6,0-1.1-0.2-1.7-0.2c-1.6-0.1-2.9-0.9-4-2c-1.7-1.5-2.3-3.6-2.4-5.7c-0.1-1.3-0.6-2-1.7-2.4
			c-1.3-0.5-2.7-1-4-1.5c-2.6-1-5.3-2.1-7.9-3.1c-2.1-0.8-4.2-1.6-6.3-2.4c-0.6-0.2-1.1-0.2-1.5,0.2c-1.4,1.1-2.7,2.2-4.2,3.5
			c0.5,0,0.9,0,1.3,0c0.7,0.1,1.5,0.1,2.2,0.3c1,0.2,1.3,0.8,0.8,1.7c-0.4,0.8-1.1,1.2-2,1.2c-4.4,0.1-8.8-0.2-13.2,0.2
			c-1.6,0.2-3.1,0.4-4.6,0.7c-2,0.4-4,1-5.9,1.8c-1.1,0.5-2.2,0.9-3.2,1.5c-1.3,0.8-2.6,1.6-3.8,2.5c-1.1,0.9-2.2,1.9-3.1,3.1
			c-1.2,1.5-2.2,3.1-3.2,4.7c-1.1,1.8-2.2,3.5-3.1,5.4c-1.1,2.1-2,4.3-2.9,6.5c-0.5,1.3-1,2.6-1.1,3.9c1.1-0.1,1.9-0.8,2.7-1.4
			c0.3-0.2,0.6-0.5,1-0.7c0.4-0.3,1.7-0.3,1.9,0c0.5,0.5,0.7,1.7,0.4,2.3c-0.4,0.9-0.9,1.8-1.3,2.7C277.5,83,277.5,83.5,277.3,83.9
			l-0.1,0.2L277.3,83.9z M189.9,81.1c0.2,0.1,0.4,0.3,0.7,0.3c2.3,0.2,4.4-0.2,6.2-1.8c0.3-0.3,0.7-0.6,1.1-0.9
			c0.9-0.6,1.4-0.5,2.2,0.2c0.2,0.2,0.4,0.4,0.7,0.7c0.3,0.3,0.6,0.3,0.9,0.1c1.2-0.7,2.6-1.3,3.7-2.2c1.1-0.8,2-1.9,2.4-3.3
			c0.4-1.3,1.1-2.5,1.8-3.8c0.4-0.9,1.3-1.2,2-0.9c0.8,0.4,1.1,1.2,0.8,2.1c-0.2,0.5-0.4,1-0.6,1.4c-0.3,0.8-0.7,1.5-1,2.3
			c-0.7,2.2-2.2,3.8-4,5.1c-1.4,1-3,1.9-4.7,2.5c-1.1,0.4-2.1,0.6-3.1,0c-0.5-0.3-1-0.3-1.5,0c-1.7,1.3-3.8,1.2-5.8,1.6
			c-1-0.5-2-0.1-3-0.2c-0.6-0.1-1.2-0.3-1.7-0.5c-0.4-0.1-0.6-0.5-0.6-0.9c0-0.6,0-1.3,0-2c-0.6,0.1-1,0.2-1.4,0.3
			c-1.3,0.2-2.6,0.5-3.9,0.7c-1.9,0.4-3.8-0.3-3.7-2.9c0-0.7,0-1.5,0-2.3c-1.2,1.1-2.6,1.6-4.1,2c-1.8,0.4-3.9-0.9-4-2.7
			c-0.1-1.2-0.3-2.5,0.4-3.7c0.4-0.6,0.6-1.3,1-2c0.9-1.5,1.9-2.9,3.1-4.2c0.7-0.7,1.3-1.5,2.1-2.5c-0.7,0.1-1.2,0.3-1.7,0.3
			c-1.3,0.1-2.7,0.2-4,0.3l-0.3,0c-1.1,0.5-2.4,0.1-3.6,0.5c-1.2,0.3-2.5,0.2-3.8,0.3c-0.1,0-0.3,0-0.4,0c-1.4,0.3-2.9,0.4-4.4,0.5
			c-1.1,0.1-2.2,0.2-3.2,0.3c-1.2,0.1-2.3,0.4-3.5,0.5c-0.8,0-1.5,0.3-2.2,0.8c0.6,0.9,1.6,0.9,2.4,1c1.4,0.1,2.8,0.3,4.2,0.6
			c0.6,0.1,1.2,0.5,1.8,0.8c0.3,0.2,0.4,0.5,0.4,0.9c0,1.1-0.5,1.9-1.4,2.3c-1.2,0.6-2.4,1.1-3.7,1.6c-0.7,0.3-1,0.7-1.3,1.4
			c-0.2,0.5-0.2,0.9-0.2,1.4c0,0.9,0.1,1.1,0.9,1.4c0.9,0.2,1.8,0.4,2.6,0.6c1.4,0.3,2.9,0.5,4.3,0.8c0.8,0.2,1.4,0.9,1.4,1.5
			c0,0.4-0.1,0.8-0.4,1.1c-0.2,0.2-0.6,0.4-0.9,0.4c-0.7,0.2-1.4,0.3-2.1,0.5c-0.9,0.2-1.9,0.2-2.4,1.4c0.2,0.2,0.4,0.6,0.7,0.6
			c1,0.2,2,0.4,3.1,0.6c0.6,0.1,1.1,0.2,1.6,0.3c1,0.3,1.3,1.1,1,2.2c-0.2,0.8-0.5,1.6-0.8,2.3c-0.5,1.4-0.4,1.8,0.9,2.7
			c1.3,0.9,2.8,1.4,4.2,2c1.4,0.6,2.8,1.1,4.2,1.8c1.5,0.7,3,1.6,4.4,2.4c2.7,1.5,5.5,3,8.3,4.4c2.9,1.5,5.9,2.8,9.1,3.6
			c2.2,0.5,4.4,1.1,6.7,0.9c0.8,0,1.6,0,2.4,0c1.1-0.1,2.3-0.1,3.4-0.3c1.8-0.4,3.7-1,5.5-1.5c1.4-0.4,2.9-1,4.3-1.3
			c2-0.5,3.8-1.3,5.7-2.1c3.1-1.4,5.9-3.2,8.7-5.1c1.7-1.1,2.9-2.6,3.8-4.4c1.8-3.5,3.3-7.3,4.8-10.9c1.5-3.6,3-7.3,4.2-11
			c1.3-4.1,3-8.1,3.9-12.3c0.4-1.8,0.9-3.7,0.6-5.5c-0.2-1.5-0.1-3-0.2-4.4c0-1,0-2,0-3c0-1,0-2.1-0.3-3.1c-0.7-2.9-1.7-5.6-3.5-8
			c-1.8-2.4-4.2-3.6-7.1-3.8c-2.3-0.2-4.5-0.1-6.8,0.5c-2.4,0.6-4.7,1.4-6.5,3.2c-0.7,0.7-1.4,1.3-2.2,1.9c-1.4,1.2-2.8,2.3-4.2,3.5
			c-1.4,1.2-2.8,2.4-4.1,3.6c-0.7,0.6-1.3,1.1-2,1.7c-1.2,1-2.3,2-3.5,3c-0.2,0.2-0.5,0.4-0.7,0.6c-0.4,0.4-0.9,0.7-1.5,1.3
			c1.1,0,2,0,2.8,0c0.9,0,1.3,0.6,1.3,1.4c0,0.7-0.6,1.4-1.2,1.5c-2.7,0.5-5.5,1.1-8.2,1.6c-3,0.5-5.8,1.6-8.6,2.8
			c-2.3,1-4.4,2.5-6.4,4c-0.9,0.7-1.7,1.5-2.5,2.3c-0.5,0.5-0.9,1.1-1.4,1.7c-0.8,0.9-1.7,1.7-2.5,2.5c-1.2,1.2-2.1,2.6-2.8,4.1
			c-0.3,0.7-0.6,1.5-0.4,2.3c0.7,0.2,1.3,0,1.8-0.4c0.5-0.4,1-0.8,1.4-1.1c0.6-0.5,1.1-1,1.7-1.4c0.7-0.6,1.6-0.6,2.4-0.3
			c0.7,0.3,1,1,0.9,1.9c-0.1,1.1,0,2.1,0,3.2c0,1.8-0.1,1.7,1.9,1.7c0.2,0,0.3-0.1,0.5-0.2c1.5-0.5,2.8-1.2,3.9-2.3
			c0.3-0.3,0.7-0.7,1.1-0.9c1.1-0.5,2.3,0.3,2.4,1.5C190.7,78.5,190.1,79.8,189.9,81.1z M377.3,141c0.2,0.6,0.3,1.1,0.4,1.4
			c0.9,1.8,1.8,3.7,2.8,5.4c1,1.9,2.2,3.7,3.5,5.4c1.1,1.4,2.2,2.8,3.2,4.3c1,1.3,0.9,2.9,0.6,4.4c-0.3,1.4-1.4,2.2-2.4,3.1
			c-0.4,0.4-0.8,0.7-1.2,1.2c-0.7,0.9-1.4,1-2.4,0.4c-0.9-0.6-1.5-1.4-1.9-2.4c-0.3-0.6-0.5-1.3-0.8-1.9c-1.2-2.1-2.4-4.2-3.6-6.3
			c-1-1.9-2-3.7-3-5.6c-1.3-2.4-2.7-4.7-3.9-7.1c-0.4-0.7-0.9-1-1.6-1.2c-0.4-0.1-0.8,0.2-1.3,0.2c-2,0-3.7,0.8-5.4,1.6
			c-1.7,0.9-3.4,1.9-4.9,3.1c-1.8,1.3-3,3.1-3.9,5c-1.2,2.3-1.7,4.8-1.9,7.3c-0.1,1.6-0.1,3.1,0.2,4.7c0.3,2.1,1,4.1,2,6
			c0.9,1.9,2.2,3.6,3.7,5.2c0.8,0.8,1.6,1.6,2.4,2.4c1.1,1.2,2.4,2.1,3.8,3c3.1,2.1,6.5,3.5,9.9,4.8c2.8,1,5.7,1.8,8.7,2.6
			c0.9,0.2,1.9,0.5,2.8,0.5c1.5,0.1,2.9,0.4,4.4,0.6c1.4,0.2,2.8,0,4.1,0.5c2.5-0.1,5.1,0.2,7.6-0.2c1.3-0.2,2.6-0.4,3.8-0.8
			c2.7-0.9,4.7-2.6,6.2-5c1-1.6,1.7-3.3,2.3-5.1c0.8-2.5,1.4-5.1,1.7-7.7c0.2-2.2-0.1-4.5-0.6-6.6c-1-4.6-3.3-8.6-6.5-12.1
			c-1.3-1.4-2.7-2.8-4.2-4c-2.5-2.1-5.2-3.7-8.2-4.9c-3.3-1.3-6.7-2-10.3-1.9c-0.5,0-1.1,0.1-1.6,0C380.4,140.9,379,141.2,377.3,141
			z M211.8,165.8c-0.4-0.1-0.8-0.3-1.1-0.3c-1.6-0.1-3.2,0-4.8-0.3c-1.3-0.2-2.6-0.1-3.9-0.2c-1.7-0.2-3.5-0.1-5.2-0.3
			c-1.4-0.1-2.8-0.2-4.2-0.3c-0.7-0.1-1.5-0.2-2.2-0.3c-0.9-0.1-1.9-0.4-2.8-0.4c-0.7,0-1.3-0.3-1.9-0.5c-0.6-0.2-0.9-0.7-1-1.3
			c-0.1-0.5,0-1,0.1-1.4c0.1-0.8,0.3-1.6,0.4-2.4c0.2-1.3,0.3-2.7,0.7-4c0.9-3.6,2.3-7,3.6-10.5c0.8-2.1,1.6-4.3,2.4-6.4
			c0.2-0.6,0.1-1-0.4-1.2c-0.7-0.3-1.5-0.6-2.2-0.6c-2.9-0.1-5.8-0.5-8.7-0.3c-0.2,0-0.4,0-0.5,0c-2.5-0.1-4.8,0.6-7,1.6
			c-1.1,0.5-2.2,1.1-3.3,1.5c-3.7,1.4-6.7,3.6-9.1,6.7c-1.9,2.4-2.9,5.2-3.5,8.1c-0.2,1.2-0.4,2.5-0.6,3.7c-0.2,1.5-0.4,2.9-0.4,4.4
			c-0.1,2.4-0.2,4.9,0.2,7.4c0.2,1.1,0,2.3,0.3,3.5c0.2,0.8,0.3,1.7,0.5,2.5c0.5,2,1.2,3.9,2.4,5.6c1.7,2.5,3.7,4.6,6.3,6.2
			c0.5,0.3,1.1,0.6,1.7,1c1.8,1.2,3.7,2,5.7,2.7c2.1,0.8,4.2,1.3,6.4,1.6c1.6,0.2,3.2,0.5,4.8,0.5c1.4,0,2.7-0.3,4.1-0.5
			c3-0.5,5.7-1.7,8.3-3.3c1.5-0.9,2.8-2.1,4.3-3.2c1.7-1.2,3.2-2.8,4.5-4.4c1.9-2.3,3.3-5,4.3-7.8
			C210.7,170.6,211.4,168.3,211.8,165.8z M247.4,127.3c0.4-0.2,0.7-0.3,0.9-0.5c0.6-0.4,1.1-0.2,1.5,0.2c0.6,0.7,1.2,0.9,2.1,0.9
			c1,0,1.4,0.5,1.3,1.5c0,0.4-0.2,0.8-0.4,1.1c-0.4,0.8-0.9,1.5-1.4,2.3c0.1,0,0.2,0.1,0.3,0c1-0.3,1.9-0.7,2.9-1
			c1.1-0.3,2,0.4,2,1.6c0,0.9-0.3,1.2-1.4,1.6c-1.3,0.5-2.7,0.9-4,1.4l0,0.1c1.1,0,2.3,0,3.4,0c0.3,0,0.5,0,0.8,0c1,0.1,2,1,2.2,1.9
			c0.3,1.4-0.2,2.3-1.4,2.8c-0.5,0.2-1.1,0.3-1.6,0.4c-1.2,0.1-1.9,0.7-2.2,1.9c-0.7,2.5-1.5,5-2.2,7.6c-0.2,0.8-0.2,1.2,0.4,1.5
			c1.1,0.6,1.7,1.7,2.4,2.7c0.7,1,1.2,2.1,1.6,3.2c0.4,1,0.7,1.3,1.8,1.3c1,0,1.9-0.2,2.9-0.2c1.6-0.1,3.2-0.2,4.8-0.3l0.1,0
			c1.9-0.4,3.9-0.4,5.8-0.5c3.2-0.1,6.4-0.1,9.6,0.2c1.2,0.1,2.4,0,3.7,0.2c1.6,0.2,3.2,0,4.8,0.3c1.1,0.2,2.2,0.1,3.4,0.2
			c1.6,0.2,3.3,0.1,5,0.3c1.7,0.2,3.5-0.2,5.2,0.3c3.4,0,6.8,0.1,10.3-0.3c0.7-0.1,1.5-0.6,1.5-1.1c0.1-1.3,0.1-2.5-1-3.5
			c-1.9-1.8-3.8-3.6-5.5-5.7c-1.2-1.5-2.7-2.9-4-4.3c-1.1-1.2-2.2-2.4-3.3-3.6c-1.3-1.4-2.5-2.8-3.9-4.1c-1.1-1.1-2.3-2.1-3.4-3.1
			c-0.9-0.9-1.8-1.9-2.7-2.9c-1.1-1.2-2.2-2.5-3.2-3.8c-0.6-0.7-1.2-1.3-1.7-2c-1.2-1.5-2.4-3.1-3.6-4.6c-0.5-0.6-1.2-1-2-1
			c-1.5,0.1-3,0-4.6,0.2c-1.7,0.3-3.4,0.1-5.1,0.3c-1.8,0.2-3.6,0.1-5.4,0.2c-3.5,0.3-7.1-0.1-10.7,0.3c-1.6,0.2-3.2,0-4.8,0
			c-0.2,0-0.4,0-0.7,0c-1.1,0.1-1.5,0.4-1.5,1.5c0,0.5-0.1,1.1,0,1.6C247.1,125.5,247.3,126.3,247.4,127.3z M340.6,114.8
			c0.5,0,0.9,0,1.4,0c2.6-0.1,5.3-0.2,7.9-0.3c1.6-0.1,3.2-0.2,4.8-0.3c0.8-0.1,1.4-0.6,1.7-1.2c0.6-1.2,1.1-2.5,1.6-3.8
			c0.6-1.6,1.1-3.2,1.1-4.9c0-0.6-0.1-1.2,0-1.8c0.4-2.1,0.9-4.1,1.6-6.1c0.7-1.9,1.8-3.3,3.9-3.9c1.8-0.5,3.5-1.3,5.1-2.2
			c1.7-1,3.5-1.9,5.2-2.9c2.1-1.2,4.3-2.2,6.2-3.8c1.6-1.3,2.9-2.7,3.7-4.6c0.6-1.5,0.9-3.1,0.1-4.8c-0.4-0.9-1.1-1.5-2-1.5
			c-0.6,0-1.1,0-1.7-0.2c-0.6-0.2-1.2-0.1-1.8,0.5c-1.1,1.2-2.5,2.2-4,2.9c-1.2,0.5-2.5,1-3.7,1.5c-2.8,1-5.6,1.6-8.5,1.5
			c-1,0-1.9,0.1-2.9,0c-1-0.1-2-0.2-2.9-0.4c-1.3-0.3-2.6-0.7-3.9-1c-0.2,0-0.3-0.1-0.5,0c-1.2,0.2-2.2,0.8-3.1,1.5
			c-1.4,1.2-2.8,2.4-4,3.8c-3,3.1-6.2,6-9.1,9.2c-2,2.2-4.1,4.3-6.5,6.1c-2.5,1.9-5.2,3.5-8,4.8c-0.3,0.2-0.7,0.3-1.1,0.4
			c-2.9,0.5-5.6,1.6-8.4,2.5c0.3,0.1,0.6,0.3,0.8,0.3c0.9,0,1.8,0.2,2.7,0.2c1.4,0.1,2.8,0.4,4.2,0.5c1.6,0.2,3.3,0.4,4.9,0.5
			c2,0.1,4.1,0.4,6.1,0.5c1.9,0.1,3.7,0.4,5.6,0.6c1,0.1,2,0.3,2.9,0.7c1.2,0.5,1.5,1.2,1.2,2.5
			C341.1,112.7,340.9,113.7,340.6,114.8z M205.2,125c-0.2,0.6-0.3,1.1-0.4,1.5c-0.6,2.3-1.2,4.6-1.8,6.9c-0.3,1-0.1,1.5,0.6,2
			c1.6,1.1,3.2,2.1,4.7,3.3c1.6,1.3,3,2.7,4.2,4.4c1.5,2.2,2.2,4.7,2.7,7.2c0.3,1.8,0.6,3.6,0.8,5.4c0.1,0.5,0.4,0.8,0.8,0.9
			c0.7,0.2,1.4,0.2,2.1,0.3c1.5,0.1,3,0.2,4.6,0.3l0.3,0c0.7,0.4,1.4,0.2,2.1,0.2c0.7,0.1,1.4,0.2,2.1,0.3c1.3,0.1,2.6,0.2,3.9,0.3
			c0.2,0,0.4,0.2,0.6,0.2c1.5,0.3,2.2,0,2.9-1.4c0.2-0.3,0.4-0.7,0.5-1.1c0.1-0.5,0.2-0.9-0.2-1.4c-1.1-1.4-2.2-2.8-3.4-4.1
			c-1.1-1.3-2.2-2.6-3.3-3.9c-0.6-0.7-1.3-1.4-1.9-2.2c-1-1.1-1.9-2.3-2.9-3.4c-1.1-1.2-2.3-2.2-3.6-3.3c-1.3-1.2-2.6-2.3-4-3.4
			c-1.6-1.3-3.3-2.6-4.9-3.9C209.5,128.6,207.5,126.9,205.2,125z M233,161.5c-0.7-0.1-1.4-0.2-2.1-0.3c-0.3,0-0.6,0.1-0.9,0
			c-1.4-0.4-2.9-0.3-4.4-0.5c-1.5-0.2-3-0.2-4.4-0.3l-0.1,0c-1.2-0.5-2.6-0.1-3.9-0.5c-1.2-0.3-2.5-0.2-3.8-0.3c-0.1,0-0.3,0-0.4,0
			c-0.6-0.4-1.2-0.2-1.8-0.2c-0.6-0.1-1.3-0.2-1.9-0.3c-1.4-0.1-2.8-0.2-4.2-0.3l-0.3,0c-1.6-0.5-3.2-0.2-4.8-0.5
			c-0.9-0.2-1.8,0-2.7,0.2c-1.5,0.2-3.1,0.1-4.6,0c-0.3,0-0.7-0.1-1-0.3c-0.3-0.2-0.6-0.6-0.7-0.9c-0.1-0.6,0-1.2,0.2-1.8
			c1-3.7,2.6-7.2,3.9-10.8c1.2-3.4,2.6-6.8,3.8-10.2c1-2.9,2-5.9,2.9-8.8c0.3-1,0.7-2,1-3.1c0.5-1.3,1.1-1.8,2.4-1.4
			c0.8,0.2,1.5,0.7,2.2,1.2c1.2,1,2.4,2.2,3.6,3.3c0.7,0.7,1.5,1.4,2.3,2c2.1,1.5,4.2,3,6.1,4.7c1.9,1.7,3.9,3.3,5.8,5.1
			c1.8,1.8,3.5,3.7,5.3,5.5l0.2,0.2c0.9,1,1.7,2.1,2.6,3.1c0.5,0.6,1,1.2,1.5,1.8c0.9,1.2,1.8,2.5,2.8,3.8c0.4,0.5,1,0.6,1.6,0.3
			c0.9-0.4,1.8-0.8,2.6-1.1c-1.5-1.4-2.9-2.8-4.3-4.2c-0.5-0.5-1-1.1-1.5-1.5c-1.6-1.2-3.2-2.3-4.7-3.7c-0.7-0.6-1.4-1.2-2.1-1.8
			c-1.2-1-2.3-2-3.5-3c-1.3-1.1-2.5-2.3-3.8-3.5l-0.2-0.2c-1-0.9-2.1-1.7-3.1-2.6c-1.2-1.1-2.4-2.2-3.6-3.3
			c-0.1-0.1-0.2-0.2-0.3-0.3c-1.1-0.9-2.1-1.8-3.2-2.7c-0.9-0.8-1.1-1.9-0.9-3.1c0.1-0.6,0.6-1.1,1.2-1.2c0.6-0.1,1.3-0.2,1.9-0.3
			c1.4-0.1,2.9,0,4.3-0.2c1.6-0.2,3.2,0,4.8-0.3c1.8-0.3,3.7,0,5.5-0.3c1.6-0.2,3.2,0,4.8-0.2c2.3-0.3,4.6-0.2,6.9-0.3
			c0.8,0,1.5-0.2,2.3-0.3c0.3,0,0.7-0.2,0.6-0.5c-0.1-0.2-0.4-0.3-0.7-0.4c-0.2-0.1-0.4,0-0.7,0c-1.7,0.1-3.5,0-5.2,0.2
			c-2,0.3-4.1,0-6.2,0.3c-2.1,0.3-4.3,0.1-6.4,0.2c-4.2,0.3-8.5-0.1-12.8,0.3c-2.4,0.2-4.8,0-7.3,0c-1.4,0-2.5,0.8-3,2.1
			c-0.8,2.2-1.6,4.5-2.4,6.7c-1.6,4.5-3.1,9-4.7,13.4c-1.2,3.5-2.5,7-3.6,10.5c-1,3.1-1.6,6.3-2.5,9.5c0.8,0.1,1.7,0.1,2.5,0.3
			c1,0.3,2,0,2.8,0.3c1.4,0.4,2.8,0.1,4.3,0.4c1.5,0.3,3,0.1,4.6,0.3c1.6,0.2,3.3,0,5,0.3c1.8,0.3,3.6,0,5.4,0.3
			c1.9,0.3,3.8,0,5.8,0.3c2.3,0.3,4.7,0,7.1,0.3c2.1,0.3,4.3-0.1,6.4,0.3C233.1,163.5,233.2,163.3,233,161.5z M293.1,121
			c0.6,0.7,1.2,1.3,1.8,1.9c0.8,0.7,1.6,1.4,2.3,2.1c1.3,1.4,2.5,2.8,3.7,4.2c1.2,1.3,2.4,2.7,3.5,4.1c1.2,1.5,2.3,3,3.8,4.3
			c0.8,0.7,1.6,1.5,2,2.5c0.8,1.5,1.8,2.9,3,4.1c0.2,0.2,0.4,0.5,0.6,0.7c0.6,0.6,1.3,1.3,1.9,1.9c1,1,2.1,2,3.2,3.1
			c0.2,0,0.6-0.1,0.9-0.2c0.8-0.2,1.5-0.3,2.3-0.5c0.7-0.2,0.9-0.5,0.9-1.2c0-0.7,0.2-1.5,0.2-2.2c0.1-1.6,0-3.3,0.3-5
			c0.2-0.9,0-1.9,0-2.9c0-0.5-0.2-0.9-0.4-1.4c-0.3-0.8-1.1-1.1-1.6-1.6c-1.4-1.4-2.8-2.8-4.3-4.1c-2-1.7-3.8-3.6-5.7-5.4
			c-1.5-1.4-2.9-2.8-4.4-4.1c-0.7-0.7-1.6-0.9-2.4-0.8c-0.6,0.1-1.3,0.1-1.9,0.2C299.6,120.8,296.4,120.4,293.1,121z M334.1,156.1
			c-0.1,0.5-0.1,0.9-0.2,1.2c-0.5,2.1-1.3,4.2-1.5,6.4c-0.1,0.4-0.2,1-0.8,1.1c-0.6,0.1-1.1,0.1-1.7-0.4c-0.9-0.8-0.8-1.7-0.6-2.6
			c0.4-1.7,1-3.3,1.4-5c0.2-0.7,0.3-1.5,0.4-2.3c0-0.8-0.1-1-1-1.3c-1.8-0.6-3.6-0.8-5.4-1c-1.7-0.3-3.2,0.3-4.5,1.4
			c-1.7,1.4-2.9,3-2.8,5.3c0,1,0,2,0.2,3c0.2,1.2,0.5,2.3,1,3.3c0.5,0.8,0.9,1.7,1.3,2.5c0.9,2.1,2.5,3.3,4.5,4.1
			c0.9,0.4,2,0.5,3,0.7c2,0.4,3.7-0.1,5.5-0.8c1.7-0.7,3-2,4.5-3c0.6-0.4,1.1-1,1.4-1.7c1-1.6,0.8-3.4,0.3-5.1
			c-0.7-2.4-2.3-4.1-4.3-5.5C334.6,156.3,334.4,156.3,334.1,156.1z M213.3,114.8c1.2,0.1,2.3,0.3,3.4,0.3c1.8,0,3.7,0,5.5-0.2
			c2-0.3,4,0,6-0.2c2.2-0.3,4.5-0.2,6.7-0.3c2.3-0.1,4.6-0.2,6.9-0.3c0.6,0,0.8-0.2,0.8-0.8c0-0.3,0-0.5,0-0.8
			c-0.2-1.1-0.5-2.3-0.8-3.4c-0.4-1.7-0.7-3.4-1.1-5c-0.3-1.3-0.6-2.6-0.9-3.8c-0.5,0.2-1.1,0.4-1.7,0.6c-3,1.1-5.9,2.1-8.9,3.3
			c-2.5,1-5.1,2-7.6,3c-1.2,0.5-2.3,1-3.4,1.6c-1.4,0.7-2.8,1.4-4.2,2.1c-0.4,0.2-0.5,0.4-0.6,0.8
			C213.1,112.5,213.4,113.6,213.3,114.8z M355.4,46c-0.1-0.2-0.2-0.3-0.2-0.4c-1.3-2-2.4-4-3.9-5.8c-1.1-1.4-2.3-2.6-3.9-3.5
			c-2.4-1.4-5-2.2-7.9-2.1c-2.1,0.1-4,0.5-5.9,1.3c-1.9,0.8-3.8,1.7-5.6,2.7c-1.1,0.5-2.1,1.1-3.2,1.7c-0.2,0.1-0.5,0.3-0.7,0.5
			c0.3,0.1,0.6,0.2,0.8,0.3c1.8,0.7,3.7,1.5,5.5,2.2c2.2,0.9,4.3,1.8,6.5,2.7c1.2,0.5,2.3,1.1,3.6,1.3c0.6,0.1,1.2,0.3,1.8,0.3
			c0.6,0.1,1.2,0.2,1.8,0.1c1.4-0.2,2.8-0.5,4.2-0.5c0.2,0,0.4,0,0.7,0c1.4-0.3,2.7-0.3,4.1-0.5C353.8,46.2,354.6,46.1,355.4,46z
			 M331.8,141.9c-1-0.1-2-0.2-2.9-0.3c-0.3,0-0.6-0.2-0.8-0.4c-0.6-0.6-0.6-1.3-0.5-2.1c0.5-2,0.5-2.1,2.6-2.3
			c0.9-0.1,1.3-0.4,1.3-1.2c0-2,0.5-3.8,1-5.7c0.6-2.5,1.3-5,1.9-7.6c-1.8-0.2-3.5-0.4-5.2-0.5c-1.7-0.1-3.4-0.2-5.1-0.3l-0.3,0
			c-1.6-0.4-3.2-0.3-4.8-0.5c-1.5-0.2-3-0.2-4.6-0.3l-0.1,0c-1-0.5-2.1-0.2-3.4-0.2c1.2,1.1,2.3,2,3.3,3c1.9,1.8,3.8,3.6,5.6,5.4
			c1.6,1.6,3.2,3.2,4.8,4.8c1.4,1.4,2.1,3.1,2.1,5c0,1.8,0.1,3.7-0.2,5.5c-0.2,1.4,0,2.9-0.1,4.4c0,0.5,0.2,0.8,0.7,0.9
			c0.2,0,0.4,0.1,0.6,0.2c1.2,0.3,2.5,0.6,3.8,0.9C331.8,147.5,331.8,144.8,331.8,141.9z M201.6,137.9c-1.4,1.4-6.2,13.5-6.8,17.3
			c0.1,0,0.2,0.1,0.4,0.1c3.5,0,6.9-0.1,10.4,0.3c1.3,0.1,2.6,0.2,3.9,0.3l0.3,0.1c0.7,0.1,1.5,0.2,2.2,0.2c0.6,0,0.8-0.2,0.8-0.8
			c0-1.1-0.1-2.3-0.3-3.4c-0.6-2.9-1.6-5.7-3.5-8c-0.9-1.2-2-2.3-3.3-3.2C204.3,139.8,203,138.9,201.6,137.9z M316.2,152.7
			c-0.2-0.2-0.3-0.3-0.4-0.5c-1.1-1-2.2-2.1-3.4-3.1c-1.8-1.6-3.3-3.5-4.6-5.5c-2.4-3.5-4.7-7-7.5-10.1c-1.5-1.7-2.8-3.5-4.3-5.1
			c-1.9-1.9-3.9-3.7-5.8-5.6c-0.2-0.1-0.4-0.2-0.5-0.3c-0.6-0.6-1.3-1-1.6-1.7c-0.3-0.7-0.2-1.5,0.1-2.3c0.3-0.7,0.9-0.6,1.4-0.8
			c0.3-0.1,0.6-0.2,0.9-0.2c5.3-0.1,10.6,0.2,15.8-0.3c0.8-0.1,1.7,0,2.5,0c0.8,0,1.6,0,2.4,0l0-0.3c-2.3-0.1-4.5-0.2-6.8-0.2
			c-2.8,0-5.6-0.1-8.3,0c-4.1,0.1-8.2-0.3-12.2-0.3c-1.3,0-2.6-0.3-3.8-0.6c-0.3-0.1-0.6-0.2-0.9-0.2c-3.6,0.1-7.3-0.2-10.9,0.2
			c-1.9,0.2-3.9,0-5.9,0.3c-1.5,0.2-2.9,0-4.4,0.2c-1.5,0.2-3.1,0.2-4.7,0.3c-1.8,0.1-3.7,0.2-5.5,0.3c-0.7,0-0.9,0.3-0.8,0.9
			c0.1,0.5,0.5,0.7,1.1,0.6c0.4-0.1,0.8-0.2,1.1-0.2c2.6-0.1,5.2,0.1,7.8-0.2c1.8-0.2,3.7,0,5.6-0.1c1.9,0,3.8-0.2,5.6-0.3
			c1.4-0.1,2.8,0,4.2-0.2c1.8-0.2,3.7,0,5.5-0.3c0.9-0.1,1.9,0,2.9,0c1,0,1.9,0.3,2.6,1c0.8,0.9,1.6,1.8,2.3,2.7
			c1.3,1.5,2.5,3.1,3.7,4.7c0.7,0.9,1.5,1.7,2.3,2.6c1.1,1.2,2.2,2.5,3.3,3.7c0.3,0.4,0.9,0.6,1.2,1c1.2,1.3,2.5,2.5,3.6,3.8
			c1.9,2.3,3.9,4.3,5.9,6.5c0.1,0.2,0.3,0.3,0.5,0.5c1.2,1.3,2.3,2.7,3.5,4c0.9,1,1.8,2,2.7,3c0.6,0.7,1.3,1.3,1.8,2.1
			c0.4,0.6,0.8,1,1.3,1.4C315.5,153.7,315.9,153.2,316.2,152.7z M246.1,154.3c-1.1,0-2.1,0-3.1,0c-0.6,0-1.1,0.1-1.7,0.3
			c-1.5,0.5-2.7,1.3-3.3,2.9c-0.4,1.2-1,2.3-1.4,3.5c-0.3,0.9-0.7,2-0.6,2.9c0.2,1.5,0.6,3.1,1.9,4.2c0.6,0.5,1.2,1.1,1.8,1.5
			c1.9,1.4,3.9,2.3,6.3,1.9c1.3-0.2,2.3-0.7,3.3-1.5c2-1.6,2.9-3.8,3.2-6.2c0.1-0.6,0.1-1.3-0.1-2c-0.5-2-1.4-3.8-2.5-5.5
			c-0.2-0.3-0.4-0.6-0.7-1c-0.2,0.4-0.5,0.7-0.6,1c-0.6,1.2-1.1,2.5-1.7,3.7c-0.2,0.5-0.6,0.9-0.9,1.2c-0.5,0.5-1.1,0.3-1.6,0.1
			c-0.5-0.2-0.7-0.6-0.6-1.2c0.1-0.5,0.1-1,0.3-1.4C244.8,157.3,245.4,155.9,246.1,154.3z M298.6,107.5c0,0.3-0.1,0.4,0,0.5
			c1.2,1.9,2.8,3.4,4.5,4.8c0.2,0.2,0.5,0.3,0.8,0.3c0.8,0.1,1.5,0.2,2.3,0.3c1.7,0.1,3.3,0,5,0.2c1.5,0.2,3,0,4.6,0.3
			c1.7,0.3,3.5,0.2,5.2,0.3c4.3,0.3,8.7,0.2,13,0.3c0.5,0,0.9,0.1,1.4,0.2c0.9,0.2,1.8-0.3,2.1-1.1c0.1-0.3,0.3-0.6,0.3-1
			c0.1-0.6-0.1-0.8-0.7-1c-0.9-0.3-1.9,0-2.7-0.3c-1.1-0.3-2.2-0.2-3.3-0.4c-1.6-0.2-3.2-0.4-4.8-0.6c-1.6-0.2-3.3-0.3-4.9-0.5
			c-1.5-0.2-2.9-0.3-4.4-0.5c-1.6-0.2-3.3-0.3-4.9-0.6c-1.2-0.2-2.4-0.2-3.6-0.3c-0.1,0-0.3,0-0.4,0c-1.2-0.2-2.3-0.4-3.5-0.5
			c-1.9-0.1-3.7-0.2-5.6-0.3C299,107.7,298.8,107.6,298.6,107.5z M313.3,163.5c-0.9-0.5-0.9-0.5-1.6-0.3c-0.3,0.1-0.7,0.1-1,0.1
			c-4.5-0.1-9,0.3-13.4-0.2c-1.4-0.2-2.9,0-4.3-0.2c-1.7-0.2-3.5-0.1-5.2-0.3c-1.7-0.2-3.4,0-5.1-0.2c-2.2-0.3-4.5-0.2-6.7-0.3
			c-3.6-0.1-7.2-0.2-10.8,0.2c-1.3,0.1-2.7,0-4,0.3c-1.3,0.3-2.7,0-4,0.4c-0.6,0.2-1.2,0.2-1.3,0.8c-0.1,0.6,0,1.2,0.1,1.8
			c0,0.1,0.3,0.3,0.5,0.3c1,0,1.9,0.1,2.9,0.2c1.9,0.2,3.8,0.1,5.8,0.2c2.2,0.2,4.4,0.2,6.6-0.2c1.6-0.3,3.2,0,4.8-0.3
			c1.4-0.2,2.8-0.1,4.2-0.2c1.8-0.1,3.7-0.3,5.5-0.3c1.7-0.1,3.4-0.2,5.1-0.3l0.1,0c1.5-0.6,3-0.1,4.5-0.5c1-0.3,2.2-0.1,3.2-0.3
			c1.8-0.3,3.7-0.2,5.5-0.3c2.7-0.1,5.3-0.2,8-0.3C312.8,163.8,313,163.6,313.3,163.5z M364.5,53.5c0.2,0.4,0.2,0.8,0.5,1
			c0.7,0.8,1,1.8,1.3,2.8c0.5,1.5,0.8,3.1,0.8,4.7c0,0.9,0.1,1.1,1,1.4c0.3,0.1,0.7,0.2,1,0.2c1.3,0.2,2.5,0.5,3.8,0.7
			c1.3,0.2,2.5,0.4,3.8,0.6c0.9,0.1,1.7,0.1,2.6,0.3c1.7,0.4,3.3,0.6,5.1,0.4C383,62.5,369.7,53.9,364.5,53.5z M351.6,49.5
			c0.5,0.5,0.8,0.7,1.1,1c0.8,0.9,1,1.6,0.1,2.6c-0.6,0.7-1.3,1-2.1,1.3c-0.8,0.2-1.1,0.1-1.6-0.6c-0.5-0.8-0.4-1.6-0.2-2.4
			c0.2-0.6,0.2-1.1,0.1-1.7c-1.7,0.2-3.4,0.4-5.1,0.6c-0.3,1.7,0.1,3.2,1,4.6c0.6,1,1.5,1.7,2.7,1.8c2.7,0.3,5.1-0.5,7.4-2
			c0.8-0.5,1.3-1.1,1.8-1.9c0.3-0.5,0.4-1.1,0.2-1.7c-0.3-1.1-1.1-1.8-2.2-1.8C353.8,49.5,352.8,49.5,351.6,49.5z M215.6,123
			l-0.2,0.2c1.3,1.2,2.7,2.5,4,3.7c0.8,0.7,1.6,1.5,2.4,2.2c1.8,1.6,3.7,3.1,5.4,4.7c1.2,1.1,2.4,2.3,3.7,3.4
			c0.8,0.7,1.6,1.5,2.4,2.2c0.2,0.2,0.5,0.3,0.9,0.6c0-1.6,0-3.1,0-4.6c0-0.6-0.2-1.2-0.9-1.5c-0.6-0.3-1.2-0.8-1.7-1.1
			c-1.9-1.2-3.9-2.4-5.9-3.6c-2.4-1.4-4.7-2.9-7.1-4.3C217.8,124.2,216.7,123.6,215.6,123z M358.2,75.2c1.6,0.4,3,0.9,4.4,0.6
			c1.2-0.3,2.4-0.2,3.6-0.4c2.2-0.4,4.3-0.9,6.4-1.7c1.1-0.4,2.2-0.9,3.2-1.7c-1.7-0.1-3.4-0.3-5-0.3c-1.4,0-2.7-0.4-3.9-0.9
			c-0.7-0.3-1.3-0.7-2-1.1C363,71.9,361.1,74,358.2,75.2z M247.7,41.8c0,0.3,0,0.5,0,0.8c0.1,1,0.1,2,0.3,3c0.2,0.9,0.3,1.9,1,2.6
			c0.6,0.6,1.1,1.1,2,1c0.6-0.1,1.2-0.3,1.8-0.4c2.1-0.5,4.1-1,6.2-1.5C256,43.9,252.2,42.4,247.7,41.8z M313.8,117.3l0,0.2
			c1.4,0.1,2.9,0.2,4.3,0.3l0.3,0c0.7,0.4,1.5,0.2,2.2,0.3c0.7,0.1,1.5,0.2,2.2,0.3c1.6,0.1,3.1,0.2,4.7,0.3l0.3,0
			c1.6,0.4,3.2,0.2,4.8,0.5c0.6,0.1,1.2-0.1,1.8,0.2c0.3,0.1,0.7-0.1,1.1-0.2c0.3-0.1,0.5-0.3,0.5-0.7c-0.1-0.4-0.4-0.6-0.8-0.6
			c-1.4,0-2.8-0.1-4.2-0.2c-4.5-0.2-9-0.2-13.5-0.3C316.1,117.2,315,117.3,313.8,117.3z M248.5,51.9c0.1,1.5-0.1,2.9,0.1,4.3
			c2.9-1.1,5.3-2.7,7.4-4.8c-0.6,0-1.1,0.2-1.6,0.3C252.5,52.2,250.6,52.9,248.5,51.9z M298.3,113c-0.9-1.1-1.7-2.1-2.4-3.1
			c-0.9,1-1.8,1.9-2.8,2.8c0.7,0,1.5-0.2,2.2,0C296.2,113,297.1,112.9,298.3,113z M361.3,48.7c0,0.1,0,0.2,0,0.3
			c1.3,0.7,2.7,0.7,4.1,1.1c-0.6-1.5-0.8-1.7-2.2-1.7C362.6,48.5,361.9,48.6,361.3,48.7z M246.8,174.7c-1.5,0.7-1.7,1.1-1.3,2.9
			c0.4-0.1,0.9-0.3,1.3-0.4C246.8,176.4,246.8,175.6,246.8,174.7z M367.8,67.6l0.2-0.2c-0.2-0.2-0.3-0.5-0.5-0.7
			c0,0-0.3,0.1-0.4,0.2l0.1,0.4C367.3,67.4,367.5,67.5,367.8,67.6z M327,176.7c0.4-0.1,0.9-0.1,1-0.6
			C327.4,175.9,327.2,176.4,327,176.7z M326.2,181.5l0.2-0.1l-0.2-0.2c-0.1-0.1-0.2-0.1-0.3-0.1l0,0.2
			C326,181.4,326.1,181.5,326.2,181.5z M231.1,99.9L231.1,99.9L231.1,99.9L231.1,99.9z"/>
		<path id="XMLID_160_" class="st0" d="M89.9,140.5c-0.1-1.1-0.3-2.1-0.3-3.1c0-2.6,1.5-4.3,4-5.1c1.8-0.6,3.6-0.8,5.4-1.2
			c0.7-0.2,1.5-0.1,2.3-0.3c1.1-0.2,2.2-0.1,3.2-0.3c2.1-0.3,4.3-0.7,6.2-1.8c1.3-0.8,2.4-1.7,3.3-3c0.9-1.3,1.9-2.5,3.2-3.4
			c1.1-0.7,2.3-1,3.5-1.3c0.6-0.1,1.2,0,1.8,0.3c2.1,0.9,3.7,2.3,4.5,4.5c0.3,0.8,0.6,1.5,0.5,2.4c-0.1,1.5-0.6,2.8-1.9,3.6
			c-0.1,0.1-0.3,0.2-0.4,0.4c-0.1,0.1-0.1,0.2-0.1,0.3c0.8,0.5,1.7,0.9,2.5,1.5c0.6,0.5,1.2,1,1.7,1.6c0.8,1,0.8,2.3,0.4,3.4
			c-0.6,1.9-1.4,3.6-2.5,5.3c-0.5,0.8-1.3,1.1-2.1,1.1c-1.3,0.1-2.7,0.2-4,0c-1.2-0.2-2.4-0.2-3.7-0.2c-0.5,0-0.9-0.2-1.4-0.3
			c0.6,2.4,1.1,4.7,1.6,7.1c2.4-0.9,4.9-1.8,7.3-2.8c2.1-0.8,4.2-1.7,6.2-2.6c0.2-0.1,0.3-0.1,0.5-0.2c1.7-0.2,4,0.9,4.5,2.5
			c0.3,1,0.4,2.1-0.4,3c-0.7,0.7-1.3,1.5-2.4,1.9c0.2,0.2,0.4,0.3,0.5,0.3c1.2,0.4,1.6,1.4,1.8,2.5c0.2,0.9-0.2,1.8-0.8,2.5
			c-1,1.1-2.3,1.9-3.8,2.2c-0.6,0.2-1.2,0.4-1.9,0.5c-1.2,0.3-2.4,0.6-3.6,0.9c-0.6,0.2-1.3,0.3-1.9,0.4c-0.9,0.1-1.8,0.1-2.7,0.3
			c-3.1,0.5-6.3,0.1-9.5,0.2c-0.4,0-0.9-0.1-1.2-0.3c-0.6-0.4-1.2-0.3-1.7,0.1c-2.2,1.4-4.7,2.3-7,3.5c-1.6,0.8-3.3,1.6-5,2.2
			c-1.5,0.6-3.1,0.7-4.8,0.4c-1.9-0.3-3.7-0.9-5.6-1.1c-1.7-0.1-3.5-0.2-5.2,0.1c-3.4,0.7-6.6,2-9.9,3.1c-1.6,0.6-3.3,1.1-4.9,1.7
			c-1.1,0.4-1.2,0.4-1.1,1.6c0.1,1.5-0.3,2.8-1.2,4c-0.2,0.2-0.3,0.5-0.4,0.7c-1.2,2.6-2.8,4.9-4.7,7c-1,1-1.8,2.1-2.9,3.1
			c-1.7,1.6-3.6,3.1-5.5,4.6c-1.6,1.2-3.3,2-5.2,2.5c-0.9,0.2-1.9,0.2-2.9,0.1c-0.9-0.1-1.4-0.8-1.8-1.6c-0.3-0.7-0.4-1.5-0.4-2.3
			c0-0.2,0-0.3-0.1-0.6c-0.6,0.1-1.1,0.2-1.6,0.3c-2.6,0.7-5.1,1.5-7.7,2.3c-1.4,0.4-2.9,0.8-4.4,0.6c-0.3,0-0.7-0.1-1-0.2
			c-1.4-0.4-2.2-1.5-2.3-2.9c0-1.3-0.2-2.6,0.8-3.6c0.9-1,1.8-1.9,2.9-2.5c1-0.6,2.1-1.2,3.2-1.7c2.5-1.1,5-2.1,7.5-3.1
			c3.6-1.4,7.1-3,10.3-5.2c0.7-0.5,1.5-1.1,2.3-1.6c-0.7-1-1.3-1.8-1.8-2.7c-1-1.6-1.6-3.4-1.9-5.3c-0.2-1.2-0.2-2.3-0.2-3.5
			c0-0.6-0.1-1.3,0.2-1.9c0.1-0.2,0.1-0.6,0-0.9c-0.1-0.2-0.2-0.5-0.4-0.6c-0.6-0.2-1.2-0.3-1.8-0.3c-2.7-0.1-4.8-1.2-6.7-3
			c-2.4-2.2-3.7-5-4.5-8.1c-0.5-1.8-0.5-3.7-0.3-5.5c0.2-1.4,0.6-2.9,1.1-4.2c0.4-0.9,1-1.8,1.9-2.4c1-0.7,2-1.4,3.1-1.8
			c1.5-0.5,2.9-0.7,4.5-0.4c1.5,0.3,2.8,0.8,4,1.7c2,1.4,3.3,3.2,3.9,5.5c0.5,2.1-0.2,3.6-1.9,4.8c-0.3,0.2-0.6,0.6-0.9,0.8
			c-1.1,1-3.1,1.1-4.2,0.2c-0.3-0.2-0.6-0.5-0.5-1c0.1-0.7-0.1-1.5,0.2-2.2c0.3-0.9-0.5-1.5-1.4-1.3c-0.8,0.2-1.4,0.6-2,1.2
			c-0.8,0.9-0.9,1.9-0.5,2.9c0.8,2.1,2.4,3.4,4.4,4.2c1.2,0.4,2.4,0.7,3.6,0.9c1.2,0.2,2.1-0.1,3.1-0.7c0.7-0.4,1.5-0.5,2.3-0.7
			c1.7-0.4,3.5-0.7,5.2-1.2c2.8-0.7,5.7-1.5,8.4-2.6c1.7-0.6,3.3-1.2,4.9-2c2-0.9,4.1-1.6,6.3-2c1.6-0.3,3.2-0.6,4.9-0.8
			c2-0.3,4.1-0.7,6.1-1.1C89.8,140.6,89.9,140.5,89.9,140.5z M61.6,176.8c-0.9,0.7-1.6,1.7-2.4,2.5c-2,2.1-4.1,4-6.3,6
			c-0.6,0.5-1.2,0.9-1.9,1.4c-1.8,1.3-3.7,2.5-5.7,3.5c-0.3,0.2-0.7,0.3-0.7,0.7c0.5,0,0.9,0.1,1.4,0.1c-0.2,1.2-1,1.9-1.9,2.8
			c1-0.1,1.2-0.8,1.6-1.4c0.4-0.6,0.9-0.7,1.4-0.3c0.2,0.1,0.4,0.3,0.6,0.6c1.6-1.3,3.3-2.5,4.9-3.9c2.7-2.5,5.3-5.1,7.1-8.4
			C60.4,179.4,60.9,178.1,61.6,176.8l0.1-0.2L61.6,176.8z M129.5,157c-1.5,0.3-2.8,0.8-4.3,0.8c-0.2,0-0.4,0.1-0.6,0.2
			c-1.5,0.4-3.1,0.8-4.6,1.2c-2.1,0.5-4.1,0.1-6-0.9c-0.5-0.3-0.8-0.7-0.7-1.3c0.1-0.4,0.1-0.8,0.3-1.1c0.4-1.1,0.9-2.2,1.2-3.3
			c0.1-0.4,0.1-1,0-1.4c-0.2-0.8-0.4-1.7-0.7-2.5c-0.2-0.6-0.1-1.4-0.7-1.9c-0.6-0.5-1.4-0.3-2.2-0.3c-1-0.1-1.6-0.6-1.7-1.6
			c-0.1-0.7,0.5-1.6,1.3-1.9c1.2-0.4,2.4-0.7,3.6-0.9c1.1-0.1,2.1-0.3,3.2,0.1c0.2,0.1,0.5,0,0.7,0c-0.5-0.4-1.1-0.8-1.8-1.2
			c0.9-0.8,1.9-0.8,2.7-0.7c1.5,0.1,2.9-0.1,4.2-0.8c-1.4-1.3-1.7-2.8-0.7-4.4c-1.4-0.5-2.9-0.8-4.3-1c-2.2-0.3-4.3-1-6.5-1.2
			c-1.9-0.2-3.8-0.1-5.7,0.4c-1.6,0.4-3.2,0.8-4.9,0.6c-0.4,0-0.8,0-1.2,0c-0.9,0.1-1.9,0.3-2.8,0.5c-1.2,0.3-2.4,0.4-3.5,1
			c-0.9,0.5-1.4,1.3-1.3,2.4c0.1,1,0.4,2,0.8,3c0.4,0.9,1.1,1.5,2.1,1.8c1.1,0.3,2.3,0.2,3.4,0.2c0.5,0,0.9-0.4,1.2-0.9
			c0.2-0.6,0.7-1,0.9-1.6c0.3-0.7,0.8-0.9,1.4-1c0.7-0.2,1.3,0.1,1.3,0.8c0.1,0.6,0.1,1.2-0.2,1.8c-0.5,0.7-0.9,1.5-1.3,2.2
			c-0.7,1.3-1.9,1.7-3.3,1.7c-0.9,0-1.9-0.1-2.8,0c-1.5,0.2-2.7-0.5-3.7-1.4c-0.8-0.8-1.7-0.8-2.6-0.7c-2.2,0.4-4.3,0.8-6.5,1.2
			c-1.7,0.3-3.4,0.6-5.1,1c-2.2,0.5-4.4,1.3-6.5,2.2c-1.5,0.7-3.1,1.3-4.7,1.8c-1.3,0.5-2.6,0.8-3.9,1.2c-2.5,0.7-5,1.5-7.6,2
			c-2.5,0.5-4.9,0.9-7.4,1c-0.1,0-0.3,0-0.4,0c-1.1,0.6-2.1,0.1-3.1-0.2c-2.2-0.6-4-1.9-5.5-3.7c-1.2-1.5-2-3.1-1.9-5.1
			c0.2-2,1-3.6,2.8-4.5c1.2-0.6,2.4-0.9,3.8-0.8c2.2,0.1,3.2,1.1,3.3,3.2c0,0.4,0,0.8,0.1,1.5c0.7-0.5,1.3-0.9,1.5-1.6
			c0.1-0.2,0.2-0.3,0.2-0.5c-0.4-1.4-0.8-2.7-2-3.6c-1.5-1.1-3.1-2-5.2-1.8c-1.9,0.2-3.5,1-4.6,2.5c-1.2,1.6-1.2,3.7-1.4,5.6
			c-0.1,0.9,0.3,1.9,0.5,2.8c0.6,2.2,1.5,4.3,3,6c1.7,1.9,3.9,2.8,6.4,2.9c1,0.1,2,0,3,0c0.5,0,1,0.2,1.5,0.3
			c0.4,0.1,0.6,0.4,0.5,0.8c0,0.3-0.1,0.7-0.2,1c-0.7,1.7-1.2,3.4-1.1,5.3c0,0.3,0,0.6,0,0.9c-0.1,1.3,0.3,2.6,0.9,3.8
			c0.6,1.4,1.5,2.7,2.6,3.7c1.2,1.1,1.5,2.8,0,3.9c-0.5,0.4-1.1,0.9-1.6,1.3c-1.8,1.7-3.9,3-6.1,3.9c-3,1.3-6.1,2.4-9.1,3.6
			c-3,1.2-5.8,2.6-8.5,4.4c0.4,0.2,0.8,0.3,1.3,0.5c-0.3,0.5-0.7,0.9-1,1.4c0.5,0,1,0.1,1.4,0.6c0.2,0.3,0.5,0.3,0.9,0.1
			c1.6-0.5,3.1-1,4.7-1.4c3.3-0.9,6.6-2,9.7-3.5c3.5-1.7,6.5-4.1,9.4-6.8c1.2-1.1,2.3-2.4,3.4-3.6l0.2-0.2c1.6-2.3,3.8-3.8,6.1-5.2
			c1.5-0.9,3.3-1.3,5-1.9c2-0.7,4-1.3,6-2c2.6-0.9,5-2.1,7.8-2.2c1.7-0.6,3.4-0.1,5.1,0.3c1.1,0.2,2.2,0.6,3.4,0.9
			c0.7,0.2,1.4,0.4,2.1,0.4c1.2,0.1,2.4-0.4,3.5-0.9c3.5-1.7,7-3.4,10.5-5.1c1.2-0.6,2.5-0.7,3.8-0.3c0.3,0.1,0.7,0.2,1,0.2
			c2.7,0.2,5.3-0.2,8-0.3l0.1,0c1.5-0.3,3.1-0.5,4.6-0.8c1.9-0.4,3.9-0.8,6-1.2C130,158.1,129.1,157.9,129.5,157z M114.2,130
			c0.6,0.1,1.1,0.3,1.7,0.4c1.2,0.2,2.5,0.2,3.7,0.6c1.2,0.4,2-0.1,2.6-1c0.2-0.3,0.5-0.4,0.8-0.7c0.3-0.3,0.8-0.6,0.9-1
			c0.2-0.8,0.1-1.5-0.5-2.2c-0.7-0.8-1.5-1.1-2.4-1.6c-0.3-0.2-0.8-0.4-1.1-0.3c-0.6,0.2-1.4,0.3-1.8,0.9c-0.8,1.1-1.7,2.1-2.6,3.1
			C115.2,128.8,114.7,129.4,114.2,130z M132.2,151c-0.3-0.3-0.8,0.1-1-0.5c-0.2-0.6-0.6-0.5-1.2-0.3c-1.6,0.7-3.3,1.3-4.9,1.9
			c-2.1,0.8-4.2,1.6-6.2,2.5c-0.7,0.3-1.6,0.5-2.1,1.4c0.6,0,1.1,0.1,1.6,0c1.8-0.3,3.5-0.7,5.3-1c1.1-0.2,2.2-0.3,3.3-0.6
			c0.5-0.1,1.1-0.2,1.3-0.9c0.1-0.6,0.6-0.8,1.1-1.1C130.3,152.1,131.2,151.5,132.2,151z M123.2,141.7l0,0.2c0.3,0,0.5,0,0.8-0.1
			l0-0.1C123.7,141.7,123.4,141.7,123.2,141.7z M118.9,142.2L118.9,142.2c0.2,0.1,0.4,0.1,0.6,0.1l0-0.1
			C119.3,142.2,119.1,142.2,118.9,142.2z M132.7,150.8L132.7,150.8L132.7,150.8L132.7,150.8z"/>
		<path id="XMLID_163_" class="st0" d="M279.8,19.3c1.7-1.8,3.7-2.6,5.9-2.4c3.8,0.3,5.9,3.5,4.8,6.8c-0.4,1.3-0.9,2.6-1.5,3.8
			c-1.4,3-2.9,5.9-4.3,8.9c-0.4,0.9-0.8,1.7-1.2,2.6c-0.5,1-1.1,1.7-2.3,1.7c-0.2,0-0.4,0.1-0.6,0.2c-0.7,0.2-1.1,0-1.6-0.6
			c-1.3-1.6-2.7-3.1-4-4.7c-1.9-2.3-3.8-4.5-5.5-6.9c-0.8-1.1-1.3-2.3-1.5-3.7c-0.3-1.6-0.2-3.2-0.2-4.8c0-1.7,1.1-3,2.7-3.4
			c1.3-0.3,2.6-0.6,4-0.6c0.2,0,0.5,0.1,0.7,0c1.7-0.6,2.8,0.3,3.8,1.5C279.2,18.3,279.5,18.7,279.8,19.3z M280.9,37.5
			c0.8-1.7,1.4-3.1,2.1-4.6c1.4-3,2.9-6,4.4-9c0.4-0.7,0.4-1.5,0.3-2.2c-0.1-0.8-0.7-1.4-1.6-1.6c-1.6-0.3-2.8,0.4-3.9,1.5
			c-0.6,0.6-0.9,1.4-1.4,2c-0.4,0.5-1,1-1.5,1.4c-1,0.5-1.8,0.2-2.1-0.9c-0.2-0.6-0.2-1.2-0.3-1.8c0-0.3,0-0.7,0-1.1
			c-0.2-1.3-0.3-2-2-1.9c-0.4,0-0.7,0-1.1,0c-2,0.1-3.3,1.7-2.9,3.6c0.1,0.5,0.1,0.9,0.3,1.4c0.3,1,0.5,1.9,1.3,2.7
			c0.2,0.2,0.4,0.6,0.6,0.8c0.8,1,1.6,2,2.4,2.9c1,1.2,1.9,2.5,2.9,3.6C279,35.4,279.9,36.3,280.9,37.5z"/>
		<path id="XMLID_164_" class="st0" d="M232.4,38.3c0.5,0.5,0.7,0.9,1,1.2c0.5,0.6,1.1,0.9,2,0.9c1.5,0,3.2,2.3,2.2,3.7
			c-0.1,0.1-0.2,0.3-0.3,0.4c-1.2,0.6-2.3,1.3-3.6,0.6c-0.8-0.4-1.8-0.4-2.6-0.7c-1-0.4-1-0.3-0.9-1.3c0.1-0.6-0.1-1.2-0.2-1.7
			c-0.2-0.8-0.2-0.8,0.6-0.8l0.1,0c0.6,0,0.9-0.1,1-0.8C231.9,39.5,232.1,39.1,232.4,38.3z"/>
		<path id="XMLID_165_" class="st0" d="M368.2,56.6c0.5,0,0.8,0.3,0.9,0.6c0.1,0.2-0.1,0.6-0.2,0.8c-0.1,0.3-0.3,0.6-0.7,0.4
			c-0.4-0.2-0.7-0.7-0.7-1.1C367.6,56.9,367.8,56.7,368.2,56.6z"/>
		<path id="XMLID_166_" class="st0" d="M249.1,44.6c0.3-0.2,0.6-0.4,0.9-0.6c0.4,0.2,0.8,0.4,1.2,0.6c0,0.1,0,0.3,0,0.3
			C250,46.1,249.9,46.1,249.1,44.6z"/>
		<path id="XMLID_167_" class="st0" d="M112.2,135.9c0.3,0.9-0.5,1.3-1.1,1.9c-0.1,0.1-0.3,0.1-0.5,0.1c-0.7-0.3-1.4-0.4-1.9-1.1
			c-0.4-0.5-0.6-1-0.6-1.7c0.1-0.9,0.5-1.4,1.5-1.5c0.1,0,0.3,0,0.4,0C111.4,133.4,112.3,134.4,112.2,135.9z"/>
	</g>
</g>
<g id="Layer_2" class="st1">
</g>
</svg>
