<?xml version="1.0" encoding="utf-8"?>
<!-- Generator: Adobe Illustrator 19.0.0, SVG Export Plug-In . SVG Version: 6.00 Build 0)  -->
<svg version="1.1" id="Layer_1" xmlns="http://www.w3.org/2000/svg" xmlns:xlink="http://www.w3.org/1999/xlink" x="0px" y="0px"
	 viewBox="0 0 2180 3344" style="enable-background:new 0 0 2180 3344;" xml:space="preserve">
<style type="text/css">
	.st0{fill:#FFFFFF;}
</style>
<g id="XMLID_336_">
	<path id="XMLID_447_" class="st0" d="M899.9,996.1c-9.1-4.8-18.6-8.9-27-14.7c-4.7-3.3-7.6-9.3-11.2-14.1c4.8-2.3,10-7.1,14.3-6.4
		c30.7,4.9,61.2,11,91.8,16.6c2,0.4,4.2,0.1,6.3,0.1c-1.4-1.3-3-2.5-4.2-3.9c-7-8.3-14-16.8-21-25.2c11.1-0.4,22.9-3.3,33.2-0.6
		c23.2,6.2,45.6,15.3,68.3,23.2l0.3,0.2l-0.3-0.2c-4.5-2.9-9.9-4.9-13.1-8.8c-4.4-5.3-7-12.1-10.4-18.3c6.1-1.6,12.9-6,18.1-4.5
		c40,11.6,79.7,24.3,119.5,36.6c2.4,0.8,7.3,1.3,7.5,0.7c6.1-18.6,17.5-7.3,25.2-3.3c19.9,10.5,38.9,22.9,58.3,34.4
		c2.5,1.5,5.4,2.1,8.2,3.1c-0.3-3.5,0.3-7.6-1.1-10.5c-7.8-15.4-14.9-31.5-24.8-45.5c-11.2-15.8-2.2-26.7,6-38
		c1.1-1.5,9,0.2,12.4,2.5c2.9,1.9,3.8,6.8,6,10.2c2.3,3.6,5,7,7.5,10.4c1.9-3.3,4.2-6.4,5.8-9.8c5.6-12,13.9-10.8,18.7-1.2
		c8.5,17,14.6,35.1,21.7,52.8c0.7,1.7,1.1,3.5,1.6,5.3c1.4-1.7,3.1-3.1,4.1-5c10.6-18,20.7-36.3,31.9-53.9c2.2-3.5,8.8-4.2,13.4-6.2
		c0.6,4.1,2,8.2,1.8,12.2c-2.6,35.8-5.5,71.7-8.2,107.5c-0.2,2.1,0.4,4.2,0.6,6.3c1.3-1.8,2.7-3.4,3.7-5.3
		c15.4-26.5,30.7-53.1,46.5-79.3c1.7-2.7,8.6-5.5,10.3-4.3c3.4,2.4,4.4,7.8,7.2,11.4c2.1,2.7,5.5,4.3,7.9,6.8
		c3.9,4.1,11,8.8,10.7,12.8c-1.9,29.8-5.4,59.6-8.1,89.3c-0.3,3.6,0.6,7.3,1,11c1.4-3.5,2.7-7,4.2-10.4
		c15-34.7,29.9-69.4,45.6-103.8c1.5-3.3,10.1-6.7,12.7-5.3c6.2,3.3,11,9.4,15.8,14.8c1.6,1.8,1.7,4.9,2.5,7.4
		c1.2-0.9,2.7-1.5,3.6-2.6c13.5-15.5,21.8-15.8,36.9,1.1c7.5,8.3,12.8,18.5,22.1,2c0.7-1.2,9-0.5,9.3,0.7c1.5,4.8,3.4,11.6,1.2,15.1
		c-6.9,10.9-9.1,19.5,0.2,31.1c9.6,12.1,15.9,15.4,24.9,0.4c1.8-3,7.4-3.8,11.2-5.6c1.4,4.4,5,9.3,4,13.1
		c-10.8,42-20.7,84.4-34.3,125.6c-8,24.2,0.4,44.1,7.4,65.2c0.5,1.5,2.4,2.5,3.6,3.8c1.4-1.7,2.8-3.5,4.2-5.2
		c5.7-7.1,11.5-14.2,17.2-21.3c0,9.1,0.1,18.2,0,27.3c0,1.3-0.9,2.5-1.2,3.8c-7,26.3-6.9,25.7,20.5,27.7c4.5,0.3,8.4,9.5,12.5,14.6
		c-5.1,4.2-11.1,12.6-15.3,11.8c-24.9-4.9-18.3,8.5-13.7,21.4c9,25.2,17.9,50.5,26.9,75.7c0.5,1.4,1.7,2.6,2.5,3.9
		c0.4-1.5,0.7-2.9,1.3-4.3c2.9-7.4,5.9-14.7,8.9-22.1c2.1,7.2,6.4,14.6,6,21.7c-3.4,52.8,27.5,94.9,43.1,141.7
		c1.5,4.5-2.7,10.8-4.2,16.3c-3.8-2-7.8-3.6-11.4-6c-3.4-2.3-6.4-5.4-9.6-8.1c-2,6.5-6.6,13.5-5.5,19.4c4.8,24.9,10.5,49.7,17.7,74
		c4.4,14.9,13.4,28.5,17.6,43.4c1.7,5.8-4,13.7-6.3,20.7c-3.9-3.9-8.4-7.3-11.5-11.7c-3.2-4.6-4.9-10.3-7.2-15.5
		c0.3,5.5,0.5,11,1,16.5c1.2,15.2,1.7,30.6,3.9,45.6c0.8,5.7,7,10.4,8.6,16.1c2,7.3,2.5,15.2,2.2,22.7c-1.5,39-3.5,78-5.2,117
		c-0.1,3-0.5,6.5,0.9,8.8c2.1,3.5,5.5,6.1,8.4,9.1c0.8-3.1,1.5-6.3,2.3-9.4c7.5-29.8,14.8-59.7,23.1-89.3c0.4-1.6,9.8-0.9,14.9-0.6
		c0.6,0,1.9,5.1,1.1,7.2c-24.4,62.6-34.9,128-39.4,194.5c-0.6,9.5,4,19.3,6.4,28.9c5.3,21.5,10.8,43,15.9,64.6
		c0.5,1.9-1.4,4.4-2.2,6.6c-1.7-1.9-3.5-3.8-5.2-5.7c-3.3-3.5-6.4-7.2-9.8-10.6c-10.6-10.5-21.3-20.9-32-31.4l0.2-0.1
		c-2.8,16-5.6,32-8.4,48l0-0.2c-1.2,3.6-2.4,7.3-3.8,10.9c-0.7,1.8-3,3.4-2.9,4.9c3.3,42.5-13.3,76.7-44.1,104.6
		c-3.1,2.8-10.4,0.5-15.3,1.9c-3.6,1-9.6,4.1-9.6,6.2c-0.1,17.9,1.9,35.8,1.2,53.6c-0.2,5-7,9.7-10.8,14.5c-4.3-5-11.7-9.6-12.4-15
		c-1.7-14.2-0.4-28.8-0.5-43.2c0-1.9-1.5-3.7-2.3-5.6c-1.2,1.5-2.1,3.2-3.6,4.4c-5.2,4.1-10.5,7.9-15.8,11.9
		c-2.8-6.2-7.4-12.2-8-18.6c-3.3-35-5.8-70.1-8.4-105.1c-3-41-4.7-82.1-8.9-123c-3.1-30.4-9.4-60.5-14.3-90.7
		c-0.3-1.6-0.2-3.3-0.1-4.9c0.9-12.7,0.6-11-7.5-12.5c-4.8-0.9-11.9-8.4-12-13c-0.3-21.5,2.9-43.1,2.2-64.6c-0.7-20-4.7-40-7.3-60
		l0.2-0.1c-1.2-0.8-3.5-1.4-3.5-2.3c-1.9-32.5-4.3-64.9-4.9-97.4c-0.2-12.2,4.1-24.4,5.9-36.7c0.2-1.6-2.2-5.1-3.4-5.2
		c-12.8-0.6-16-5.7-11.9-18.2c6.8-21,9.4-43.8,18.5-63.7c30.8-66.9,7.6-136.2,11.4-204.3c0.1-2.4-2.6-5-4.1-7.6
		c-1.4,2.2-3.9,4.3-3.9,6.5c-0.5,91.3-22.3,177.9-56.9,261.7c-24.5,59.3-46.4,119.9-74.9,177.3c-19.6,39.5-48.1,74.7-73,111.6
		c-5.6,8.3-11.5,16.6-18.7,23.3c-19.1,18-38.9,35.2-58.5,52.8c-2.4,2.2-4.5,4.7-6.7,7c2.4,0.4,6.1-0.1,7.1,1.3c2.7,3.9,6,8.6,6,13
		c-0.1,17-1.6,33.9-1.8,50.9c0,1.9,5,5.2,7.8,5.4c7.7,0.4,15.5-0.6,23.3-1.1c-5.6,4.1-10.7,10-17,12c-16.5,5.2-22,15.2-19.6,32
		c10,69,0.5,137.9-1.7,206.8c-0.1,3.1,7.4,9.5,10.7,9.1c62.6-7.4,124.8-4.6,185.1,13.3c38.7,11.5,75.6,29.2,113,44.9
		c34.5,14.6,72.5,24.9,102,46.6c79.3,58.3,125.1,136.9,130.5,238.1c3.6,68,12.7,135.7,19.7,203.5c0.7,6.8,4.9,13.2,5.6,20
		c0.5,4.4-2.5,9.2-3.9,13.7c-4.7-2.6-10-4.5-13.9-8c-4.1-3.6-6.7-8.9-10.2-13.2c-2-2.5-4.7-4.5-7-6.7c2.7,0.4,5.5,1.6,7.9,1
		c1.2-0.2,2.5-3.7,2.4-5.6c-8.1-84.1-15.5-168.2-25-252.1c-4.5-39.7-27.2-72.2-48-105.3c-41.1-65.4-103.5-98.4-175-118.6
		c-6.1-1.7-12.4-2.9-18-5.5c-15-7-15.3-1.5-13.6,12.2c4,31.2,0.1,64.6,9.6,93.8c19.9,61.5,27.8,124.8,33.3,188
		c5.3,60.2,1.8,121.2,0.8,181.8c-0.6,40.4,2.1,79.7,21.1,116.4c10.2,19.7,2.9,35.1-23.4,45.3c-49.3,19.1-98.5,39.2-153.1,37.4
		c-8.4-0.3-16.9,3.1-25.3,4.6c-29.9,5.4-59.8,10.5-89.6,16c-17.9,3.3-35.6,8.2-53.6,10.7c-29,4-59.4,13.5-86.9,8.5
		c-51.3-9.4-100,2.3-149.8,5.8c-16.2,1.2-32.9,2.6-48.6,0c-6.9-1.2-14.4-11.4-17.8-19.1c-30.7-70.4-38.5-142.2-13.3-216.6
		c25.3-74.8,50.6-149.7,71.8-225.8c10.5-37.8,19.8-79.1,15.3-117.1c-4.7-39.8-1.5-77.1,3.6-115.5c0.3-2-0.6-4.1-1-6.2
		c-1.1,1.9-2.4,3.8-3.3,5.7c-17.4,35-34.2,70.3-52.4,104.9c-5.6,10.6-14.5,19.8-23.1,28.5c-2.4,2.4-8.7,1-13.2,1.3
		c0-4-1.7-9.3,0.2-11.9c15.1-20.9,30.9-41.3,46.3-62c1.6-2.2,2-5.4,2.9-8.1c-2.9,0.9-6.4,1.1-8.7,2.9c-23.8,19-46.8,39.2-71.4,57.2
		c-16.4,12-37.2,18.4-52,31.8c-25.5,23.1-50,47.5-60.9,82.5c-4.7,15.1-19.2,27.3-23.6,42.4c-9,31-15.3,63-20.8,94.9
		c-6.7,38.7-12.9,77.5-16.3,116.5c-1.7,19.5,2.2,39.8,5.7,59.4c1,5.5,9.8,9.2,14.3,14.4c8.2,9.5,16.1,19.3,23.4,29.4
		c1.5,2,0.8,7.9-1.1,9.4c-1.8,1.5-7,1-9.6-0.5c-44.1-26.9-52.5-53.3-49.6-104.1c3.7-63.7,20.3-124.7,31.3-186.8
		c4.1-23.2,19.6-44.5,29.9-66.6c8.9-19.2,14.8-40.8,27.6-56.9c18.4-23.2,39.9-45.1,63.6-62.9c37.7-28.2,78.6-52,117.3-78.9
		c7.5-5.2,11.7-15.7,16.1-24.5c7.6-15.3,13.6-31.5,21.5-46.7c2.5-4.8,11.9-7.4,12.4-11.6c0.6-5.9-4.2-12.4-6.8-18.6
		c-1.4-3.3-4.1-6.4-4.2-9.7c-1-38.9-1.2-77.8-2.4-116.7c-1.5-48.9-3.8-97.8-5.7-146.7c-1.3-31.6-2.5-63.1-3.7-94.7
		c-0.2-4.3-1-9.3,0.8-12.9c10.3-21.3-2.6-33.5-15.8-47.3c-25.8-26.9-52.4-53.4-74.7-83.2c-48.7-65.1-78.8-139.5-96.5-218.2
		c-15.6-68.9-26.2-139-38.8-208.6c-3.3-18.5-5.8-37.2-9.1-55.8c-0.4-2.2-4.3-5.7-6-5.4c-4.8,0.8-12.3,2.3-13.4,5.4
		c-4,10.8-4.6,22.9-8.8,33.6c-1.9,4.8-9.3,7.5-14.2,11.1c-2.4-4.2-6.8-8.3-6.9-12.5c-1.5-57.6-0.4-115.1,15.5-171.3
		c1.6-5.7-1.4-15.3-5.8-19.6c-10.1-9.9-22.8-17.1-33.3-26.6c-4-3.6-5.1-10.6-7.5-16c4.1-1,9.6-4.3,12-2.7
		c17.6,11.7,23.4,7.7,23.4-13.4c0-14,10.5-29.4-12.6-35.2c-2.9-0.7-3.6-10-5.3-15.3c4.3-1,8.6-2.5,13-2.8
		c14.6-1.2,29.4-3.5,43.9-2.4c10.5,0.8,20.8,6,31,9.6c2.2,0.8,3.8,3.3,5.7,5c0.2-2.8,0.9-5.7,0.4-8.4c-3.9-21.5-8.8-42.8-11.8-64.4
		c-0.8-5.6,3.9-12,6.1-18c3.5,4.1,9.5,7.9,10.1,12.4c4.7,34.8,37.5,22.9,56,34.5c2.3,1.5,5.9,1,8.8,1.6c6,1.4,12,3,18,4.6
		c-5.3-3.7-10.6-7.3-15.8-11c-19.5-13.7-39.4-27.1-58.2-41.6c-3.8-2.9-3.9-10.7-5.7-16.3c4.8-0.4,9.9-1.9,14.5-0.9
		c38.9,8.6,77.6,17.7,116.4,26.7l0.4-0.4L899.9,996.1z M1690.4,2077.3l-0.1,0.2c-0.1-1-0.3-2-0.4-3.1l0.5,0l-0.5,0.3
		C1690,2075.6,1690.2,2076.5,1690.4,2077.3z M818.9,1043l-0.3,0.1l0.5,0c0.5,0.8,1,1.5,1.5,2.3c-7.6-2.5-15.3-5-22.9-7.4
		c-2-0.6-4.2-0.5-6.3-0.8c1.2,2.1,1.9,4.8,3.7,6.1c16.1,11.6,32,23.6,49,33.6c2.9,1.7,11.2-5.5,16.7-9c1-0.7,1.1-5.3,0.5-5.6
		c-13.5-5.8-27.1-11.3-40.7-16.8C819.9,1044.7,819.4,1043.8,818.9,1043z M1576.5,1568.9l-0.2,0l0.3,0.2l0,0.4L1576.5,1568.9z
		 M1694.3,2055.6l0.2-0.1c0.4,0.4,0.8,0.7,1.2,1.1C1695.2,2056.3,1694.7,2055.9,1694.3,2055.6z M1674.4,1923.5l0.2-0.2
		c0.1,0.3,0.2,0.6,0.4,0.9c0.1,0.1,0.5,0,0.7,0.1C1675.3,1924,1674.8,1923.7,1674.4,1923.5z M1700.2,1931c0.5-0.4,0.9-0.9,1.4-1.3
		c-0.3-0.2-0.6-0.3-0.9-0.5c-0.1,0.6-0.2,1.3-0.3,1.9L1700.2,1931z M1632.5,1863.4l0.2-0.2c0.1,2.2,0.1,4.4,0.2,6.6
		c-0.6,1.3-1.1,2.7-1.7,4c0.5,0.2,0.9,0.3,1.4,0.5c0.1-1.5,0.1-3.1,0.1-4.6C1632.7,1867.6,1632.6,1865.5,1632.5,1863.4z
		 M1656.5,2103.2c0.7,0.7,1.5,1.5,2.2,2.2c-1.6,7-3.4,14-4.7,21.1c-5.2,26.9-10.3,53.9-15.4,80.8l-0.2,0.3l0.2-0.4
		c7.2-11.1,17.2-21.4,21-33.6c10.4-33.4,19-67.4,26.6-101.6c2.7-12.1,0.5-25.3,0.2-37.9c0-0.9-3-1.8-4.5-2.7
		c-3.5,7.6-8,14.9-10.3,22.9c-3.8,13.5-6.1,27.4-9,41.1c-0.8-0.7-1.7-1.4-2.5-2.1c-0.4,1.4-0.9,2.7-1.3,4.1
		c-0.7,0.7-1.4,1.4-2.1,2.1c-1.3,0-2.6,0-4,0.1C1653.8,2100.7,1655.2,2102,1656.5,2103.2z M1581.2,1320.4c-0.1,1.5-0.2,3-0.3,4.5
		c0.4,0,0.7,0,1.1,0c-0.3-1.5-0.5-3-0.8-4.5c-0.4-1.2-0.7-2.4-1.3-3.5c-0.3-0.7-0.9-1.3-1.4-2
		C1579.4,1316.8,1580.3,1318.6,1581.2,1320.4z M1546.5,1881.5l0.1-0.1c0.5,1.7,1.1,3.5,1.6,5.2c0.5-0.3,1-0.5,1.5-0.8
		C1548.7,1884.3,1547.6,1882.9,1546.5,1881.5z M698.8,1280c-0.5,2.1-0.9,4.2-1.4,6.3c0.5,0,1,0.1,1.5,0.1c0-2.2-0.1-4.4-0.1-6.6
		L698.8,1280z M1714.5,1975.2l-0.2,0.2c-1.4-1-2.8-2-4.1-2.9c-0.2,2-0.4,4.1-0.6,6.1C1711.3,1977.4,1712.9,1976.3,1714.5,1975.2z
		 M1658.8,1451c-0.1,0.3-0.2,0.6-0.1,0.9c0,0.2,0.3,0.4,0.5,0.7c-0.2-0.5-0.3-1-0.5-1.5c-2.3-8.6-4.7-17.2-7-25.9
		c-1.8,0.8-3.5,1.5-5.3,2.3C1650.5,1435.4,1654.6,1443.2,1658.8,1451z M1642.5,1547.4l0.4,0.1l-0.4-0.2c-4-8-8-16.1-12-24.1
		c-4.9-13.7-9.7-27.4-14.7-41c-0.3-0.9-1.9-1.4-2.8-2.1c-0.4,1.7-1.6,3.5-1.2,5.1c1.8,8.8,3.7,17.5,6,26.2
		c1.7,6.4-3.4,21.2,12.9,11.7c-0.2,3.5,0.3,7.4-0.9,10.6C1624.8,1547,1631.3,1549.2,1642.5,1547.4z M1556.6,1937.5
		c-1.7-11.8-3.5-23.6-5-35.4c-0.3-2.5,0.6-5.2,0.6-7.8c0-0.3-3.1-1.1-3.2-0.9c-1.6,3.1-4.6,6.6-4.1,9.5c1.8,12.3,4.5,24.5,7,36.8
		c1.1,5.2,2.3,10.4,3.4,15.7c0.4-6,0.8-12,1.2-18L1556.6,1937.5z M1634.5,1829.3c-0.6-1-1.3-2.1-1.9-3.1c-0.3,0.4-0.7,0.9-1,1.3
		c1,0.5,2.1,1.1,3.1,1.6c-1.8,6.5-3.8,13-5.1,19.6c-0.4,2.3,0.6,5.1,1.7,7.3c0.7,1.4,3,1.9,4.5,2.8c0.9-1.9,2.4-3.7,2.6-5.7
		c1.2-14.9,2.4-29.8,3.1-44.7c0.1-2.6-1.8-5.3-2.8-7.9c-0.6,2.8-1.5,5.5-1.8,8.3C1636,1815.7,1635.3,1822.5,1634.5,1829.3z
		 M1662.4,1845.2c3.9-5.8,6.7-15.4,11.8-16.8c17.1-4.7,4-15.8,6.5-23.2c0.1-0.3-2.3-1.4-3.5-2.1c-4.9,14.1-9.7,28.2-14.6,42.2
		c-1.6,2.4-3.2,4.8-4.5,7.3c-0.1,0.2,2.3,1.6,3.5,2.5C1661.8,1851.9,1662.1,1848.5,1662.4,1845.2z M1625.6,2032.4
		c1.8-6.1,4.5-12.2,5.4-18.4c3.4-25.2,6.3-50.5,9.4-75.7c-1.4-0.2-2.7-0.3-4.1-0.5c-3.6,31.6-7.1,63.1-10.6,94.7
		c-0.1,1.8-0.3,3.5-0.4,5.3c0.3,0,0.6,0,0.9,0C1625.9,2036,1625.8,2034.2,1625.6,2032.4z M916.7,981.1c-0.9-0.6-1.9-1.2-2.8-1.8
		c-0.1,0.3-0.2,0.5-0.3,0.8c1.1,0.3,2.2,0.6,3.3,0.8c8.8,6.2,16.9,14.7,26.7,18c7.6,2.5,17.5-1.5,26.3-2.6c-0.8-1.6-1.4-4.3-2.5-4.6
		C950.6,988,933.6,984.6,916.7,981.1z M1672.3,1935.7c0-0.3,0-0.6-0.1-0.9c-0.1-0.2-0.3-0.3-0.5-0.5c0.3,0.4,0.5,0.8,0.8,1.3
		c0.8,11.1,1.4,22.3,2.7,33.3c0.4,3.6,2.6,7,4,10.4c1-3.4,2-6.7,2.8-10.1c1.6-7.1,3.5-14.1,4.5-21.3c1.5-10.9-0.5-23.4,4.2-32.5
		c7.1-13.6,7.1-36.2-3.4-44.6C1691.4,1894,1684.7,1915.4,1672.3,1935.7z M1648.7,2077.5c4-6.6,8-13.2,12-19.8l-0.1-0.1
		c1.4-1.7,3.8-3.2,4.2-5.2c1.5-7.6,2.5-15.3,3.6-22.9c1.1,1.9,2.2,3.9,3.2,5.8c1-2,1.9-3.9,2.9-5.9c-2.1,0.1-4.2,0.2-6.3,0.3
		c1.1-15.8,2.9-31.6,2.9-47.5c0-5.6-4.5-11.1-6.9-16.7c-0.3,4.4-0.3,8.9-1,13.3c-4.7,33-9.6,65.9-14.4,98.8L1648.7,2077.5z
		 M1694.7,1963.8c-1.5,0.8-4.2,1.5-4.2,2.3c-0.6,16.5-5.5,34.8-0.1,49.1c8.9,23.6,24.4,44.8,37.4,66.8c1.1,1.8,4.2,2.5,6.4,3.7
		c0.5-2.4,1.7-4.9,1.3-7.2c-1.6-8.5-3.5-16.9-5.9-25.2c-1.1-3.8-3.7-7.2-5.6-10.8c-0.4,3.7-0.6,7.5-1.2,11.2
		c-0.6,3.5-1.6,6.9-2.4,10.4c-0.6-3.2-1.6-6.4-1.8-9.6c-0.3-6.6,1.2-13.6-0.3-19.9c-4.2-17.5-9.3-34.7-14.7-51.9
		c-2.1-6.6-6-12.7-9.1-19c1.2-1.4,2.4-2.7,3.6-4.1c-0.4-0.2-0.8-0.4-1.2-0.6C1696.2,1960.5,1695.5,1962.2,1694.7,1963.8z
		 M1006.2,1185.2l0.2,0.2c-16.9-4.3-33.7-11.7-50.7-12.3c-38.8-1.3-45.2,10.3-28.5,45.1c2.6,5.4,5.8,10.7,6.8,16.4
		c0.8,4.9-1.2,10.3-2,15.5c-5-2.2-12.9-3.2-14.5-6.9c-6.1-14.3-10.2-29.5-15.3-44.2c-0.5-1.5-4-3.5-4.5-3.1
		c-34.1,24.8-60.7,54.4-60.1,99.9c0,3.1,4,8.6,6.6,8.9c13.5,1.5,27.4,0.5,40.7,3c5.8,1.1,10.5,8.3,15.7,12.7
		c-5.8,3.9-11.4,10.5-17.6,11.1c-10.4,0.9-21.1-1.6-31.6-3.4c-10.4-1.8-15.3,1.5-9.5,11.4c14.3,24.4,28.8,48.9,44.6,72.4
		c16,24,38.5,39.6,67.8,42.6c3.4,0.3,7.9-5.3,11.1-8.8c2.9-3.3,4.2-10.4,7-10.8c8.4-1.3,17.7,2,25.7-0.2
		c38.5-10.7,70.8-28.4,75.6-73.9c1.2-11.2,3.7-22.3,5.6-33.4C1093,1246.7,1074,1209.8,1006.2,1185.2z M1346.8,1443.4
		c4.6,1.3,11.9,1.3,13.1,4c1.8,3.9,1,12.6-1.9,14.5c-16.7,11.2-33.5,23.1-51.8,31c-36.3,15.7-51.8,10.6-77.1-18.5
		c-24.5-28.1-50.3-54.9-74.8-82.9c-16.2-18.5-31.3-38-46.8-57c-1.6-2-3-4.2-4.5-6.3c-0.8,2.7-2,5.4-2.4,8.2
		c-7.1,49.3-16.4,97.2-74.7,112.5c-4.8,1.3-10,2.4-14,5c-2.6,1.7-3.5,6.1-5.2,9.2c-2.6,5-5.9,14.5-7.9,14.2c-26.6-3.5-56-2.5-79-14
		c-47.8-23.8-79.7-65.4-94.5-116.7c-5.5-18.9-12.6-23.8-29.8-21.5c-9,1.2-18.3,0.6-27.4,1.2c-1.8,0.1-4.8,2-5,3.5
		c-3,19-8.8,38.2-7.7,57c6.1,107.1,29.5,210.8,68.5,310.7c26.2,67.1,66.4,125.3,117.8,176.4c42.1,41.8,80.7,87.5,138.6,108.4
		c23,8.3,47,13.7,70.5,20.7c3.9,1.2,7.4,3.6,11.1,5.4c-4.1,0.7-8.4,2.6-12.4,2c-11.2-1.5-22.2-4.2-33.3-5.9
		c-2.2-0.3-6.7,1.7-6.7,2.8c-1.6,24.2-3,48.4-3.6,72.6c-0.1,2.6,5.9,8.1,7.8,7.6c31.6-9.3,62.9-19.2,94.2-29.3
		c1.8-0.6,4.1-3.2,4.1-5c0.7-21.2,1.1-42.5,1.4-63.8c0-1.7-1.4-3.5-2.1-5.2c-1.4,1.3-3,2.5-4.2,3.9c-7.4,9.3-14.4,19-22.3,27.9
		c-1.5,1.7-7.8,2-9.1,0.5c-2.2-2.4-4.1-8.6-2.7-10.2c18-20.2,36.2-40.4,55.2-59.7c15.8-16,33-30.7,49.1-46.4
		c6.4-6.2,12.2-13.3,17-20.8c27.8-43.8,56.4-87.2,82.2-132.2c10.2-17.8,12.3-40.1,21-59.1c33.6-73.8,72.2-145.7,83.3-227.6
		c5.5-40.7,10-81.6,13.1-122.5c0.9-11.9-5.6-22-22.2-16.7c-11.6,3.7-24.4,7.3-36.1,6c-18.2-2-24.8,3.5-29.5,21.5
		c-9.8,37-32.2,67.5-59.1,94.5c-9.7,4-19.2,9.6-29.3,11.7c-17,3.6-33.7-8.6-31.9-22c0.2-1.3,4.1-3.5,4.4-3.3c19,19,37.7,6.1,48-6.9
		c19.6-24.9,34.2-53.8,50.4-81.4c8.7-14.8,1.6-24-11.6-31.8c-3.4-2-3.6-9.5-5.3-14.4c5.3-1.1,10.8-2,16-3.6c2.4-0.7,6.5-2.8,6.4-4
		c-1.9-27.7-9.5-53.3-30.8-72.5c-48.3-43.5-106.1-64.8-170.2-66c-50.3-1-87.1,33.9-89.3,84.5c-1.9,42.5,4.6,83.7,36.6,117.2
		c36,37.7,70,77.3,105.3,115.7c5.6,6.1,14,14.6,20.4,14.1C1297.1,1478.3,1325.8,1468.7,1346.8,1443.4z M1137.6,3073.1
		c13.8-1.3,26.1-0.2,36.8-3.8c44-14.8,89.3-19.4,135.2-23.7c40-3.8,80-11.2,119.1-20.8c33.6-8.3,66.2-21.1,98.6-33.6
		c13.2-5.1,17.8-16,8.3-29.8c-5.1-7.3-11.6-15.3-12.6-23.5c-3.6-30.7-6.7-61.5-7-92.4c-0.6-58.2,6.6-117.2,0-174.6
		c-7.1-62.1-11.6-125.2-32.5-185.9c-10.7-30.8-8.6-66.2-11.5-99.6c-2.4-28.2-12.9-41.8-39.6-49.2c-61-17-123.1-26-186.5-22.1
		c-7.1,0.4-13.7,6.3-20.7,9.3c-3.7,1.6-7.8,3.6-11.7,3.6c-30.7-0.2-61.8-3.6-92.2-0.6c-36.9,3.7-73,16.1-110.8,7.9
		c-1.8-0.4-6.4,4.6-6.9,7.5c-3.9,23.3-8.1,46.6-10.4,70.1c-2.3,24-3.1,48.2-3.4,72.3c-0.2,15,3.4,30.2,2.2,45.1
		c-5.9,75.8-24.1,148.2-54.6,218.5c-19.2,44.2-31.2,91.8-43.2,138.7c-14.4,56.5-2,111.7,15.7,165.7c8.8,26.9,14.7,29.8,44.8,26.3
		C1016.3,3071.3,1077.6,3060.7,1137.6,3073.1z M1152.8,998c-0.8,1.8-1.7,3.7-2.5,5.5c9.9,5.2,20.4,9.7,29.5,16.1
		c3.7,2.6,4.7,9.2,6.9,14c-4.7,2.1-10.5,7.2-14,5.9c-16.2-5.8-31.8-13.4-47.6-20.2c-16.7-7.2-33.5-14.4-50.3-21.3
		c-1.4-0.6-3.4,0.5-5.2,0.8c1,0.8,2.3,1.4,2.8,2.4c2.6,4.9,4.9,9.9,7.4,14.9c-5.9,1.4-12.5,5.3-17.7,3.9
		c-27.6-7.5-54.6-20.8-83.9-8.1c-5.3,2.3-17.9-1.1-12.6,13.1c0.6,1.5-10.6,10.2-11.8,9.3c-16.7-12.2-27,0.9-38.8,8.7
		c-7.6,5-12.4,9.4-2,17.1c2.6,1.9,3.7,10.2,1.7,12.8c-2.4,3.2-10.6,6.2-13,4.5c-15.5-11.1-25.8-3.5-35.4,8.3
		c-1.9,2.4-3.2,5.2-4.9,7.8c3.1,1.7,6,4.7,9.2,4.8c12.6,0.7,25.3,0.4,37.9,0.7c5,0.1,11.8-1,14.7,1.7c13.3,12.1,8.4,33.7-9.2,36.1
		c-10.1,1.4-21.1-6.1-32-7.8c-4.7-0.7-13,1.5-14.8,4.9c-5.7,11.2-8.6,23.7-13.6,35.3c-1.6,3.8-6.4,6.3-9.7,9.4
		c-2.3-4.7-5.4-9.3-6.5-14.2c-0.7-3.2,2.5-7,2.4-10.5c-0.1-2.5,9.1-11.6-4-7.9c-0.4,0.1-2.8-3.7-2.4-5.2c1.4-5.1,3.7-9.9,5.4-14.9
		c0.6-1.7,0.4-3.7,0.6-5.6c-1.5,0-3.8-0.6-4.4,0.2c-9.4,10.3-19.8,20.1-26.8,31.9c-1.8,3,8.5,12.2,11.6,19.2
		c2.8,6.3,3.4,13.6,5,20.4c-6.5,0.5-13,0.5-19.4,1.5c-4.3,0.7-12,2.6-12,4.2c-0.8,32.9-0.9,65.9-0.5,98.8c0,2.2,4.6,6.4,6.7,6.2
		c6.3-0.7,17.8-2.9,17.8-4.8c1.3-54.4,33.7-89.2,73.3-120c24.7-19.1,52.6-31.8,83.4-26.2c43.4,7.9,81,29.2,112,61.3
		c2,2,4.3,3.7,6.5,5.5c1.1-2.6,2.7-5.2,3.3-7.9c7.2-36.7,39.3-68.1,76.1-74.7c63.3-11.3,119.9,8.5,173.5,39
		c41.2,23.4,68.3,58.8,68.3,107.7c0,22.7,9.7,25.6,26.7,23.6c11.1-1.3,22.2-4.1,33-7c2.4-0.6,5.9-4.3,5.8-6.4
		c-1.4-26.6,3.1-54.2-12-78.7c-3.1-5-6.1-10-9.1-15c-2.1,4.8-4,9.6-6.2,14.3c-1.4,3-2.4,7.4-4.8,8.5c-4.7,2-10.5,3.4-15.4,2.4
		c-1.7-0.3-3.5-8.8-2.4-12.7c3.3-10.8,8.8-20.9,11.9-31.7c1-3.6-2.6-8.5-4.1-12.8c-1.4,2.8-3.3,5.5-4.3,8.5
		c-1.7,5-1.6,11.3-4.6,15.1c-3.7,4.8-9.8,7.7-14.9,11.3c-1.5-5.9-5.7-12.8-4-17.6c11.5-32.1,10.8-37.7-13.9-60.2
		c-6.9-6.3-14.2-12.3-22.1-17c-3.6-2.1-9.2-0.6-13.9-0.9c-4.3-0.2-9.3,0.5-12.8-1.3c-2-1.1-1.9-6.4-2.7-9.8
		c-0.8-3.5-0.2-8.8-2.3-10.2c-5.7-3.8-12.3-6.1-18.8-8.5c-5.5-2.1-12.4-2-16.8-5.4c-8.9-6.9-12.2-23.1-29.6-14.7
		c-2.4,1.2-9.4-6.6-14-10.5c-2.8-2.5-4.5-7-7.7-8.3c-7.2-3-15.2-4.1-22.4-7C1205.8,1020.2,1179.3,1009,1152.8,998z M990.8,2275.9
		c0.8,0.1,1.5,0.2,2.3,0.2c2.4-8.2,3.8-16.9,7.5-24.4c1.4-2.9,8.2-3.2,12.5-4.6c0.5,3.5,2.6,7.7,1.3,10.3
		c-21.1,41.9-7.4,64.6,38.4,62.5c8.6-0.4,17.2-2,25.8-2.8c40.6-3.8,81.2-7.4,121.7-11.4c2.3-0.2,6.2-3.7,6.2-5.7
		c2.1-73,3.9-145.9,5.2-218.9c0-1.7-6.7-5.7-9-4.9c-26.1,8.5-51.5,21.4-78.2,25.6c-17.8,2.8-20.6,7.5-22.6,23.4
		c-2.4,19.8-2.2,31.5,22.7,26.1c3.9-0.8,9.4,4.6,13.6,7.8c1.1,0.8,0.3,6.1,0.1,6.1c-4.6,0.4-9.3-0.1-13.8,0.6
		c-8.5,1.3-24.2,2.8-24.4,5.1c-2,30-1.5,60.2-2.3,90.3c-0.4,14.3-1.1,28.7-3.9,42.6c-0.7,3.4-10,5.1-15.4,7.6
		c-0.8-4.4-2.6-9-2.2-13.3c3.1-40.8,6.9-81.6,9.5-122.4c0.2-3.8-5.9-10.4-10.1-11.5c-22.1-5.9-44.9-9.4-66.9-15.8
		c-20.4-5.9-22.9-16.2-10.5-33.3c5.5-7.5,9.6-17.2,16.9-22c10.3-6.9,22.6-12.8,34.8-14.5c10.2-1.5,21.3,4.1,32.1,5.3
		c2.9,0.3,8.9-3.5,9.1-5.8c2.2-24.1,3.7-48.2,5-72.3c0.1-2-1.8-5.6-3.3-5.9c-42.9-10.2-77.4-34.6-109.1-63.8c-1.1-1-2.8-1.6-4.2-2.3
		c-0.3,1.2-0.8,2.4-0.9,3.6c-0.4,7.4-1.3,14.9-1,22.3C982,2065,986.4,2170.5,990.8,2275.9z M1088.3,2105c-0.6-0.5-2.8-4.1-5.9-5.4
		c-37.5-14.6-50.4-11.4-76.8,19.4c-1.9,2.2-0.3,11.3,1.3,11.8c24.6,7.2,49.5,13.5,74.5,19.6c1.1,0.3,4.4-3.2,4.5-5.2
		C1086.9,2133.1,1087.4,2120.8,1088.3,2105z M1682.3,1720.5c-1.1,0.2-2.1,0.3-3.2,0.5c1.7,13.4,3.3,26.9,5.3,40.3
		c0.3,1.7,2.2,3.2,3.4,4.8c4.7-6.8,14.1-14.2,13.3-20.5c-5.6-47.9,1.2-98.6-29.3-141.3c-2.8-4-4.8-8.6-7.1-12.9
		c-0.1,4.6-0.5,9.3-0.3,13.9c0.3,6.6,0.5,13.4,1.6,19.9C1671.3,1656.9,1676.9,1688.7,1682.3,1720.5z M1358.9,950.6
		c1.5,3.1,0.6,1.3-0.3-0.6c-1.7,1.6-4,2.9-4.9,4.8c-9.3,20.9-17.1,42.7-27.9,62.8c-11,20.5-10,34.1,13.4,43.4
		c7.9,3.1,9.8,3.7,10.5-5.3C1352.3,1022.4,1355.5,989.1,1358.9,950.6z M1369.9,1078.8c6,5.2,11.8,10.5,17.9,15.3
		c3.6,2.8,7.7,4.9,11.5,7.3c0.4-1.5,1-2.9,1.2-4.4c3.8-34,7.5-68,11.2-102c0.2-1.4-0.5-3-0.7-4.4c-1.3,0.9-3.2,1.5-3.7,2.7
		C1395.1,1020.8,1383,1048.6,1369.9,1078.8z M811.6,987.1c-0.2,0.1-1.2,0.7-2.2,1.4c1.5,1.7,2.7,3.9,4.5,5
		c24,15.5,47.3,32.2,72.7,45.1c5.1,2.6,17.7-9.8,26.9-15.3c-3.9-2.6-7.5-6.1-11.9-7.6C872,1006,842.2,996.8,811.6,987.1z
		 M1493.4,1228.3c0.9,0.4,1.8,0.8,2.6,1.1c0.6,7.9,0.9,15.9,1.8,23.8c0.2,2.3,1.8,4.5,2.8,6.8c1.1-1.9,2.5-3.7,3.2-5.8
		c5.3-16.7,11.2-33.3,15.2-50.3c1.7-7-0.4-15-1.5-22.4c-0.3-2-3.5-3.6-5.3-5.4c-1.2,1.8-3,3.5-3.6,5.6
		C1503.3,1197.2,1498.4,1212.8,1493.4,1228.3z M1530.4,1034.2c1.9,12.2,3.1,20.7,4.6,29.2c0.3,1.8,1.7,3.4,2.6,5.1
		c1.4-1.6,3.3-3,4.1-4.8c4.7-9.9,8.1-20.4,13.8-29.6c9.5-15.4-4.1-22.6-10.1-32.6c-0.1-0.1-4.1,1.1-4.5,2.3
		C1536.8,1014.9,1533.1,1026.1,1530.4,1034.2z M1567.5,1087.6c1.1,7.6,2,14.2,3,20.7c0.3,1.8,1,3.6,1.6,5.4c1.3-1.6,2.8-3.2,3.8-5
		c5.4-9.9,11.2-19.7,15.7-30c1.8-4,2.3-10.5,0.2-13.9c-3.5-5.7-9.5-9.7-14.5-14.5c-1.7,5.3-3.7,10.5-5.1,15.8
		C1570.3,1073.5,1568.9,1081,1567.5,1087.6z M695,1133.8c5.3,5.3,9.8,9.7,14.4,14.2c6.6-10.1,14.1-19.9,18.6-30.9
		c0.7-1.6-13.4-9.2-20.7-14.1C703.6,1112.3,699.9,1121.4,695,1133.8z M1648.1,1763.6c0.4,0,0.8,0,1.2,0c0,7.3-0.1,14.6,0.1,21.9
		c0,1.4,1.3,2.8,2,4.2c0.8-1.2,2-2.4,2.2-3.7c3-30.2,6-60.4,8.7-90.7c0.1-1.6-1-3.4-1.6-5.1c-1.1,1.5-3,2.8-3.2,4.4
		C1654.2,1717.8,1651.2,1740.7,1648.1,1763.6z M1489.9,1130.4c0,0-1-1.8-2.1-3.7c-1.2,1.5-2.7,2.8-3.4,4.5
		c-5.5,12.1-12.9,23.8-15.4,36.5c-1.5,7.8,4.6,17.1,7.2,25.7c1.3-0.7,3.6-1.3,3.7-2.2C1483.3,1171.7,1486.4,1152.1,1489.9,1130.4z
		 M1060.2,953.5c-0.7,2.2-1.3,4.4-2,6.6c26,7.5,52.1,15.1,78.2,22.5c1.6,0.4,3.6-0.8,5.4-1.2c-1.6-1.3-3-3.2-4.8-3.7
		C1111.4,969.5,1085.8,961.5,1060.2,953.5z M1511.8,1671c-0.2,0-0.5,0-0.7,0.1c0,28.3-0.2,56.6,0.2,85c0.1,7.8,2.2,15.5,3.4,23.2
		c0.5-8.8,1.7-17.6,1.4-26.3C1514.9,1725.6,1513.2,1698.3,1511.8,1671z M1467.6,1082.5c-0.2-0.5-0.9-2-1.6-3.4
		c-0.9,0.6-2.3,1.1-2.6,1.9c-6.9,20.7-14,41.3-20.3,62.2c-0.6,2.2,3.5,5.7,5.4,8.7c0.9-0.7,2.3-1.2,2.5-2
		C1456.6,1127.7,1462,1105.6,1467.6,1082.5z M1298.1,1005.1c2.3-0.7,4.7-1.3,7-2c-5.5-19-11-38-16.7-57c-0.5-1.7-2.3-3-3.5-4.5
		c-0.7,2-2.3,4.3-1.9,6.1C1287.9,966.9,1293.1,986,1298.1,1005.1z M1579.4,1143.7c0.9,4.4,1.2,7.1,2.1,9.6c1.3,3.7,3.1,7.3,4.6,11
		c1.4-3.6,3.1-7.1,4.1-10.8c4.1-15.6,8.1-31.2,12-46.8c0.4-1.5,0-3.1,0-4.7c-1,0.4-2.6,0.5-3,1.3
		C1592.3,1117,1585.5,1131,1579.4,1143.7z M1683.4,1528.4c-3.3-5-8.1-12.4-13.1-19.6c-1-1.5-2.9-2.4-4.4-3.5
		c-0.5,1.8-1.6,3.7-1.3,5.3c1.7,8.3,3.3,16.7,5.9,24.7c2.3,7,5.8,13.7,8.8,20.5C1680.6,1548.1,1681.7,1540.4,1683.4,1528.4z
		 M1638.9,1408.7c-1.2-5.9-1.9-13.6-4.6-20.5c-2.2-5.7-6.9-10.4-10.5-15.5c0.2,6.7-0.6,13.7,0.8,20.1c1.5,6.6,5,12.9,7.9,19.1
		c1.2,2.5,3.2,4.6,4.8,6.9C1637.7,1415.9,1638.1,1413.2,1638.9,1408.7z M730.7,1081.4c-7.7,2.8-9.5,3.5-11.3,4.1
		c1,1.5,1.6,3.6,2.9,4.5c10.9,7.5,22,14.8,33.1,22.1c1,0.7,2.4,0.7,3.6,1.1c-0.2-1.2,0.1-2.8-0.6-3.5
		C748.7,1099.7,739,1089.8,730.7,1081.4z M1503.1,1035.6c-0.5-7.4-0.7-12.8-1.2-18.1c-0.1-1.2-0.9-2.3-1.4-3.5
		c-0.8,0.7-2.2,1.3-2.3,2.1c-4,17.8-7.8,35.6-11.6,53.5c-0.2,1.1,0.6,2.4,1,3.6c0.8-0.4,2-0.7,2.3-1.3
		C1494.6,1059.2,1499.2,1046.4,1503.1,1035.6z M1588.7,1254.2c-0.6,0.2-1.1,0.5-1.7,0.7c1.8,3.8,3.2,7.9,5.6,11.3
		c0.7,0.9,4.2-0.1,6.4-0.3c-0.4-4.8-0.1-9.8-1.5-14.3c-2.5-8.1-6-15.9-9.2-23.8c-0.5-1.2-0.9-2.3-1.4-3.5c-0.8,1.3-2.3,2.6-2.2,3.7
		C1585.9,1236.8,1587.3,1245.5,1588.7,1254.2z M1600.3,1535.8c-1.9-0.2-3.8-0.3-5.7-0.5c-1.3,11.5-2.6,23-3.7,34.6
		c-0.2,1.7,0.7,3.6,1.1,5.4c1.5-1.2,4-2.3,4.2-3.7C1597.8,1559.7,1599,1547.7,1600.3,1535.8z M1549.5,1358.8c-0.5-0.1-1-0.2-1.5-0.2
		c0.2-2.6,0.4-5.3,0.6-7.9c-1.4,0-4.1-0.2-4.2,0c-1.9,15.1-3.7,30.3-5.3,45.4c-0.1,1,1,2.2,1.5,3.3c0.6-0.9,1.6-1.7,1.8-2.6
		C1544.8,1384.2,1547.1,1371.5,1549.5,1358.8z M1676.5,1867.7c-2.5-4.3-3.7-6.4-4.8-8.5c-4.1,7.5-8.4,15-12.2,22.7
		c-0.3,0.6,3,3,4.7,4.5C1668.4,1880,1672.6,1873.7,1676.5,1867.7z M796.8,1123.9c1.8,4.2,2.8,6.5,3.8,8.8
		c5.1-5.6,10.2-11.2,15.3-16.8c-3.7-2.2-7.4-4.4-11.1-6.6C802,1114.4,799.3,1119.4,796.8,1123.9z M826.1,1101.3c3.2-3,5.2-5,7.3-6.9
		c-4.9-3.7-9.5-7.8-14.9-10.5c-1-0.5-4.9,5-7.5,7.7C815.7,1094.6,820.4,1097.6,826.1,1101.3z M1687.3,1789.3
		c2.2,6.1,3.7,10.3,5.2,14.6c2.4-8,4.9-15.9,6.9-24c0.4-1.4-1.6-3.5-2.5-5.2C1693.6,1779.7,1690.4,1784.7,1687.3,1789.3z
		 M1001.8,967.5c-0.3,0.7-0.6,1.5-0.9,2.2c10.5,4.5,21,9.1,31.6,13.3c1.7,0.6,4.2-0.9,6.3-1.4c-1.2-1.3-2.1-3.3-3.5-3.8
		C1024.1,974.2,1012.9,970.9,1001.8,967.5z M1551.2,1438c1.1,0.2,2.2,0.5,3.3,0.7c2.2-10.6,4.4-21.1,6.4-31.8
		c0.3-1.3-0.8-2.9-1.2-4.4c-1,1.2-2.5,2.4-2.8,3.7C1554.9,1416.9,1553.1,1427.5,1551.2,1438z M1608.9,1417.6
		c-0.8,0.3-1.6,0.6-2.4,0.9c5.4,15.4,10.8,30.7,16.3,46c0.3,0.7,1.4,1.2,2.1,1.7c0.4-1.1,1.3-2.4,1-3.2
		C1620.4,1447.9,1614.6,1432.7,1608.9,1417.6z M776.8,1227.4c-1.3,0-2.5,0-3.8,0c0,12.2-0.1,24.5,0.1,36.7c0,1.3,1.4,2.6,2.2,3.8
		c0.5-1.4,1.4-2.8,1.4-4.1C776.9,1251.6,776.8,1239.5,776.8,1227.4z M1588.9,1507.9c-2.2-4.1-3.7-7-5.3-10
		c-2.2,6.7-4.5,13.5-6.5,20.3c-0.3,0.9,1,2.3,1.6,3.4C1582,1517.2,1585.3,1512.7,1588.9,1507.9z M1565.8,1370.9
		c1,4.2,1.9,8.1,2.8,12.1c1.4-2.8,4.1-5.6,3.8-8.2c-0.5-5.3-2.6-10.4-4-15.6C1567.5,1363,1566.7,1367,1565.8,1370.9z M1527,1733.7
		c0.6,5.1,1.3,10.6,1.9,16c1-4.2,2.8-8.4,2.8-12.6c-0.1-5.8-1.6-11.5-2.5-17.3C1528.5,1724.2,1527.8,1728.7,1527,1733.7z
		 M1550.1,1141.5c1.2,3.2,2.4,6.4,3.7,9.7c0.9-2.3,2.8-4.7,2.6-6.9c-0.4-3.9-2-7.7-3.2-11.5
		C1552.2,1135.5,1551.3,1138.1,1550.1,1141.5z M1527.8,1095.1c-2.2-2.9-3.9-5.3-5.7-7.7c-0.6,1.9-1.7,3.9-1.7,5.8
		c0,3.7,0.6,7.3,1,11C1523.4,1101.5,1525.3,1098.7,1527.8,1095.1z M1658.4,1508.2c1.5-4.3,2.9-6.2,2.5-7.5c-1-3.3-2.9-6.3-4.4-9.4
		c-0.5,1.5-1.6,3.2-1.4,4.6C1655.6,1499.3,1656.8,1502.4,1658.4,1508.2z M1676.1,1768.9c-1.2,0-2.3,0-3.5,0.1
		c0.3,5.9,0.6,11.8,0.9,17.7c0.9-0.3,2.4-0.6,2.4-0.9C1676.2,1780.2,1676.1,1774.6,1676.1,1768.9z M1674.9,1476.8
		c0.9-0.4,1.9-0.8,2.8-1.3c-1.8-4-3.5-8-5.5-11.9c-0.2-0.3-2.3,0.4-3.6,0.6C1670.7,1468.4,1672.8,1472.6,1674.9,1476.8z
		 M1551.7,1878.2c-3-8.3-5.4-14.6-7.7-20.9c1.4,6.3,2.7,12.6,4.1,18.8C1548.2,1876.3,1548.7,1876.5,1551.7,1878.2z M1721,1931.4
		c1.1-0.2,2.2-0.4,3.2-0.6c-1.5-4.6-3.1-9.3-4.7-13.9c-0.1-0.2-1.1-0.2-1.7-0.2C1718.9,1921.6,1720,1926.5,1721,1931.4z
		 M1608.6,1342c-0.7,3.2-1.4,4.4-1.1,5.3c1.2,3.7,2.8,7.3,4.2,11c0.8-1.6,2.7-3.4,2.4-4.6C1613.1,1350.2,1611.2,1347.2,1608.6,1342z
		 M1721.2,1995.5c-1.1-1.5-2.3-3-3.5-4.6c-0.5,1.4-1.5,2.8-1.3,4.1c0.3,2.1,1.4,4,2.2,6.1
		C1719.4,1999.5,1720.1,1997.9,1721.2,1995.5z M1539.5,1884.6c0.4,0,0.7-0.1,1.1-0.1c0.2-2.2,0.6-4.3,0.4-6.4
		c-0.2-1.6-1.3-3.1-2-4.7C1539.1,1877.2,1539.3,1880.9,1539.5,1884.6z M1577.5,1547.7c0.9,0.3,1.8,0.6,2.7,0.8
		c0.5-3.4,0.9-6.9,1.3-10.3l-2.3-0.3C1578.6,1541.1,1578.1,1544.4,1577.5,1547.7z M737.4,1137.5c-1.2,2.3-2.7,3.8-2.5,4.9
		c0.3,1.5,2,2.8,3.1,4.2c0.7-1.1,2-2.3,1.8-3.2C739.6,1141.6,738.5,1140,737.4,1137.5z M1650.6,1579.1c-0.8,0.2-1.7,0.3-2.5,0.5
		c0.3,3.4,0.5,6.8,0.9,10.3c0,0.2,1.1,0.3,1.6,0.5C1650.6,1586.5,1650.6,1582.8,1650.6,1579.1z M1671.8,1413
		c-0.4,0.1-0.9,0.1-1.3,0.2c0.3,3,0.5,5.9,0.8,8.9c0.7-0.1,1.5-0.2,2.2-0.3C1672.9,1418.8,1672.3,1415.9,1671.8,1413z M784.3,1059.2
		c-1.3-1.1-2.5-2.1-3.6-3.1c-0.4,0.7-1.4,1.7-1.2,2.1c0.7,1.3,1.8,2.4,2.8,3.5C782.8,1061.1,783.4,1060.4,784.3,1059.2z
		 M1578.7,1191.8c-0.8-1.3-1.6-2.6-2.3-3.8c-0.3,1-1.1,2.1-0.9,3c0.3,1.6,1.3,3,2,4.5C1577.8,1194.3,1578.2,1193.2,1578.7,1191.8z
		 M1684.2,1571.3c0.5-0.1,1-0.2,1.5-0.3c-0.6-3-1.2-6-1.8-9c-0.5,0.1-1,0.2-1.5,0.3C1683,1565.3,1683.6,1568.3,1684.2,1571.3z
		 M908.1,1117c-2.2-0.8-3.2-1.4-4.3-1.5c-0.9-0.1-1.8,0.3-2.7,0.5c1.2,0.9,2.3,1.9,3.6,2.5C905.1,1118.6,906.1,1117.9,908.1,1117z
		 M1512,1311.7c2-1.3,3.6-2.3,5.1-3.2c-1-0.4-2.2-1.3-3.1-1.1c-1.5,0.3-2.9,1.3-4.3,2C1510.5,1310,1511.1,1310.7,1512,1311.7z
		 M1537.8,1265.4c-0.3,1.2-0.6,1.9-0.5,2.5c0.3,1.6,0.9,3.1,1.3,4.7c0.6-0.3,1.8-0.8,1.8-0.8
		C1539.7,1269.9,1538.9,1268.1,1537.8,1265.4z M798.3,1071.3c0.5-0.5,1.1-1,1.6-1.5c-2.1-1.7-4.3-3.4-6.4-5.1
		c-0.2,0.6-0.7,1.4-0.5,1.6C794.6,1068,796.5,1069.6,798.3,1071.3z M1556.3,1313.6c-1.1,3.5-1.7,4.6-1.8,5.7c0,1.2,0.5,2.4,0.7,3.5
		c0.6-1,1.4-1.9,1.6-3C1557.1,1318.7,1556.7,1317.4,1556.3,1313.6z M1568.2,1816c-0.3-0.8-0.6-1.8-0.9-2.8c-0.1,0.9-0.4,1.8-0.4,2.7
		c0,0.9,0.2,1.8,0.4,2.7C1567.6,1817.8,1567.8,1817.1,1568.2,1816z M1530.6,1810.7c-1.5,3.6-2.2,4.5-2.1,5.2
		c0.2,1.4,0.9,2.8,1.4,4.2C1530.1,1817.9,1530.3,1815.8,1530.6,1810.7z M1563.4,1188.3c-0.5-0.8-1-1.6-1.4-2.4
		c-0.5,0.6-1.4,1.2-1.3,1.7c0.1,0.7,0.9,1.4,1.4,2C1562.5,1189.1,1562.9,1188.7,1563.4,1188.3z M1599.9,1686.4
		c-0.2-0.6-0.4-1.1-0.6-1.7c-0.5,0.3-1.2,0.5-1.3,0.9c-0.1,0.5,0.4,1.1,0.6,1.6C1599,1687,1599.4,1686.7,1599.9,1686.4z
		 M783.7,1085.5c0.3-1.5,0.8-2.4,0.6-3.2c-0.1-0.7-1-1.3-1.5-1.9c-0.2,0.8-0.8,1.6-0.7,2.4C782.3,1083.5,783,1084.2,783.7,1085.5z
		 M1547.1,1106.1c-0.2-0.6-0.4-1.1-0.6-1.6c-0.4,0.3-0.9,0.6-1.3,1c-0.1,0.1,0.1,0.8,0.2,0.8
		C1545.9,1106.3,1546.5,1106.2,1547.1,1106.1z M1659.6,2076.7c-0.2-0.2-0.4-0.4-0.6-0.5c-0.2,0.4-0.4,0.8-0.6,1.2
		c0.3,0,0.6,0.2,0.8,0C1659.4,2077.4,1659.4,2077,1659.6,2076.7z M1357.4,1010.4c0.1-0.2,0.4-0.5,0.3-0.7c-0.1-0.3-0.4-0.5-0.6-0.8
		c0,0.3-0.1,0.6-0.1,0.8C1357.1,1010,1357.3,1010.2,1357.4,1010.4z M1653.3,1805.1c0.2-0.1,0.6-0.1,0.6-0.2c0.1-0.2,0-0.5,0-0.8
		c-0.3,0.1-0.6,0.2-1,0.2C1653.1,1804.6,1653.2,1804.8,1653.3,1805.1z M1685.5,1845.4c-0.2,0.1-0.5,0.2-0.6,0.4
		c-0.1,0.2,0,0.5,0,0.8c0.3-0.2,0.7-0.3,1-0.5C1685.7,1845.8,1685.6,1845.6,1685.5,1845.4z M1420.1,1118.1c-0.2-0.3-0.3-0.5-0.5-0.8
		c-0.2,0.4-0.6,0.8-0.7,1.3c-0.1,0.2,0.3,0.5,0.4,0.8C1419.6,1118.9,1419.8,1118.5,1420.1,1118.1z M764.5,1303.7
		c-0.5-0.3-1-0.5-1.4-0.7c0,0-0.4,0.5-0.4,0.7c0.2,0.4,0.6,0.7,0.9,1.1C764,1304.5,764.2,1304.1,764.5,1303.7z M1652.6,2110
		c-0.1-0.3-0.2-0.7-0.4-0.8c-0.2-0.1-0.5,0.1-0.8,0.2c0.1,0.3,0.2,0.7,0.4,0.8C1652,2110.4,1652.4,2110.1,1652.6,2110z M1678.1,2147
		c0.2-0.5,0.5-1,0.6-1.5c0-0.1-0.5-0.6-0.6-0.5c-0.4,0.2-0.8,0.6-1.2,0.9C1677.2,2146.3,1677.6,2146.6,1678.1,2147z M1672.1,1896.7
		c-0.1-0.2-0.2-0.5-0.3-0.7c-0.3,0.3-0.5,0.6-0.8,0.9c0.2,0.1,0.5,0.4,0.6,0.4C1671.8,1897.2,1672,1896.9,1672.1,1896.7z
		 M1635.3,1763.8c0,0.3,0,0.5,0,0.8c0.2-0.2,0.5-0.5,0.7-0.7C1635.7,1763.8,1635.5,1763.8,1635.3,1763.8z M1671.1,2044.9
		c-0.2-0.1-0.4-0.2-0.6-0.4c-0.1,0.2-0.3,0.5-0.3,0.6c0.1,0.2,0.4,0.3,0.6,0.4C1670.9,2045.3,1671,2045.1,1671.1,2044.9z
		 M745.3,1252.5c-0.1,0.2-0.2,0.5-0.3,0.7c0.3,0,0.6,0.1,1,0.1c0-0.3,0-0.5-0.1-0.7C745.9,1252.5,745.5,1252.5,745.3,1252.5z
		 M992.3,1460.6c-0.1-0.2-0.2-0.5-0.4-0.6c-0.2-0.1-0.5,0-0.7,0.1c0.2,0.3,0.4,0.6,0.5,0.9C991.9,1460.9,992.1,1460.7,992.3,1460.6z
		 M705.8,1159.5l-0.7-0.1l0.3,0.9L705.8,1159.5z M1563.3,1617.8l0.7,0l-0.3-0.8L1563.3,1617.8z M742.8,1269.3l0.8,0.1l-0.3-0.8
		L742.8,1269.3z M757.8,1136.6c-0.2-0.2-0.3-0.4-0.5-0.7c-0.2,0.2-0.5,0.4-0.5,0.6c0,0.3,0.3,0.5,0.5,0.7
		C757.5,1137.1,757.7,1136.8,757.8,1136.6z M1061.3,976c-0.2,0.1-0.5,0.1-0.7,0.2c0.1,0.2,0.1,0.6,0.2,0.6c0.2,0,0.5-0.1,0.7-0.2
		C1061.4,976.4,1061.3,976.2,1061.3,976z"/>
	<path id="XMLID_448_" class="st0" d="M976.5,623.4c0,29.7-0.2,51.7,0.2,73.7c0.1,2.7,3.2,7.4,5.5,7.8
		c89.9,16.6,179.8,33.4,269.9,48.9c33.4,5.8,67.3,8.7,101.1,12.4c2.1,0.2,6.7-4.1,6.9-6.6c8.5-99.2,4.7-198.3-3.2-297.3
		c-1.5-19.2-2.8-38.4-3.9-57.6c-0.1-2,2.9-6,3.5-5.9c4.1,1.2,10.4,2.3,11.5,5.2c2.7,6.9,3.8,14.8,4.2,22.3
		c3.7,77.4,8.1,154.8,10.3,232.3c0.9,32.8-3.1,65.8-3.8,98.7c-0.1,3.8,6.1,11,9.6,11.2c81.6,5,162.9,4.2,244.1-7.5
		c41.8-6,83.9-9.5,125.8-14.6c2-0.2,5.4-5.6,4.8-7.8c-36.6-144.5-50.2-291.6-48.9-440.3c0.5-53.6,1.4-107.2,2.4-160.8
		c0.3-18.3-11.3-24.9-25.8-21.9c-32.4,6.7-65,14-96.2,24.9c-73.5,25.8-149.1,41.4-226.4,44.6c-69.4,2.9-139.3,1.6-208.6-2.5
		c-41.2-2.4-81.5-18.1-122.7-20.4c-56.2-3.1-112.9,0.3-169.3,1.8c-50.1,1.3-100.2,4.6-150.4,5.2c-56.6,0.7-112.7,5.8-166.5,23.5
		c-74.2,24.3-149.9,35.7-227.9,35.2c-16.5-0.1-33,7.4-49.7,9.2c-14.1,1.6-29.7,3.3-42.7-0.8c-27-8.6-49.9,2.9-73.6,10.3
		c-33.8,10.5-67.1,22.7-100.3,35.1c-6,2.2-14.9,9-14.8,13.5c1.1,36.8-6,78.2,8.5,109.4C76.1,460.1,85.5,517,90.4,576
		c1.9,22.4,16,33.8,33.9,37.8c20.9,4.7,43.6,7.2,64.6,4.2c46.7-6.7,92.3-1.2,138.8,2c61.5,4.2,123.7-0.7,185.6-1.6
		c10.4-0.2,22.2,1.4,17.6-15.7c-0.1-0.4,3.8-1.8,5.8-2.8c4.4,9.7,8.7,19.4,13.1,29c-7.4,2.1-14.8,5.8-22.4,6.1
		c-35.3,1.4-70.6,3.2-105.8,2.2c-47.4-1.2-94.7-5.7-142-7c-28.8-0.8-57.9-0.5-86.3,3.1c-39,4.9-75.2,2.3-106.3-24.2
		c-4.3-3.7-8.1-10-8.9-15.6c-5.5-40.2-9.7-80.6-15.5-120.7c-1.4-9.9-5-20.7-10.8-28.7C31.3,416.5,28,385.6,30,352.9
		c1-16.9,1.3-34.1,0.1-51c-1.3-17.8,7.9-26.5,22.8-31.6c43-14.4,85.6-30.2,129.3-42.2c16.9-4.6,36.3-0.6,54.5-0.1
		c6.2,0.2,13.2,3.9,18.6,2.1c49.2-16.8,100.7-12.7,151.1-18.6c44.3-5.2,88-16.7,131.2-28.5c63.8-17.3,127.8-26.2,194.2-25.1
		c57.7,0.9,115.7-4.2,173.3-9.8c68.7-6.7,135.7,1.4,203.3,12.8c54.2,9.2,109.7,11.3,164.7,13.9c104.1,5,205.8-10.6,305.5-40
		c34.1-10.1,68.1-20.5,101.7-31.7c27.3-9.1,50.9,7.1,50.9,35.3c-0.2,93.5-3.9,187.3,1.4,280.5c4.7,82,18.5,163.7,30.7,245.1
		c4.5,29.9,16.5,58.7,23.8,88.3c0.9,3.5-5.9,12.6-9.6,12.9c-60.4,5.5-120.8,11.3-181.4,14.4c-58.6,3-117.4,3.2-176.1,4.4
		c-11.2,0.2-22.5-0.5-33.7,0.1c-2,0.1-5.5,4.6-5.3,6.8c0.6,6.6,3.3,13,3.8,19.5c0.3,3.6-2.3,7.4-3.5,11.1c-4.2-2-12-3.9-12.1-6.1
		c-1.8-47.6-40-34.9-66.3-39.6c-104.6-18.6-209.4-36.2-314.2-53.6c-4.9-0.8-10.6,4.3-16.2,5.5c-4.7,1-13.7,1.4-14,0.1
		c-5.2-18.7-21.8-14.4-33.1-14.4c-63.5-0.4-127,1.1-190.4,1.8c-53.5,0.6-107.1-0.7-157-22.4c-21.9-9.5-41.6-24.1-61.7-37.4
		c-2.7-1.8-1.7-9.4-2.4-14.4c4.2,1.7,9.6,2.3,12.5,5.2c29,29.6,66.4,44.4,105.4,47.7c56.1,4.7,112.8,1.6,169.2,2.6
		c50.8,0.8,101.5,2.7,152.3,3.5c2.1,0,6.1-5.6,6.1-8.6c-0.5-77.3,5.4-155.6-32.2-227.8c-9.3-17.9-14.9-37.7-24.5-55.4
		c-9.1-16.8-36.5-22.2-45.5-8.9c-5.6,8.3-7,22.2-4.7,32.4c2.8,12.9,7.3,22.4-0.7,36.7c-6.8,12.1-5,29.9-4.6,45.1
		c1,31.2,3.2,62.5,5.9,93.6c0.7,8.7,5.5,17,7.2,25.7c0.9,4.8-0.7,10.1-1.1,15.2c-4.5-2.9-12.1-5-13-8.7c-6-26.1-12.5-52.3-15.2-78.8
		c-2.8-26.7-1.1-53.8-1.9-80.8c-1.4-46.1-4.8-92.3-4.1-138.4c0.5-33.1,6.3-66.1,10.1-99c0.2-2,2.8-3.7,4.3-5.5
		c2.5,2.7,7,5.3,7.1,8.1c0.6,14.9,0.4,29.8-0.2,44.7c-1,28.2-2.4,56.4-3.2,84.6c-0.1,2,4.1,6.2,5.3,5.9
		c41.6-11.7,70.7-0.6,84.9,39.1C957.6,487.7,988.9,555.1,976.5,623.4z"/>
	<path id="XMLID_449_" class="st0" d="M1618.1,2540.2c-12.8,78.9,6.7,153.4,13.7,228.7c3.2,34.3-2,69.5,1.9,103.7
		c5.5,48.3,15.9,96,24.5,143.9c0.2,0.9,4.6,1.1,7.1,1.4c6.2,0.8,12.5,1.4,18.7,2.1c-2.4,4.4-5.4,8.7-7.1,13.3c-0.7,1.9,0.6,6,2.3,7
		c32.4,19.7,65,39.1,97.5,58.7c3.7,2.2,8,4.1,10.6,7.3c2.8,3.5,4,8.3,6,12.5c-5.2,0.6-11.8,3.5-15.4,1.4
		c-29.9-17.4-59.1-35.8-88.7-53.8c-5-3-10.4-5.4-15.6-8.1c0,5.8-0.9,11.8,0.1,17.5c6.1,34.7,12.8,69.2,18.6,103.9
		c0.8,4.6-2.3,9.8-3.6,14.7c-3.6-4-8.3-7.4-10.7-12c-19.1-37.1-16.4-78.2-21.8-117.9c-0.3-2.2-1.3-4.2-2-6.3
		c-1.8,1.3-3.9,2.3-5.2,3.9c-18.9,23.6-37.8,47.3-56.5,71c-1.5,1.9-1.5,4.9-2.6,7.2c-1.8,3.7-4.4,10.5-6,10.3
		c-5.8-0.7-11.8-3.2-16.8-6.4c-1-0.6,0.6-8.1,2.9-10.9c22.8-28.6,46.3-56.6,68.6-85.6c3.9-5,5.5-14,4.3-20.4
		c-8.6-45.9-21.3-91.3-26.7-137.5c-4.4-38,1.6-77.1-1-115.5c-3.9-56.3-12.3-112.3-16.9-168.6c-3.1-37.6-3.1-75.4-3.9-113.1
		c-0.1-3.4,3.9-6.9,6-10.3c3,2.6,8.1,4.8,8.8,7.9C1612.9,2507.5,1615.5,2524.9,1618.1,2540.2z"/>
	<path id="XMLID_450_" class="st0" d="M766.1,3197.6c-4-24.9-7.8-49.9-12-74.8c-0.5-2.9-3-5.5-4.5-8.3c-2,2.1-4.2,4.1-6.1,6.3
		c-9.4,10.7-17.9,22.6-28.6,31.8c-4.6,3.9-14,2.2-21.2,3c2.7-5,4.5-10.8,8.2-14.9c29.5-32.5,58.5-63.7,65.4-111
		c9.5-65.9,22.8-131.5,37.7-196.5c10.8-46.9,28.2-92.2,40.3-138.8c9.3-35.9,13.7-72.9,22.7-108.9c2.7-10.6,12.9-19.6,20.6-28.6
		c1.7-2,7.1-1,10.7-1.3c-0.1,3.4,1.1,8-0.6,10c-24.8,30-27,66.7-33.5,102.8c-8.5,47.5-17.7,95.3-32.2,141.2
		c-18.9,60-33,120.3-38.5,183c-2.3,26.7-8.8,53.2-14.8,79.4c-5.5,24,3.1,43.3,19.8,58.2c15.4,13.8,33.8,24.4,50.9,36.3
		c1.6,1.1,3.7,1.5,5.6,2.1c4.2,1.5,8.4,2.9,12.5,4.4c-6.6,2.5-15.7,9-19.4,6.7c-23.2-14.1-45.4-29.9-67.6-45.7
		c-4.3-3-6.9-8.4-10.3-12.7c0.7,5.5,1.3,10.9,2.1,16.4c3.2,23.4,6.9,46.6,9,70.1c0.4,4-6.3,8.6-9.7,13c-2.7-4.1-6.2-7.8-8-12.3
		c-1.3-3.2-0.2-7.2-0.2-10.9C764.9,3197.8,765.5,3197.7,766.1,3197.6z"/>
	<path id="XMLID_451_" class="st0" d="M539.5,386.4c-8.3,51.8-14.6,103.9-25.6,155.1c-4.5,21.1-18.5,40.3-29.4,59.7
		c-1.3,2.4-9.9,0.7-15.1,0.9c0.1-5.6-1.8-12.3,0.6-16.6c3.8-6.7,13.8-10.9,15.5-17.6c11.2-45.6,24.2-91.1,30.1-137.5
		c4-31.3,0.2-64.6-5.5-96c-9.8-54.2-65.3-77.5-113.1-50.1c-39.3,22.5-63.5,56.7-77.9,98.8c-1.3,3.8-1.9,8.2-4.3,11.1
		c-3.7,4.3-8.7,7.5-13.1,11.2c-1.9-5-4.4-9.8-5.4-15c-1.4-6.6-1.6-13.5-2.4-20.2c-2.6,5.9-6.4,11.5-7.6,17.6
		c-4.8,25.2-9.2,50.4-13,75.8c-4,26.7-7.7,53.5-10.4,80.3c-0.8,8.3,2.2,17,3,25.5c0.3,3.7-0.6,7.5-1,11.3c-3.4-2.2-9.3-3.9-9.8-6.7
		c-2.4-12.6-6.2-25.8-4.3-38.1c8.2-54.4,17.9-108.5,27.7-162.6c1.4-7.6,6-14.9,10.2-21.5c7.2-11.2,15-13.1,21.7,0.8
		c2.8-1.5,6.9-2.4,8.2-4.7c18.2-31.7,40.6-58.9,74.1-76.1c41-21.1,87.1-13,116.4,22c15.8,18.9,23.8,49,24.5,91.8
		C535.6,385.8,537.5,386.1,539.5,386.4z"/>
	<path id="XMLID_452_" class="st0" d="M1114.6,623.3c-19.7-32.4-26.8-67.8-24.4-105.4c1.9-30.6,18.4-53.6,42-70.3
		c7.6-5.3,22.3-3.3,32.9-0.8c9.9,2.3,19.3,8.8,27.6,15.3c3.5,2.7,3.4,10,5,15.2c-5.4,0.7-11.6,3.5-16,1.7
		c-7.2-2.8-13.6-8.3-19.7-13.3c-11.4-9.2-20.9-6.1-31,2.6c-30.5,26.3-28.8,60.1-22.4,94.9c10.1,54.8,38,97.2,88,123.8
		c11.1,5.9,16.1,6.9,16-9.6c-0.3-63.6,1.8-127.2,1.5-190.7c-0.2-32-3.8-63.8-25.5-90.3c-1.9-2.3-0.1-7.6,0-11.5
		c4.2,0.7,9.6-0.1,12.4,2.2c22.3,18.6,28.8,45.4,29.6,71.8c1.9,58.5,0.2,117.1,0,175.6c0,13,0.4,25.9,0.6,38.9
		c0.1,7.3-0.9,15.8,10.6,8.2c0.9-0.6,2.4-0.4,3.7-0.5c-0.5,1.7-0.4,4-1.5,5.1c-14,13.5-9.1,28.5-4.6,44.1c1.1,3.9-2.2,9.1-3.6,13.7
		c-4.8-1.6-9.6-3.2-14.4-4.9c-0.2-0.1-0.5-0.6-0.5-0.8c1.9-38.2-34.8-40-54.2-58.2c-17.9-16.9-33.3-36.4-49.8-54.8l0,0.1
		c-0.7-0.7-1.5-1.5-2.2-2.2L1114.6,623.3z"/>
	<path id="XMLID_455_" class="st0" d="M663.5,402.2c-1.7-8.4-4.3-18-5-27.6c-0.2-2.7,5.2-5.7,8.1-8.6c1.8,2.8,4.6,5.4,5.3,8.5
		c3.8,15.8,8.6,31.5,10.2,47.6c4.4,43.6,7.1,87.3,11.2,130.9c0.8,8.2-4.3,21.6,12.5,20.7c-0.7,3.9-0.9,7.9-2.2,11.6
		c-1.8,5-6.8,9.9-6.3,14.4c2.5,22.7,6.5,45.3,9.4,68c0.4,3.5-2.5,7.4-3.8,11.1c-3.7-2.6-10.1-4.6-10.8-7.9
		c-5.2-23.3-9.1-46.9-14-70.2c-0.9-4.1-3.6-10.3-6.7-11.2c-56.6-16.3-85.9-57.1-101.3-110.9c-6.4-22.4-11.3-44.6-0.1-66.8
		c10.5-20.8,66.4-34.4,85.3-20.5C659.1,393.9,661.3,399,663.5,402.2z M676,500.3c-3-23.6-6.1-48.7-9.6-73.6c-0.3-2.3-3-4.8-5.2-6.3
		c-3.8-2.7-8-4.8-12.1-7c-6.7-3.7-13.4-10.1-20.3-10.4c-9.6-0.5-19.7,2.7-29,5.9c-14.1,4.7-23.9,13.8-21.4,30.4
		c2.2,14.4,4.5,28.8,8.5,42.8c12.2,42.8,36,76,79.9,91c2.1,0.7,8.7-3.9,8.8-6.2C676.3,545.1,676,523.5,676,500.3z"/>
	<path id="XMLID_456_" class="st0" d="M1723.7,2098.9c0.2,2.1,0.5,4.2,0.6,6.3c0,0.2-0.8,0.5-1.2,0.7c-0.3-2.3-0.6-4.6-0.9-6.9
		C1722.7,2099,1723.2,2099,1723.7,2098.9z"/>
	<path id="XMLID_457_" class="st0" d="M1197.7,512c0.4,0.5,1.1,1.2,1,1.3c-0.4,0.5-1,0.9-1.6,1.4c-0.2-0.6-0.6-1.1-0.5-1.7
		C1196.6,512.6,1197.3,512.3,1197.7,512z"/>
	<path id="XMLID_458_" class="st0" d="M1114.4,625.4c-0.2-0.5-0.4-1-0.5-1.5c0-0.1,0.5-0.3,0.7-0.5l-0.2-0.1
		C1114.4,624,1114.4,624.7,1114.4,625.4L1114.4,625.4z"/>
	<path id="XMLID_459_" class="st0" d="M1116.6,625.3c-0.7,0-1.4,0-2.2,0l0,0.1C1115.1,625.4,1115.9,625.4,1116.6,625.3L1116.6,625.3
		z"/>
	<path id="XMLID_467_" class="st0" d="M1082.6,1675.3c18.6,3.9,37.4,7,55.7,12c10.6,2.9,20.1,11,30.7,12.8c11.9,2,25.3,1.8,36.7-1.8
		c7.8-2.5,14.4-11.5,19.6-19c5.8-8.3,10.3-12,18.3-2.9c1.3,1.5,6.4,1.8,7.8,0.5c6.3-5.8,11.1-13.3,17.9-18.4
		c4.5-3.4,11.3-3.8,17-5.5c1.6,6.2,6.4,14.2,4.2,18.2c-21.7,39.3-45.7,77.6-82.5,104.7c-17.3,12.8-36.1,26.3-56.3,31.8
		c-103.6,28-193.3-30.8-224.9-125.1c-2.1-6.2-6.5-11.9-7.5-18.2c-0.9-5.5-0.1-15.2,2.7-16.4c6.4-2.7,14.6-1.5,22.1-1.5
		c1.3,0,2.6,2,4,2.3c44.9,8.9,89.9,17.8,134.8,26.6L1082.6,1675.3z M1101.4,1797c0.6,1.9,1.2,3.8,1.8,5.6
		c25.7-8.4,51.4-16.7,77-25.3c1.8-0.6,3-3.1,4.4-4.6c-1.2-0.4-2.3-1.2-3.4-1.1c-26.1,2.1-38.4-12.2-42.9-35.9
		c-0.2-0.9-4.1-2.3-4.4-1.9c-13.6,16.7-26.9,33.7-40.5,50.5c-8.1,10-18.2,11.9-22.7-1.7c-6.5-19.6-9.7-40.2-14.4-60.3
		c-0.7-3.2-1.7-6.4-2.6-9.6c-2.3,2.7-5.5,5-6.7,8.1c-5,12.3-8.8,25.1-14.3,37.1c-1.7,3.7-7.6,7.9-11.1,7.6
		c-3.1-0.3-7.2-6.5-7.9-10.6c-2.8-15-4.3-30.2-6.4-45.3c-0.3-1.9-0.8-3.8-1.2-5.7c-1.3,0.7-2.5,1.7-3.8,2.2
		c-6.6,2.5-14.4,8.1-19.6,6.3c-4.9-1.7-9.1-10.8-10.2-17.3c-4.4-26.7-8.4-30.8-33.4-28.7c-1.6,0.1-4.5,4.5-4.1,6.1
		C957.9,1745.9,1026.5,1797.1,1101.4,1797z M1069.4,1717.1c3.1,14.8,6.1,29.6,9.6,44.3c0.4,1.8,3.5,2.9,5.4,4.3
		c12.6-17.6,25.2-35.2,37.4-53.1c0.7-1-1.9-6.1-3.8-6.8c-7.4-2.8-15.1-4.6-22.7-6.8C1071.1,1691.8,1071.1,1691.8,1069.4,1717.1z
		 M1164.8,1721.4c-1.2-1.7-2.4-3.5-3.5-5.2c-1.7,2.9-5.2,5.9-4.9,8.6c1.2,12.3,2.3,26.3,18.8,26.9c20.7,0.8,37.6-14.2,37.9-31.9
		c0-1.3-2.8-3.9-4.1-3.7C1194.2,1717.6,1179.5,1719.6,1164.8,1721.4z M1019,1695.4c1.6,12.9,2.7,23.5,4.1,34c0.3,2.1,1.5,4,2.2,6.1
		c1-2,1.9-4,3-5.9c7.1-12,14.3-23.9,21.3-36c1.1-1.9,1.2-4.4,1.8-6.6c-10.2-2.3-20.5-4.7-30.7-7
		C1020.1,1685.9,1019.4,1691.8,1019,1695.4z M1004.2,1678.2c-8.2-2.7-14.4-5.1-20.8-6.5c-1.5-0.3-5.6,3.1-5.3,3.8
		c3,8.7,6.6,17.2,10,25.8C992.7,1694.7,997.4,1688,1004.2,1678.2z M1239.6,1700.8c-3.6,8.9-6,14.6-8.1,20.4
		c-0.3,0.9,1.1,2.4,1.6,3.7c4.5-5.6,9-11.1,13.3-16.9C1246.6,1707.8,1244.2,1705.7,1239.6,1700.8z"/>
	<path id="XMLID_475_" class="st0" d="M1082.8,1675.5c-15.9-12.4-31.7-25-47.8-37.2c-16.7-12.8-26.5-59.8-18.9-79.5
		c6.8-17.8,5-40.9,15.8-54.7c18.5-23.6,43.3-42.5,67-61.5c3.1-2.5,18.2,3.6,22.2,9.5c17,25.1,31.9,51.6,47.8,77.5
		c1.4,2.2,3.6,4.9,6,5.5c21.6,5.5,34.9,19.1,35.4,40.8c0.6,25.2,0.5,50.5-2.3,75.5c-1.2,11-7.5,24.3-16,30.7
		c-9.3,7.2-28.1,14.3-34.9,9.7c-12.1-8.2-18.4-25.1-26.8-38.5c-0.6-1,1-3.4,1.6-5.1c1.2,1.3,2.7,2.6,3.7,4.1
		c4.6,6.5,8.6,13.5,13.8,19.5c9.3,10.7,25.7,8.1,31.6-4.8c0.3-0.7-1.9-3.6-2.1-3.5c-26.9,12.4-36.4-8.7-43.4-25.9
		c-8.6-21.1-11.6-44.4-18.7-66.2c-1-3.2-11.6-3.8-17.8-4.5c-3.9-0.4-8.1,1.4-12.2,2.2c2.1,3.1,4.1,6.3,6.4,9.2
		c17.7,22.4,21.9,48.4,18.5,75.5c-1.9,15.3-14.2,21.5-29.3,21.7L1082.8,1675.5z M1151.9,1533.1c-10.5-16.7-19.3-33.1-30.3-47.8
		c-22.3-29.8-16.1-26.9-43.1-5.5c-19.7,15.7-37.4,32.3-40.6,59.1c-0.3,2.7-0.2,7.6,0.7,7.8c14.8,3.8,29.6,9.3,44.6,9.9
		c21.3,0.8,42.6-3,60.4-16.9C1145.7,1538.2,1147.6,1536.6,1151.9,1533.1z M1192.7,1607.1c0.6-0.1,1.2-0.2,1.8-0.4
		c-2.7-14.6-5-29.2-8.3-43.7c-0.6-2.6-5.1-4.3-7.8-6.5c-0.3,2.7-1.5,5.5-0.9,8c1.8,7.4,5.6,14.5,6.1,21.9c0.3,4.5-2.8,10.9-6.5,13.3
		c-2.3,1.5-10.8-1.5-12.4-4.6c-4-7.8-5.5-16.9-8.4-25.3c-0.7-1.9-3-5.1-3.9-4.9c-9.6,2.3-20.3,4.4-17.5,18.2
		c3.6,17.7,6.3,35.8,12.7,52.5c2.7,6.9,14.1,14,21.8,14.4c13.3,0.6,24.1-6.1,22.3-23.1C1191.2,1620.5,1192.4,1613.7,1192.7,1607.1z
		 M1095.6,1637.8c-2.7-11.5-4.2-21.4-7.4-30.7c-2.2-6.3-6.6-11.9-9.9-17.8c-2.7,5.7-5.7,11.2-7.9,17c-7.6,19.4-7.4,19.4,1.5,29.9
		c0.6,0.7,0.3,2.1,0.9,2.8c4.9,5.4,9.9,10.6,14.9,16C1090.4,1648.9,1093.1,1643,1095.6,1637.8z M1027.8,1583.9
		c1.9,8,3.6,16.1,5.7,24c0.7,2.4,2.6,4.5,3.9,6.7c0.7-0.6,2.1-1.3,2.1-1.8c-0.5-2.6-2.3-5.4-1.9-7.8c2.1-11.2,4.5-22.4,7.3-33.4
		c0.4-1.5,3.6-2.3,5.5-3.5c-3.5-0.8-8.8-3.5-10.1-2.2C1035.6,1571.2,1032.2,1577.5,1027.8,1583.9z M1061.2,1598.1
		c-0.7-2.4-1.2-4.1-1.7-5.8c-0.9,1.2-2.1,2.3-2.8,3.7c-3.8,8.1-7.6,16.2-11,24.4c-0.8,1.9,0,4.3,0,6.5c1.7-1.2,4.1-2,4.9-3.6
		C1054.4,1614.9,1057.8,1606.3,1061.2,1598.1z M1043.2,1587.1c-1,2.7-1.8,3.9-1.6,4.9c0.2,1.6,1,3.1,1.5,4.6
		c0.8-1.1,2.1-2.2,2.1-3.3C1045.3,1591.8,1044.3,1590.3,1043.2,1587.1z"/>
	<path id="XMLID_476_" class="st0" d="M1182.1,1059.8c27.2,4.8,60.9,3.5,86.8,27.2c2.9,2.6,1,10.4,1.4,15.8c-4.9-0.6-9.9-0.7-14.6-2
		c-26.4-7.4-52.4-18-79.2-21.6c-19.4-2.6-23.6,16.1-25,32.9c-0.5,5.9-3.3,11.7-5.1,17.5c-3-6.2-8.1-12.2-8.6-18.6
		C1135.3,1080.7,1152.1,1059.7,1182.1,1059.8z"/>
	<path id="XMLID_480_" class="st0" d="M1201.2,1235.1c13,6.2,28.7,9.6,38.6,19.1c20.5,19.6,38.3,42.1,56.4,64
		c10.5,12.8,7.4,26.2-2.6,38.2c-9.3,11.1-14.2,31.9-34.8,22.8c-15.7-7-30.8-17-43.8-28.3c-21.3-18.7-41.8-38.3-44.2-70
		C1168.9,1256.2,1179.2,1239.1,1201.2,1235.1z M1242.1,1277.7c0.2,0,0.3,0,0.5-0.1c-0.2,0.1-0.4,0.2-0.7,0.3
		c-5.2-5.3-9.6-12.9-15.9-15.4c-10.9-4.3-23.9-9.1-34.2-6.5c-4.7,1.2-8.3,20.1-6.7,30c5.6,34.7,31.8,52.6,59.7,69.7
		c15.6,9.5,23.5,3.5,33.7-7c11.6-11.9,8.3-22.3-0.2-33.3c-1.2-1.5-2.6-2.9-4-4.3c-0.6,2-0.5,4.5-1.8,5.8c-8.1,8-16.2,16.1-24.9,23.4
		c-1.4,1.2-6.6-0.1-8.5-1.9c-7.5-7.4-16.6-14.3-20.8-23.5c-3.9-8.5-5.8-21.5-1.8-28.9C1219.6,1280.2,1233.2,1280.2,1242.1,1277.7z
		 M1225.1,1303.8c5.4,6.2,9.3,13.8,15.5,16.6c3.3,1.5,10.4-5,15.7-7.9c-7.8-6.9-15.6-13.8-23.4-20.8
		C1230.8,1295,1228.6,1298.3,1225.1,1303.8z"/>
	<path id="XMLID_484_" class="st0" d="M1006.2,1185.2c1.1,6,2.3,12,3.3,18c4.3,26.6,7.6,53.3,13.3,79.6c1.6,7.4,8.7,15,15.2,19.9
		c24.4,18.5,9.5,70.3-18.3,77.1c-3,0.7-5.6,3.3-8.3,5c0.6,0.7,1.4,2.2,1.7,2.1c2.8-1.1,5.4-2.6,8.2-3.7c1.6-0.6,4.7-1.1,4.9-0.7
		c1.1,2.6,2.9,6.2,1.9,8.1c-1.6,3-5.8,7.3-7.8,6.8c-20.1-4.8-42.9-6.2-59.4-17c-20.8-13.6-40.3-32.7-53.2-53.9
		c-15.5-25.5,1-61.6,38.4-52.1c17,4.3,35.4,2.8,53.2,3.4c0.9,0,3.2-4.9,2.8-7.2c-3.6-22-7.4-44-11.7-65.8
		c-2.7-13.6-0.2-22,16.2-19.3L1006.2,1185.2z M984.4,1291.4l0.1-0.2c17.1,20.6,21.3,41.9,2.3,63.5c-2.5,2.9-9.3,5.5-12.1,4.2
		c-25-12-31.4-35.9-36.9-60.2c-0.8-3.7-2.2-7.3-3.4-11c-5,2.6-12.8,4-14.5,8c-2.7,6.5-3.5,15.2-1.5,22c9,30.3,35.3,44.4,59.4,60.1
		c7.1,4.6,15.2,7.5,12.6-7.5c-0.6-3.5,3.5-7.9,5.5-11.8c1.7,2.4,3.1,5,5,7.2c1,1.2,3,2.5,4.3,2.3c15.7-2.8,24.7-13.4,26.7-28.1
		c1.1-7.9,0.1-20.2-4.9-24.1C1014.4,1305.6,998.9,1299.2,984.4,1291.4z M984.3,1326.8c-3.3-7-4.8-13.4-8.6-17.3
		c-5.3-5.3-12.6-8.7-19-12.9c0.5,6.8,0.6,13.7,1.8,20.4c0.8,4.8,2.5,9.8,5,13.9c2.7,4.3,6.9,7.7,10.4,11.5
		C977.3,1337.3,980.8,1332.1,984.3,1326.8z"/>
	<path id="XMLID_485_" class="st0" d="M1658.5,2105.5c-0.7-0.7-1.4-1.4-2.1-2.1c0-1.4,0-2.7,0-4.1c0.7-0.7,1.4-1.3,2-2
		c1.4-0.7,2.8-1.4,4.1-2.1C1661.2,2098.6,1659.8,2102.1,1658.5,2105.5z"/>
	<path id="XMLID_486_" class="st0" d="M1707.9,2021c-1,6.2-1.9,11.7-2.9,17.1c0,0.2-1.8,0-2.8,0c0.7-7.8,1.3-15.6,2.1-23.4
		c0-0.3,1.5-0.4,2.4-0.6C1707.1,2016.8,1707.6,2019.4,1707.9,2021z"/>
	<path id="XMLID_487_" class="st0" d="M1660.7,2057.7c0-0.3,0-0.6,0-0.9c0,0,0.2,0,0.3,0c-0.2,0.2-0.3,0.5-0.5,0.8L1660.7,2057.7z"
		/>
</g>
</svg>
