<?xml version="1.0" encoding="utf-8"?>
<!-- Generator: Adobe Illustrator 19.0.0, SVG Export Plug-In . SVG Version: 6.00 Build 0)  -->
<svg version="1.1" id="Layer_1" xmlns="http://www.w3.org/2000/svg" xmlns:xlink="http://www.w3.org/1999/xlink" x="0px" y="0px"
	 viewBox="0 0 5092 4244" style="enable-background:new 0 0 5092 4244;" xml:space="preserve">
<style type="text/css">
	.st0{fill:#FFFFFF;}
</style>
<g id="XMLID_92_">
	<g id="XMLID_175_">
		<path id="XMLID_224_" class="st0" d="M1218.8,3237.1c-4.4,3.8-7,6.1-10.6,9.3c-1.6-4.1-2.9-7.2-4.3-10.9c8.7-3,13.1-8.8,16.4-16.7
			c-7.2-2.2-12.6,2.2-18,4.2c-19.6,7.3-38.7,16.2-58.3,23.5c-13.3,5-27.3,8.5-40.9,12.9c-3,1-5.7,2.9-8.4,4.6
			c-1.6,1-3.1,2.2-4.7,3.4c-9.1-4.9-12.8-11.7-13.2-21.9c-0.8-21.6-3.5-43.1-4.6-64.7c-0.9-19.9-0.7-39.9-1-59.9
			c-0.2-17.8,5-34.8,7.1-52.2c2.7-22.8,3.8-45.8,4.1-68.7c0.2-13.7,1-26.9,4.5-40.3c2.7-10.5,3.6-21.7,3.6-32.5
			c-0.1-14.9,1.5-29.2,6.9-43.1c2.9-7.4,5.2-15.1,7.4-22.8c5.4-19,13.2-36.9,22.7-54.2c16.2-29.5,32-59.1,47.8-88.8
			c2.3-4.4,4.2-9.1,6-13.7c7-19,14.3-38,20.5-57.3c2.6-8.1,2.9-17,4.3-25.5c1.5-8.5,2-17.4,4.9-25.4c5.4-15,7.5-30.4,7.3-46.1
			c-0.3-21.1,5-40.8,11.6-60.5c2.7-8.2,5.8-16.3,8.6-24.5c0.5-1.4,0.5-3,1-6c-10.8,3.3-20.6,6-30.2,9.3
			c-17.9,6.1-33.6,15.9-47.1,29.3c-15.4,15.2-31.4,29.8-46.3,45.6c-16,16.9-30.8,34.9-46.2,52.4c-12.5,14.3-25.3,28.3-37.2,43
			c-16,19.6-31.4,39.6-42.2,62.8c-9.4,20.2-17.3,40.9-23.4,62.4c-2.5,8.9-6.9,17.2-9.9,26c-6.7,19.5-13.4,38.9-19.6,58.6
			c-11.3,36.1-23.9,71.8-36.4,107.5c-13.1,37.5-29.4,73.5-45.4,109.7c-7.8,17.6-14.3,35.8-20.4,54.1c-9.6,29-18.5,58.2-27.5,87.4
			c-1,3.1-1.3,6.5-1.9,9.7c-1.2,6-4,7.9-9.8,7c-8.8-1.4-11.9-8.4-8.9-16.7c7.3-20.3,13.9-40.9,20.8-61.4c7.3-21.7,14.7-43.4,22.2-65
			c2-5.9,4.1-11.9,6.6-17.6c15.2-34.7,31.7-69,45.4-104.3c12.4-31.9,21.8-64.9,32.5-97.5c8.9-27.2,18.4-54.1,29.7-80.5
			c9-21,16.1-42.9,24.5-64.3c7.4-18.9,15.9-37.1,28.5-53.5c6.8-8.8,12.3-18.8,19.7-27.3c12.9-14.8,25.5-29.9,38.5-44.5
			c17.7-19.9,35.3-39.8,53.5-59.2c11.8-12.6,24.5-24.4,37.1-36.3c7.5-7,15.3-13.8,23.4-20.1c19.2-14.9,41.3-22.3,65.4-24.5
			c2-0.2,4-0.3,5.9-0.7c0.9-0.2,1.8-0.7,4-1.7c2.9-12.9,6.5-26.3,8.9-40c3.4-19.5,9.7-38,17.4-56.1c9.3-22,18.6-44.1,27.8-66.1
			c3.5-8.2,5.4-17.5,10.4-24.6c8.2-11.7,13.3-25.2,23.4-35.8c6.8-7.2,11.3-16.5,17.7-24.1c5.7-6.8,12.4-12.8,19.1-18.7
			c4.8-4.1,10.3-7.3,15.5-11c10.5-7.3,17-17.6,21.5-29.3c1.2-3,1.4-6.4,1.8-9.7c2.8-18.7,4.7-37.7,8.5-56.2
			c3.1-15.1,4.2-30.3,5.2-45.6c1.3-21.6,3.5-43.1,4.9-64.7c0.7-10.3,1.6-20.7,0.6-30.9c-2.1-23.4,0.6-46.5,2.5-69.7
			c0.3-3.3,0.6-6.6,0.6-10c0-48.3,0.3-96.6-0.3-144.9c-0.3-25.6-2.5-51.2-3.4-76.8c-0.8-22.3-0.4-44.4,4.5-66.6
			c5.6-25,8.7-50.5,12.8-75.8c1.1-7,3.8-9,9.8-7.4c4.5,1.2,4.5,4.6,4.1,7.9c-1.7,14.2-3,28.5-5.4,42.6c-3.7,22-10,43.5-8.9,66.1
			c0.8,18.6,1.9,37.2,2.9,55.9c1.4,26.2,3.4,52.4,4.1,78.7c0.6,24-0.3,48-0.4,71.9c-0.1,19,0.1,38-0.3,57
			c-0.2,12.6-1.4,25.2-1.9,37.9c-0.3,7.2,0,14.5,0,22c12.5,1.7,23.9-0.6,35.4-1.8c20.5-2.3,40.9-4.7,61.3-7.5
			c12.8-1.8,25.5-4.2,38.2-6.6c18.9-3.6,37.7-7.7,56.6-11.1c11.7-2.1,23.9-1.4,35.1-6.4c1.1-0.5,2.7-0.4,3.9-0.1
			c5.4,1.3,12.2,11.6,11.6,17.3c-0.7,6.1-8.3,12.3-15.5,11.1c-18.5-3-36.5,1.2-54.5,4c-37.5,5.8-74.7,13.1-112.8,14
			c-17.9,0.4-35.9,2.7-53.8,4.2c-1.3,0.1-2.5,0.7-4,1.1c-0.9,12.1-1.7,24-2.7,35.9c-0.5,6.3-1.6,12.5-2.2,18.8
			c-2,19.5-3.7,39-6.1,58.4c-1.2,9.9-2.4,19.9-5.3,29.4c-5.4,17.7-5.8,36.1-8.4,54.2c-0.4,2.6,1,5.7,2.2,8.3
			c3.7,8.2,1.1,16-5.3,22.3c-12.1,11.9-27.1,18.9-41.2,27.5c-6.7,4.1-13.6,9.1-18.1,15.4c-14.3,20-28,40.5-41,61.4
			c-4.8,7.8-7,17.2-10.5,25.8c-7.6,18.4-14.6,37.1-23.1,55.2c-9.9,21-15.7,43.2-20.4,65.6c-3.7,17.4-8.9,34-15.7,50.3
			c-7.6,18.1-13.9,36.7-16.3,56.3c-0.6,4.9-1.3,9.9-1.2,14.9c0.1,21.1-2,41.8-9,61.9c-2.1,5.9-2.8,12.3-3.3,18.6
			c-1.5,17-5.5,33.4-12.3,49.1c-2.4,5.5-4.8,11-6.7,16.7c-8.4,25.8-20.9,49.6-34.3,73c-12,21.1-24,42.3-34.3,64.3
			c-7.3,15.6-12.3,32.3-17.6,48.7c-3.7,11.3-6.4,23-9.3,34.6c-0.7,2.5-0.6,5.3-0.8,7.9c-1.6,16.5-3.4,33.1-4.8,49.6
			c-0.9,10.6-1.2,21.2-1.9,31.8c-1.4,19.2-2.4,38.5-4.5,57.7c-2.1,18.8-6.4,37.5-8,56.3c-1.5,17.9-1.5,35.9-0.7,53.9
			c1.1,24.3,3.7,48.5,5.7,72.7c0.2,2.9,1.1,5.8,1.6,9c6.8,1.2,12.8-0.9,18.6-3c26.8-10,53.5-20.4,80.2-30.6
			c6.2-2.4,12.4-4.8,18.7-7.1c5.3-2,10.2-3.5,13.1-9.6c2.5-5.3,6.9-5.9,11.3-2c2.9,2.5,5.4,1.8,8.2,1.3
			c30.6-6.2,61.1-13.3,91.9-18.5c22.6-3.8,45.6-5.7,68.5-7.5c33.2-2.7,66.4-4.5,99.6-6.8c14-1,27.9-2.2,41.8-3.3
			c3.8-0.3,6.8-1.4,9.5-4.4c8.3-9.3,11.6-8.8,19.5,2.4c16.6-1.5,33.9-2.9,51-4.8c16.9-1.9,33.7-4.2,50.5-6.8
			c30.9-4.8,61.8-10,92.7-14.8c33.2-5.2,66.5-10.2,99.7-15c35.6-5.1,71.2-9.7,106.7-15c8.2-1.2,16.1-4.1,24.1-6.3
			c16-4.3,32.1-8.6,48.1-13.1c19.5-5.4,38.9-10.9,59.7-16.7c-1.2-21.8-1.1-43.5-3.9-64.8c-3.7-28.1-13.6-54.8-23.5-81.3
			c-10-26.9-14.2-54.7-13.6-83.2c0.4-21.9,2.3-43.9,2.2-65.8c-0.1-25.3-1.6-50.5-2.5-75.8c-0.8-22.9-1.2-45.9-2.5-68.8
			c-1.7-29.5-1.6-59.1-5.7-88.6c-2.6-18.7-5.9-37.4-8.2-56.1c-1.1-8.8-4-17.4-6.5-26c-4.1-14.3-8.5-28.6-12.8-42.9
			c-0.5-1.6-1-3.2-1.6-4.7c-12-29.6-21.2-60.1-30.2-90.7c-8-27-16-54.1-25-80.9c-8.1-24.2-21.9-45.5-37.3-65.8
			c-7.4-9.8-15-19.3-24-28c-13.1-12.5-28.3-21.1-44.7-27.6c-26.2-10.4-52.8-20.1-79.6-29.1c-13.5-4.5-27.6-7-41.5-10.1
			c-5.3-1.2-10-0.4-14.9,3.4c-7.2,5.6-15.2,4.4-20.7-1c-3.2-3.1-3.9-6.8-1.8-9.9c7.8-11,6.5-23.5,6.6-35.6
			c0.3-31.5-5-62.3-13.3-92.5c-7.9-28.7-12.5-57.9-15.1-87.5c-3.6-40.5-7.1-80.9-10.1-121.4c-2.9-40.3-0.6-80.6,0.9-120.8
			c1-26.6,0.9-53.2,1.4-79.9c0.1-2.9,0.9-5.8,1.5-9.6c-6.2,1.3-10,6.1-14.7,9.2c-11.4,7.4-22.6,15.1-33.9,22.7
			c-1.6,1.1-4.3,2-4.6,3.4c-1.5,6.8-6.9,6.9-11.7,6.5c-5.9-0.4-12.1-1.1-17.5-3.2c-36.2-14.4-71.8-30.4-104.7-51.5
			c-34.7-22.1-66.1-48.2-94.3-78.3c-19.2-20.5-34.2-44.2-51.1-66.5c-20.3-26.9-37.2-56-55.3-84.3c-8.2-12.9-14.6-26.9-21.8-40.4
			c-1.4-2.5-2.8-5-5.2-7.4c-1.5,3.8-0.3,7.4,0.3,10.9c6.2,31.7,9.6,63.7,11.8,95.8c0.7,10.5-6.7,16.6-17.9,14.9
			c-2.3,8.8-4.5,17.6-6.8,26.6c5-0.7,8.8-1.8,12.6-1.7c4.1,0.2,7.9,1.8,8.7,6.7c0.6,3.4-2.7,8.9-6.7,10.2c-3.1,0.9-6.6,1.4-9.7,0.8
			c-18-3.4-35.9-7-53.7-11.1c-4-0.9-8.6-3.1-10.9-6.2c-11.8-15.8-15.4-32.2-7.3-50.5c4.6-10.3,14.2-13.4,23.6-16.7
			c3.1-1.1,6.5-1.5,9.6-2.7c8-3,15.9-2.1,23.2,1.5c2.9,1.4,5.3,4.9,6.9,8c3.2,6.1,5.7,12.6,10,19c0-2,0.2-4,0-5.9
			c-0.8-8.6-1.6-17.2-2.7-25.8c-0.6-4.5-0.6-9.3-5.2-12.4c-1.3-0.9-1.8-3.5-2-5.3c-1.4-10.5-2.5-21.1-3.9-33
			c-4,5.7-2.5,10.8-2.9,15.6c-0.4,5.2,0.3,10.6-4.1,14.9c-2.9,2.9-5.8,4.8-9.7,3.6c-4.5-1.4-5.5-5.3-5.4-9.6c0.1-4,0.3-8,0.1-12
			c-0.2-2.6-0.2-5.9-1.8-7.6c-4.5-4.9-3.7-10.1-3-15.9c1.2-11.5,1.1-23.1-2.6-34.7c-6-0.2-9.7,3.3-13.4,6.4
			c-14.1,11.6-21.9,27.2-28,44.1c-8.6,23.8-12.7,48.3-11.1,73.5c2.5,38,15.5,71.3,44.6,97.1c10,8.9,21.7,14,35.2,14.6
			c8.1,0.3,14.9-3.4,21.3-7.5c10.9-7,21.4-14.7,32.2-21.9c6.1-4.1,9.8-9.7,11.7-16.8c1.9-6.8,4.6-9,10-9.1
			c4.4-0.1,10.9,4.1,12.5,8.6c1.5,4.1,0.5,7.5-2.4,11c-17,20.9-39.4,34.4-62.9,46.3c-12.5,6.3-25.9,5.7-38.9,1.4
			c-23.9-7.8-40.4-24.5-54.3-44.7c-9.8-14.2-16.1-30-21.4-46c-2.9-8.9-2.8-19-3.4-28.6c-1.4-23.8,0.5-47.3,8.2-70
			c7.5-21.9,17.6-42.4,35.1-58.4c7-6.4,14.4-11.5,24.1-12.8c0-9.2,0.2-18.1-0.1-27c-0.4-12.4-2.5-24.5-6.9-36.1
			c-2.2-5.8-5.6-11.2-8.3-16.9c-7.4-16-14.4-32.2-25.2-46.4c-2.2-2.8-4.6-5.5-8.1-9.5c-0.8,4.6-1.4,7.6-2.3,12.8
			c-1.2-4.7-1.7-7.4-2.5-10c-0.7-2.1-1.4-4.4-2.8-6c-4.7-5.1-3.6-11.3,3.1-13.1c4.6-1.2,9.4-1.2,13.1,2.5c4.9,4.9,9.8,9.9,14.5,15.1
			c2.4,2.7,4.4,5.8,6.9,9.1c5.5-4.7,4.5-10.2,4-15.8c-1.6-16.9-3.5-33.8-4.3-50.7c-0.6-12.4,1.3-24.6,9.2-35.1
			c1.6-2.2,2.2-5.6,2.4-8.4c1.5-23.4,5.8-46.2,11.7-68.8c2.6-10,5.5-19.9,9.1-29.5c3-7.9,3.3-16,4.3-24.2
			c1.9-14.7,5.4-29.2,8.7-43.7c0.6-2.7,2.8-5.4,4.8-7.4c5.8-5.7,11.1-5.5,16.6,0.8c2.8,3.1,4.9,6.9,7,10.5c2.3,4.1,3.7,8.6,9.5,9
			c4,0.3,3.9,3.8,3.9,6.9c0,7.6,0,15.1,0,25c2-3.2,3.5-4.7,3.8-6.5c2.4-13,3.5-26.4,7-39.2c5.3-19.1,10-38.8,25-53.5
			c7.1-6.9,9.3-6.8,14.7,1.6c1.7,2.6,4.7,4.5,7.8,7.4c-1.8,24.8-3.7,50.5-5.5,76.3c0.3,0.1,0.6,0.3,0.9,0.4c1.4-2.8,3.4-5.4,4.2-8.3
			c5.1-19.6,9.2-39.5,15-58.8c3.1-10.4,8.2-20.3,13.7-29.7c4.6-7.9,8.4-15.7,9.4-24.9c1.9-17.5,8.5-33.5,16.5-48.9
			c1.9-3.6,5.4-7,8.9-9.1c5.6-3.3,10.2-0.6,11.3,6c0.5,3,1.2,6,1.9,10.1c12.4-14.7,12.4-14.7,20.5-14.1c5.5,8.6-2.8,19,3.2,28.3
			c2.5-1.9,4.5-3.6,6.6-5c6-3.8,10.2-1.7,11.2,5.4c0,0.3,0,0.7,0.1,1c1.6,20.6,3.2,41.1,4.9,61.7c0.2,1.9,0.7,3.8,2.8,6.1
			c0.9-2.8,2.1-5.6,2.8-8.5c2.3-10,4.4-20.1,6.5-30.2c1.2-5.8,2.1-11.7,3.3-17.6c1.9-9.7,6.8-18,13.1-25.4c1.4-1.7,5.5-2.3,7.8-1.6
			c1.8,0.5,3.6,3.6,4.1,5.8c0.4,2.4-0.4,5.3-1.2,7.7c-6.2,17-10.3,34.4-12.2,52.4c-0.6,5.2-2.6,10.3-3.6,15.5
			c-1.1,5.4-1.7,10.9-2.7,17.3c5.7-1.9,7.8-5.2,8.8-9.2c1.4-5.5,3-11,3.7-16.5c2.5-19.7,9.2-38.1,17.2-56c1.5-3.3,3.8-6.2,5.8-9.3
			c4.5-6.7,7.4-13.9,9.2-21.9c2.8-13,6.5-25.7,16.1-35.8c4.5-4.7,6.8-4,10.1,1.8c9.7,17.1,7,35.2,4.5,53.2
			c-1.7,11.8-4.4,23.5-6.5,35.3c-0.5,2.7-0.1,5.6,1.4,8.7c3.4-10.9,7.1-21.8,10-32.9c2.7-10.2,7.1-19.2,14.4-27
			c3.1-3.3,5-7.9,8-11.4c6.4-7.6,12.4-15.8,19.8-22.3c9.2-8.1,16.9-4.5,18.3,7.9c0.6,5.2-0.2,10.5,5.9,13.5c1.3,0.6,1.2,5,0.9,7.5
			c-2.9,28.1-0.8,55.9,3.6,83.6c0.1,0.6,0.6,1.1,1.8,2.9c0.6-3,1.3-4.9,1.4-6.8c1.2-20.9,3.3-41.8,8.5-62.2c1-3.9,3.9-7.5,6.8-10.5
			c1.5-1.5,5.4-2.3,7.1-1.4c1.8,0.9,2.6,4.2,3.2,6.7c0.3,1.4-0.7,3.2-0.9,4.8c-2.8,21.1-6,42.1-8.2,63.3c-1,9.8-0.2,9.9,9.3,11
			c4.3,0.5,8.6,1.1,12.8,1.6c0.3,0,0.6-0.3,1.9-0.8c8.2-24.1,6.8-52.2,24-74.2c10.2,1.2,12.3,3.8,8.8,13.2
			c-6.6,17.8-8.5,36.2-9.1,54.9c-0.3,11.5,0.3,12.2,11.8,14c1.3,0.2,2.6,0,4.4,0c1.1-2.7,2.5-5.3,3.3-8.1c3.9-14.4,7-29,11.8-43.1
			c4.9-14.4,10.9-28.5,17.2-42.4c2.3-5,6.5-9.2,10.3-13.4c1.3-1.5,4.6-3.3,5.7-2.6c2.3,1.3,4,3.9,5.6,6.3c0.6,0.9,0.3,2.7-0.1,3.9
			c-5.4,13.6-5.1,28.1-6.7,42.3c-1.3,11.2-2.3,22.5-3.4,33.8c-0.1,1.2,0.3,2.4,0.7,6.1c5.8-16.1,9.8-30.5,16.2-43.7
			c6.3-13.1,15-25,22.8-37.7c10.5-1.6,14.5,2.5,10.2,12.4c-12.4,28.4-16.8,58.7-21.6,88.9c-0.9,5.6-2.3,11.1-3.1,16.7
			c-0.7,4.9-0.8,9.8-1.1,14.7c0.7,0.3,1.4,0.5,2.1,0.8c1.1-1.9,2.5-3.8,3.2-5.9c9.9-29.6,19.5-59.4,29.4-89
			c6.2-18.6,12.4-37.2,19.1-55.6c3.5-9.6,7.3-12.3,12-10.6c4.3,1.6,4.2,7.8,1.3,16.2c-7.3,21-15.5,41.9-20.8,63.4
			c-5.5,21.9-8.1,44.5-11.8,66.9c-0.3,1.9,0,3.9,1.3,6.2c2-6.6,4.3-13.2,6.1-19.9c5.1-19.4,13.2-37.6,21.3-55.9
			c6-13.7,12.1-27.4,21.4-39.4c4.5-5.9,9.4-11.1,16.2-14.6c2.8,1.3,5.4,2.6,8.4,4.1c2.5-2.3,4.8-4.4,7-6.5c8.7,4,10.4,7.5,6.7,15.4
			c-3.8,8.1-8.3,16-12.4,23.9c-1.6,3.1-3.1,6.2-3.2,10.2c4.5-3.7,8.8-7.7,13.5-11.2c8-5.9,8.1-5.8,17.6,0.2
			c1.8,15.7-3.8,30.1-9.7,44.1c-6.2,14.7-14,28.7-20.7,43.2c-3.6,7.8-6.4,16-9.5,24.1c-0.5,1.4-0.3,3.1,0.9,5.1
			c1.5-2.8,3.2-5.5,4.6-8.3c13-25.5,26-51,39-76.5c1.9-3.7,3.8-7.4,8.9-5.7c4.9,1.6,7.7,7,6.2,12.1c-1.3,4.4-3.2,8.6-3.6,13.7
			c1-0.9,2.3-1.7,2.8-2.8c2.1-4.2,5.7-4.8,9.2-3.1c3.3,1.6,3.9,4.9,2.9,8.6c-3.4,12.5-7.1,25-9.7,37.6c-1.5,7-2.7,14.7-1.4,21.6
			c2.3,12.7-0.7,25.1-0.3,37.7c0.1,4.3,0,8.5,0,13.3c1.9-0.6,3.1-0.5,3.6-1.1c2.2-2.6,5.1-4.1,7.7-1.8c1.9,1.7,3.6,5,3.5,7.5
			c-0.5,8-1.9,15.9-3,23.8c-5.3,37.4-7.9,74.8-4.7,112.6c0.1,1.6,0.7,3.1,1.2,5.5c7-2.6,13.3-5.3,19.9-7.3c13.1-4.1,26.3-7.3,40.2-4
			c8.4,1.9,16.9,3.5,25.2,6c14.4,4.4,24.5,14.5,32.6,26.6c10.1,15.1,17.5,31.4,18.9,49.9c1.5,20.2,4.1,40.5,4.4,60.7
			c0.7,40.5-17.2,73.1-45.6,100.7c-12,11.7-26.8,18.3-42.3,23.7c-8.9,3.1-17.7,2.7-26.4-0.4c-8.5-3-16.8-6.2-25.2-9.4
			c-1.2-0.5-2.7-0.9-3.4-1.8c-10-12.8-26.2-16.4-38.9-27.9c-2.6,10.8-4.5,19.8-6.8,28.6c-3.9,14.8-8.2,29.5-12,44.3
			c-6.3,24.6-15.1,48.2-26.2,70.9c-5.5,11.3-12.4,21.9-19.7,32.2c-7.8,11.1-16.5,21.6-25.2,32.1c-8.5,10.2-18.1,19.5-26.3,30
			c-21.5,27.3-48.7,45.8-81.5,56.9c-9.4,3.2-18.2,8.2-27.2,12.5c-1.1,0.5-1.9,1.6-3.9,3.3c11.3,1,13,7.9,13.8,16.5
			c2.3,27,0.1,53.9-0.7,80.8c-0.9,29.3-1.7,58.6-0.5,87.9c1.5,37.9,4.6,75.7,7.8,113.4c3.4,40.5,9.2,80.6,20.3,119.8
			c7.2,25.4,10.3,51.6,11.3,77.9c0.5,14.3,0.1,28.5,0.1,43.4c1.9,0.4,3.8,0.9,5.6,1.2c10.8,1.7,21.9,2.4,32.4,5.2
			c32.8,8.7,64.7,20.2,96.2,32.8c31.5,12.6,56.6,33.1,77.2,59.8c15.3,19.9,28.5,41,38.2,64.2c2.2,5.2,5.7,8,11,10.5
			c24.8,12,49.5,24.5,73.8,37.6c8.1,4.4,15.1,10.8,22.6,16.3c5.6,4.1,11.3,8.2,16.8,12.5c4.5,3.4,9.4,6.6,13,10.8
			c21.4,25.1,43.7,49.5,63.4,75.8c29.8,39.8,54.1,83,74.9,128.2c8.1,17.5,17.4,34.6,24.5,52.4c14.4,35.9,26.3,72.6,33.9,110.6
			c6.9,34.6,12.6,69.4,19.8,103.9c4,19.1,10.1,37.9,15.3,56.8c1,3.5,2,7,2.8,10.6c1.1,4.7-1.1,8.6-4.2,11.7
			c-5.2,5.3-11.6,4.1-13.9-3.1c-3.2-10.1-5.6-20.4-8.2-30.7c-2-7.7-4.3-15.4-5.7-23.2c-4.7-25.5-8.7-51.2-13.5-76.7
			c-2.9-15.7-6.3-31.3-10.3-46.7c-5.7-21.9-11.7-43.7-18.3-65.3c-9.3-30.7-23.5-59.4-37.9-87.9c-13.2-26.2-27-52-41.2-77.6
			c-16-28.9-35.1-55.8-56.5-80.9c-5.4-6.3-11.1-12.4-16.2-19c-21.3-28-49.2-48.7-78.1-67.8c-17.6-11.6-37-20.6-57.3-31.7
			c3.8,12.9,7.3,23.8,10.2,35c11.1,42.2,25.8,83.1,40.6,124.2c14.1,39.2,24.4,79.5,27.7,121.3c1.1,14.6,2.3,29.2,2.8,43.8
			c1.7,47.6,2.3,95.3,4.9,142.8c2.4,44.6,2.6,89.2,3.1,133.8c0.2,19.1,3.4,37.7,9.2,55.9c4.9,15.2,10.1,30.3,14.7,45.6
			c8.8,28.8,15.1,58,14.2,88.3c-0.2,7.6,0.6,15.2,1.1,24.4c11.7-2.8,22.2-5.3,32.6-7.9c1.9-0.5,3.7-1.6,5.6-2
			c7.5-1.5,13-4.8,13.4-13.4c0.1-1.2,1.3-2.3,2.3-4.1c4,7,5.3,14.3,5.9,21.6c0.4,5.2-4.3,9.7-10.9,11.4c-14.5,3.7-29,7.1-43.5,10.7
			c-1.3,0.3-2.4,1-3.8,1.5c0,9.4-0.2,18.7,0.1,28c0.3,9.6-2.4,14.1-12.2,18.2c-6.3-4.6-8.8-10.3-7.6-18.6c1.1-7.4,0.2-15.1,0.2-23.4
			c-2.7,0-5-0.5-7.1,0.1c-29.6,7.8-59.2,15.4-88.6,23.9c-21.5,6.2-43.1,11.5-65.2,14.5c-20.1,2.7-40.3,4.6-60.4,7.2
			c-35.3,4.6-70.7,8.1-105.6,15.2c-21.8,4.4-44.1,6.9-66.1,10.2c-20.7,3.1-41.4,6.5-62.2,9c-25.4,3-51,5-76.5,7.5
			c-1.5,0.1-2.9,0.6-4.8,1c1.5,4.7,4.7,4.7,8.1,5.2c14.5,2,29,3.9,43.4,6.4c4.1,0.7,8,3,11.8,4.8c13.3,6.3,27.5,8.4,41.8,7.3
			c15.5-1.2,30.8-5,46.3-6.7c12.9-1.4,25.9-1.7,38.8-1.8c5.5,0,9.8,6.3,9.7,13c-0.1,5.7-0.5,11.3-1,17c-0.8,9.1-1.7,18.2-2.6,27.3
			c-0.1,1-0.2,2-0.1,3c2,15.1,3.9,30.2,6.3,45.2c1.7,10.9-1.4,21.4-3.9,31.5c-4.5,17.9-5.9,36-7.9,54.2c-1.4,13.2-4,26.4-4,39.7
			c-0.1,20.9,1.4,41.9,2.4,62.8c0.1,2.3,0.7,4.6,1.5,6.8c3.1,7.9,0,13.6-6.1,18.2c-1.6,1.2-4.2,2-6.2,1.9
			c-7.6-0.5-15.1-1.7-22.7-2.4c-12.2-1.1-24.5-2-37.9-3.1c-0.6,2-1.8,4.3-2.1,6.7c-1.6,11.5-2.8,23-4.3,34.5
			c-2.2,15.8-8.5,29.9-17.8,42.8c-5.4,7.6-9.6,16-14.7,23.7c-8.5,12.7-16,26.2-28.8,35.4c-6.8,4.9-14.1,7.1-22.5,6
			c-5.2-0.7-8.7-3.1-10.5-7.9c-1.4-3.7-3-7.5-3.6-11.4c-3.7-23.7-8.1-47.3-10.4-71.1c-1.6-17.1-0.3-34.5-0.2-51.8
			c0-2.9,0.3-5.8,0.5-8.9c-6.6-2.6-12.5-1.5-18.3-0.5c-12.9,2.2-20.3-4.1-19.8-17.4c0.8-19.9,2-39.8,3-59.8c0-1-0.1-2-0.1-3
			c-0.5-10.6-0.8-21.2-1.4-31.8c-2.2-43.7,2.6-87.1,6.1-130.6c1.9-23.2,3.9-46.4,6-69.6c0.4-4.3,1.4-8.5,2.3-14.1
			c-4.2,0-7.6-0.2-11.1,0c-27.9,1.7-55.8,3.5-83.8,5.3c-32.2,2.1-64.6,3.2-96.7,6.4c-37.8,3.7-75,11.5-112.1,19.7
			c-2.3,0.5-4.4,1.5-6.7,2c-4.5,1.1-6.7,3.8-7.2,8.4c-1.4,12.2-3.1,24.4-4.5,36.7c-4.7,41.8-3.1,83.8-3.8,125.8
			c-0.5,31.6-2.5,63.2-3.4,94.9c-0.5,18.3-0.6,36.6-0.4,55c0.1,15.8,17,30.8,32.6,29c17.8-2,35.5-4.7,52.4-11.1
			c3.6-1.4,7.8-1.7,11.7-1.9c4.8-0.2,7.1-2,7.9-6.9c4.7-30.9,10-61.8,14.5-92.7c1.8-12.5,2.2-25.2,2.7-37.9
			c0.6-16.6,0.6-33.3,0.9-49.9c0.6-30.6,1.1-61.2,6.4-91.5c2.2-12.7,4.6-25.5,6.8-38.2c0.6-3.3,1.1-6.7,0.7-9.9
			c-1.2-10.6,3.8-17,13.5-20.5c7.1,2.1,8.3,7.1,7.6,13.9c-0.6,6.6-0.1,13.2-0.3,19.8c-0.1,3.3-0.1,6.8-1.2,9.8
			c-10.4,29.7-12.3,60.4-12.2,91.5c0,19.6-2,39.2-2.9,58.9c-0.5,11.6,0.2,23.4-1.2,34.9c-3.1,25.8-7.1,51.4-10.8,77.1
			c-1.7,11.9-3.7,23.7-5.3,35.6c-0.6,4.6-0.1,9.3-0.7,13.9c-0.6,4.2-1.2,8.7-3.3,12.2c-3.3,5.6-7.5,6.5-13.8,3.9
			c-13.8-5.7-26.8-2.1-39.5,3.2c-2.3,1-4.1,5-4.6,8c-1.6,9.4-3,19-3.5,28.5c-0.9,17.2-9.5,29.2-23.7,38c-9.9,6.2-30.7,5.6-40-1.7
			c-7.2-5.6-13.4-12-16.4-20.9c-4.9-14.5-10.3-28.8-10.3-44.5c0-10.5,2.7-13.2,13.6-13.6c1.3-0.1,2.5-0.4,3.8-0.6
			c0.3-1.3,0.9-2.3,0.7-3.1c-5.1-18.8-1.4-37.8-1-56.6c0.9-35.6,3.4-71.2,4.5-106.9c0.9-30.6,0.2-61.3,1.2-91.9
			c0.7-21.3,3-42.5,4.6-63.7C1218.4,3242.7,1218.5,3241.1,1218.8,3237.1z M1491.1,1220.9c-0.4-1-0.9-2.1-1.3-3.1
			c-3.2,0-6.4,0.2-9.6,0c-5.3-0.3-10.6-0.7-15.9-1.4c-21-2.5-41-9.1-60.6-16.2c-17.7-6.4-33.5-16.4-42.7-34.2
			c-5.3-10.3-10.9-20.6-15.9-31.1c-2.3-4.8-5.3-6.9-10.6-7.4c-7.5-0.8-15-2.6-22.5-4.1c-7.7-1.6-15.3-3.5-23.8-5.4
			c0.5,3.5,0.7,6.1,1.2,8.5c5.8,25.1,9.3,50.4,8.8,76.2c-0.2,11.4-1.5,22.7-12.9,29.7c0.7,1.7,1.1,3.3,1.9,4.7
			c12.2,21.4,24.2,42.8,36.8,64c8.2,13.7,16.9,27.1,26,40.2c9.4,13.6,20.2,26.4,29.3,40.2c11.3,17.4,24.5,33.2,38.6,48.2
			c30.7,32.8,66.6,59,104.5,82.8c24.9,15.6,51.2,28.3,79,39.2c3.3-6.4,9-8.6,16.2-8.8c3.5-0.1,7.2-1.7,10.3-3.5
			c9.1-5.5,18.1-11.1,26.7-17.3c15.4-11.1,30.6-22.1,48.8-28.7c14.9-5.4,29.6-12,43.5-19.8c17.3-9.7,31-24,43.5-39.3
			c12-14.7,24.1-29.2,36-44c13.6-16.9,25.8-34.8,34.1-55c16.5-40.1,28.5-81.6,36.7-124.2c1.5-7.9,3.9-15.6-3.8-21.9
			c-1.4-1.1-1.7-3.6-2.5-5.4c-3.9-8-7.8-15.9-11.9-24.3c-10,2.3-19,4.2-28,6.5c-9.3,2.4-18.7,4.8-27.8,7.8c-8.5,2.8-18,3-26.2,8.4
			c6.6,6.5,12.4,12.2,18.1,17.8c-0.5,0.6-1,1.1-1.5,1.7c-6.4-4.4-12.9-8.8-20.9-14.4c3.7,19.9,0.7,37.7-3.2,55.2
			c-3.5,15.9-8.9,31.3-13.3,47c-1.5,5.4-2.5,10.9-3.7,16.1c2.2,0.7,4.4,0.7,4.9,1.6c2,4.4,0.3,12.6-3.9,14.3
			c-6.5,2.6-7.3,7.9-8.8,13.2c-0.7,2.6-1.2,5.2-2.3,7.7c-2.7,6.4-6.8,8.4-12.6,6.3c-4.9-1.7-6.3-6-3.9-12.5c1.3-3.4,3-6.7,4.3-10.1
			c3.2-8.7,2.6-9.8-6.2-13.2c-18.3-7-36.6-14.1-55-21.1c-4.2-1.6-8.4-3-12.8-4.5c-0.8,8-0.8,8,2.3,14c3,5.8,1.3,9.2-5.2,10.3
			c-1.2,0.2-2.5,0.4-4.5,0.7c-1.8,19.8-9.2,37.3-18.9,54.2c-5.2,9.1-12.1,15.5-21.7,19.7c-25.3,10.9-51.8,14.4-79.1,12.9
			c-18.5-1-33.8-8-46.7-21.6c-13.1-13.8-21.6-31.1-35.7-44.1c-3.5-3.2-4.4-7.4,0.6-11.2c11.8,7.2,22.3,15.3,30.1,27
			c5.2,7.6,11.5,14.7,18.1,21.2c7.5,7.4,16.7,11.9,27.8,11.5c6.3-0.2,12.6,0.9,18.9,1.1c5,0.2,10.2,0.9,14.9-0.3
			c13.8-3.5,27.6-7.4,41.1-12.2c4.7-1.7,9.5-5.5,12.3-9.7c13.2-19.8,21.5-41.1,17.5-65.6c-0.5-3.3,1.2-7,2.3-10.3
			c0.7-2,2.3-3.8,3.6-5.8c-5.8-4.2-11.4-7.7-16.3-12c-12.2-10.8-20.5-24.5-27.6-38.9c-9.5-19.4-18.5-39.1-27.1-59
			c-15.2-35.4-27.2-71.6-25-111c0.1-1.5-0.7-3-1.3-5.3c-12.7,2.3-24.9,4.6-37.2,6.8c0.2,1.8,0.1,2.8,0.4,3.6c1,2.8,2.1,5.6,3.4,8.3
			c9.1,19.3,12.8,39.8,13.1,61c0.3,22.9-4.9,45-12.4,66.4c-5.2,14.9-14.2,28-27.2,37.5c-16,11.7-33.4,20.8-52.5,26.2
			c-9.5,2.7-19.6,3.3-29.4,4.5c-1.6,0.2-3.4-1.4-5.1-2.2c15.8-2.1,29.8-7.2,42.6-15.2c8.4-5.2,16-11.8,23.9-17.8
			C1481.3,1228.4,1486.2,1224.6,1491.1,1220.9z M1598.7,956.7c3.7-1.7,6.1-2.6,8.4-3.8c19.1-10.2,37.8-21.2,57.2-30.6
			c28.9-13.9,59.7-15.8,90.8-10c13.1,2.4,24,9.9,30.2,22.5c1.4,2.8,2,6.3,2,9.5c0,5.1-4.7,9.9-9.9,10.9c-5.5,1-8.2-2.6-9.7-6.8
			c-3.9-11.4-13.1-15.2-23.6-17.3c-27-5.5-53.1-2-78.2,8.7c-17.7,7.6-34.9,16.5-52.4,24.5c-5,2.3-10.4,3.8-16.3,5.9
			c0,4.7,0,10.5,0,16.5c7.5-1.6,14.2-3.8,21-4.2c22.3-1.4,43.8,2.9,64.5,11c15.5,6.1,30.4,13.6,45.7,20.2
			c40.4,17.3,60.5,48.6,62.4,91.7c0.6,14.5-1.2,29.1-1.7,43.6c-0.2,5.9,0.7,11.7,3.9,17.2c27.8-7.6,55.1-15,81.3-22.2
			c-1.8-15.4-4.5-29.5-4.6-43.7c-0.1-11.8,1.3-24.1,4.9-35.3c3.4-10.7,5.4-21.1,4.7-32.2c-0.3-5-0.3-10-0.2-15
			c0.5-25.6,1-51.3,1.7-76.9c0.2-7.5-1.7-14.2-5.2-20.9c-1.3,0.8-2.2,1.2-3,1.7c-6.2,3.6-10.1,3.5-14.3-0.6c-4.3-4.2-0.5-8,1-11.7
			c1.7-4.2,3.7-8.3,5.6-12.4c-8.1-6.7-15.3-12.7-22.1-18.4c-1-5.2,5.7-8.8,1.4-15.4c-2.7,4.5-4.9,8.1-7.1,11.6
			c-1.6,2.5-3,5.2-4.9,7.4c-2.3,2.8-5.4,3.9-8.9,2c-3.4-1.8-6.1-4.1-5.3-8.6c0.6-2.9,1.8-5.9,1.7-8.8c0-2.3-0.9-5.3-2.5-6.8
			c-6.2-5.8-6.3-5.6-2.8-12.6c1.5-3,3.1-5.9,4.1-9.1c0.9-2.8,1.3-6-2.3-7.7c-7.8,3.5-9.1,3.5-12.7,1.6c-5.7-3.1-3.4-7.8-3-12.3
			c0.3-3.7,0.1-7.4-4.9-8.5c-0.9,1.6-1.9,3-2.5,4.5c-5.8,14.2-11.4,28.4-17.2,42.6c-0.9,2.1-1.9,4.3-3.3,6.1
			c-2.8,3.6-7.5,4.3-11.6,2.1c-4.2-2.3-3.3-5.6-2.2-9.4c2.2-7.6,4.1-15.4,5.7-23.2c2.5-11.7,4.5-23.5,6.9-35.2
			c2-9.7,0-13.2-10.3-16.8c-1.6,4.7-3.2,9.4-4.9,14c-4.4,11.5-8.4,23.2-13.3,34.4c-4.5,10.1-8,10.7-18.6,4.5c0.8-2.8,1-6.2,2.5-8.9
			c8-14.2,11.4-29.7,14.1-45.5c1.8-10.9,1.1-12.1-10.6-14.3c-0.9,2.2-2,4.6-2.9,7c-10.2,29.5-20.3,59.1-30.4,88.6
			c-0.8,2.2-1.4,4.5-2.6,6.4c-2.8,4.4-7.4,5.3-12.3,3.2c-5.1-2.2-4.2-6.1-3.1-10.1c1.3-4.8,3.3-9.6,3.7-14.4
			c2.2-22.5,3.9-45,5.7-67.6c0.1-0.8-0.6-1.7-1.7-4.8c-1.7,4.7-3.1,7.5-3.8,10.5c-5.7,24.6-11.2,49.2-17,73.8
			c-1.5,6.4-3.3,12.8-5.3,19.1c-1.9,5.8-5.9,7.8-11.6,6.5c-5.7-1.3-6.5-3-5.9-10.3c0.4-4.2,0.4-8.4,0.6-13.1
			c-2.5-0.2-4.1-0.3-5.7-0.6c-9-1.2-10.1-2.8-8.9-11.6c0.6-4.6,1.4-9.3,1.3-13.9c-0.6-15.3-1.6-30.6-2.6-45.9
			c-0.1-1.5-1.1-3-1.6-4.6c-4.4,33.1-7.2,65.9-10.1,98.7c-0.8,9.4,1,19.8-9.5,25.6c-0.7,0.4-1.2,1.6-1.5,2.5
			C1601.9,925.6,1597.3,939.9,1598.7,956.7z M1750.7,3207.8c-5.5-0.3-9.8-1.1-14-0.6c-15.2,1.6-30.4,3.2-45.6,5.5
			c-13.5,2-27,4.4-40.6,0.9c-12.5-3.2-25.1-6.3-37.6-9.2c-10-2.3-20-5.2-30.2-6c-14.3-1.1-15.3,0.5-16,14.6
			c-0.9,17.6-1.8,35.3-2.7,52.9c-1.8,31.3-4.1,62.5-5.3,93.8c-1.2,30.3-1.4,60.6-1.7,90.9c-0.1,8.9,1.1,17.7,1.7,27.4
			c7.3,0.7,13.4,1.4,18.8,1.9c9.4-14.9,12.6-15.6,26-6.5c1.9,1.3,3.6,3,5.7,4.1c2.3,1.3,4.7,3,7.1,3.2c19.2,1.2,38.5,2.1,57.8,3
			c0.6,0,1.1-0.6,2.4-1.3c-0.4-7.7,5.7-9.7,12.1-12.2c0.9,1.7,1.9,3.1,2.3,4.6c0.9,3.1,0.5,7.5,2.4,9.2c2.4,2,6.8,1.7,10.3,2.4
			c1.6,0.3,3.3,0.7,4.9,0.9c10.5,0.9,21,1.5,31.3,0.7c0-18.2,1.1-35.2-0.3-52c-1.8-21.9,1.4-43.2,3.8-64.7c1-8.9,3.3-17.6,4.6-26.5
			c1.9-13.1,4.9-26.2,4.9-39.4c0.2-26.3-1.3-52.6-2.1-78.9C1750.5,3220.3,1750.7,3214.5,1750.7,3207.8z M1653.3,1181.7
			c10.8,0,19.3-0.3,27.8,0.1c13,0.5,23.9-4.1,31.3-14.5c13.9-19.5,24.2-41.1,24.1-65.5c-0.1-28.3-12-52.8-29.4-74.8
			c-3.4-4.3-7.9-5.7-13.3-5.6c-12.3,0.3-24.7,0.2-37,0.8c-7.8,0.4-15.5,1.7-24.1,2.7c1.4,5.6,4.9,11.3-1.4,13.2
			c-7.5,2.2-8.9,7.2-8.9,13.5c-0.1,12.3-1,24.6,0.2,36.8c2.8,28.3,14.9,51.4,40,66.7c12.8,7.8,25.1,9.6,38.2,1
			c2.5-1.7,5.8-2.3,8.7-3.4c0.5,1.5,0.8,1.9,0.7,2.1c-6.5,15.5-26.5,23.6-41.2,16.9c-2.7-1.2-5.6-2.2-8.3-3.6
			c-14.6-7.3-26.6-17.8-35.3-31.5c-15.6-24.3-18.7-51.5-16.9-79.7c0.3-4.1,1.2-8.3,1.9-13.8c-14.3,2.4-27.2,4.7-40.7,7
			c-0.3,3.8-1.1,7.1-0.8,10.3c1.2,13.2,1.2,26.8,4.4,39.6c11.5,46.5,31.1,89.8,54,131.7c10.2,18.7,25.6,30.9,45.2,38.9
			c27.7,11.2,55.2,23,83.7,34.8c1.9-7.5,4.1-14.4,5.5-21.5c5-24.7,14.9-48.4,15.9-73.9c0.3-7.2,1.7-14.4-0.9-22.2
			c-3.3,0.8-6.1,1.5-8.9,2.1c-5.2,1.1-10.3,2.7-15.6,3.1c-2.5,0.2-6-1.1-7.6-3c-2.7-3.1-4.2-7.2-6.1-10.6c4.8-1.5,9.9-2.1,13.9-4.5
			c10.1-6.2,15.8-15.5,19.1-27c4.2-14.5,3.4-29,2.1-43.6c-1.4-16.1-5.1-31.6-14.3-45.2c-6.8-10.1-14.1-19.7-27.6-25.5
			c3.3,6.5,6,11.4,8.2,16.4c9.4,22,16.6,44.2,10.2,68.7c-6.1,23.4-15,45.3-30.6,64.4C1702.7,1204,1669.7,1199.9,1653.3,1181.7z
			 M1579.8,998.3c-2.9-1.3-4.4-2.1-5.9-2.5c-7.9-1.6-9.3-3.4-9.2-10.9c0.2-9.6,0-19.2,0.1-28.8c0.5-33-1.7-65.9-5-98.6
			c-1.9-19.1,5.6-34.2,14.4-49.4c2.3-3.9,3.6-7.4,4-11.8c1-11.9,2.4-23.8,4.1-35.6c0.8-5.4,2.7-10.6,4.1-15.9
			c-0.6-0.3-1.2-0.6-1.8-0.9c-1.5,2-3.1,3.8-4.4,5.9c-9.9,16.1-18.2,33.3-31.4,47.3c-2.5,2.7-3.6,7-4.9,10.7
			c-2.6,7.9-4.4,16-7.2,23.8c-3.4,9.4-5.8,10.4-15.6,7.9c-0.6-0.1-1.3,0.2-2.8,0.5c-2.2,4.6-4.6,9.6-7.1,14.6
			c-1.9,4-4.6,5.9-9.5,5.2c-8.5-1.2-8.7-1-11.2-12.5c-2.3,9.1-4,16.5-6,23.7c-3.1,11.3-7,13-17.3,8.4c-3.9-1.7-7.9-3.2-12-4.4
			c-8.1-2.3-10.4-5-7.9-12.8c4.7-14.5,4-29.5,4.8-44.4c0.1-2.7-0.7-5.5-1.1-8.4c-8.8,2-12.1,6.7-13,14.3
			c-1.8,16.5-4.6,32.9-6.4,49.5c-1.5,13.6-2,27.2-3.2,40.8c-0.4,4.5,0.3,8.3,5.3,9.1c11.3,1.8,20.1,8.6,29.3,14.4
			c5.5,3.5,10.9,7.1,17.4,11.3c0.6-5.4,1-9.4,1.6-15.6c6.4,13.2,12,24,16.9,35.1c2.7,6.3,0.4,11.6-5.4,15.4c-3.7,2.5-8.5,1.3-12.9-4
			c-12.7-15.5-29.4-25.9-46-36.3c-5.4-3.4-12.2-5.4-18.6-6.2c-9.7-1.3-13.5,2.3-14,12.2c-0.7,14.6-0.9,29.3-1.1,43.9
			c0,0.9,0.7,1.7,1.4,3.2c2.5-0.9,5-1.6,7.3-2.5c25.5-10.3,47.9-4.9,68.2,12.9c13.4,11.8,24.1,25.6,34.1,41
			c14.8-2.7,29.5-5.3,44.1-8.3c2-0.4,4.7-3.1,5.1-5.1C1564.2,1021.4,1569.7,1009.5,1579.8,998.3z M2075.2,1079.3
			c0.7-16.1-1.8-31.3-8.9-45.5c-8.5-17-20.2-30.2-39.5-35.5c-18.9-5.1-37.4-4.7-55.9,1.9c-13.5,4.9-16.6,8.8-16.7,22.9
			c-0.1,27-1.9,53.9-5.4,80.6c-1.1,8.1-1.6,16.3-2.4,24.4c4.8,0.8,5.9-1.2,5.7-4.4c-0.2-4.3-1.3-8.7-0.8-12.9
			c1.3-10.2,3.4-20.3,5-30.5c1.2-8.2,5.9-13.6,13.5-15.6c7.7-2,15.7-3.7,23.6-3.7c17.9-0.2,34.5,14.3,36.7,31.9
			c1.4,10.9,2.1,21.9,2,32.9c-0.1,12.1-2.8,23.9-8.6,34.6c-2.7,4.9-6.3,9.6-10.5,13c-2.6,2.1-7.6,2.6-11,1.7
			c-4.2-1.1-5.2-5.7-4.9-9.9c0.2-2.6,0.9-5.1,1.5-8.6c-8.6-3.2-17.2-5.8-25.3-9.5c-7-3.2-13.6-3.8-21.1-1.7c-7.6,2.1-7.7,1.5-8,9.6
			c-0.4,10.6-0.7,21.3-1.3,31.9c-0.5,8.7-4.3,15-14.6,17.6c8.3,5.5,16.5,11,24.1,16c5.1-2.6,5.2-9.8,12.1-7.7c0,3.9,0,7.8,0,12.8
			c5.5-3.1,10-5.8,16-9.2c-0.8,5.8-1.4,9.9-2.2,14.8c4.3,0.9,7.7,1.8,11.3,2.2c12.3,1.5,22.8-3.4,32.9-9.5
			c24.5-14.8,39.3-37.2,49.3-63.4c0.7-1.8,0.4-4,0.8-8.3c-7,10.1-14.6,15.2-24.1,17.1c-4.2,0.8-7.3-0.5-8.7-4.7
			c-1.4-4.2,0.9-5.9,4.8-7c7.3-1.9,12.1-7,15.2-13.5c6-12.6,9-25.8,6.7-39.7c-1-6.3-2.9-11.9-10.3-14.4c-5.7-1.9-7.9-7.4-7-12.9
			c0.9-5.7,4.5-9,10.8-10.2c5.9-1.1,8.5,0.3,12,6.3C2073.4,1075.4,2074.2,1077.4,2075.2,1079.3z M1380.2,968.4
			c-3.1,4.2-5.1,6.4-6.5,9c-7.9,13.5-16.3,26.8-23.5,40.7c-5.6,10.9-9.4,22.7-14.3,33.9c-1.6,3.6-3.6,7.2-6.3,10
			c-3.7,3.8-8.5,2-9.4-3.4c-0.4-2.2-0.2-4.8,0.7-6.8c8.9-19.7,17.3-39.6,29-58c7.1-11.1,16.5-21.9,12.5-37.1c-0.7-2.7,0.3-6,0.6-8.9
			c0.9-6.9,1.6-13.9,2.8-20.8c0.9-5,1.1-9.1-4.8-11.3c-4.5-1.7-5.8-5.6-3.7-9.8c5.3-11.2,4.9-23.3,6.6-35.1c0.2-1.4-0.5-3-1-5.9
			c-5.2,5.6-12.8,7.2-12.1,15.7c0.5,7.3,0.2,14.7,1.3,21.9c2.5,16.8,4.9,33.5,4.3,50.5c-0.5,13-3.1,25-10.5,35.8
			c-2.2,3.3-4.5,6.5-9.6,5.6c-5-0.9-9.1-2.8-10.2-8c-1-4.5-1.5-9.2-1.7-13.8c-0.3-6-0.1-12.1-0.1-18.2c-2.3,2.7-2.7,5.5-3.6,8.2
			c-1.6,5-3.1,10.2-5.4,15c-2.9,5.9-6.1,6.7-12.3,4.5c-5.8-2.1-7.6-6.3-6.2-14.9c1.7-11.2,3.5-22.3,5.2-33.5c0.3-2.3,0-4.7,0-8.9
			c-7,8.9-11,16.4-10.8,26c0.3,11.9-0.2,23.9-0.8,35.8c-0.4,9.1-2.4,17.7-8.1,25.3c-1.9,2.5-3.2,5.9-3.5,9c-2,19.8-4.5,39.4,0,59.4
			c4.2,18.7,3.4,18.9,22,24c11.5,3.1,23.2,5.2,35.7,5.8c0-3-0.2-5.3,0-7.5c1.1-11.1-1.9-22.5,2.9-33.5c8.1-18.6,19.9-34.5,33.9-48.9
			c6-6.2,9.3-12.2,8.2-21.2c-0.9-8.2,0.2-16.6,0.3-24.9C1381.5,973,1381,971.8,1380.2,968.4z M1356.7,1129
			c7.2,20.4,17,38.5,36.1,49.7c18.6,10.9,39.4,15.8,60.1,20.8c13.6,3.3,27.5,4,41.7,3c8.5-0.7,13.3-4.2,16-12.1
			c10.5-30.6,13.3-61.7,5.4-93.3c-2.6-10.5-6.9-20.7-10.4-30.8c-4.2,1.3-7.2,2.3-11.1,3.5c0.6,8.7,1.3,17.7,1.8,26.6
			c1,18.1-5.4,34.8-11.7,51c-6.8,17.5-24.2,21.8-40.1,12.1c-2.8-1.7-5.4-3.8-8-6c-10.2-8.4-21.6-14.3-34.4-17.7
			c-4.5-1.2-9.1-1.6-13.7-2.5c-0.8-0.2-1.5-1.2-2.2-1.7c0-3,0-5.9,0-8.3C1376.3,1125.1,1367,1127,1356.7,1129z M1587.8,3501.5
			c-0.5,3.8-1.3,6.7-1.2,9.6c0.4,18.3-0.2,36.7,1.9,54.8c2.4,20.8,6.8,41.3,11,61.8c2.3,11.2,8.7,12.7,16.8,5
			c8.7-8.4,15.4-18.2,21-28.9c5.8-11.2,12.6-21.9,18.2-33.2c3.8-7.7,7.5-15.8,8.9-24.1c2.3-13.9,2.6-28.1,3.8-42.9
			C1641.3,3502.7,1614.9,3502.1,1587.8,3501.5z M1495.2,1053.6c-0.4-2.2-0.1-4.2-1-5.6c-8.9-13.9-19.7-26.2-33.2-35.5
			c-9.9-6.9-21.6-10.8-34.1-7.8c-7.1,1.7-14,4.4-20.7,7.4c-2.3,1-4.7,3.7-5.6,6.1c-4.9,12.6-6.2,13.5-19.9,11.9
			c-12,10.4-20.4,23.6-27.6,37.5c-7.3,14.2-5.3,28.8-1.8,44.1c10.5-1.9,20.7-0.9,28.6-5.7c1-11.9,1.3-22.8,2.9-33.6
			c1.8-11.7,4.6-23.3,7.5-34.8c0.5-2,3.3-4.3,5.5-4.9c11.8-3.4,24.4-4.1,35.4,0.7c9.9,4.3,19.4,3.8,29.1,3.4
			c6.3-0.3,12.1,0.1,17.2,3.4C1483.2,1044,1488.5,1048.5,1495.2,1053.6z M1390.3,1097.1c1.9,0.3,3.1,0.5,4.3,0.7
			c8,1.7,9.3,4.4,5.8,11.7c-3.3,6.8-1.2,12.1,6.2,14.3c13.1,4.1,25.5,9.4,36.5,17.9c2.8,2.2,6.3,3.7,9.7,5.1
			c7.6,3.1,13.8,1.9,18.6-4.8c3-4.2,5-9.4,6.2-14.5c4.7-19.2,5.8-38.7,3.5-58.3c-1.7-14-6.1-18.8-19.6-20c-3-0.3-6.2-0.6-8.9,0.2
			c-8.7,2.5-16.5,0.2-23.7-4.3c-6.3-3.9-13.2-4.3-20.2-4.4c-6-0.1-10,2.9-11.8,8.8C1392,1065,1390.7,1080.7,1390.3,1097.1z
			 M1267.6,3579.3c-8.2-0.4-14.8-0.9-21.3-1.1c-3.6-0.1-7.6-0.7-10.8,0.5c-7.1,2.7-13.1,1.2-18.6-3.1c-3.5-2.7-7-3.9-11-1.7
			c-4.5,2.4-3.8,6.9-3.2,10.6c2.3,13.7,5,27.6,12.6,39.4c4.4,6.8,9.9,13.4,19.6,13.5c14.5,0,27-9.3,29.3-23.4
			C1266.1,3602.6,1266.5,3591,1267.6,3579.3z M1966.7,1124.2c8.8-1,14.5-3.8,19.9-7.9c6.6-5,11.8-2.7,14.1,5.1
			c1.5,5.2-0.8,8.3-4.9,10.7c-3,1.8-6.1,3.4-10.4,5.9c9.8,4.5,17.5,9.9,27.3,6c5.6-12.8,6.6-40.2,1.9-52.8c-2-5.5-5.3-10.2-11.1-12
			c-6-1.9-12-3.9-18.2-4.8c-7.4-1.1-14.4,3.1-15.8,8.9c-1.9,8.1-3.8,16.2-4.6,24.4C1964.4,1112.9,1966,1118.1,1966.7,1124.2z
			 M1674.6,1007.8c0.2-1.1,0.4-2.1,0.6-3.2c-3.3-1.4-6.5-3.1-9.8-4.2c-14.3-4.5-28.8-7.9-44-7.8c-25.7,0.1-42.2,12.8-48.4,37.6
			c-0.4,1.7-0.1,3.7-0.1,6.5c12.1-1.9,23.2-3.9,34.3-5.3c5.8-0.7,9.9-2.9,12.4-8.3c3.7-7.8,10-12.2,18.6-13.1
			c8.2-0.9,16.5-1.6,24.8-2.1C1666.9,1007.6,1670.7,1007.8,1674.6,1007.8z M1290.7,906.9c0.9,0.3,1.7,0.6,2.6,0.9
			c3-3.4,5.6-7.3,9-10.2c5.2-4.5,7.2-10.3,8.1-16.6c2.1-13.4,4.1-26.9,5.8-40.4c3.4-26.7,6.7-53.3,9.9-80c0.2-1.3-0.6-2.7-0.9-4
			c-3.9,3.7-6.8,7.5-8,11.8c-4.5,15.6-9.1,31.3-12.4,47.2c-3.3,15.9-5.3,32.2-7.8,48.3C1294.9,878.2,1292.8,892.6,1290.7,906.9z
			 M1234.2,1377.6c6.2-7.4,6.9-15.8,9-23.8c2.4-9.1-2.1-16.1-6.2-23.3c-0.6-1-2-2-3.1-2.2c-5.2-0.8-10.4-1.8-15.7-2
			c-10.9-0.4-19.6,7.5-20.6,18.3c-1.4,14.5,6.3,25.6,20.6,29.3C1223.3,1375.4,1228.5,1376.4,1234.2,1377.6z M1278.5,1218.4
			c7.7-14.9,0.2-85.9-10.1-99.9c-2.6,3.8-5.4,7.5-7.6,11.4c-1.4,2.5-2.8,5.5-2.8,8.3c0.1,11.3,0.2,22.4,3.3,33.6
			c3.7,13.5,8.5,26.5,14.1,39.2C1276.3,1213.3,1277.2,1215.5,1278.5,1218.4z M1608.8,638.1c-6.1,3.8-9.8,8.4-10.4,15.2
			c-0.2,2.4-1,5.7-2.7,6.8c-5.7,3.7-8.4,9.4-10.9,15.1c-5.9,13.4-11.8,26.8-17.3,40.4c-1.5,3.7-1.7,7.9-2.5,12.1
			c10.7,0.2,12-0.1,16-8.6c7.9-16.8,16.7-33.3,20.7-51.6C1603.8,657.6,1606.4,647.9,1608.8,638.1z M1657.3,825.8
			c0.8,0.1,1.5,0.2,2.3,0.3c1-4.2,2-8.5,3.1-12.7c4.2-16.3,8.3-32.7,12.8-49c1-3.6,3-6.9-1-9.7c-2.7-1.8-16-3-17.1-1.6
			c-0.8,1-1.4,2.3-1.6,3.6c-0.3,2-0.2,4-0.1,6c0.3,19.2,0.6,38.5,1,57.7C1656.7,822.3,1657.1,824.1,1657.3,825.8z M1354.8,849.9
			c8.8-3.5,10.1-4.6,11.1-11.6c1.6-11.5,2.6-23,4.2-34.5c0.5-3.3,2.4-6.4,3.7-9.7c-0.4-3.1-2-7.1-1.2-10.6c1.7-7.6,4.5-15,6.8-22.5
			c1.4,0.1,3.1,0.2,6.5,0.5c-2.2-4-3.7-6.7-5.4-9.8C1368.2,770.1,1353,828.4,1354.8,849.9z M1900.5,1046.9c-0.8-0.1-1.6-0.1-2.4-0.2
			c-3.4,9.6-1.2,19.5-0.2,29.4c1,10.2,1.1,20.6,2.6,30.8c1.5,9.7,0.4,20,5.4,31.3c1.5-3.4,2.3-4.5,2.4-5.7
			c0.6-19.6,1.4-39.2,1.4-58.7c0-5.8,0.4-12.9-7.7-15.5c-1.3-0.4-1.8-3.9-2.1-6.1C1899.7,1050.4,1900.3,1048.6,1900.5,1046.9z
			 M1903,878.1c-0.6,4.9-1.4,9.8-1.9,14.8c-2.5,23.4-5.3,46.9,3.7,69.7c1,2.5,1.5,5.2,2.8,9.8C1911.1,956.4,1908.5,895.6,1903,878.1
			z M1745.5,754c1.1-7.8,2.1-15,3.1-22.2c0.9-6.9,2.2-13.8,2.4-20.7c0.2-6.8,6.2-13.1,2-21.7c-1.5,2.2-2.5,3.1-2.8,4.2
			c-4.7,16.9-9.5,33.9-14,50.9C1734.2,751.5,1735,752.2,1745.5,754z M1846.9,749.4c3.5-8.8,6.9-17.7,10.6-26.4
			c3.8-8.8,7.6-17.7,12.1-26.2c4.4-8.4,9.6-16.3,12.2-26.8C1870.7,679.6,1846.9,731.9,1846.9,749.4z M1883.2,761.7
			c-0.9-0.4-1.8-0.7-2.6-1.1c-12.8,23.9-25.7,47.8-38.4,71.8c-0.5,0.9,0.2,2.3,0.3,3.5c0.6,0.2,1.3,0.4,1.9,0.6
			C1857,811.4,1873.2,788.2,1883.2,761.7z M1701.2,798.2c0.8,0.1,1.6,0.2,2.4,0.3c2.4-7.1,4.8-14.2,7.3-21.3
			c1.2-3.4,2.8-6.7,3.7-10.2c1.1-4.1-1.3-6.2-5.1-6.8c-4-0.7-6.4,0.7-6.6,5.1c-0.2,6.9-0.5,13.8-0.8,20.8
			C1701.9,790.1,1701.5,794.1,1701.2,798.2z M1253.5,864.8c-0.8,0-1.5,0-2.3,0c-8,23.7-13.6,60.4-9.5,70.1
			C1245.9,910.1,1249.7,887.4,1253.5,864.8z M1402.2,920.9c1.2,0.2,2.3,0.3,3.5,0.5c1.1-6.3,3.3-12.6,3-18.9
			c-0.6-13.3,1-26.3,1.8-39.5c0.2-2.7,0-5.5,0-8.2c-0.8,0-1.6,0-2.3,0C1406.3,876.8,1403.3,898.8,1402.2,920.9z M1265,938.8
			c4.6-22,3.8-44.3,2.9-66.6C1263.3,894.2,1264.6,916.5,1265,938.8z M1776.3,770.9c0-15.4,5.3-28.6,3.9-43.5
			c-1.6,1.4-2.7,1.9-2.9,2.6c-3,10.2-6,20.4-8.6,30.7C1767.5,765.1,1770.3,768,1776.3,770.9z M1253.2,797.8
			c-4.2,11.9-8.9,23.2-8,35.9c3.8-4.7,6.3-10,9.6-14.8C1260.8,810.3,1260.8,807,1253.2,797.8z M1443.2,793.2
			c0.7,0.4,1.4,0.8,2.1,1.2c1.7-2.1,4.7-4.2,4.9-6.4c1-12.6,0.3-25.1-2.5-37.4c-0.8,0-1.6,0.1-2.4,0.1
			C1444.6,764.9,1443.9,779,1443.2,793.2z M1905.5,703.3c-0.6-0.5-1.2-1-1.8-1.5c-17.9,18.9-32.7,41.8-33.7,53.4
			c6-9.7,11-18.5,16.7-26.9C1892.6,719.7,1899.2,711.6,1905.5,703.3z M1472.7,838.7c6.2-14.5,10-29.2,7.4-46.6
			c-2,5.4-4.2,9.1-4.7,13.1C1474.1,816.3,1473.5,827.5,1472.7,838.7z M1895.5,1031c3-3.5,5.1-5.1,5.9-7.1c1.5-3.9-2.4-18.2-5.9-23.1
			C1895.5,1010,1895.5,1019.2,1895.5,1031z M1329.5,897.7c-5.5,10.5-7.5,27-5.2,37C1326.1,921.7,1327.8,909.7,1329.5,897.7z
			 M1922.6,1184.9c-8.8,6.3-8.8,8.5,0,13.2C1922.6,1193.6,1922.6,1189.4,1922.6,1184.9z M1808,782.2c-6.7,9.1-6.7,9.1-2,14.7
			C1806.7,792.1,1807.2,788,1808,782.2z M1563.2,747.6c-0.7-0.4-1.5-0.7-2.2-1.1c-3.9,2.9-5,6.8-2.1,12
			C1560.3,754.9,1561.7,751.2,1563.2,747.6z M1231.5,997.8c0.3-3.6,0.5-7.2,0.8-10.8C1229.4,990.3,1227.4,993.7,1231.5,997.8z
			 M1260.4,1018.2c0.7,0.1,1.4,0.2,2.1,0.3c0.7-4.2,1.5-8.5,2.2-12.7c-0.7-0.1-1.5-0.2-2.2-0.4
			C1261.7,1009.7,1261.1,1013.9,1260.4,1018.2z M1203,1083.8c0.7-0.4,1.5-0.8,2.2-1.2c0.1-3.2,0-6.4-6.5-7.8
			C1200.6,1078.8,1201.8,1081.3,1203,1083.8z M1592.5,3476.8c-0.1,0.8-0.1,1.5-0.2,2.3c2.8,0,5.6,0,9.9,0
			C1598.3,3475.6,1595.6,3475,1592.5,3476.8z M1910.1,699.7c0.6,0,1.2,0,1.9-0.1c0-2,0-4,0-6c-1.9,0.8-2.7,1.8-2.8,2.8
			C1909.1,697.5,1909.8,698.6,1910.1,699.7z"/>
		<path id="XMLID_232_" class="st0" d="M1325.9,2726.9c4.2-37.2,3.9-74.6,6.6-112.2c-8.2,2.1-8.2,2.1-16.2,14.2
			c-10.7-3.4-13.4-9.9-6.3-18c10.2-11.7,22.8-20,38.5-22.5c1.3-0.2,2.9-0.3,3.9,0.4c10.7,7,23.4,10.9,31.9,21.3
			c3.1,3.9,7.2,7,10.2,10.9c13.6,17.6,33,22.6,53.5,24.8c21.2,2.3,42.4,3.8,63.6,6.1c8.6,0.9,16.8,3.6,24,8.9
			c7.5,5.5,10.7,12.6,8,21.7c-1.4,4.8-3.2,9.4-4.9,14.1c-8,22.7-11.6,46.4-15.7,70c-5,28.9-11.6,57.2-19.4,85.5
			c-3.9,14.3-5.4,29.4-7,44.2c-1,9.2,0.5,18.3,4.1,27.3c5.1,12.7,1.6,17.9-12.2,20.7c-6.1,11.8-7,12.5-17.9,14.1
			c0-4.4,0.2-8.6-0.1-12.8c-0.2-3.9-1.5-7-6.1-7.9c-21.2-4.2-42.3-8.8-63.5-12.8c-8.8-1.6-17.8-2.1-26.8-2.9
			c-9.6-0.9-19.2-1.5-28.9-2.2c-1.3-0.1-2.6,0.2-4.7,0.4c2.6,5.6,4.9,10.8,7.7,17c-8.8,0.7-14.1-3.6-17.5-8.9
			c-3.9-6.1-8.5-7.4-15-6.9c-20.8,1.8-41.7,3.5-62.5,5.2c-2.7,6.7,0.5,16.7-11.2,16.6c-3.5-5.5-1.3-10.8,0.8-16.9
			c-10.1-6.3-10.7-16.1-10.4-26.9c0.3-13.6-1.4-27.3-1.3-40.9c0.1-22.9,0.8-45.9,1.4-68.8c0.2-7.3,1.2-14.6,1.4-21.9
			c0.8-28.8,4.7-57,15.2-84c3.1-8,5.1-16.5,7.5-24.8c2.9-10,0.1-19.8-1.1-29.6c-0.8-6.8,0.5-12.4,7.6-15.6
			c4.5,5.5,6.5,11.4,7.4,18.3c4.7,38.4,21.7,70.2,52.2,94.4C1323.3,2726.9,1324.1,2726.7,1325.9,2726.9z M1477.6,2912.2
			c0.6-1.3,1-1.9,1-2.4c-1.6-18.8,0.4-37.2,5.8-55.3c4.6-15.3,8.7-30.7,12.5-46.2c2.3-9.3,3.8-18.9,5.3-28.4
			c1.5-9.6,10.3-17.3,7.5-28c5.4-8.7,1.4-20.2,8.6-28.4c0.3-0.4-0.1-1.3,0-1.9c1.3-6.4,2.1-13,4.1-19.2c4.3-12.9,4.5-12.6-8-16.9
			c-13.8-4.8-27.3-10.7-41.3-14.8c-7-2.1-15.4-3.4-22.2-1.6c-13.5,3.8-25.5,12-35.5,21.6c-18.8,18-32.8,40.1-48,61
			c-3.1,4.3-2.6,7.3,1.4,11.1c6.9,6.6,13.4,13.8,19.6,21.2c8.1,9.7,16.2,19.4,23.6,29.7c14.2,19.7,28.2,39.5,41.7,59.6
			C1462.1,2885.5,1469.4,2898.6,1477.6,2912.2z M1457.5,2917.3c-6.3-24.1-85.7-129.1-106.8-142.2c-5.2,7.1-10.8,14.1-15.6,21.6
			c-2.5,4-4.5,9-5,13.7c-1.4,12.9-2.2,25.8-2.7,38.8c-0.7,17.3,1.4,34.4,5.9,51.3c20.9,1.3,41.5,1.5,61.8,4.2
			C1415.6,2907.4,1435.7,2912.8,1457.5,2917.3z M1252.1,2894.8c0.8,0.1,1.6,0.2,2.4,0.2c4.3-7,8.8-13.9,13-21
			c14.3-24,28.2-48.2,42.9-72c4.1-6.7,6.8-13.7,8.1-21.2c1.2-6.9,1.3-13.9,2.5-20.8c1-6-1-9.6-6-13.3
			c-18.4-13.7-33.5-30.4-42.8-51.8c-2.1-4.7-4.6-9.3-7.7-15.6c-3,11.3-5.7,20.8-8,30.3c-1.6,6.8-3.3,13.7-3.8,20.6
			c-2.8,35.9-5.3,71.8-3.9,107.8C1249.6,2857,1251,2875.9,1252.1,2894.8z M1348.9,2746.1c8.3-11.1,16.2-21.8,24.2-32.3
			c10.9-14.2,21.4-28.8,35.5-40.2c5.1-4.1,10.2-8,16.1-12.6c-2.3-1.1-3.7-1.9-5.2-2.5c-9.5-3.3-18.1-8.3-25.2-15.6
			c-7.4-7.6-14.7-15.4-22.4-22.7c-6-5.7-12.7-10.3-22.9-10c0,6.1,0.3,11.4,0,16.6c-1.4,23.5-2.8,47.1-4.5,70.6
			c-0.8,11.9-1.6,23.9-3.3,35.7C1340.3,2739.5,1342.4,2743.1,1348.9,2746.1z M1317,2901.6c-1.4-12.4-3.1-23.9-3.8-35.5
			c-0.6-11.4-0.1-22.9-0.1-34.3c-8.9,11.4-16.5,23.4-23.8,35.5c-7.2,12-16.7,22.5-23.4,36.3C1283.9,2902.9,1300,2902.3,1317,2901.6z
			 M1523.9,2676.9c0.3-0.7,0.7-1.5,1-2.2c-2.6-1.2-5.3-2.5-7.9-3.7c-0.3,0.5-0.6,1.1-0.8,1.6
			C1518.7,2674,1521.3,2675.5,1523.9,2676.9z"/>
		<path id="XMLID_233_" class="st0" d="M2487,3272.9c-2.7-14.8-14.5-21.8-25-28.9c-20.1-13.6-41.1-25.8-61.7-38.8
			c-10.9-6.9-21.8-13.9-32.5-21c-24.5-16.1-44.2-37.3-62.4-59.9c-1.8-2.3-3.4-4.8-6.1-8.5c-1.6,6.8-1,12.3-0.6,17.7
			c2.7,37.2,5,74.4,8.7,111.5c2.2,21.8,6.7,43.4,10,65.1c1.8,12.2,3.3,24.4,5,36.6c0.5,3.6,1.3,7.2,2.2,10.7
			c1.1,3.9,3.9,3.8,8.2,1.9c-1.2,5.2-2.2,9.4-3.2,13.5c-11.8,2.4-15.2,0.7-17.6-10.2c-5.3-24.7-10.2-49.4-15.3-74.1
			c-6.4-31.1-6.7-62.8-9.3-94.3c-2.6-31.8-5.7-63.7-4.6-95.8c0.2-5.4,0.6-10.3,3.7-15.1c5.7-8.9,6.6-19.4,3.7-29
			c-7.7-25.4-11.8-52.1-24.1-76c-8.3-15.9-17.7-31.3-27.7-46.2c-13.2-19.8-21.6-41.2-25.3-64.5c-4-25.6-7.1-51.4-10.7-77.1
			c-0.8-5.6-2.4-11-3.3-16.6c-6.3-38.7-12.3-77.5-18.8-116.2c-1.2-7.2-4.6-14-5.5-21.2c-2.1-18-7.3-35-13.9-51.8
			c-4.3-11.1-6.7-22.9-11.2-33.9c-5.2-12.8-11.8-24.9-17.6-37.5c-1.9-4.2-2.6-8.9-4.6-13c-3.7-7.6-7.9-15-12-22.4
			c-5.1-9.3-10.7-18.3-15.3-27.8c-9.8-20-20.4-39.7-26.3-61.3c-1-3.6-1-7.9,0.2-11.4c2-6.1,7.4-6.5,11.1-1c1.5,2.2,2.4,4.8,3.2,7.3
			c12.7,40.3,32.5,77.2,52.4,114.1c14.7,27.3,26.8,55.8,35.4,85.6c7,24.3,13.7,48.7,18.8,73.4c5.5,26.7,9,53.8,13.4,80.8
			c5.8,35.4,12.8,70.7,17.1,106.4c3.9,32.5,18.3,60.1,34.6,87.4c8.7,14.6,16.7,29.6,24.2,44.7c3.2,6.5,4.3,13.9,6.5,20.9
			c4.4,13.9,8.8,27.9,13.4,41.8c3.3,9.9,1.7,19.8-0.4,29.6c-0.8,3.9-3.3,7.3,0.3,11c0.6,0.6,0.9,2.2,0.5,2.8
			c-4.4,6.4,0.6,10.5,3.7,14.9c17,24.9,36.9,46.8,61.1,65.3c22.4,17.1,46.2,31.4,70.4,45.3c17.4,9.9,33.7,21.4,48.2,35.4
			c4,3.9,7.4,8.7,9.8,13.7C2502.2,3265.3,2498,3271.9,2487,3272.9z"/>
		<path id="XMLID_234_" class="st0" d="M898.3,3373.4c1.6,4.9,2.7,8.6,4.1,12.2c4.7,12.4,10.1,24.5,14.3,37.1
			c5.2,15.7,5.4,32,4.9,48.4c-1.1,36.5-8,72-17.4,107.2c-1.6,6.1-2.8,12.4-5.1,18.2c-1.5,3.8-4.5,7.1-7.2,10.3c-1.9,2.3-5,2.9-7,0.5
			c-1.4-1.7-2.3-4.9-1.8-7c1.5-6.1,4.4-11.9,5.7-18c4.2-19.8,8.3-39.6,11.9-59.5c4.5-25.3,5.4-50.8,4.1-76.5
			c-0.9-17.6-7-33.7-14.3-49.4c-0.5-1.1-1.6-2-2.7-3.4c-4.9,5.5-9.6,10.6-14.2,15.8c-12.1,13.8-28.2,22.2-43.9,30.9
			c-19.8,11-40.7,19.8-58.8,33.7c-1.5,1.1-3.5,1.5-5.5,2.4c-3.5-5.6-1.9-9.7,1.7-13.8c10.5-12,24.1-19.8,38.1-26.8
			c14.9-7.4,29.6-15.1,42.8-25.4c14.7-11.5,26-25.6,33.4-42.9c2.3-5.5,4.7-11.1,7.8-16.1c1.8-2.9,4.9-5.3,7.9-7.2
			c3.9-2.6,5.8-5.7,6.8-10.3c3.7-18.2,7.6-36.4,11.9-54.5c5.2-22,10.8-43.9,16.3-65.8c4.8-19,10.5-37.8,14.4-57
			c6.4-31.9,15.3-63.2,18.8-95.7c0.9-8.2,4-16.1,5.3-24.3c2.2-13.8,4.5-27.6,5.6-41.5c1.5-19.7,8.5-37.5,17-54.9
			c15.1-31.1,29.9-62.4,45.7-93.2c9.2-18,20.4-35.1,30-52.9c14.6-26.9,29.1-53.9,42.6-81.3c5.8-11.8,10.5-24.4,9.8-38.3
			c-0.4-7.6-1.6-14.4-7.4-20c-1.8-1.8-2.4-5-3.6-7.7c10.6-2.2,13.3-1.1,17.6,6.3c7,12.1,8.4,25,5.6,38.5
			c-4.8,23.1-14.3,44.3-25.7,64.7c-16.2,29.1-33.9,57.3-49.6,86.7c-16.7,31.1-32.7,62.6-47.2,94.7c-10.8,23.9-18.5,49-21.6,75.5
			c-2,17.4-6.2,34.6-9.5,51.9c-4.5,23.8-8.8,47.7-13.8,71.4c-4,18.8-9.1,37.5-13.9,56.2c-4.6,18-8.6,36.2-14.2,53.9
			c-8.1,25.8-13.6,52.1-18.7,78.5c-2.4,12.7-4.6,25.5-6.9,38.3c-0.2,1-0.5,1.9-0.8,2.9C909.1,3373.8,908.5,3374.2,898.3,3373.4z"/>
		<path id="XMLID_235_" class="st0" d="M1746.4,3999.6c-5.4,8.2-7.6,17.1-10.2,25.9c-0.6,1.9-1.2,4.2-2.6,5.5c-1.1,1-3.5,1.5-4.9,1
			c-1.1-0.3-2.3-2.6-2.2-3.9c0.3-3.5,1-7,2-10.5c3.5-12.6,8.1-24.7,13.9-36.4c2.5-5,3.2-10.3,2.3-15.9c-0.4-2.2,0-4.6-0.1-6.8
			c-0.5-18.8,2.9-37.1,5.3-55.6c1.3-10.2,2.6-20.3,5.6-30.2c2.5-8,5-15.9,7.5-23.9c0.8-2.6,2.2-4.7,5.2-4.6c2.5,0.1,5.5,3.6,5.3,6.8
			c-0.3,6.3-0.9,12.6-1.7,18.8c-0.4,2.9,0.6,6.4-3,9.1c0-4.2,0-7.8,0-12c-6.6,8.3-16.3,74-13.4,90c1.8-2.5,3.3-4.4,4.7-6.3
			c13.8-20,30.2-37.2,52.8-47.3c6.6-2.9,13.9-5,21.1-5.9c10.9-1.2,19.7,3.8,25.8,12.7c5.5,8.1,8.6,17.3,10.4,26.8
			c3.3,17.8,5.8,35.6,4.7,53.8c-1.1,17.8-1.9,35.6-3.1,53.4c-0.8,11.9-2.1,23.8-3.2,35.7c-0.2,2.5-0.7,5-1.3,7.4
			c-0.9,3.6-5.3,6.1-8.8,5.4c-3.5-0.8-5.3-3.4-4.8-7.6c1.4-11.3,3.1-22.5,4.4-33.7c1-8.7,1.6-17.5,2.3-26.3
			c0.5-5.4,0.9-10.8,1.4-16.3c0.7-8.6,1.5-17.1,1.9-25.7c0.2-4.6-0.6-9.2-1-13.8c-1-13-2.7-25.9-6.7-38.3c-1-3.2-2.3-6.3-3.8-9.3
			c-4.4-8.9-9.5-12-19.3-10.4c-6.1,1-12.2,3.1-18,5.4c-10.1,4-18.1,11.2-25.8,18.7c-11.6,11.3-22.2,23.5-30.4,37.5
			c-2.3,3.9-3.7,7.8-3,12.5c2.7,20.8,5.2,41.7,7.7,62.5c0.5,4.2,1,8.4,0.9,12.5c0,1.8-1.2,4.1-2.6,5.2c-3.1,2.5-6.8,0.7-7.3-3.2
			c-2.2-18.3-4.3-36.7-6.5-55C1747.4,4004.9,1746.8,4002.2,1746.4,3999.6z"/>
		<path id="XMLID_238_" class="st0" d="M1151.2,4075.8c-3.7,1.1-6.7,1.7-9.5,2.8c-10.7,4.3-21.3,8.9-32,13.3
			c-3.7,1.6-5.2,4.1-6.2,8.4c-5,22.9-5.6,46.3-6.9,69.5c-0.6,10.5-0.1,21,0.1,31.5c0,2.5,0.6,5,1.3,7.4c0.6,2,0.4,3.7-1.5,3.9
			c-1.1,0.1-3.3-1.4-3.5-2.5c-1.2-5.1-2.4-10.3-2.6-15.5c-0.5-10.9-0.8-21.9-0.3-32.7c0.6-12.7,0.3-25.5,3.2-38.1
			c1.7-7.4,1.6-15.2,2.4-23.4c-1.2,0.2-2.8,0.3-4.1,0.9c-3.5,1.5-6.8,3.3-10.2,4.9c-2.2,1-4.8,1.7-6.1-0.9c-1.2-2.3-0.9-5,1.4-6.8
			c1.7-1.2,3.5-2.3,5.3-3.3c3.9-2.1,7.8-4.1,11.8-5.9c3.4-1.6,5-4,5.7-7.7c1.9-10.5,3.8-21.1,6.1-31.5c1.2-5.7,3.2-11.2,4.7-16.9
			c0.8-3.2,1-6.6,1.9-9.8c4-13.9,7.1-28,13.4-41.1c3.4-7,6.4-14.1,9.7-21.1c1.4-3,3.4-5.9,6.8-5.6c3.9,0.3,5.3,3.9,5.9,7.3
			c1.3,7.6,2.8,15.3,3.6,22.9c2.4,22.8,4.4,45.6,6.6,68.3c0.2,2.2,0.9,4.4,1.5,6.9c6.9-1.4,13.2-3,19.5-3.8
			c13.5-1.8,27-3.8,40.7-3.4c10.5,0.3,21,0.2,31.2,3.2c4.4,1.3,8.2,3.3,11.2,6.6c1.9,2,1.8,2.1-0.1,6c-0.6-0.1-1.2,0-1.7-0.3
			c-10.6-5.8-22.1-6-33.7-5c-15.7,1.4-31.3,2.8-46.9,4.6c-6.2,0.7-12.3,2.4-19,3.8c0.8,6.5,1.3,12.5,2.4,18.4
			c2.9,15.7,5.7,31.4,9.5,46.8c3.3,13.4,7.8,26.5,12.1,39.7c1.1,3.5,3.4,6.7,5.5,9.8c2.3,3.4,2.6,5.6,0.3,7.8
			c-2.3,2.2-5.9,2.5-8.6,0.3c-1.3-1-2.5-2.4-3.1-3.9c-2.7-6.6-5.6-13.1-7.6-19.9c-3.7-12.4-7.3-24.9-10.2-37.6
			c-2.8-12.5-4.7-25.1-6.8-37.7C1153.2,4090,1152.3,4083.5,1151.2,4075.8z M1150.2,4063.2c-0.4-2.5-0.9-4.4-1-6.2
			c-2-21.5-3.8-43.1-6-64.6c-0.6-6.5-0.9-13.1-3.8-20.9c-1.9,3.2-3.3,5.2-4.3,7.3c-9.1,20.4-14.9,41.9-19.8,63.6
			c-2.7,11.6-5.1,23.4-7.5,35c-0.2,1.2-0.2,2.4-0.3,3.6C1121.8,4075,1135.8,4069.1,1150.2,4063.2z"/>
		<path id="XMLID_239_" class="st0" d="M2256.5,3866c-10.5,8-10.4,18.7-7.7,29.7c1.9,7.4,6.2,13.5,11.2,19.4
			c8.8,10.3,20.3,16.8,31.1,24.4c8.1,5.7,16.3,11.3,23.6,17.8c5.1,4.5,8.9,10.6,13.1,16c1.9,2.4,3.3,5.1,5.4,8.4
			c3.4-6.7,6.2-12.4,9.1-18.1c2.9-5.6,5.9-11.1,8.9-16.7c1.4-2.8,2.6-5.7,4.1-8.4c4-7.3,8.1-14.6,12.2-21.9
			c4.9-8.8,9.7-17.6,14.8-26.3c2.5-4.3,5.6-8.3,8.4-12.5c3.3-4.9,6.9-9.5,9.6-14.7c3.6-7,9-12.6,13.7-18.7
			c5.5-7.1,11-14.3,16.8-21.1c4.1-4.8,8.5-9.3,13.3-13.4c4-3.4,8.5-6.5,14.3-3.5c2.6,1.4,4.5,3.6,3.5,6.6c-3.1,9-7.9,17.1-14.4,24.1
			c-0.3,0.4-1.1,0.3-2.1,0.5c1.3-4.3,2.5-8.2,3.8-12.2c-0.4-0.2-0.7-0.5-1.1-0.7c-0.9,0.6-2,1.1-2.7,1.8
			c-6.9,7.7-13.8,15.3-20.5,23.1c-2.6,3-4.4,6.6-6.8,9.7c-2.2,3-4.8,5.7-7.2,8.6c-0.9,1.1-2.1,2.1-2.8,3.3
			c-8.2,13.6-16.4,27.3-24.5,41c-2.9,4.9-5.4,10-8.1,14.9c-5.8,10.7-12,21.2-17.4,32.1c-8.2,16.5-15.9,33.2-24,49.8
			c-6,12.2-12,24.5-18.6,36.4c-2.9,5.3-7.2,9.7-10.9,14.6c-0.6,0.8-1.4,1.6-2.2,2.2c-2.7,2.1-7.4,2-9.3,0c-2.2-2.3-2.1-5.2,0.7-8.4
			c13.5-15.6,21.5-34.4,30.9-52.4c2.2-4.1,1.6-7.4-0.3-11.7c-6.3-13.9-16.7-23.8-28.6-32.9c-10.6-8-22.5-13.8-33.2-21.5
			c-6.4-4.6-12.8-8.9-16.9-15.7c-6.3-10.5-8.7-22-7.9-34.3c0.4-5.8,1.8-11.2,4.8-16.1c2.8-4.4,7.7-6.8,11.5-5.9
			c0.6,0.1,1.2,0.5,1.6,0.9C2256,3864.5,2256.1,3865,2256.5,3866z"/>
		<path id="XMLID_240_" class="st0" d="M1367.6,4155.6c-3.5,3.7-6.6,7.1-9.7,10.4c-2.9,3-5.3,3.5-7.9,0.2c-3.3-4.2-6.6-8.8-8.5-13.7
			c-6.3-16.4-8.8-33.6-10.5-51c-1.9-19.1-2.7-38.2-0.6-57.2c1.9-17.1,3.8-34.3,7.5-51c3.6-16.3,6-33.2,14.4-48.1
			c2.8-5.1,5.6-10.5,9.5-14.7c6.5-7,17.7-7.3,24.4,0.8c4.5,5.5,8.7,11.4,12,17.7c8.7,16.4,14.6,33.8,19.7,51.6
			c5.6,19.5,6.8,39.3,5.1,59.3c-1.4,16.3-4.2,32.5-9.7,48c-2.6,7.3-5.1,14.7-8.3,21.7c-2.3,4.9-5.5,9.4-8.6,13.9
			c-1.9,2.7-4.4,5.2-8.6,4.5c-2.7-2.7-1.7-5.4-0.1-8.4c6.5-12.2,12.3-24.8,16.1-38.1c4-13.9,6.6-28.1,8.4-42.6
			c1.5-12.2,1.6-24.4-0.3-36.4c-1.4-9.2-2.8-18.6-6.3-27.4c-4.1-10.3-7.5-21-11.9-31.2c-2.9-6.7-7-12.9-10.7-19.2
			c-1.2-2-2.8-3.7-4.5-5.3c-5.3-5.1-7.5-4.9-12.1,1c-1,1.3-1.7,2.8-2.5,4.3c-8.4,16-12.9,33.2-16.7,50.7
			c-8.5,38.7-10.9,77.7-6.2,117.1c1.5,12.8,3.6,25.3,8.2,37.4c0.8,2.2,1.7,4.3,2.8,6.3c2.4,4.6,3.6,4.8,7.6,1.7
			C1361.8,4156.2,1363.7,4153.4,1367.6,4155.6z"/>
		<path id="XMLID_243_" class="st0" d="M2040.7,4038.1c1.8-1.2,2.7-1.7,3.5-2.2c2.3-1.5,4.4-1.1,6.2,0.8c2,2.2,2.1,4.8,0.2,6.9
			c-2.4,2.6-5,5.2-8,7c-7.6,4.5-15.2,9-23.2,12.7c-3.6,1.7-8.1,1.8-12.2,2.2c-4.8,0.4-9.7,0-14.4,0.5c-7.8,0.9-14.5-0.4-19.7-6.9
			c-3.4-4.2-7.2-8.2-10.9-12.1c-6.4-6.7-8.4-15.6-10.5-23.9c-4.6-18.4-5.8-37.2-4.7-56.1c0.4-6.7,0.4-13.4,1.3-20.1
			c1.2-8.9,2.7-17.8,4.7-26.5c1.7-7.6,3.9-15.1,6.5-22.4c2.5-7.3,6-14.3,8.5-21.6c3.6-10.3,11.3-16.1,20.8-20
			c8.5-3.4,15.6-0.1,21.8,5.6c6,5.5,9.8,12.5,13.1,19.8c9.1,20.4,15.4,41.6,19.4,63.5c3.5,19.2,6.2,38.5,5,58.1
			c-0.7,10.9-2.6,21.6-6.8,31.8C2041,4035.5,2041,4036.1,2040.7,4038.1z M1991.9,4053.2c4,0,7.3,0.4,10.4-0.1
			c4.9-0.8,9.8-2.4,14.7-3.3c6.1-1.1,9.5-5,11.9-10.2c5.6-12.1,8.5-25,9.4-38.3c0.4-7.1,0-14.3-0.2-21.4c-0.1-4.6-0.3-9.2-0.9-13.8
			c-0.7-5.2-1.9-10.3-2.8-15.4c-1.3-7-2.2-14.1-3.9-20.9c-1.6-6.2-3.9-12.3-6.3-18.4c-4.1-10.3-8.1-20.7-12.8-30.8
			c-2-4.3-5.1-8.2-8.4-11.7c-4.1-4.3-8.5-4.5-13.8-1.7c-4.7,2.4-7.9,6.2-10.7,10.4c-9.9,14.7-14.8,31.5-19.1,48.4
			c-7.2,28-8.3,56.4-4.8,85.1c1.5,12,5.2,23.4,11.9,33.5c3.1,4.7,7.1,8.4,12.7,9.8C1983.9,4055.6,1988.8,4056.9,1991.9,4053.2z"/>
		<path id="XMLID_244_" class="st0" d="M1578.6,4091.2c4-1.7,7.3-3.2,10.8-4.5c1.2-0.4,2.8-0.1,4.4,0.7c-4.9,2.5-9.9,5.1-15.1,7.8
			c0.5,3.5,1.1,6.7,1.5,10c0.4,3.5,0.7,7.1,0.9,10.7c0.2,2.6-0.8,4.6-3.6,5.1c-2.9,0.6-5.4-0.7-6.6-3.5c-0.5-1.1-0.8-2.4-0.9-3.6
			c-2.5-22.9-5.4-45.8-7.2-68.8c-1.3-16.7-1.1-33.6-1.5-50.3c-0.1-2.9,0-5.8,0-9.1c-1.2,0.2-2.1,0-2.7,0.4
			c-8,5.8-15.7,11.9-23.9,17.4c-5,3.4-10.6,6-15.9,8.9c-0.5,0.3-1.1,0.6-1.7,0.7c-2.3,0.5-4.7,1.2-6.3-1.2c-1.3-1.9-0.4-5.7,1.9-7.4
			c1.7-1.2,3.8-1.9,5.4-3.1c13.3-9.9,26.5-19.8,39.8-29.8c2.6-2,3.4-4.4,3.1-7.7c-1.2-11.5-3.7-22.7-8.6-33.3
			c-2.1-4.5-3.6-9.3-5.7-13.8c-1-2.1-3-3.8-4.6-5.8c5.6-2.5,6.7-2.5,9.1,1.7c6.1,10.3,11.7,20.9,14.5,32.6c1.2,5,3,9.9,4.7,15.3
			c4.5-3.4,8.9-6.8,13.5-10c9.2-6.6,18.7-12.9,27.8-19.6c15.4-11.3,30.5-22.9,45.8-34.3c2.9-2.2,5.1-5.8,9.8-4.5c2,4.4,0,7.8-3,10.5
			c-6.9,6.4-13.7,13.1-21.2,18.8c-21.4,16.2-43.1,31.9-64.7,47.9c-1.7,1.2-3,2.9-4.7,4.2c-2,1.6-2.6,3.5-2.6,6
			c0.5,19.9,0.4,39.9,1.3,59.8c0.5,12.1,2.5,24.2,3.8,36.3c0.3,2.9,0.6,5.9,1,8.8C1577.6,4086.6,1578.1,4088.8,1578.6,4091.2z"/>
		<path id="XMLID_245_" class="st0" d="M2153,3866.7c-3.7,5-5.5,9.6-6.4,14.5c-2.2,11.5-4.6,23.1-6.1,34.7
			c-2.6,20.2-4.4,40.5-6.8,60.7c-2.2,18-2.8,36-1.7,54.1c0.8,13,2.9,25.3,12.2,35.3c-4.5,2.4-8.8,1.5-11.4-2.4
			c-1.4-2.1-2.6-4.4-3.2-6.8c-1.6-6.7-3.5-13.4-4.1-20.2c-1-11.3-1.3-22.6-1.4-33.9c-0.1-8.2,0.7-16.3,1.1-24.5
			c0.6-13.9,2.1-27.6,5.1-41.2c0.9-4,1-8.3,1.1-12.4c0.1-3.8-0.2-7.5,2.4-10.8c0.5-0.6,0.1-2,0.2-3c0.1-1.9-0.2-3.8,0.3-5.6
			c2-7.6,3-15.4,4.3-23.1c0.8-4.6,1.1-10,4.9-13.9c0.7-0.7,0.3-2.5,0.9-3.6c1.2-2.2,2.4-4.4,4-6.2c2.4-2.6,5.6-3.3,8.5-1
			c3.6,2.8,7.3,5.7,10.1,9.3c6.9,8.8,12,18.7,16.1,29.1c4.7,11.9,9.5,23.8,12,36.4c4,20.5,3.2,40.9-2.2,61.1
			c-1.2,4.6-1.2,9.6-2.5,14.2c-4.8,17.5-10.7,34.7-17.6,51.5c-1.6,3.8-4.1,7.3-6.1,10.9c-0.1,0.2-0.3,0.3-0.4,0.5
			c-3.1,3.5-7.6,4.6-9.9,2.3c-2-2-0.9-6.2,1.2-9.7c3.8-6.2,7.6-12.6,10.1-19.4c6.9-18.7,12.7-37.8,16.1-57.4
			c3.3-19.2,4.3-38.5-0.5-57.6c-3.7-14.6-9.1-28.8-16.4-42.1c-2.7-4.9-5.8-9.7-8.9-14.4C2156.6,3870.4,2155,3869,2153,3866.7z"/>
		<path id="XMLID_246_" class="st0" d="M1071.9,3540.6c-8.4,4.6-17.5,4.5-26.4,1.6c-9.5-3.1-17.9-8.6-25.9-14.7
			c-16.4-12.6-31.2-26.9-45.5-41.8c-19.7-20.5-36.6-42.8-50.6-67.5c-7.9-13.9-5.8-38.5,4.3-50.8c3.4-4.1,7-8,11.5-11.5
			c-1.1,3-2.3,6-3.2,9.1c-5.7,19.6-3.7,38.2,7.8,55.3c21.1,31.6,44.2,61.6,72.2,87.5c7.1,6.5,14.8,12.4,22.7,17.9
			c7.1,4.9,14.8,9,23.6,10.2c3.2,0.4,6.4,1.4,9.6,2.1C1071.9,3538.9,1071.9,3539.8,1071.9,3540.6z"/>
		<path id="XMLID_247_" class="st0" d="M2182.5,3264.4c-1.5-9.1,1.6-18.1,6.2-26.8c6.8-12.9,13.9-25.8,20.2-39
			c10.2-21.6,19.9-43.5,29.8-65.3c8-17.6,15.9-35.1,24.1-52.6c2-4.2,4.4-8.2,7.1-12c1.7-2.3,4-4.7,6.6-5.7c2-0.8,5.3-0.1,7.2,1.2
			c1.4,1,1.9,3.9,1.8,6c0,1.9-0.9,4-2.1,5.5c-12.6,16.3-18.9,35.8-27.6,54.1c-9.3,19.5-16.9,39.8-25.9,59.4
			c-7.6,16.6-16.1,32.8-24.3,49.2c-5.8,11.6-11.6,23.2-12.3,36.5c0,1-0.3,2-0.4,3c-0.3,3.6-2.7,5.9-5.8,5.2c-1.9-0.4-4-3.5-4.4-5.7
			C2182,3273.5,2182.5,3269.4,2182.5,3264.4z"/>
		<path id="XMLID_252_" class="st0" d="M1592.4,1276.7c0.1,24.4-5.3,25-22.8,27.3c-3,0.4-5.9,1.2-8.9,1.3c-7.8,0.3-14.8-5.7-14-13.4
			c0.9-8.8-2-16.2-5-24c-4.9-12.3-10.4-24.7-10-38.4c0.3-12.3,2.1-24.1,13.9-31.2c13.2-8,26.7-3.6,32.8,10.4
			C1587.8,1230.4,1591.9,1253.2,1592.4,1276.7z M1567.5,1291.1c7.5-0.7,9.8-4.2,9.4-10.2c-0.9-11.9-0.7-24.1-2.8-35.8
			c-1.8-10-5.9-19.7-9.4-29.3c-1.2-3.4-3.4-7.6-7.6-6.6c-3.1,0.7-7,3.7-7.9,6.5c-1.8,5.5-3.2,11.8-2.4,17.4
			C1549.9,1253.7,1557.2,1272.9,1567.5,1291.1z"/>
		<path id="XMLID_256_" class="st0" d="M1636.1,1072.5c0.2-3.3,0.1-6.7,0.7-9.9c1.3-7.4,4.5-9.6,11.9-10.9c5.5-0.9,11-2.5,16-4.9
			c9.7-4.6,19.4-6.7,29.9-3.8c1.6,0.4,3.4,1,4.9,0.7c9.4-1.6,14,4.1,17.5,11.4c7.2,14.8,10.6,29.9,5.7,46.3c-2.4,8-7,14.2-13.1,19.6
			c-4.7,4.1-19.6,5.1-25.4,2.2c-4.4-2.2-9-4.3-13.7-5.5c-10.1-2.5-19-7.6-25.1-15.4c-4.6-5.9-6.2-14.4-8.7-21.8
			c-0.8-2.4-0.1-5.3-0.1-7.9C1636.4,1072.6,1636.3,1072.5,1636.1,1072.5z M1650.6,1066.8c-3.7,14.2-0.3,24.1,11.8,31.1
			c6.5,3.7,13.8,6.2,20.9,9c1.7,0.7,4,0.8,5.8,0.3c7.6-1.9,15.3-4.8,17-13.4c2-10.5,1.8-21.2-5-30.5c-0.4-0.5-1-1-1.6-1.1
			c-7.5-2.3-14.7-5.8-23.1-2.8C1668,1062.3,1659.3,1064.3,1650.6,1066.8z"/>
		<path id="XMLID_259_" class="st0" d="M1479.1,1081.1c0.4,12-3.4,22.9-9.7,32.9c-5.6,8.8-13,10.4-20.9,4c-3.7-3-7.5-3.2-11.5-4.5
			c-9.1-2.9-18-6.6-26.3-11.3c-3.5-2-6.3-7.2-7.2-11.4c-1.7-7.4-1.9-15.1-2.5-22.7c-0.3-4.3,2.1-6.9,6-8c2.9-0.8,5.8-1.5,8.8-1.8
			c12.5-1,25.1-2.3,37.6-2.3c5.7,0,11.8,2,16.9,4.7C1477.8,1064.6,1479.3,1069.6,1479.1,1081.1z M1415.7,1074
			c0,17.8,3.1,21.3,24.9,28.9c0.8-3,1.6-5.9,2.7-10.4c3,3,4.8,5.1,6.9,7c4.6,4.1,8.4,3.2,10.4-2.6c0.9-2.5,1.5-5.1,1.9-7.7
			c2.1-13.1-1.1-16.8-14.4-17.3c-1.2,0-2.5,0.5-4.1,0.8c-0.5,3.1-1.1,6-1.4,8.9c-0.4,4.3-2.2,8.3-6.6,8.8c-3,0.3-6.3-1.9-9.2-2.9
			c0.7-5.2,1.3-9,1.9-13.5C1424.2,1074,1420.3,1074,1415.7,1074z"/>
		<path id="XMLID_260_" class="st0" d="M1688.8,1084c0.1,4.9-2.3,8.9-5.7,9.1c-3.7,0.3-8-3.4-8.2-6.9c-0.3-5.2,3-9.8,7.3-10.2
			C1686.2,1075.6,1688.6,1078.5,1688.8,1084z"/>
	</g>
	<g id="XMLID_336_">
		<path id="XMLID_447_" class="st0" d="M3407,951.5c-9.1-4.8-18.6-8.9-27-14.7c-4.7-3.3-7.6-9.3-11.2-14.1c4.8-2.3,10-7.1,14.3-6.4
			c30.7,4.9,61.2,11,91.8,16.6c2,0.4,4.2,0.1,6.3,0.1c-1.4-1.3-3-2.5-4.2-3.9c-7-8.3-14-16.8-21-25.2c11.1-0.4,22.9-3.3,33.2-0.6
			c23.2,6.2,45.6,15.3,68.3,23.2l0.3,0.2l-0.3-0.2c-4.5-2.9-9.9-4.9-13.1-8.8c-4.4-5.3-7-12.1-10.4-18.3c6.1-1.6,12.9-6,18.1-4.5
			c40,11.6,79.7,24.3,119.5,36.6c2.4,0.8,7.3,1.3,7.5,0.7c6.1-18.6,17.5-7.3,25.2-3.3c19.9,10.5,38.9,22.9,58.3,34.4
			c2.5,1.5,5.4,2.1,8.2,3.1c-0.3-3.5,0.3-7.6-1.1-10.5c-7.8-15.4-14.9-31.5-24.8-45.5c-11.2-15.8-2.2-26.7,6-38
			c1.1-1.5,9,0.2,12.4,2.5c2.9,1.9,3.8,6.8,6,10.2c2.3,3.6,5,7,7.5,10.4c1.9-3.3,4.2-6.4,5.8-9.8c5.6-12,13.9-10.8,18.7-1.2
			c8.5,17,14.6,35.1,21.7,52.8c0.7,1.7,1.1,3.5,1.6,5.3c1.4-1.7,3.1-3.1,4.1-5c10.6-18,20.7-36.3,31.9-53.9
			c2.2-3.5,8.8-4.2,13.4-6.2c0.6,4.1,2,8.2,1.8,12.2c-2.6,35.8-5.5,71.7-8.2,107.5c-0.2,2.1,0.4,4.2,0.6,6.3
			c1.3-1.8,2.7-3.4,3.7-5.3c15.4-26.5,30.7-53.1,46.5-79.3c1.7-2.7,8.6-5.5,10.3-4.3c3.4,2.4,4.4,7.8,7.2,11.4
			c2.1,2.7,5.5,4.3,7.9,6.8c3.9,4.1,11,8.8,10.7,12.8c-1.9,29.8-5.4,59.6-8.1,89.3c-0.3,3.6,0.6,7.3,1,11c1.4-3.5,2.7-7,4.2-10.4
			c15-34.7,29.9-69.4,45.6-103.8c1.5-3.3,10.1-6.7,12.7-5.3c6.2,3.3,11,9.4,15.8,14.8c1.6,1.8,1.7,4.9,2.5,7.4
			c1.2-0.9,2.7-1.5,3.6-2.6c13.5-15.5,21.8-15.8,36.9,1.1c7.5,8.3,12.8,18.5,22.1,2c0.7-1.2,9-0.5,9.3,0.7
			c1.5,4.8,3.4,11.6,1.2,15.1c-6.9,10.9-9.1,19.5,0.2,31.1c9.6,12.1,15.9,15.4,24.9,0.4c1.8-3,7.4-3.8,11.2-5.6
			c1.4,4.4,5,9.3,4,13.1c-10.8,42-20.7,84.4-34.3,125.6c-8,24.2,0.4,44.1,7.4,65.2c0.5,1.5,2.4,2.5,3.6,3.8c1.4-1.7,2.8-3.5,4.2-5.2
			c5.7-7.1,11.5-14.2,17.2-21.3c0,9.1,0.1,18.2,0,27.3c0,1.3-0.9,2.5-1.2,3.8c-7,26.3-6.9,25.7,20.5,27.7c4.5,0.3,8.4,9.5,12.5,14.6
			c-5.1,4.2-11.1,12.6-15.3,11.8c-24.9-4.9-18.3,8.5-13.7,21.4c9,25.2,17.9,50.5,26.9,75.7c0.5,1.4,1.7,2.6,2.5,3.9
			c0.4-1.5,0.7-2.9,1.3-4.3c2.9-7.4,5.9-14.7,8.9-22.1c2.1,7.2,6.4,14.6,6,21.7c-3.4,52.8,27.5,94.9,43.1,141.7
			c1.5,4.5-2.7,10.8-4.2,16.3c-3.8-2-7.8-3.6-11.4-6c-3.4-2.3-6.4-5.4-9.6-8.1c-2,6.5-6.6,13.5-5.5,19.4c4.8,24.9,10.5,49.7,17.7,74
			c4.4,14.9,13.4,28.5,17.6,43.4c1.7,5.8-4,13.7-6.3,20.7c-3.9-3.9-8.4-7.3-11.5-11.7c-3.2-4.6-4.9-10.3-7.2-15.5
			c0.3,5.5,0.5,11,1,16.5c1.2,15.2,1.7,30.6,3.9,45.6c0.8,5.7,7,10.4,8.6,16.1c2,7.3,2.5,15.2,2.2,22.7c-1.5,39-3.5,78-5.2,117
			c-0.1,3-0.5,6.5,0.9,8.8c2.1,3.5,5.5,6.1,8.4,9.1c0.8-3.1,1.5-6.3,2.3-9.4c7.5-29.8,14.8-59.7,23.1-89.3c0.4-1.6,9.8-0.9,14.9-0.6
			c0.6,0,1.9,5.1,1.1,7.2c-24.4,62.6-34.9,128-39.4,194.5c-0.6,9.5,4,19.3,6.4,28.9c5.3,21.5,10.8,43,15.9,64.6
			c0.5,1.9-1.4,4.4-2.2,6.6c-1.7-1.9-3.5-3.8-5.2-5.7c-3.3-3.5-6.4-7.2-9.8-10.6c-10.6-10.5-21.3-20.9-32-31.4l0.2-0.1
			c-2.8,16-5.6,32-8.4,48l0-0.2c-1.2,3.6-2.4,7.3-3.8,10.9c-0.7,1.8-3,3.4-2.9,4.9c3.3,42.5-13.3,76.7-44.1,104.6
			c-3.1,2.8-10.4,0.5-15.3,1.9c-3.6,1-9.6,4.1-9.6,6.2c-0.1,17.9,1.9,35.8,1.2,53.6c-0.2,5-7,9.7-10.8,14.5c-4.3-5-11.7-9.6-12.4-15
			c-1.7-14.2-0.4-28.8-0.5-43.2c0-1.9-1.5-3.7-2.3-5.6c-1.2,1.5-2.1,3.2-3.6,4.4c-5.2,4.1-10.5,7.9-15.8,11.9
			c-2.8-6.2-7.4-12.2-8-18.6c-3.3-35-5.8-70.1-8.4-105.1c-3-41-4.7-82.1-8.9-123c-3.1-30.4-9.4-60.5-14.3-90.7
			c-0.3-1.6-0.2-3.3-0.1-4.9c0.9-12.7,0.6-11-7.5-12.5c-4.8-0.9-11.9-8.4-12-13c-0.3-21.5,2.9-43.1,2.2-64.6c-0.7-20-4.7-40-7.3-60
			l0.2-0.1c-1.2-0.8-3.5-1.4-3.5-2.3c-1.9-32.5-4.3-64.9-4.9-97.4c-0.2-12.2,4.1-24.4,5.9-36.7c0.2-1.6-2.2-5.1-3.4-5.2
			c-12.8-0.6-16-5.7-11.9-18.2c6.8-21,9.4-43.8,18.5-63.7c30.8-66.9,7.6-136.2,11.4-204.3c0.1-2.4-2.6-5-4.1-7.6
			c-1.4,2.2-3.9,4.3-3.9,6.5c-0.5,91.3-22.3,177.9-56.9,261.7c-24.5,59.3-46.4,119.9-74.9,177.3c-19.6,39.5-48.1,74.7-73,111.6
			c-5.6,8.3-11.5,16.6-18.7,23.3c-19.1,18-38.9,35.2-58.5,52.8c-2.4,2.2-4.5,4.7-6.7,7c2.4,0.4,6.1-0.1,7.1,1.3c2.7,3.9,6,8.6,6,13
			c-0.1,17-1.6,33.9-1.8,50.9c0,1.9,5,5.2,7.8,5.4c7.7,0.4,15.5-0.6,23.3-1.1c-5.6,4.1-10.7,10-17,12c-16.5,5.2-22,15.2-19.6,32
			c10,69,0.5,137.9-1.7,206.8c-0.1,3.1,7.4,9.5,10.7,9.1c62.6-7.4,124.8-4.6,185.1,13.3c38.7,11.5,75.6,29.2,113,44.9
			c34.5,14.6,72.5,24.9,102,46.6c79.3,58.3,125.1,136.9,130.5,238.1c3.6,68,12.7,135.7,19.7,203.5c0.7,6.8,4.9,13.2,5.6,20
			c0.5,4.4-2.5,9.2-3.9,13.7c-4.7-2.6-10-4.5-13.9-8c-4.1-3.6-6.7-8.9-10.2-13.2c-2-2.5-4.7-4.5-7-6.7c2.7,0.4,5.5,1.6,7.9,1
			c1.2-0.2,2.5-3.7,2.4-5.6c-8.1-84.1-15.5-168.2-25-252.1c-4.5-39.7-27.2-72.2-48-105.3c-41.1-65.4-103.5-98.4-175-118.6
			c-6.1-1.7-12.4-2.9-18-5.5c-15-7-15.3-1.5-13.6,12.2c4,31.2,0.1,64.6,9.6,93.8c19.9,61.5,27.8,124.8,33.3,188
			c5.3,60.2,1.8,121.2,0.8,181.8c-0.6,40.4,2.1,79.7,21.1,116.4c10.2,19.7,2.9,35.1-23.4,45.3c-49.3,19.1-98.5,39.2-153.1,37.4
			c-8.4-0.3-16.9,3.1-25.3,4.6c-29.9,5.4-59.8,10.5-89.6,16c-17.9,3.3-35.6,8.2-53.6,10.7c-29,4-59.4,13.5-86.9,8.5
			c-51.3-9.4-100,2.3-149.8,5.8c-16.2,1.2-32.9,2.6-48.6,0c-6.9-1.2-14.4-11.4-17.8-19.1c-30.7-70.4-38.5-142.2-13.3-216.6
			c25.3-74.8,50.6-149.7,71.8-225.8c10.5-37.8,19.8-79.1,15.3-117.1c-4.7-39.8-1.5-77.1,3.6-115.5c0.3-2-0.6-4.1-1-6.2
			c-1.1,1.9-2.4,3.8-3.3,5.7c-17.4,35-34.2,70.3-52.4,104.9c-5.6,10.6-14.5,19.8-23.1,28.5c-2.4,2.4-8.7,1-13.2,1.3
			c0-4-1.7-9.3,0.2-11.9c15.1-20.9,30.9-41.3,46.3-62c1.6-2.2,2-5.4,2.9-8.1c-2.9,0.9-6.4,1.1-8.7,2.9c-23.8,19-46.8,39.2-71.4,57.2
			c-16.4,12-37.2,18.4-52,31.8c-25.5,23.1-50,47.5-60.9,82.5c-4.7,15.1-19.2,27.3-23.6,42.4c-9,31-15.3,63-20.8,94.9
			c-6.7,38.7-12.9,77.5-16.3,116.5c-1.7,19.5,2.2,39.8,5.7,59.4c1,5.5,9.8,9.2,14.3,14.4c8.2,9.5,16.1,19.3,23.4,29.4
			c1.5,2,0.8,7.9-1.1,9.4c-1.8,1.5-7,1-9.6-0.5c-44.1-26.9-52.5-53.3-49.6-104.1c3.7-63.7,20.3-124.7,31.3-186.8
			c4.1-23.2,19.6-44.5,29.9-66.6c8.9-19.2,14.8-40.8,27.6-56.9c18.4-23.2,39.9-45.1,63.6-62.9c37.7-28.2,78.6-52,117.3-78.9
			c7.5-5.2,11.7-15.7,16.1-24.5c7.6-15.3,13.6-31.5,21.5-46.7c2.5-4.8,11.9-7.4,12.4-11.6c0.6-5.9-4.2-12.4-6.8-18.6
			c-1.4-3.3-4.1-6.4-4.2-9.7c-1-38.9-1.2-77.8-2.4-116.7c-1.5-48.9-3.8-97.8-5.7-146.7c-1.3-31.6-2.5-63.1-3.7-94.7
			c-0.2-4.3-1-9.3,0.8-12.9c10.3-21.3-2.6-33.5-15.8-47.3c-25.8-26.9-52.4-53.4-74.7-83.2c-48.7-65.1-78.8-139.5-96.5-218.2
			c-15.6-68.9-26.2-139-38.8-208.6c-3.3-18.5-5.8-37.2-9.1-55.8c-0.4-2.2-4.3-5.7-6-5.4c-4.8,0.8-12.3,2.3-13.4,5.4
			c-4,10.8-4.6,22.9-8.8,33.6c-1.9,4.8-9.3,7.5-14.2,11.1c-2.4-4.2-6.8-8.3-6.9-12.5c-1.5-57.6-0.4-115.1,15.5-171.3
			c1.6-5.7-1.4-15.3-5.8-19.6c-10.1-9.9-22.8-17.1-33.3-26.6c-4-3.6-5.1-10.6-7.5-16c4.1-1,9.6-4.3,12-2.7
			c17.6,11.7,23.4,7.7,23.4-13.4c0-14,10.5-29.4-12.6-35.2c-2.9-0.7-3.6-10-5.3-15.3c4.3-1,8.6-2.5,13-2.8
			c14.6-1.2,29.4-3.5,43.9-2.4c10.5,0.8,20.8,6,31,9.6c2.2,0.8,3.8,3.3,5.7,5c0.2-2.8,0.9-5.7,0.4-8.4c-3.9-21.5-8.8-42.8-11.8-64.4
			c-0.8-5.6,3.9-12,6.1-18c3.5,4.1,9.5,7.9,10.1,12.4c4.7,34.8,37.5,22.9,56,34.5c2.3,1.5,5.9,1,8.8,1.6c6,1.4,12,3,18,4.6
			c-5.3-3.7-10.6-7.3-15.8-11c-19.5-13.7-39.4-27.1-58.2-41.6c-3.8-2.9-3.9-10.7-5.7-16.3c4.8-0.4,9.9-1.9,14.5-0.9
			c38.9,8.6,77.6,17.7,116.4,26.7l0.4-0.4L3407,951.5z M4197.5,2032.7l-0.1,0.2c-0.1-1-0.3-2-0.4-3.1l0.5,0l-0.5,0.3
			C4197.1,2031,4197.3,2031.9,4197.5,2032.7z M3325.9,998.4l-0.3,0.1l0.5,0c0.5,0.8,1,1.5,1.5,2.3c-7.6-2.5-15.3-5-22.9-7.4
			c-2-0.6-4.2-0.5-6.3-0.8c1.2,2.1,1.9,4.8,3.7,6.1c16.1,11.6,32,23.6,49,33.6c2.9,1.7,11.2-5.5,16.7-9c1-0.7,1.1-5.3,0.5-5.6
			c-13.5-5.8-27.1-11.3-40.7-16.8C3327,1000.1,3326.5,999.2,3325.9,998.4z M4083.6,1524.3l-0.2,0l0.3,0.2l0,0.4L4083.6,1524.3z
			 M4201.3,2011l0.2-0.1c0.4,0.4,0.8,0.7,1.2,1.1C4202.2,2011.7,4201.8,2011.3,4201.3,2011z M4181.5,1878.9l0.2-0.2
			c0.1,0.3,0.2,0.6,0.4,0.9c0.1,0.1,0.5,0,0.7,0.1C4182.3,1879.4,4181.9,1879.1,4181.5,1878.9z M4207.3,1886.4
			c0.5-0.4,0.9-0.9,1.4-1.3c-0.3-0.2-0.6-0.3-0.9-0.5c-0.1,0.6-0.2,1.3-0.3,1.9L4207.3,1886.4z M4139.6,1818.8l0.2-0.2
			c0.1,2.2,0.1,4.4,0.2,6.6c-0.6,1.3-1.1,2.7-1.7,4c0.5,0.2,0.9,0.3,1.4,0.5c0.1-1.5,0.1-3.1,0.1-4.6
			C4139.8,1823,4139.7,1820.9,4139.6,1818.8z M4163.6,2058.6c0.7,0.7,1.5,1.5,2.2,2.2c-1.6,7-3.4,14-4.7,21.1
			c-5.2,26.9-10.3,53.9-15.4,80.8l-0.2,0.3l0.2-0.4c7.2-11.1,17.2-21.4,21-33.6c10.4-33.4,19-67.4,26.6-101.6
			c2.7-12.1,0.5-25.3,0.2-37.9c0-0.9-3-1.8-4.5-2.7c-3.5,7.6-8,14.9-10.3,22.9c-3.8,13.5-6.1,27.4-9,41.1c-0.8-0.7-1.7-1.4-2.5-2.1
			c-0.4,1.4-0.9,2.7-1.3,4.1c-0.7,0.7-1.4,1.4-2.1,2.1c-1.3,0-2.6,0-4,0.1C4160.9,2056.1,4162.2,2057.4,4163.6,2058.6z
			 M4088.3,1275.8c-0.1,1.5-0.2,3-0.3,4.5c0.4,0,0.7,0,1.1,0c-0.3-1.5-0.5-3-0.8-4.5c-0.4-1.2-0.7-2.4-1.3-3.5
			c-0.3-0.7-0.9-1.3-1.4-2C4086.5,1272.2,4087.4,1274,4088.3,1275.8z M4053.6,1836.9l0.1-0.1c0.5,1.7,1.1,3.5,1.6,5.2
			c0.5-0.3,1-0.5,1.5-0.8C4055.7,1839.7,4054.7,1838.3,4053.6,1836.9z M3205.9,1235.4c-0.5,2.1-0.9,4.2-1.4,6.3c0.5,0,1,0.1,1.5,0.1
			c0-2.2-0.1-4.4-0.1-6.6L3205.9,1235.4z M4221.6,1930.6l-0.2,0.2c-1.4-1-2.8-2-4.1-2.9c-0.2,2-0.4,4.1-0.6,6.1
			C4218.3,1932.8,4220,1931.7,4221.6,1930.6z M4165.8,1406.4c-0.1,0.3-0.2,0.6-0.1,0.9c0,0.2,0.3,0.4,0.5,0.7
			c-0.2-0.5-0.3-1-0.5-1.5c-2.3-8.6-4.7-17.2-7-25.9c-1.8,0.8-3.5,1.5-5.3,2.3C4157.6,1390.8,4161.7,1398.6,4165.8,1406.4z
			 M4149.6,1502.8l0.4,0.1l-0.4-0.2c-4-8-8-16.1-12-24.1c-4.9-13.7-9.7-27.4-14.7-41c-0.3-0.9-1.9-1.4-2.8-2.1
			c-0.4,1.7-1.6,3.5-1.2,5.1c1.8,8.8,3.7,17.5,6,26.2c1.7,6.4-3.4,21.2,12.9,11.7c-0.2,3.5,0.3,7.4-0.9,10.6
			C4131.9,1502.4,4138.4,1504.6,4149.6,1502.8z M4063.6,1892.9c-1.7-11.8-3.5-23.6-5-35.4c-0.3-2.5,0.6-5.2,0.6-7.8
			c0-0.3-3.1-1.1-3.2-0.9c-1.6,3.1-4.6,6.6-4.1,9.5c1.8,12.3,4.5,24.5,7,36.8c1.1,5.2,2.3,10.4,3.4,15.7c0.4-6,0.8-12,1.2-18
			L4063.6,1892.9z M4141.6,1784.7c-0.6-1-1.3-2.1-1.9-3.1c-0.3,0.4-0.7,0.9-1,1.3c1,0.5,2.1,1.1,3.1,1.6c-1.8,6.5-3.8,13-5.1,19.6
			c-0.4,2.3,0.6,5.1,1.7,7.3c0.7,1.4,3,1.9,4.5,2.8c0.9-1.9,2.4-3.7,2.6-5.7c1.2-14.9,2.4-29.8,3.1-44.7c0.1-2.6-1.8-5.3-2.8-7.9
			c-0.6,2.8-1.5,5.5-1.8,8.3C4143.1,1771.1,4142.4,1777.9,4141.6,1784.7z M4169.4,1800.6c3.9-5.8,6.7-15.4,11.8-16.8
			c17.1-4.7,4-15.8,6.5-23.2c0.1-0.3-2.3-1.4-3.5-2.1c-4.9,14.1-9.7,28.2-14.6,42.2c-1.6,2.4-3.2,4.8-4.5,7.3
			c-0.1,0.2,2.3,1.6,3.5,2.5C4168.9,1807.3,4169.2,1803.9,4169.4,1800.6z M4132.7,1987.8c1.8-6.1,4.5-12.2,5.4-18.4
			c3.4-25.2,6.3-50.5,9.4-75.7c-1.4-0.2-2.7-0.3-4.1-0.5c-3.6,31.6-7.1,63.1-10.6,94.7c-0.1,1.8-0.3,3.5-0.4,5.3c0.3,0,0.6,0,0.9,0
			C4133,1991.4,4132.9,1989.6,4132.7,1987.8z M3423.8,936.5c-0.9-0.6-1.9-1.2-2.8-1.8c-0.1,0.3-0.2,0.5-0.3,0.8
			c1.1,0.3,2.2,0.6,3.3,0.8c8.8,6.2,16.9,14.7,26.7,18c7.6,2.5,17.5-1.5,26.3-2.6c-0.8-1.6-1.4-4.3-2.5-4.6
			C3457.6,943.4,3440.7,940,3423.8,936.5z M4179.4,1891.1c0-0.3,0-0.6-0.1-0.9c-0.1-0.2-0.3-0.3-0.5-0.5c0.3,0.4,0.5,0.8,0.8,1.3
			c0.8,11.1,1.4,22.3,2.7,33.3c0.4,3.6,2.6,7,4,10.4c1-3.4,2-6.7,2.8-10.1c1.6-7.1,3.5-14.1,4.5-21.3c1.5-10.9-0.5-23.4,4.2-32.5
			c7.1-13.6,7.1-36.2-3.4-44.6C4198.5,1849.4,4191.8,1870.8,4179.4,1891.1z M4155.8,2032.9c4-6.6,8-13.2,12-19.8l-0.1-0.1
			c1.4-1.7,3.8-3.2,4.2-5.2c1.5-7.6,2.5-15.3,3.6-22.9c1.1,1.9,2.2,3.9,3.2,5.8c1-2,1.9-3.9,2.9-5.9c-2.1,0.1-4.2,0.2-6.3,0.3
			c1.1-15.8,2.9-31.6,2.9-47.5c0-5.6-4.5-11.1-6.9-16.7c-0.3,4.4-0.3,8.9-1,13.3c-4.7,33-9.6,65.9-14.4,98.8L4155.8,2032.9z
			 M4201.8,1919.2c-1.5,0.8-4.2,1.5-4.2,2.3c-0.6,16.5-5.5,34.8-0.1,49.1c8.9,23.6,24.4,44.8,37.4,66.8c1.1,1.8,4.2,2.5,6.4,3.7
			c0.5-2.4,1.7-4.9,1.3-7.2c-1.6-8.5-3.5-16.9-5.9-25.2c-1.1-3.8-3.7-7.2-5.6-10.8c-0.4,3.7-0.6,7.5-1.2,11.2
			c-0.6,3.5-1.6,6.9-2.4,10.4c-0.6-3.2-1.6-6.4-1.8-9.6c-0.3-6.6,1.2-13.6-0.3-19.9c-4.2-17.5-9.3-34.7-14.7-51.9
			c-2.1-6.6-6-12.7-9.1-19c1.2-1.4,2.4-2.7,3.6-4.1c-0.4-0.2-0.8-0.4-1.2-0.6C4203.3,1915.9,4202.6,1917.6,4201.8,1919.2z
			 M3513.3,1140.6l0.2,0.2c-16.9-4.3-33.7-11.7-50.7-12.3c-38.8-1.3-45.2,10.3-28.5,45.1c2.6,5.4,5.8,10.7,6.8,16.4
			c0.8,4.9-1.2,10.3-2,15.5c-5-2.2-12.9-3.2-14.5-6.9c-6.1-14.3-10.2-29.5-15.3-44.2c-0.5-1.5-4-3.5-4.5-3.1
			c-34.1,24.8-60.7,54.4-60.1,99.9c0,3.1,4,8.6,6.6,8.9c13.5,1.5,27.4,0.5,40.7,3c5.8,1.1,10.5,8.3,15.7,12.7
			c-5.8,3.9-11.4,10.5-17.6,11.1c-10.4,0.9-21.1-1.6-31.6-3.4c-10.4-1.8-15.3,1.5-9.5,11.4c14.3,24.4,28.8,48.9,44.6,72.4
			c16,24,38.5,39.6,67.8,42.6c3.4,0.3,7.9-5.3,11.1-8.8c2.9-3.3,4.2-10.4,7-10.8c8.4-1.3,17.7,2,25.7-0.2
			c38.5-10.7,70.8-28.4,75.6-73.9c1.2-11.2,3.7-22.3,5.6-33.4C3600.1,1202.1,3581.1,1165.2,3513.3,1140.6z M3853.9,1398.8
			c4.6,1.3,11.9,1.3,13.1,4c1.8,3.9,1,12.6-1.9,14.5c-16.7,11.2-33.5,23.1-51.8,31c-36.3,15.7-51.8,10.6-77.1-18.5
			c-24.5-28.1-50.3-54.9-74.8-82.9c-16.2-18.5-31.3-38-46.8-57c-1.6-2-3-4.2-4.5-6.3c-0.8,2.7-2,5.4-2.4,8.2
			c-7.1,49.3-16.4,97.2-74.7,112.5c-4.8,1.3-10,2.4-14,5c-2.6,1.7-3.5,6.1-5.2,9.2c-2.6,5-5.9,14.5-7.9,14.2c-26.6-3.5-56-2.5-79-14
			c-47.8-23.8-79.7-65.4-94.5-116.7c-5.5-18.9-12.6-23.8-29.8-21.5c-9,1.2-18.3,0.6-27.4,1.2c-1.8,0.1-4.8,2-5,3.5
			c-3,19-8.8,38.2-7.7,57c6.1,107.1,29.5,210.8,68.5,310.7c26.2,67.1,66.4,125.3,117.8,176.4c42.1,41.8,80.7,87.5,138.6,108.4
			c23,8.3,47,13.7,70.5,20.7c3.9,1.2,7.4,3.6,11.1,5.4c-4.1,0.7-8.4,2.6-12.4,2c-11.2-1.5-22.2-4.2-33.3-5.9
			c-2.2-0.3-6.7,1.7-6.7,2.8c-1.6,24.2-3,48.4-3.6,72.6c-0.1,2.6,5.9,8.1,7.8,7.6c31.6-9.3,62.9-19.2,94.2-29.3
			c1.8-0.6,4.1-3.2,4.1-5c0.7-21.2,1.1-42.5,1.4-63.8c0-1.7-1.4-3.5-2.1-5.2c-1.4,1.3-3,2.5-4.2,3.9c-7.4,9.3-14.4,19-22.3,27.9
			c-1.5,1.7-7.8,2-9.1,0.5c-2.2-2.4-4.1-8.6-2.7-10.2c18-20.2,36.2-40.4,55.2-59.7c15.8-16,33-30.7,49.1-46.4
			c6.4-6.2,12.2-13.3,17-20.8c27.8-43.8,56.4-87.2,82.2-132.2c10.2-17.8,12.3-40.1,21-59.1c33.6-73.8,72.2-145.7,83.3-227.6
			c5.5-40.7,10-81.6,13.1-122.5c0.9-11.9-5.6-22-22.2-16.7c-11.6,3.7-24.4,7.3-36.1,6c-18.2-2-24.8,3.5-29.5,21.5
			c-9.8,37-32.2,67.5-59.1,94.5c-9.7,4-19.2,9.6-29.3,11.7c-17,3.6-33.7-8.6-31.9-22c0.2-1.3,4.1-3.5,4.4-3.3c19,19,37.7,6.1,48-6.9
			c19.6-24.9,34.2-53.8,50.4-81.4c8.7-14.8,1.6-24-11.6-31.8c-3.4-2-3.6-9.5-5.3-14.4c5.3-1.1,10.8-2,16-3.6c2.4-0.7,6.5-2.8,6.4-4
			c-1.9-27.7-9.5-53.3-30.8-72.5c-48.3-43.5-106.1-64.8-170.2-66c-50.3-1-87.1,33.9-89.3,84.5c-1.9,42.5,4.6,83.7,36.6,117.2
			c36,37.7,70,77.3,105.3,115.7c5.6,6.1,14,14.6,20.4,14.1C3804.2,1433.7,3832.9,1424.1,3853.9,1398.8z M3644.7,3028.5
			c13.8-1.3,26.1-0.2,36.8-3.8c44-14.8,89.3-19.4,135.2-23.7c40-3.8,80-11.2,119.1-20.8c33.6-8.3,66.2-21.1,98.6-33.6
			c13.2-5.1,17.8-16,8.3-29.8c-5.1-7.3-11.6-15.3-12.6-23.5c-3.6-30.7-6.7-61.5-7-92.4c-0.6-58.2,6.6-117.2,0-174.6
			c-7.1-62.1-11.6-125.2-32.5-185.9c-10.7-30.8-8.6-66.2-11.5-99.6c-2.4-28.2-12.9-41.8-39.6-49.2c-61-17-123.1-26-186.5-22.1
			c-7.1,0.4-13.7,6.3-20.7,9.3c-3.7,1.6-7.8,3.6-11.7,3.6c-30.7-0.2-61.8-3.6-92.2-0.6c-36.9,3.7-73,16.1-110.8,7.9
			c-1.8-0.4-6.4,4.6-6.9,7.5c-3.9,23.3-8.1,46.6-10.4,70.1c-2.3,24-3.1,48.2-3.4,72.3c-0.2,15,3.4,30.2,2.2,45.1
			c-5.9,75.8-24.1,148.2-54.6,218.5c-19.2,44.2-31.2,91.8-43.2,138.7c-14.4,56.5-2,111.7,15.7,165.7c8.8,26.9,14.7,29.8,44.8,26.3
			C3523.4,3026.7,3584.7,3016.1,3644.7,3028.5z M3659.9,953.4c-0.8,1.8-1.7,3.7-2.5,5.5c9.9,5.2,20.4,9.7,29.5,16.1
			c3.7,2.6,4.7,9.2,6.9,14c-4.7,2.1-10.5,7.2-14,5.9c-16.2-5.8-31.8-13.4-47.6-20.2c-16.7-7.2-33.5-14.4-50.3-21.3
			c-1.4-0.6-3.4,0.5-5.2,0.8c1,0.8,2.3,1.4,2.8,2.4c2.6,4.9,4.9,9.9,7.4,14.9c-5.9,1.4-12.5,5.3-17.7,3.9
			c-27.6-7.5-54.6-20.8-83.9-8.1c-5.3,2.3-17.9-1.1-12.6,13.1c0.6,1.5-10.6,10.2-11.8,9.3c-16.7-12.2-27,0.9-38.8,8.7
			c-7.6,5-12.4,9.4-2,17.1c2.6,1.9,3.7,10.2,1.7,12.8c-2.4,3.2-10.6,6.2-13,4.5c-15.5-11.1-25.8-3.5-35.4,8.3
			c-1.9,2.4-3.2,5.2-4.9,7.8c3.1,1.7,6,4.7,9.2,4.8c12.6,0.7,25.3,0.4,37.9,0.7c5,0.1,11.8-1,14.7,1.7c13.3,12.1,8.4,33.7-9.2,36.1
			c-10.1,1.4-21.1-6.1-32-7.8c-4.7-0.7-13,1.5-14.8,4.9c-5.7,11.2-8.6,23.7-13.6,35.3c-1.6,3.8-6.4,6.3-9.7,9.4
			c-2.3-4.7-5.4-9.3-6.5-14.2c-0.7-3.2,2.5-7,2.4-10.5c-0.1-2.5,9.1-11.6-4-7.9c-0.4,0.1-2.8-3.7-2.4-5.2c1.4-5.1,3.7-9.9,5.4-14.9
			c0.6-1.7,0.4-3.7,0.6-5.6c-1.5,0-3.8-0.6-4.4,0.2c-9.4,10.3-19.8,20.1-26.8,31.9c-1.8,3,8.5,12.2,11.6,19.2
			c2.8,6.3,3.4,13.6,5,20.4c-6.5,0.5-13,0.5-19.4,1.5c-4.3,0.7-12,2.6-12,4.2c-0.8,32.9-0.9,65.9-0.5,98.8c0,2.2,4.6,6.4,6.7,6.2
			c6.3-0.7,17.8-2.9,17.8-4.8c1.3-54.4,33.7-89.2,73.3-120c24.7-19.1,52.6-31.8,83.4-26.2c43.4,7.9,81,29.2,112,61.3
			c2,2,4.3,3.7,6.5,5.5c1.1-2.6,2.7-5.2,3.3-7.9c7.2-36.7,39.3-68.1,76.1-74.7c63.3-11.3,119.9,8.5,173.5,39
			c41.2,23.4,68.3,58.8,68.3,107.7c0,22.7,9.7,25.6,26.7,23.6c11.1-1.3,22.2-4.1,33-7c2.4-0.6,5.9-4.3,5.8-6.4
			c-1.4-26.6,3.1-54.2-12-78.7c-3.1-5-6.1-10-9.1-15c-2.1,4.8-4,9.6-6.2,14.3c-1.4,3-2.4,7.4-4.8,8.5c-4.7,2-10.5,3.4-15.4,2.4
			c-1.7-0.3-3.5-8.8-2.4-12.7c3.3-10.8,8.8-20.9,11.9-31.7c1-3.6-2.6-8.5-4.1-12.8c-1.4,2.8-3.3,5.5-4.3,8.5
			c-1.7,5-1.6,11.3-4.6,15.1c-3.7,4.8-9.8,7.7-14.9,11.3c-1.5-5.9-5.7-12.8-4-17.6c11.5-32.1,10.8-37.7-13.9-60.2
			c-6.9-6.3-14.2-12.3-22.1-17c-3.6-2.1-9.2-0.6-13.9-0.9c-4.3-0.2-9.3,0.5-12.8-1.3c-2-1.1-1.9-6.4-2.7-9.8
			c-0.8-3.5-0.2-8.8-2.3-10.2c-5.7-3.8-12.3-6.1-18.8-8.5c-5.5-2.1-12.4-2-16.8-5.4c-8.9-6.9-12.2-23.1-29.6-14.7
			c-2.4,1.2-9.4-6.6-14-10.5c-2.8-2.5-4.5-7-7.7-8.3c-7.2-3-15.2-4.1-22.4-7C3712.9,975.6,3686.4,964.4,3659.9,953.4z
			 M3497.9,2231.3c0.8,0.1,1.5,0.2,2.3,0.2c2.4-8.2,3.8-16.9,7.5-24.4c1.4-2.9,8.2-3.2,12.5-4.6c0.5,3.5,2.6,7.7,1.3,10.3
			c-21.1,41.9-7.4,64.6,38.4,62.5c8.6-0.4,17.2-2,25.8-2.8c40.6-3.8,81.2-7.4,121.7-11.4c2.3-0.2,6.2-3.7,6.2-5.7
			c2.1-73,3.9-145.9,5.2-218.9c0-1.7-6.7-5.7-9-4.9c-26.1,8.5-51.5,21.4-78.2,25.6c-17.8,2.8-20.6,7.5-22.6,23.4
			c-2.4,19.8-2.2,31.5,22.7,26.1c3.9-0.8,9.4,4.6,13.6,7.8c1.1,0.8,0.3,6.1,0.1,6.1c-4.6,0.4-9.3-0.1-13.8,0.6
			c-8.5,1.3-24.2,2.8-24.4,5.1c-2,30-1.5,60.2-2.3,90.3c-0.4,14.3-1.1,28.7-3.9,42.6c-0.7,3.4-10,5.1-15.4,7.6
			c-0.8-4.4-2.6-9-2.2-13.3c3.1-40.8,6.9-81.6,9.5-122.4c0.2-3.8-5.9-10.4-10.1-11.5c-22.1-5.9-44.9-9.4-66.9-15.8
			c-20.4-5.9-22.9-16.2-10.5-33.3c5.5-7.5,9.6-17.2,16.9-22c10.3-6.9,22.6-12.8,34.8-14.5c10.2-1.5,21.3,4.1,32.1,5.3
			c2.9,0.3,8.9-3.5,9.1-5.8c2.2-24.1,3.7-48.2,5-72.3c0.1-2-1.8-5.6-3.3-5.9c-42.9-10.2-77.4-34.6-109.1-63.8
			c-1.1-1-2.8-1.6-4.2-2.3c-0.3,1.2-0.8,2.4-0.9,3.6c-0.4,7.4-1.3,14.9-1,22.3C3489.1,2020.4,3493.5,2125.9,3497.9,2231.3z
			 M3595.4,2060.4c-0.6-0.5-2.8-4.1-5.9-5.4c-37.5-14.6-50.4-11.4-76.8,19.4c-1.9,2.2-0.3,11.3,1.3,11.8
			c24.6,7.2,49.5,13.5,74.5,19.6c1.1,0.3,4.4-3.2,4.5-5.2C3594,2088.5,3594.5,2076.2,3595.4,2060.4z M4189.4,1675.9
			c-1.1,0.2-2.1,0.3-3.2,0.5c1.7,13.4,3.3,26.9,5.3,40.3c0.3,1.7,2.2,3.2,3.4,4.8c4.7-6.8,14.1-14.2,13.3-20.5
			c-5.6-47.9,1.2-98.6-29.3-141.3c-2.8-4-4.8-8.6-7.1-12.9c-0.1,4.6-0.5,9.3-0.3,13.9c0.3,6.6,0.5,13.4,1.6,19.9
			C4178.4,1612.3,4183.9,1644.1,4189.4,1675.9z M3866,906c1.5,3.1,0.6,1.3-0.3-0.6c-1.7,1.6-4,2.9-4.9,4.8
			c-9.3,20.9-17.1,42.7-27.9,62.8c-11,20.5-10,34.1,13.4,43.4c7.9,3.1,9.8,3.7,10.5-5.3C3859.4,977.8,3862.6,944.5,3866,906z
			 M3877,1034.2c6,5.2,11.8,10.5,17.9,15.3c3.6,2.8,7.7,4.9,11.5,7.3c0.4-1.5,1-2.9,1.2-4.4c3.8-34,7.5-68,11.2-102
			c0.2-1.4-0.5-3-0.7-4.4c-1.3,0.9-3.2,1.5-3.7,2.7C3902.2,976.3,3890.1,1004,3877,1034.2z M3318.7,942.5c-0.2,0.1-1.2,0.7-2.2,1.4
			c1.5,1.7,2.7,3.9,4.5,5c24,15.5,47.3,32.2,72.7,45.1c5.1,2.6,17.7-9.8,26.9-15.3c-3.9-2.6-7.5-6.1-11.9-7.6
			C3379,961.4,3349.3,952.2,3318.7,942.5z M4000.4,1183.7c0.9,0.4,1.8,0.8,2.6,1.1c0.6,7.9,0.9,15.9,1.8,23.8
			c0.2,2.3,1.8,4.5,2.8,6.8c1.1-1.9,2.5-3.7,3.2-5.8c5.3-16.7,11.2-33.3,15.2-50.3c1.7-7-0.4-15-1.5-22.4c-0.3-2-3.5-3.6-5.3-5.4
			c-1.2,1.8-3,3.5-3.6,5.6C4010.4,1152.6,4005.5,1168.2,4000.4,1183.7z M4037.5,989.6c1.9,12.2,3.1,20.7,4.6,29.2
			c0.3,1.8,1.7,3.4,2.6,5.1c1.4-1.6,3.3-3,4.1-4.8c4.7-9.9,8.1-20.4,13.8-29.6c9.5-15.4-4.1-22.6-10.1-32.6
			c-0.1-0.1-4.1,1.1-4.5,2.3C4043.9,970.3,4040.2,981.5,4037.5,989.6z M4074.6,1043c1.1,7.6,2,14.2,3,20.7c0.3,1.8,1,3.6,1.6,5.4
			c1.3-1.6,2.8-3.2,3.8-5c5.4-9.9,11.2-19.7,15.7-30c1.8-4,2.3-10.5,0.2-13.9c-3.5-5.7-9.5-9.7-14.5-14.5
			c-1.7,5.3-3.7,10.5-5.1,15.8C4077.4,1028.9,4076,1036.4,4074.6,1043z M3202.1,1089.2c5.3,5.3,9.8,9.7,14.4,14.2
			c6.6-10.1,14.1-19.9,18.6-30.9c0.7-1.6-13.4-9.2-20.7-14.1C3210.7,1067.7,3207,1076.8,3202.1,1089.2z M4155.2,1719
			c0.4,0,0.8,0,1.2,0c0,7.3-0.1,14.6,0.1,21.9c0,1.4,1.3,2.8,2,4.2c0.8-1.2,2-2.4,2.2-3.7c3-30.2,6-60.4,8.7-90.7
			c0.1-1.6-1-3.4-1.6-5.1c-1.1,1.5-3,2.8-3.2,4.4C4161.3,1673.2,4158.3,1696.1,4155.2,1719z M3997,1085.8c0,0-1-1.8-2.1-3.7
			c-1.2,1.5-2.7,2.8-3.4,4.5c-5.5,12.1-12.9,23.8-15.4,36.5c-1.5,7.8,4.6,17.1,7.2,25.7c1.3-0.7,3.6-1.3,3.7-2.2
			C3990.4,1127.1,3993.5,1107.5,3997,1085.8z M3567.3,908.9c-0.7,2.2-1.3,4.4-2,6.6c26,7.5,52.1,15.1,78.2,22.5
			c1.6,0.4,3.6-0.8,5.4-1.2c-1.6-1.3-3-3.2-4.8-3.7C3618.5,924.9,3592.9,916.9,3567.3,908.9z M4018.9,1626.4c-0.2,0-0.5,0-0.7,0.1
			c0,28.3-0.2,56.6,0.2,85c0.1,7.8,2.2,15.5,3.4,23.2c0.5-8.8,1.7-17.6,1.4-26.3C4022,1681,4020.3,1653.7,4018.9,1626.4z
			 M3974.7,1037.9c-0.2-0.5-0.9-2-1.6-3.4c-0.9,0.6-2.3,1.1-2.6,1.9c-6.9,20.7-14,41.3-20.3,62.2c-0.6,2.2,3.5,5.7,5.4,8.7
			c0.9-0.7,2.3-1.2,2.5-2C3963.7,1083.1,3969.1,1061,3974.7,1037.9z M3805.2,960.5c2.3-0.7,4.7-1.3,7-2c-5.5-19-11-38-16.7-57
			c-0.5-1.7-2.3-3-3.5-4.5c-0.7,2-2.3,4.3-1.9,6.1C3795,922.3,3800.2,941.4,3805.2,960.5z M4086.5,1099.1c0.9,4.4,1.2,7.1,2.1,9.6
			c1.3,3.7,3.1,7.3,4.6,11c1.4-3.6,3.1-7.1,4.1-10.8c4.1-15.6,8.1-31.2,12-46.8c0.4-1.5,0-3.1,0-4.7c-1,0.4-2.6,0.5-3,1.3
			C4099.4,1072.4,4092.6,1086.4,4086.5,1099.1z M4190.5,1483.8c-3.3-5-8.1-12.4-13.1-19.6c-1-1.5-2.9-2.4-4.4-3.5
			c-0.5,1.8-1.6,3.7-1.3,5.3c1.7,8.3,3.3,16.7,5.9,24.7c2.3,7,5.8,13.7,8.8,20.5C4187.6,1503.5,4188.8,1495.8,4190.5,1483.8z
			 M4145.9,1364.1c-1.2-5.9-1.9-13.6-4.6-20.5c-2.2-5.7-6.9-10.4-10.5-15.5c0.2,6.7-0.6,13.7,0.8,20.1c1.5,6.6,5,12.9,7.9,19.1
			c1.2,2.5,3.2,4.6,4.8,6.9C4144.8,1371.3,4145.2,1368.6,4145.9,1364.1z M3237.8,1036.8c-7.7,2.8-9.5,3.5-11.3,4.1
			c1,1.5,1.6,3.6,2.9,4.5c10.9,7.5,22,14.8,33.1,22.1c1,0.7,2.4,0.7,3.6,1.1c-0.2-1.2,0.1-2.8-0.6-3.5
			C3255.8,1055.1,3246,1045.2,3237.8,1036.8z M4010.2,991c-0.5-7.4-0.7-12.8-1.2-18.1c-0.1-1.2-0.9-2.3-1.4-3.5
			c-0.8,0.7-2.2,1.3-2.3,2.1c-4,17.8-7.8,35.6-11.6,53.5c-0.2,1.1,0.6,2.4,1,3.6c0.8-0.4,2-0.7,2.3-1.3
			C4001.7,1014.6,4006.3,1001.8,4010.2,991z M4095.8,1209.6c-0.6,0.2-1.1,0.5-1.7,0.7c1.8,3.8,3.2,7.9,5.6,11.3
			c0.7,0.9,4.2-0.1,6.4-0.3c-0.4-4.8-0.1-9.8-1.5-14.3c-2.5-8.1-6-15.9-9.2-23.8c-0.5-1.2-0.9-2.3-1.4-3.5c-0.8,1.3-2.3,2.6-2.2,3.7
			C4092.9,1192.2,4094.4,1200.9,4095.8,1209.6z M4107.4,1491.2c-1.9-0.2-3.8-0.3-5.7-0.5c-1.3,11.5-2.6,23-3.7,34.6
			c-0.2,1.7,0.7,3.6,1.1,5.4c1.5-1.2,4-2.3,4.2-3.7C4104.9,1515.1,4106,1503.1,4107.4,1491.2z M4056.6,1314.2
			c-0.5-0.1-1-0.2-1.5-0.2c0.2-2.6,0.4-5.3,0.6-7.9c-1.4,0-4.1-0.2-4.2,0c-1.9,15.1-3.7,30.3-5.4,45.4c-0.1,1,1,2.2,1.5,3.3
			c0.6-0.9,1.6-1.7,1.8-2.6C4051.9,1339.6,4054.2,1326.9,4056.6,1314.2z M4183.6,1823.1c-2.5-4.3-3.7-6.4-4.8-8.5
			c-4.1,7.5-8.4,15-12.2,22.7c-0.3,0.6,3,3,4.7,4.5C4175.5,1835.5,4179.7,1829.1,4183.6,1823.1z M3303.9,1079.3
			c1.8,4.2,2.8,6.5,3.8,8.8c5.1-5.6,10.2-11.2,15.3-16.8c-3.7-2.2-7.4-4.4-11.1-6.6C3309.1,1069.8,3306.4,1074.8,3303.9,1079.3z
			 M3333.2,1056.7c3.2-3,5.2-5,7.3-6.9c-4.9-3.7-9.5-7.8-14.9-10.5c-1-0.5-4.9,5-7.5,7.7C3322.8,1050,3327.5,1053,3333.2,1056.7z
			 M4194.4,1744.7c2.2,6.1,3.7,10.3,5.2,14.6c2.4-8,4.9-15.9,6.9-24c0.4-1.4-1.6-3.5-2.5-5.2
			C4200.7,1735.1,4197.4,1740.1,4194.4,1744.7z M3508.8,922.9c-0.3,0.7-0.6,1.5-0.9,2.2c10.5,4.5,21,9.1,31.6,13.3
			c1.7,0.6,4.2-0.9,6.3-1.4c-1.2-1.3-2.1-3.3-3.5-3.8C3531.2,929.6,3520,926.3,3508.8,922.9z M4058.3,1393.4
			c1.1,0.2,2.2,0.5,3.3,0.7c2.2-10.6,4.4-21.1,6.4-31.8c0.3-1.3-0.8-2.9-1.2-4.4c-1,1.2-2.5,2.4-2.8,3.7
			C4062,1372.3,4060.2,1382.9,4058.3,1393.4z M4116,1373c-0.8,0.3-1.6,0.6-2.4,0.9c5.4,15.4,10.8,30.7,16.3,46
			c0.3,0.7,1.4,1.2,2.1,1.7c0.4-1.1,1.3-2.4,1-3.2C4127.4,1403.3,4121.7,1388.1,4116,1373z M3283.9,1182.8c-1.3,0-2.5,0-3.8,0
			c0,12.2-0.1,24.5,0.1,36.7c0,1.3,1.4,2.6,2.2,3.8c0.5-1.4,1.4-2.8,1.4-4.1C3283.9,1207,3283.9,1194.9,3283.9,1182.8z M4096,1463.3
			c-2.2-4.1-3.7-7-5.3-10c-2.2,6.7-4.5,13.5-6.5,20.3c-0.3,0.9,1,2.3,1.6,3.4C4089.1,1472.6,4092.4,1468.1,4096,1463.3z
			 M4072.9,1326.3c1,4.2,1.9,8.1,2.8,12.1c1.4-2.8,4.1-5.6,3.8-8.2c-0.5-5.3-2.6-10.4-4-15.6
			C4074.6,1318.4,4073.8,1322.4,4072.9,1326.3z M4034.1,1689.1c0.6,5.1,1.3,10.6,1.9,16c1-4.2,2.8-8.4,2.8-12.6
			c-0.1-5.8-1.6-11.5-2.5-17.3C4035.6,1679.6,4034.9,1684.1,4034.1,1689.1z M4057.2,1096.9c1.2,3.2,2.4,6.4,3.7,9.7
			c0.9-2.3,2.8-4.7,2.6-6.9c-0.4-3.9-2-7.7-3.2-11.5C4059.3,1090.9,4058.4,1093.5,4057.2,1096.9z M4034.9,1050.5
			c-2.2-2.9-3.9-5.3-5.7-7.7c-0.6,1.9-1.7,3.9-1.7,5.8c0,3.7,0.6,7.3,1,11C4030.5,1056.9,4032.4,1054.1,4034.9,1050.5z
			 M4165.5,1463.6c1.5-4.3,2.9-6.2,2.5-7.5c-1-3.3-2.9-6.3-4.4-9.4c-0.5,1.5-1.6,3.2-1.4,4.6
			C4162.7,1454.7,4163.8,1457.8,4165.5,1463.6z M4183.2,1724.3c-1.2,0-2.3,0-3.5,0.1c0.3,5.9,0.6,11.8,0.9,17.7
			c0.9-0.3,2.4-0.6,2.4-0.9C4183.3,1735.6,4183.2,1730,4183.2,1724.3z M4182,1432.2c0.9-0.4,1.9-0.8,2.8-1.3c-1.8-4-3.5-8-5.5-11.9
			c-0.2-0.3-2.3,0.4-3.6,0.6C4177.8,1423.8,4179.9,1428,4182,1432.2z M4058.8,1833.6c-3-8.3-5.4-14.6-7.7-20.9
			c1.4,6.3,2.7,12.6,4.1,18.8C4055.3,1831.7,4055.8,1831.9,4058.8,1833.6z M4228.1,1886.8c1.1-0.2,2.2-0.4,3.2-0.6
			c-1.5-4.6-3.1-9.3-4.7-13.9c-0.1-0.2-1.1-0.2-1.7-0.2C4226,1877,4227.1,1881.9,4228.1,1886.8z M4115.7,1297.4
			c-0.7,3.2-1.4,4.4-1.1,5.3c1.2,3.7,2.8,7.3,4.2,11c0.8-1.6,2.7-3.4,2.4-4.6C4120.2,1305.6,4118.3,1302.6,4115.7,1297.4z
			 M4228.3,1950.9c-1.1-1.5-2.3-3-3.5-4.6c-0.5,1.4-1.5,2.8-1.3,4.1c0.3,2.1,1.4,4,2.2,6.1
			C4226.5,1954.9,4227.2,1953.3,4228.3,1950.9z M4046.6,1840c0.4,0,0.7-0.1,1.1-0.1c0.2-2.2,0.6-4.3,0.4-6.4c-0.2-1.6-1.3-3.1-2-4.7
			C4046.2,1832.6,4046.4,1836.3,4046.6,1840z M4084.6,1503.1c0.9,0.3,1.8,0.6,2.7,0.8c0.5-3.4,0.9-6.9,1.3-10.3l-2.3-0.3
			C4085.7,1496.5,4085.2,1499.8,4084.6,1503.1z M3244.4,1092.9c-1.2,2.3-2.7,3.8-2.5,4.9c0.3,1.5,2,2.8,3.1,4.2
			c0.7-1.1,2-2.3,1.8-3.2C3246.7,1097,3245.6,1095.4,3244.4,1092.9z M4157.7,1534.5c-0.8,0.2-1.7,0.3-2.5,0.5
			c0.3,3.4,0.5,6.8,0.9,10.3c0,0.2,1.1,0.3,1.6,0.5C4157.7,1541.9,4157.7,1538.2,4157.7,1534.5z M4178.9,1368.4
			c-0.4,0.1-0.9,0.1-1.3,0.2c0.3,3,0.5,5.9,0.8,8.9c0.7-0.1,1.5-0.2,2.2-0.3C4180,1374.2,4179.4,1371.3,4178.9,1368.4z
			 M3291.4,1014.6c-1.3-1.1-2.5-2.1-3.6-3.1c-0.4,0.7-1.4,1.7-1.2,2.1c0.7,1.3,1.8,2.4,2.8,3.5
			C3289.9,1016.5,3290.5,1015.8,3291.4,1014.6z M4085.8,1147.2c-0.8-1.3-1.6-2.6-2.3-3.8c-0.3,1-1.1,2.1-0.9,3c0.3,1.6,1.3,3,2,4.5
			C4084.9,1149.7,4085.3,1148.6,4085.8,1147.2z M4191.3,1526.7c0.5-0.1,1-0.2,1.5-0.3c-0.6-3-1.2-6-1.8-9c-0.5,0.1-1,0.2-1.5,0.3
			C4190.1,1520.7,4190.7,1523.7,4191.3,1526.7z M3415.2,1072.4c-2.2-0.8-3.2-1.4-4.3-1.5c-0.9-0.1-1.8,0.3-2.7,0.5
			c1.2,0.9,2.3,1.9,3.6,2.5C3412.2,1074,3413.2,1073.3,3415.2,1072.4z M4019.1,1267.1c2-1.3,3.6-2.3,5.1-3.2c-1-0.4-2.2-1.3-3.1-1.1
			c-1.5,0.3-2.9,1.3-4.3,2C4017.5,1265.4,4018.2,1266.1,4019.1,1267.1z M4044.9,1220.8c-0.3,1.2-0.6,1.9-0.5,2.5
			c0.3,1.6,0.9,3.1,1.3,4.7c0.6-0.3,1.8-0.8,1.8-0.8C4046.8,1225.3,4046,1223.5,4044.9,1220.8z M3305.3,1026.7
			c0.5-0.5,1.1-1,1.6-1.5c-2.1-1.7-4.3-3.4-6.4-5.1c-0.2,0.6-0.7,1.4-0.5,1.6C3301.7,1023.4,3303.6,1025,3305.3,1026.7z
			 M4063.4,1269c-1.1,3.5-1.7,4.6-1.8,5.7c0,1.2,0.5,2.4,0.7,3.5c0.6-1,1.4-1.9,1.6-3C4064.2,1274.1,4063.8,1272.8,4063.4,1269z
			 M4075.3,1771.4c-0.3-0.8-0.6-1.8-0.9-2.8c-0.1,0.9-0.4,1.8-0.4,2.7c0,0.9,0.2,1.8,0.4,2.7
			C4074.6,1773.2,4074.9,1772.5,4075.3,1771.4z M4037.7,1766.1c-1.5,3.6-2.2,4.5-2.1,5.2c0.2,1.4,0.9,2.8,1.4,4.2
			C4037.2,1773.3,4037.4,1771.2,4037.7,1766.1z M4070.5,1143.7c-0.5-0.8-1-1.6-1.4-2.4c-0.5,0.6-1.4,1.2-1.3,1.7
			c0.1,0.7,0.9,1.4,1.4,2C4069.6,1144.5,4070,1144.1,4070.5,1143.7z M4107,1641.8c-0.2-0.6-0.4-1.1-0.6-1.7
			c-0.5,0.3-1.2,0.5-1.3,0.9c-0.1,0.5,0.4,1.1,0.6,1.6C4106.1,1642.4,4106.5,1642.1,4107,1641.8z M3290.8,1040.9
			c0.3-1.5,0.8-2.4,0.6-3.2c-0.1-0.7-1-1.3-1.5-1.9c-0.2,0.8-0.8,1.6-0.7,2.4C3289.4,1038.9,3290.1,1039.6,3290.8,1040.9z
			 M4054.1,1061.5c-0.2-0.6-0.4-1.1-0.6-1.6c-0.4,0.3-0.9,0.6-1.3,1c-0.1,0.1,0.1,0.8,0.2,0.8
			C4053,1061.7,4053.5,1061.6,4054.1,1061.5z M4166.7,2032.1c-0.2-0.2-0.4-0.4-0.6-0.5c-0.2,0.4-0.4,0.8-0.6,1.2
			c0.3,0,0.6,0.2,0.8,0C4166.5,2032.8,4166.5,2032.4,4166.7,2032.1z M3864.5,965.8c0.1-0.2,0.4-0.5,0.3-0.7
			c-0.1-0.3-0.4-0.5-0.6-0.8c0,0.3-0.1,0.6-0.1,0.8C3864.2,965.4,3864.4,965.6,3864.5,965.8z M4160.4,1760.5
			c0.2-0.1,0.6-0.1,0.6-0.2c0.1-0.2,0-0.5,0-0.8c-0.3,0.1-0.6,0.2-1,0.2C4160.2,1760,4160.3,1760.3,4160.4,1760.5z M4192.5,1800.8
			c-0.2,0.1-0.5,0.2-0.6,0.4c-0.1,0.2,0,0.5,0,0.8c0.3-0.2,0.7-0.3,1-0.5C4192.8,1801.2,4192.7,1801,4192.5,1800.8z M3927.2,1073.5
			c-0.2-0.3-0.3-0.5-0.5-0.8c-0.2,0.4-0.6,0.8-0.7,1.3c-0.1,0.2,0.3,0.5,0.4,0.8C3926.7,1074.3,3926.9,1073.9,3927.2,1073.5z
			 M3271.6,1259.1c-0.5-0.3-1-0.5-1.4-0.7c0,0-0.4,0.5-0.4,0.7c0.2,0.4,0.6,0.7,0.9,1.1C3271,1259.9,3271.3,1259.5,3271.6,1259.1z
			 M4159.7,2065.4c-0.1-0.3-0.2-0.7-0.4-0.8c-0.2-0.1-0.5,0.1-0.8,0.2c0.1,0.3,0.2,0.7,0.4,0.8
			C4159.1,2065.8,4159.5,2065.5,4159.7,2065.4z M4185.2,2102.4c0.2-0.5,0.5-1,0.6-1.5c0-0.1-0.5-0.6-0.6-0.5
			c-0.4,0.2-0.8,0.6-1.2,0.9C4184.3,2101.7,4184.7,2102,4185.2,2102.4z M4179.2,1852.1c-0.1-0.2-0.2-0.5-0.3-0.7
			c-0.3,0.3-0.5,0.6-0.8,0.9c0.2,0.1,0.5,0.4,0.6,0.4C4178.9,1852.6,4179.1,1852.3,4179.2,1852.1z M4142.4,1719.2c0,0.3,0,0.5,0,0.8
			c0.2-0.2,0.5-0.5,0.7-0.7C4142.8,1719.2,4142.6,1719.2,4142.4,1719.2z M4178.2,2000.3c-0.2-0.1-0.4-0.2-0.6-0.4
			c-0.1,0.2-0.3,0.5-0.3,0.6c0.1,0.2,0.4,0.3,0.6,0.4C4178,2000.7,4178.1,2000.5,4178.2,2000.3z M3252.4,1207.9
			c-0.1,0.2-0.2,0.5-0.3,0.7c0.3,0,0.6,0.1,1,0.1c0-0.3,0-0.5-0.1-0.7C3252.9,1207.9,3252.6,1207.9,3252.4,1207.9z M3499.4,1416
			c-0.1-0.2-0.2-0.5-0.4-0.6c-0.2-0.1-0.5,0-0.7,0.1c0.2,0.3,0.4,0.6,0.5,0.9C3499,1416.3,3499.2,1416.1,3499.4,1416z
			 M3212.9,1114.9l-0.7-0.1l0.3,0.9L3212.9,1114.9z M4070.4,1573.2l0.7,0l-0.3-0.8L4070.4,1573.2z M3249.9,1224.7l0.8,0.1l-0.3-0.8
			L3249.9,1224.7z M3264.9,1092c-0.2-0.2-0.3-0.4-0.5-0.7c-0.2,0.2-0.5,0.4-0.5,0.6c0,0.3,0.3,0.5,0.5,0.7
			C3264.6,1092.5,3264.8,1092.2,3264.9,1092z M3568.4,931.4c-0.2,0.1-0.5,0.1-0.7,0.2c0.1,0.2,0.1,0.6,0.2,0.6
			c0.2,0,0.5-0.1,0.7-0.2C3568.5,931.8,3568.4,931.6,3568.4,931.4z"/>
		<path id="XMLID_448_" class="st0" d="M3767.3,4106.7c0,20.6-0.1,35.8,0.2,51c0,1.9,2.2,5.1,3.8,5.4
			c62.3,11.5,124.5,23.1,186.9,33.9c23.1,4,46.6,6,70,8.6c1.5,0.2,4.6-2.9,4.8-4.6c5.9-68.7,3.3-137.3-2.2-205.8
			c-1.1-13.3-2-26.6-2.7-39.9c-0.1-1.4,2-4.2,2.4-4.1c2.9,0.8,7.2,1.6,8,3.6c1.9,4.8,2.6,10.2,2.9,15.4
			c2.6,53.6,5.6,107.2,7.2,160.8c0.7,22.7-2.1,45.6-2.7,68.4c-0.1,2.6,4.2,7.6,6.7,7.8c56.5,3.5,112.8,2.9,169-5.2
			c28.9-4.2,58.1-6.6,87.1-10.1c1.4-0.2,3.7-3.9,3.3-5.4c-25.3-100.1-34.7-201.9-33.8-304.9c0.3-37.1,1-74.2,1.7-111.3
			c0.2-12.7-7.9-17.2-17.9-15.1c-22.4,4.6-45,9.7-66.6,17.2c-50.9,17.9-103.3,28.6-156.8,30.9c-48.1,2-96.4,1.1-144.5-1.7
			c-28.5-1.7-56.5-12.5-85-14.1c-38.9-2.2-78.1,0.2-117.2,1.2c-34.7,0.9-69.4,3.2-104.1,3.6c-39.2,0.5-78,4-115.3,16.2
			c-51.4,16.8-103.8,24.8-157.8,24.3c-11.4-0.1-22.8,5.1-34.4,6.4c-9.8,1.1-20.5,2.3-29.6-0.6c-18.7-6-34.6,2-51,7.1
			c-23.4,7.3-46.5,15.7-69.4,24.3c-4.2,1.6-10.3,6.3-10.2,9.4c0.7,25.5-4.1,54.2,5.9,75.7c17.9,38.5,24.3,77.9,27.7,118.7
			c1.3,15.5,11.1,23.4,23.5,26.2c14.5,3.3,30.2,5,44.8,2.9c32.4-4.6,63.9-0.9,96.1,1.4c42.6,2.9,85.7-0.5,128.5-1.1
			c7.2-0.1,15.4,1,12.2-10.9c-0.1-0.3,2.6-1.3,4-1.9c3,6.7,6,13.4,9,20.1c-5.2,1.5-10.3,4-15.5,4.2c-24.4,0.9-48.9,2.2-73.3,1.5
			c-32.8-0.9-65.6-3.9-98.4-4.9c-19.9-0.6-40.1-0.3-59.8,2.1c-27,3.4-52.1,1.6-73.6-16.7c-3-2.6-5.6-6.9-6.2-10.8
			c-3.8-27.8-6.8-55.8-10.7-83.6c-1-6.9-3.4-14.3-7.5-19.9c-14.1-19.1-16.4-40.5-15-63.1c0.7-11.7,0.9-23.6,0.1-35.3
			c-0.9-12.3,5.4-18.4,15.8-21.9c29.8-10,59.3-20.9,89.5-29.2c11.7-3.2,25.1-0.4,37.8-0.1c4.3,0.1,9.2,2.7,12.9,1.5
			c34.1-11.6,69.7-8.8,104.6-12.9c30.6-3.6,61-11.6,90.8-19.7c44.1-12,88.5-18.1,134.5-17.4c40,0.6,80.1-2.9,120-6.8
			c47.6-4.6,93.9,1,140.8,8.9c37.5,6.3,76,7.8,114.1,9.6c72.1,3.5,142.5-7.4,211.5-27.7c23.6-7,47.1-14.2,70.5-22
			c18.9-6.3,35.3,4.9,35.2,24.5c-0.1,64.8-2.7,129.7,0.9,194.3c3.2,56.8,12.8,113.3,21.2,169.7c3.1,20.7,11.4,40.6,16.5,61.1
			c0.6,2.4-4.1,8.7-6.7,9c-41.8,3.8-83.7,7.8-125.6,10c-40.6,2.1-81.3,2.2-122,3.1c-7.8,0.2-15.6-0.3-23.3,0.1
			c-1.4,0.1-3.8,3.2-3.7,4.7c0.4,4.5,2.3,9,2.6,13.5c0.2,2.5-1.6,5.1-2.5,7.7c-2.9-1.4-8.3-2.7-8.3-4.2c-1.2-33-27.7-24.2-45.9-27.4
			c-72.4-12.9-145-25-217.6-37.1c-3.4-0.6-7.3,3-11.2,3.8c-3.2,0.7-9.5,0.9-9.7,0.1c-3.6-13-15.1-10-22.9-10
			c-44-0.3-87.9,0.7-131.9,1.3c-37,0.4-74.1-0.5-108.7-15.5c-15.1-6.6-28.8-16.7-42.7-25.9c-1.9-1.3-1.2-6.5-1.6-9.9
			c2.9,1.2,6.6,1.6,8.7,3.6c20.1,20.5,46,30.8,73,33c38.8,3.2,78.1,1.1,117.2,1.8c35.1,0.6,70.3,1.9,105.4,2.4c1.4,0,4.2-3.9,4.2-6
			c-0.4-53.6,3.7-107.7-22.3-157.8c-6.4-12.4-10.3-26.1-16.9-38.4c-6.3-11.6-25.3-15.4-31.5-6.2c-3.9,5.7-4.8,15.4-3.3,22.5
			c1.9,8.9,5.1,15.5-0.5,25.4c-4.7,8.4-3.5,20.7-3.2,31.2c0.7,21.6,2.2,43.2,4.1,64.8c0.5,6,3.8,11.8,5,17.8c0.6,3.3-0.5,7-0.8,10.5
			c-3.1-2-8.4-3.5-9-6c-4.2-18.1-8.6-36.2-10.5-54.6c-1.9-18.5-0.8-37.3-1.3-55.9c-0.9-31.9-3.3-63.9-2.8-95.8
			c0.4-22.9,4.4-45.7,7-68.6c0.2-1.4,1.9-2.5,3-3.8c1.7,1.9,4.9,3.7,4.9,5.6c0.4,10.3,0.2,20.6-0.1,30.9c-0.7,19.5-1.7,39-2.2,58.6
			c0,1.4,2.8,4.3,3.7,4.1c28.8-8.1,48.9-0.4,58.8,27.1C3754.3,4012.7,3775.9,4059.4,3767.3,4106.7z"/>
		<path id="XMLID_449_" class="st0" d="M3951.5,3045.2c-12.8,78.9,6.7,153.4,13.7,228.7c3.2,34.3-2,69.5,1.9,103.7
			c5.5,48.3,15.9,96,24.5,143.9c0.2,0.9,4.6,1.1,7.1,1.4c6.2,0.8,12.5,1.4,18.7,2.1c-2.4,4.4-5.4,8.7-7.1,13.3c-0.7,1.9,0.6,6,2.3,7
			c32.4,19.7,65,39.1,97.5,58.7c3.7,2.2,8,4.1,10.6,7.3c2.8,3.5,4,8.3,6,12.5c-5.2,0.6-11.8,3.5-15.4,1.4
			c-29.9-17.4-59.1-35.8-88.7-53.8c-5-3-10.4-5.4-15.6-8.1c0,5.8-0.9,11.8,0.1,17.5c6.1,34.7,12.8,69.2,18.6,103.9
			c0.8,4.6-2.3,9.8-3.6,14.7c-3.6-4-8.3-7.4-10.7-12c-19.1-37.1-16.4-78.2-21.8-117.9c-0.3-2.2-1.3-4.2-2-6.3
			c-1.8,1.3-3.9,2.3-5.2,3.9c-18.9,23.6-37.8,47.3-56.5,71c-1.5,1.9-1.5,4.9-2.6,7.2c-1.8,3.7-4.4,10.5-6,10.3
			c-5.8-0.7-11.8-3.2-16.8-6.4c-1-0.6,0.6-8.1,2.9-10.9c22.8-28.6,46.3-56.6,68.6-85.6c3.9-5,5.5-14,4.3-20.4
			c-8.6-45.9-21.3-91.3-26.7-137.5c-4.4-38,1.6-77.1-1-115.5c-3.9-56.3-12.3-112.3-16.9-168.6c-3.1-37.6-3.1-75.4-3.9-113.1
			c-0.1-3.4,3.9-6.9,6-10.3c3,2.6,8.1,4.8,8.8,7.9C3946.4,3012.4,3949,3029.9,3951.5,3045.2z"/>
		<path id="XMLID_450_" class="st0" d="M3446.5,3652.6c-4-24.9-7.8-49.9-12-74.8c-0.5-2.9-3-5.5-4.5-8.3c-2,2.1-4.2,4.1-6.1,6.3
			c-9.4,10.7-17.9,22.6-28.6,31.8c-4.6,3.9-14,2.2-21.2,3c2.7-5,4.5-10.8,8.2-14.9c29.5-32.5,58.5-63.7,65.4-111
			c9.5-65.9,22.8-131.5,37.7-196.5c10.8-46.9,28.2-92.2,40.3-138.8c9.3-35.9,13.7-72.9,22.7-108.9c2.7-10.6,12.9-19.6,20.6-28.6
			c1.7-2,7.1-1,10.7-1.3c-0.1,3.4,1.1,8-0.6,10c-24.8,30-27,66.7-33.5,102.8c-8.5,47.5-17.7,95.3-32.2,141.2
			c-18.9,60-33,120.3-38.5,183c-2.3,26.7-8.8,53.2-14.8,79.4c-5.5,24,3.1,43.3,19.8,58.2c15.4,13.8,33.8,24.4,50.9,36.3
			c1.6,1.1,3.7,1.5,5.6,2.1c4.2,1.5,8.4,2.9,12.5,4.4c-6.6,2.5-15.7,9-19.4,6.7c-23.2-14.1-45.4-29.9-67.6-45.7
			c-4.3-3-6.9-8.4-10.3-12.7c0.7,5.5,1.3,10.9,2.1,16.4c3.2,23.4,6.9,46.6,9,70.1c0.4,4-6.3,8.6-9.7,13c-2.7-4.1-6.2-7.8-8-12.3
			c-1.3-3.2-0.2-7.2-0.2-10.9C3445.4,3652.8,3446,3652.7,3446.5,3652.6z"/>
		<path id="XMLID_451_" class="st0" d="M3464.7,3942.6c-5.7,35.8-10.1,72-17.8,107.4c-3.1,14.6-12.8,27.9-20.3,41.3
			c-0.9,1.6-6.8,0.5-10.4,0.7c0-3.9-1.3-8.6,0.4-11.5c2.6-4.6,9.6-7.5,10.7-12.2c7.8-31.6,16.8-63.1,20.8-95.2
			c2.7-21.7,0.1-44.7-3.8-66.4c-6.8-37.5-45.2-53.6-78.3-34.7c-27.2,15.6-44,39.3-53.9,68.4c-0.9,2.6-1.3,5.7-3,7.7
			c-2.5,3-6,5.2-9.1,7.7c-1.3-3.5-3-6.8-3.8-10.4c-1-4.6-1.1-9.3-1.6-14c-1.8,4.1-4.4,7.9-5.2,12.2c-3.3,17.4-6.4,34.9-9,52.5
			c-2.8,18.5-5.3,37-7.2,55.6c-0.6,5.8,1.5,11.7,2.1,17.7c0.2,2.6-0.4,5.2-0.7,7.8c-2.4-1.5-6.4-2.7-6.8-4.6
			c-1.7-8.7-4.3-17.9-3-26.4c5.7-37.6,12.4-75.1,19.2-112.6c1-5.2,4.1-10.3,7.1-14.9c5-7.8,10.4-9.1,15,0.5c1.9-1.1,4.8-1.6,5.7-3.3
			c12.6-22,28.1-40.8,51.3-52.7c28.4-14.6,60.3-9,80.6,15.2c10.9,13.1,16.5,33.9,16.9,63.6C3462,3942.2,3463.4,3942.4,3464.7,3942.6
			z"/>
		<path id="XMLID_452_" class="st0" d="M3862.9,4106.6c-13.6-22.5-18.6-46.9-16.9-73c1.3-21.2,12.7-37.1,29.1-48.7
			c5.2-3.7,15.4-2.3,22.8-0.6c6.9,1.6,13.4,6.1,19.1,10.6c2.4,1.9,2.4,6.9,3.4,10.5c-3.7,0.5-8,2.4-11.1,1.2c-5-2-9.4-5.7-13.7-9.2
			c-7.9-6.4-14.5-4.2-21.5,1.8c-21.1,18.2-19.9,41.6-15.5,65.7c7,38,26.3,67.3,61,85.7c7.7,4.1,11.1,4.8,11.1-6.6
			c-0.2-44,1.3-88,1-132.1c-0.1-22.1-2.6-44.2-17.7-62.5c-1.3-1.6-0.1-5.3,0-8c2.9,0.5,6.6-0.1,8.6,1.5
			c15.4,12.9,19.9,31.5,20.5,49.7c1.3,40.5,0.1,81.1,0,121.6c0,9,0.3,18,0.4,26.9c0.1,5.1-0.7,10.9,7.4,5.7c0.6-0.4,1.7-0.3,2.5-0.4
			c-0.3,1.2-0.3,2.8-1.1,3.5c-9.7,9.4-6.3,19.8-3.2,30.5c0.8,2.7-1.6,6.3-2.5,9.5c-3.3-1.1-6.7-2.2-10-3.4c-0.2-0.1-0.4-0.4-0.3-0.6
			c1.3-26.5-24.1-27.7-37.5-40.3c-12.4-11.7-23.1-25.2-34.5-38l0,0.1c-0.5-0.5-1-1-1.5-1.5L3862.9,4106.6z"/>
		<path id="XMLID_455_" class="st0" d="M3550.6,3953.5c-1.1-5.8-2.9-12.4-3.4-19.1c-0.1-1.8,3.6-4,5.6-6c1.3,2,3.2,3.7,3.7,5.9
			c2.6,10.9,5.9,21.8,7,32.9c3,30.2,4.9,60.4,7.7,90.6c0.5,5.7-3,14.9,8.7,14.3c-0.5,2.7-0.6,5.5-1.6,8c-1.2,3.4-4.7,6.9-4.4,10
			c1.7,15.7,4.5,31.4,6.5,47.1c0.3,2.4-1.7,5.1-2.7,7.7c-2.6-1.8-7-3.2-7.5-5.5c-3.6-16.1-6.3-32.5-9.7-48.6
			c-0.6-2.9-2.5-7.1-4.6-7.7c-39.2-11.3-59.5-39.5-70.2-76.8c-4.5-15.5-7.8-30.9,0-46.2c7.3-14.4,46-23.9,59.1-14.2
			C3547.5,3947.7,3549,3951.3,3550.6,3953.5z M3559.3,4021.5c-2.1-16.4-4.2-33.7-6.6-51c-0.2-1.6-2.1-3.3-3.6-4.4
			c-2.6-1.9-5.6-3.3-8.4-4.9c-4.7-2.6-9.3-7-14.1-7.2c-6.6-0.3-13.6,1.9-20.1,4.1c-9.8,3.3-16.6,9.6-14.8,21
			c1.5,9.9,3.1,20,5.9,29.6c8.4,29.7,24.9,52.7,55.3,63c1.5,0.5,6-2.7,6.1-4.3C3559.5,4052.5,3559.3,4037.5,3559.3,4021.5z"/>
		<path id="XMLID_456_" class="st0" d="M4230.8,2054.3c0.2,2.1,0.5,4.2,0.6,6.3c0,0.2-0.8,0.5-1.2,0.7c-0.3-2.3-0.6-4.6-0.9-6.9
			C4229.8,2054.4,4230.3,2054.4,4230.8,2054.3z"/>
		<path id="XMLID_457_" class="st0" d="M3920.5,4029.5c0.3,0.3,0.8,0.8,0.7,0.9c-0.3,0.4-0.7,0.7-1.1,1c-0.1-0.4-0.4-0.8-0.4-1.2
			C3919.7,4030,3920.2,4029.8,3920.5,4029.5z"/>
		<path id="XMLID_458_" class="st0" d="M3657.1,1009.8c-0.2-0.5-0.4-1-0.5-1.5c0-0.1,0.5-0.3,0.7-0.5l-0.2-0.1
			C3657,1008.4,3657,1009.1,3657.1,1009.8L3657.1,1009.8z"/>
		<path id="XMLID_459_" class="st0" d="M3659.2,1009.8c-0.7,0-1.4,0-2.2,0l0,0.1C3657.8,1009.9,3658.5,1009.8,3659.2,1009.8
			L3659.2,1009.8z"/>
		<path id="XMLID_467_" class="st0" d="M3589.7,1630.7c18.6,3.9,37.4,7,55.7,12c10.6,2.9,20.1,11,30.7,12.8
			c11.9,2,25.3,1.8,36.7-1.8c7.8-2.5,14.4-11.5,19.6-19c5.8-8.3,10.3-12,18.3-2.9c1.3,1.5,6.4,1.8,7.8,0.5
			c6.3-5.8,11.1-13.3,17.9-18.4c4.5-3.4,11.3-3.8,17-5.5c1.6,6.2,6.4,14.2,4.2,18.2c-21.7,39.3-45.7,77.6-82.5,104.7
			c-17.3,12.8-36.1,26.3-56.3,31.8c-103.6,28-193.3-30.8-224.9-125.1c-2.1-6.2-6.5-11.9-7.5-18.2c-0.9-5.5-0.1-15.2,2.7-16.4
			c6.4-2.7,14.6-1.5,22.1-1.5c1.3,0,2.6,2,4,2.3c44.9,8.9,89.9,17.8,134.8,26.6L3589.7,1630.7z M3608.5,1752.4
			c0.6,1.9,1.2,3.8,1.8,5.6c25.7-8.4,51.4-16.7,77-25.3c1.8-0.6,3-3.1,4.4-4.6c-1.2-0.4-2.3-1.2-3.4-1.1
			c-26.1,2.1-38.4-12.2-42.9-35.9c-0.2-0.9-4.1-2.3-4.4-1.9c-13.6,16.7-26.9,33.7-40.5,50.5c-8.1,10-18.2,11.9-22.7-1.7
			c-6.5-19.6-9.7-40.2-14.4-60.3c-0.7-3.2-1.7-6.4-2.6-9.6c-2.3,2.7-5.5,5-6.7,8.1c-5,12.3-8.8,25.1-14.3,37.1
			c-1.7,3.7-7.6,7.9-11.1,7.6c-3.1-0.3-7.2-6.5-7.9-10.6c-2.8-15-4.3-30.2-6.4-45.3c-0.3-1.9-0.8-3.8-1.2-5.7
			c-1.3,0.7-2.5,1.7-3.8,2.2c-6.6,2.5-14.4,8.1-19.6,6.3c-4.9-1.7-9.1-10.8-10.2-17.3c-4.4-26.7-8.4-30.8-33.4-28.7
			c-1.6,0.1-4.5,4.5-4.1,6.1C3465,1701.3,3533.6,1752.5,3608.5,1752.4z M3576.5,1672.5c3.1,14.8,6.1,29.6,9.6,44.3
			c0.4,1.8,3.5,2.9,5.4,4.3c12.6-17.6,25.2-35.2,37.4-53.1c0.7-1-1.9-6.1-3.8-6.8c-7.4-2.8-15.1-4.6-22.7-6.8
			C3578.2,1647.2,3578.2,1647.2,3576.5,1672.5z M3671.8,1676.8c-1.2-1.7-2.4-3.5-3.5-5.2c-1.7,2.9-5.2,5.9-4.9,8.6
			c1.2,12.3,2.3,26.3,18.8,26.9c20.7,0.8,37.6-14.2,37.9-31.9c0-1.3-2.8-3.9-4.1-3.7C3701.3,1673,3686.6,1675,3671.8,1676.8z
			 M3526.1,1650.8c1.6,12.9,2.7,23.5,4.1,34c0.3,2.1,1.5,4,2.2,6.1c1-2,1.9-4,3-5.9c7.1-12,14.3-23.9,21.3-36
			c1.1-1.9,1.2-4.4,1.8-6.6c-10.2-2.3-20.5-4.7-30.7-7C3527.2,1641.3,3526.5,1647.2,3526.1,1650.8z M3511.3,1633.6
			c-8.2-2.7-14.4-5.1-20.8-6.5c-1.5-0.3-5.6,3.1-5.3,3.8c3,8.7,6.6,17.2,10,25.8C3499.8,1650.1,3504.5,1643.4,3511.3,1633.6z
			 M3746.7,1656.2c-3.6,8.9-6,14.6-8.1,20.4c-0.3,0.9,1.1,2.4,1.6,3.7c4.5-5.6,9-11.1,13.3-16.9
			C3753.7,1663.2,3751.3,1661.1,3746.7,1656.2z"/>
		<path id="XMLID_475_" class="st0" d="M3589.9,1630.9c-15.9-12.4-31.7-25-47.8-37.2c-16.7-12.8-26.5-59.8-18.9-79.5
			c6.8-17.8,5-40.9,15.8-54.7c18.5-23.6,43.3-42.5,67-61.5c3.1-2.5,18.2,3.6,22.2,9.5c17,25.1,31.9,51.6,47.8,77.5
			c1.4,2.2,3.6,4.9,6,5.5c21.6,5.5,34.9,19.1,35.4,40.8c0.6,25.2,0.5,50.5-2.3,75.5c-1.2,11-7.5,24.3-16,30.7
			c-9.3,7.2-28.1,14.3-34.9,9.7c-12.1-8.2-18.4-25.1-26.8-38.5c-0.6-1,1-3.4,1.6-5.1c1.2,1.3,2.7,2.6,3.7,4.1
			c4.6,6.5,8.6,13.5,13.8,19.5c9.3,10.7,25.7,8.1,31.6-4.8c0.3-0.7-1.9-3.6-2.1-3.5c-26.9,12.4-36.4-8.7-43.4-25.9
			c-8.6-21.1-11.6-44.4-18.7-66.2c-1-3.2-11.6-3.8-17.8-4.5c-3.9-0.4-8.1,1.4-12.2,2.2c2.1,3.1,4.1,6.3,6.4,9.2
			c17.7,22.4,21.9,48.4,18.5,75.5c-1.9,15.3-14.2,21.5-29.3,21.7L3589.9,1630.9z M3659,1488.5c-10.5-16.7-19.3-33.1-30.3-47.8
			c-22.3-29.8-16.1-26.9-43.1-5.5c-19.7,15.7-37.4,32.3-40.6,59.1c-0.3,2.7-0.2,7.6,0.7,7.8c14.8,3.8,29.6,9.3,44.6,9.9
			c21.3,0.8,42.6-3,60.4-16.9C3652.8,1493.6,3654.7,1492,3659,1488.5z M3699.8,1562.5c0.6-0.1,1.2-0.2,1.8-0.4
			c-2.7-14.6-5-29.2-8.3-43.7c-0.6-2.6-5.1-4.3-7.8-6.5c-0.3,2.7-1.5,5.5-0.9,8c1.8,7.4,5.6,14.5,6.1,21.9
			c0.3,4.5-2.8,10.9-6.5,13.3c-2.3,1.5-10.8-1.5-12.4-4.6c-4-7.8-5.5-16.9-8.4-25.3c-0.7-1.9-3-5.1-3.9-4.9
			c-9.6,2.3-20.3,4.4-17.5,18.2c3.6,17.7,6.3,35.8,12.7,52.5c2.7,6.9,14.1,14,21.8,14.4c13.3,0.6,24.1-6.1,22.3-23.1
			C3698.3,1575.9,3699.5,1569.1,3699.8,1562.5z M3602.7,1593.2c-2.7-11.5-4.2-21.4-7.4-30.7c-2.1-6.3-6.6-11.9-9.9-17.8
			c-2.7,5.7-5.7,11.2-7.9,17c-7.6,19.4-7.4,19.4,1.5,29.9c0.6,0.7,0.3,2.1,0.9,2.8c4.9,5.4,9.9,10.6,14.9,16
			C3597.4,1604.3,3600.2,1598.4,3602.7,1593.2z M3534.9,1539.3c1.9,8,3.6,16.1,5.7,24c0.7,2.4,2.6,4.5,3.9,6.7
			c0.7-0.6,2.1-1.3,2.1-1.8c-0.5-2.6-2.3-5.4-1.9-7.8c2.1-11.2,4.5-22.4,7.3-33.4c0.4-1.5,3.6-2.3,5.5-3.5
			c-3.5-0.8-8.8-3.5-10.1-2.2C3542.7,1526.6,3539.2,1532.9,3534.9,1539.3z M3568.3,1553.5c-0.7-2.4-1.2-4.1-1.7-5.8
			c-0.9,1.2-2.1,2.3-2.8,3.7c-3.8,8.1-7.6,16.2-11,24.4c-0.8,1.9,0,4.3,0,6.5c1.7-1.2,4.1-2,4.9-3.6
			C3561.5,1570.3,3564.9,1561.7,3568.3,1553.5z M3550.3,1542.5c-1,2.7-1.8,3.9-1.6,4.9c0.2,1.6,1,3.1,1.5,4.6
			c0.8-1.1,2.1-2.2,2.1-3.3C3552.4,1547.2,3551.4,1545.7,3550.3,1542.5z"/>
		<path id="XMLID_476_" class="st0" d="M3689.1,1015.2c27.2,4.8,60.9,3.5,86.8,27.2c2.9,2.6,1,10.4,1.4,15.8
			c-4.9-0.6-9.9-0.7-14.6-2c-26.4-7.4-52.4-18-79.2-21.6c-19.4-2.6-23.6,16.1-25,32.9c-0.5,5.9-3.3,11.7-5.1,17.5
			c-3-6.2-8.1-12.2-8.6-18.6C3642.4,1036.1,3659.2,1015.1,3689.1,1015.2z"/>
		<path id="XMLID_480_" class="st0" d="M3708.3,1190.5c13,6.2,28.7,9.6,38.6,19.1c20.5,19.6,38.3,42.1,56.4,64
			c10.5,12.8,7.4,26.2-2.6,38.2c-9.3,11.1-14.2,31.9-34.8,22.8c-15.7-7-30.8-17-43.8-28.3c-21.3-18.7-41.8-38.3-44.2-70
			C3676,1211.6,3686.3,1194.5,3708.3,1190.5z M3749.2,1233.1c0.2,0,0.3,0,0.5-0.1c-0.2,0.1-0.4,0.2-0.7,0.3
			c-5.2-5.3-9.6-12.9-15.9-15.4c-10.9-4.3-23.9-9.1-34.2-6.5c-4.7,1.2-8.3,20.1-6.7,30c5.6,34.7,31.8,52.6,59.7,69.7
			c15.6,9.5,23.5,3.5,33.7-7c11.6-11.9,8.3-22.3-0.2-33.3c-1.2-1.5-2.6-2.9-4-4.3c-0.6,2-0.5,4.5-1.8,5.8
			c-8.1,8-16.2,16.1-24.9,23.4c-1.4,1.2-6.6-0.1-8.5-1.9c-7.5-7.4-16.6-14.3-20.8-23.5c-3.9-8.5-5.8-21.5-1.8-28.9
			C3726.7,1235.6,3740.3,1235.6,3749.2,1233.1z M3732.2,1259.2c5.4,6.2,9.3,13.8,15.5,16.6c3.3,1.5,10.4-5,15.7-7.9
			c-7.8-6.9-15.6-13.8-23.4-20.8C3737.9,1250.4,3735.7,1253.7,3732.2,1259.2z"/>
		<path id="XMLID_484_" class="st0" d="M3513.3,1140.6c1.1,6,2.3,12,3.3,18c4.3,26.6,7.6,53.3,13.3,79.6c1.6,7.4,8.7,15,15.2,19.9
			c24.4,18.5,9.5,70.3-18.3,77.1c-3,0.7-5.6,3.3-8.3,5c0.6,0.7,1.4,2.2,1.7,2.1c2.8-1.1,5.4-2.6,8.2-3.7c1.6-0.6,4.7-1.1,4.9-0.7
			c1.1,2.6,2.9,6.2,1.9,8.1c-1.6,3-5.8,7.3-7.8,6.8c-20.1-4.8-42.9-6.2-59.4-17c-20.8-13.6-40.3-32.7-53.2-53.9
			c-15.5-25.5,1-61.6,38.4-52.1c17,4.3,35.4,2.8,53.2,3.4c0.9,0,3.2-4.9,2.8-7.2c-3.6-22-7.4-44-11.7-65.8
			c-2.7-13.6-0.2-22,16.2-19.3L3513.3,1140.6z M3491.5,1246.8l0.1-0.2c17.1,20.6,21.3,41.9,2.3,63.5c-2.5,2.9-9.3,5.5-12.1,4.2
			c-25-12-31.4-35.9-36.9-60.2c-0.8-3.7-2.2-7.3-3.4-11c-5,2.6-12.8,4-14.5,8c-2.7,6.5-3.5,15.2-1.5,22c9,30.3,35.3,44.4,59.4,60.1
			c7.1,4.6,15.2,7.5,12.6-7.5c-0.6-3.5,3.5-7.9,5.5-11.8c1.7,2.4,3.1,5,5,7.2c1,1.2,3,2.5,4.3,2.3c15.7-2.8,24.7-13.4,26.7-28.1
			c1.1-7.9,0.1-20.2-4.9-24.1C3521.5,1261,3506,1254.6,3491.5,1246.8z M3491.4,1282.2c-3.3-7-4.8-13.4-8.6-17.3
			c-5.3-5.3-12.6-8.7-19-12.9c0.5,6.8,0.6,13.7,1.8,20.4c0.8,4.8,2.5,9.8,5,13.9c2.7,4.3,6.9,7.7,10.4,11.5
			C3484.4,1292.7,3487.9,1287.5,3491.4,1282.2z"/>
		<path id="XMLID_485_" class="st0" d="M4165.6,2060.9c-0.7-0.7-1.4-1.4-2.1-2.1c0-1.4,0-2.7,0-4.1c0.7-0.7,1.4-1.3,2-2
			c1.4-0.7,2.8-1.4,4.1-2.1C4168.3,2054,4166.9,2057.5,4165.6,2060.9z"/>
		<path id="XMLID_486_" class="st0" d="M4215,1976.4c-1,6.2-1.9,11.7-2.9,17.1c0,0.2-1.8,0-2.8,0c0.7-7.8,1.3-15.6,2.1-23.4
			c0-0.3,1.5-0.4,2.4-0.6C4214.2,1972.2,4214.7,1974.8,4215,1976.4z"/>
		<path id="XMLID_487_" class="st0" d="M4167.8,2013.1c0-0.3,0-0.6,0-0.9c0,0,0.2,0,0.3,0c-0.2,0.2-0.3,0.5-0.5,0.8L4167.8,2013.1z"
			/>
	</g>
</g>
</svg>
